%TF.GenerationSoftware,KiCad,Pcbnew,9.0.4*%
%TF.CreationDate,2025-10-16T13:31:45+09:00*%
%TF.ProjectId,HAM_Seminiar_Opamp,48414d5f-5365-46d6-996e-6961725f4f70,rev?*%
%TF.SameCoordinates,Original*%
%TF.FileFunction,Soldermask,Top*%
%TF.FilePolarity,Negative*%
%FSLAX46Y46*%
G04 Gerber Fmt 4.6, Leading zero omitted, Abs format (unit mm)*
G04 Created by KiCad (PCBNEW 9.0.4) date 2025-10-16 13:31:45*
%MOMM*%
%LPD*%
G01*
G04 APERTURE LIST*
G04 Aperture macros list*
%AMRoundRect*
0 Rectangle with rounded corners*
0 $1 Rounding radius*
0 $2 $3 $4 $5 $6 $7 $8 $9 X,Y pos of 4 corners*
0 Add a 4 corners polygon primitive as box body*
4,1,4,$2,$3,$4,$5,$6,$7,$8,$9,$2,$3,0*
0 Add four circle primitives for the rounded corners*
1,1,$1+$1,$2,$3*
1,1,$1+$1,$4,$5*
1,1,$1+$1,$6,$7*
1,1,$1+$1,$8,$9*
0 Add four rect primitives between the rounded corners*
20,1,$1+$1,$2,$3,$4,$5,0*
20,1,$1+$1,$4,$5,$6,$7,0*
20,1,$1+$1,$6,$7,$8,$9,0*
20,1,$1+$1,$8,$9,$2,$3,0*%
G04 Aperture macros list end*
%ADD10R,1.800000X1.800000*%
%ADD11C,1.800000*%
%ADD12RoundRect,0.250000X-0.550000X-0.550000X0.550000X-0.550000X0.550000X0.550000X-0.550000X0.550000X0*%
%ADD13C,1.600000*%
%ADD14R,1.700000X1.700000*%
%ADD15C,1.700000*%
%ADD16C,1.270000*%
%ADD17RoundRect,0.250001X-0.759999X0.499999X-0.759999X-0.499999X0.759999X-0.499999X0.759999X0.499999X0*%
%ADD18O,2.020000X1.500000*%
%ADD19RoundRect,0.375000X0.375000X-0.625000X0.375000X0.625000X-0.375000X0.625000X-0.375000X-0.625000X0*%
%ADD20RoundRect,0.500000X1.400000X-0.500000X1.400000X0.500000X-1.400000X0.500000X-1.400000X-0.500000X0*%
G04 APERTURE END LIST*
D10*
%TO.C,D1*%
X164460000Y-76080000D03*
D11*
X167000000Y-76080000D03*
%TD*%
D12*
%TO.C,U1*%
X92380000Y-98000000D03*
D13*
X92380000Y-100540000D03*
X92380000Y-103080000D03*
X92380000Y-105620000D03*
X100000000Y-105620000D03*
X100000000Y-103080000D03*
X100000000Y-100540000D03*
X100000000Y-98000000D03*
%TD*%
%TO.C,R10*%
X95000000Y-80000000D03*
X84840000Y-80000000D03*
%TD*%
%TO.C,R2*%
X109840000Y-90000000D03*
X120000000Y-90000000D03*
%TD*%
%TO.C,R3*%
X109840000Y-103000000D03*
X120000000Y-103000000D03*
%TD*%
D10*
%TO.C,D4*%
X164460000Y-124460000D03*
D11*
X167000000Y-124460000D03*
%TD*%
D13*
%TO.C,R9*%
X146300000Y-124460000D03*
X156460000Y-124460000D03*
%TD*%
D10*
%TO.C,D2*%
X164460000Y-92000000D03*
D11*
X167000000Y-92000000D03*
%TD*%
D13*
%TO.C,R6*%
X146380000Y-76000000D03*
X156540000Y-76000000D03*
%TD*%
%TO.C,R7*%
X146300000Y-92000000D03*
X156460000Y-92000000D03*
%TD*%
D14*
%TO.C,J1*%
X76380000Y-103080000D03*
D15*
X76380000Y-105620000D03*
%TD*%
D12*
%TO.C,U3*%
X130380000Y-72000000D03*
D13*
X130380000Y-74540000D03*
X130380000Y-77080000D03*
X130380000Y-79620000D03*
X138000000Y-79620000D03*
X138000000Y-77080000D03*
X138000000Y-74540000D03*
X138000000Y-72000000D03*
%TD*%
%TO.C,R5*%
X109920000Y-128000000D03*
X120080000Y-128000000D03*
%TD*%
D12*
%TO.C,U5*%
X130380000Y-88000000D03*
D13*
X130380000Y-90540000D03*
X130380000Y-93080000D03*
X130380000Y-95620000D03*
X138000000Y-95620000D03*
X138000000Y-93080000D03*
X138000000Y-90540000D03*
X138000000Y-88000000D03*
%TD*%
%TO.C,R1*%
X110380000Y-77000000D03*
X120540000Y-77000000D03*
%TD*%
%TO.C,R8*%
X146380000Y-108000000D03*
X156540000Y-108000000D03*
%TD*%
D12*
%TO.C,U4*%
X130380000Y-103920000D03*
D13*
X130380000Y-106460000D03*
X130380000Y-109000000D03*
X130380000Y-111540000D03*
X138000000Y-111540000D03*
X138000000Y-109000000D03*
X138000000Y-106460000D03*
X138000000Y-103920000D03*
%TD*%
D16*
%TO.C,SW1*%
X78000000Y-82000000D03*
X78000000Y-94000000D03*
D17*
X76040000Y-85000000D03*
D18*
X76040000Y-88000000D03*
X76040000Y-91000000D03*
%TD*%
D12*
%TO.C,U6*%
X130380000Y-120460000D03*
D13*
X130380000Y-123000000D03*
X130380000Y-125540000D03*
X130380000Y-128080000D03*
X138000000Y-128080000D03*
X138000000Y-125540000D03*
X138000000Y-123000000D03*
X138000000Y-120460000D03*
%TD*%
D10*
%TO.C,D5*%
X88460000Y-72000000D03*
D11*
X91000000Y-72000000D03*
%TD*%
D14*
%TO.C,BT1*%
X76380000Y-70540000D03*
D15*
X76380000Y-73080000D03*
%TD*%
D10*
%TO.C,D3*%
X164460000Y-108000000D03*
D11*
X167000000Y-108000000D03*
%TD*%
D13*
%TO.C,R4*%
X109840000Y-115000000D03*
X120000000Y-115000000D03*
%TD*%
D19*
%TO.C,U2*%
X99700000Y-76300000D03*
X102000000Y-76300000D03*
D20*
X102000000Y-70000000D03*
D19*
X104300000Y-76300000D03*
%TD*%
M02*
