%TF.GenerationSoftware,KiCad,Pcbnew,9.0.4*%
%TF.CreationDate,2025-10-16T13:31:45+09:00*%
%TF.ProjectId,HAM_Seminiar_Opamp,48414d5f-5365-46d6-996e-6961725f4f70,rev?*%
%TF.SameCoordinates,Original*%
%TF.FileFunction,Copper,L2,Bot*%
%TF.FilePolarity,Positive*%
%FSLAX46Y46*%
G04 Gerber Fmt 4.6, Leading zero omitted, Abs format (unit mm)*
G04 Created by KiCad (PCBNEW 9.0.4) date 2025-10-16 13:31:45*
%MOMM*%
%LPD*%
G01*
G04 APERTURE LIST*
G04 Aperture macros list*
%AMRoundRect*
0 Rectangle with rounded corners*
0 $1 Rounding radius*
0 $2 $3 $4 $5 $6 $7 $8 $9 X,Y pos of 4 corners*
0 Add a 4 corners polygon primitive as box body*
4,1,4,$2,$3,$4,$5,$6,$7,$8,$9,$2,$3,0*
0 Add four circle primitives for the rounded corners*
1,1,$1+$1,$2,$3*
1,1,$1+$1,$4,$5*
1,1,$1+$1,$6,$7*
1,1,$1+$1,$8,$9*
0 Add four rect primitives between the rounded corners*
20,1,$1+$1,$2,$3,$4,$5,0*
20,1,$1+$1,$4,$5,$6,$7,0*
20,1,$1+$1,$6,$7,$8,$9,0*
20,1,$1+$1,$8,$9,$2,$3,0*%
G04 Aperture macros list end*
%TA.AperFunction,ComponentPad*%
%ADD10R,1.800000X1.800000*%
%TD*%
%TA.AperFunction,ComponentPad*%
%ADD11C,1.800000*%
%TD*%
%TA.AperFunction,ComponentPad*%
%ADD12RoundRect,0.250000X-0.550000X-0.550000X0.550000X-0.550000X0.550000X0.550000X-0.550000X0.550000X0*%
%TD*%
%TA.AperFunction,ComponentPad*%
%ADD13C,1.600000*%
%TD*%
%TA.AperFunction,ComponentPad*%
%ADD14R,1.700000X1.700000*%
%TD*%
%TA.AperFunction,ComponentPad*%
%ADD15C,1.700000*%
%TD*%
%TA.AperFunction,ComponentPad*%
%ADD16RoundRect,0.250001X-0.759999X0.499999X-0.759999X-0.499999X0.759999X-0.499999X0.759999X0.499999X0*%
%TD*%
%TA.AperFunction,ComponentPad*%
%ADD17O,2.020000X1.500000*%
%TD*%
%TA.AperFunction,Conductor*%
%ADD18C,0.200000*%
%TD*%
G04 APERTURE END LIST*
D10*
%TO.P,D1,1,K*%
%TO.N,Net-(D1-K)*%
X164460000Y-76080000D03*
D11*
%TO.P,D1,2,A*%
%TO.N,+3V0*%
X167000000Y-76080000D03*
%TD*%
D12*
%TO.P,U1,1,NULL*%
%TO.N,unconnected-(U1-NULL-Pad1)*%
X92380000Y-98000000D03*
D13*
%TO.P,U1,2,-*%
%TO.N,Net-(U1--)*%
X92380000Y-100540000D03*
%TO.P,U1,3,+*%
%TO.N,Net-(J1-Pin_1)*%
X92380000Y-103080000D03*
%TO.P,U1,4,V-*%
%TO.N,GND*%
X92380000Y-105620000D03*
%TO.P,U1,5,NULL*%
%TO.N,unconnected-(U1-NULL-Pad5)*%
X100000000Y-105620000D03*
%TO.P,U1,6*%
%TO.N,Net-(U1--)*%
X100000000Y-103080000D03*
%TO.P,U1,7,V+*%
%TO.N,+3V0*%
X100000000Y-100540000D03*
%TO.P,U1,8,NC*%
%TO.N,unconnected-(U1-NC-Pad8)*%
X100000000Y-98000000D03*
%TD*%
%TO.P,R10,1*%
%TO.N,GND*%
X95000000Y-80000000D03*
%TO.P,R10,2*%
%TO.N,Net-(D5-K)*%
X84840000Y-80000000D03*
%TD*%
%TO.P,R2,1*%
%TO.N,Net-(U3--)*%
X109840000Y-90000000D03*
%TO.P,R2,2*%
%TO.N,Net-(U5--)*%
X120000000Y-90000000D03*
%TD*%
%TO.P,R3,1*%
%TO.N,Net-(U5--)*%
X109840000Y-103000000D03*
%TO.P,R3,2*%
%TO.N,Net-(U4--)*%
X120000000Y-103000000D03*
%TD*%
D10*
%TO.P,D4,1,K*%
%TO.N,Net-(D4-K)*%
X164460000Y-124460000D03*
D11*
%TO.P,D4,2,A*%
%TO.N,+3V0*%
X167000000Y-124460000D03*
%TD*%
D13*
%TO.P,R9,1*%
%TO.N,Net-(R9-Pad1)*%
X146300000Y-124460000D03*
%TO.P,R9,2*%
%TO.N,Net-(D4-K)*%
X156460000Y-124460000D03*
%TD*%
D10*
%TO.P,D2,1,K*%
%TO.N,Net-(D2-K)*%
X164460000Y-92000000D03*
D11*
%TO.P,D2,2,A*%
%TO.N,+3V0*%
X167000000Y-92000000D03*
%TD*%
D13*
%TO.P,R6,1*%
%TO.N,Net-(R6-Pad1)*%
X146380000Y-76000000D03*
%TO.P,R6,2*%
%TO.N,Net-(D1-K)*%
X156540000Y-76000000D03*
%TD*%
%TO.P,R7,1*%
%TO.N,Net-(R7-Pad1)*%
X146300000Y-92000000D03*
%TO.P,R7,2*%
%TO.N,Net-(D2-K)*%
X156460000Y-92000000D03*
%TD*%
D14*
%TO.P,J1,1,Pin_1*%
%TO.N,Net-(J1-Pin_1)*%
X76380000Y-103080000D03*
D15*
%TO.P,J1,2,Pin_2*%
%TO.N,GND*%
X76380000Y-105620000D03*
%TD*%
D12*
%TO.P,U3,1,GND*%
%TO.N,unconnected-(U3-GND-Pad1)*%
X130380000Y-72000000D03*
D13*
%TO.P,U3,2,+*%
%TO.N,Net-(U1--)*%
X130380000Y-74540000D03*
%TO.P,U3,3,-*%
%TO.N,Net-(U3--)*%
X130380000Y-77080000D03*
%TO.P,U3,4,V-*%
%TO.N,GND*%
X130380000Y-79620000D03*
%TO.P,U3,5,BAL*%
%TO.N,unconnected-(U3-BAL-Pad5)*%
X138000000Y-79620000D03*
%TO.P,U3,6,STRB*%
%TO.N,unconnected-(U3-STRB-Pad6)*%
X138000000Y-77080000D03*
%TO.P,U3,7*%
%TO.N,Net-(R6-Pad1)*%
X138000000Y-74540000D03*
%TO.P,U3,8,V+*%
%TO.N,+3V0*%
X138000000Y-72000000D03*
%TD*%
%TO.P,R5,1*%
%TO.N,Net-(U6--)*%
X109920000Y-128000000D03*
%TO.P,R5,2*%
%TO.N,GND*%
X120080000Y-128000000D03*
%TD*%
D12*
%TO.P,U5,1,GND*%
%TO.N,unconnected-(U5-GND-Pad1)*%
X130380000Y-88000000D03*
D13*
%TO.P,U5,2,+*%
%TO.N,Net-(U1--)*%
X130380000Y-90540000D03*
%TO.P,U5,3,-*%
%TO.N,Net-(U5--)*%
X130380000Y-93080000D03*
%TO.P,U5,4,V-*%
%TO.N,GND*%
X130380000Y-95620000D03*
%TO.P,U5,5,BAL*%
%TO.N,unconnected-(U5-BAL-Pad5)*%
X138000000Y-95620000D03*
%TO.P,U5,6,STRB*%
%TO.N,unconnected-(U5-STRB-Pad6)*%
X138000000Y-93080000D03*
%TO.P,U5,7*%
%TO.N,Net-(R7-Pad1)*%
X138000000Y-90540000D03*
%TO.P,U5,8,V+*%
%TO.N,+3V0*%
X138000000Y-88000000D03*
%TD*%
%TO.P,R1,1*%
%TO.N,Net-(U2-VO)*%
X110380000Y-77000000D03*
%TO.P,R1,2*%
%TO.N,Net-(U3--)*%
X120540000Y-77000000D03*
%TD*%
%TO.P,R8,1*%
%TO.N,Net-(R8-Pad1)*%
X146380000Y-108000000D03*
%TO.P,R8,2*%
%TO.N,Net-(D3-K)*%
X156540000Y-108000000D03*
%TD*%
D12*
%TO.P,U4,1,GND*%
%TO.N,unconnected-(U4-GND-Pad1)*%
X130380000Y-103920000D03*
D13*
%TO.P,U4,2,+*%
%TO.N,Net-(U1--)*%
X130380000Y-106460000D03*
%TO.P,U4,3,-*%
%TO.N,Net-(U4--)*%
X130380000Y-109000000D03*
%TO.P,U4,4,V-*%
%TO.N,GND*%
X130380000Y-111540000D03*
%TO.P,U4,5,BAL*%
%TO.N,unconnected-(U4-BAL-Pad5)*%
X138000000Y-111540000D03*
%TO.P,U4,6,STRB*%
%TO.N,unconnected-(U4-STRB-Pad6)*%
X138000000Y-109000000D03*
%TO.P,U4,7*%
%TO.N,Net-(R8-Pad1)*%
X138000000Y-106460000D03*
%TO.P,U4,8,V+*%
%TO.N,+3V0*%
X138000000Y-103920000D03*
%TD*%
D16*
%TO.P,SW1,1,A*%
%TO.N,+3V0*%
X76040000Y-85000000D03*
D17*
%TO.P,SW1,2,B*%
%TO.N,Net-(BT1-+)*%
X76040000Y-88000000D03*
%TO.P,SW1,3,C*%
%TO.N,unconnected-(SW1-C-Pad3)*%
X76040000Y-91000000D03*
%TD*%
D12*
%TO.P,U6,1,GND*%
%TO.N,unconnected-(U6-GND-Pad1)*%
X130380000Y-120460000D03*
D13*
%TO.P,U6,2,+*%
%TO.N,Net-(U1--)*%
X130380000Y-123000000D03*
%TO.P,U6,3,-*%
%TO.N,Net-(U6--)*%
X130380000Y-125540000D03*
%TO.P,U6,4,V-*%
%TO.N,GND*%
X130380000Y-128080000D03*
%TO.P,U6,5,BAL*%
%TO.N,unconnected-(U6-BAL-Pad5)*%
X138000000Y-128080000D03*
%TO.P,U6,6,STRB*%
%TO.N,unconnected-(U6-STRB-Pad6)*%
X138000000Y-125540000D03*
%TO.P,U6,7*%
%TO.N,Net-(R9-Pad1)*%
X138000000Y-123000000D03*
%TO.P,U6,8,V+*%
%TO.N,+3V0*%
X138000000Y-120460000D03*
%TD*%
D10*
%TO.P,D5,1,K*%
%TO.N,Net-(D5-K)*%
X88460000Y-72000000D03*
D11*
%TO.P,D5,2,A*%
%TO.N,+3V0*%
X91000000Y-72000000D03*
%TD*%
D14*
%TO.P,BT1,1,+*%
%TO.N,Net-(BT1-+)*%
X76380000Y-70540000D03*
D15*
%TO.P,BT1,2,-*%
%TO.N,GND*%
X76380000Y-73080000D03*
%TD*%
D10*
%TO.P,D3,1,K*%
%TO.N,Net-(D3-K)*%
X164460000Y-108000000D03*
D11*
%TO.P,D3,2,A*%
%TO.N,+3V0*%
X167000000Y-108000000D03*
%TD*%
D13*
%TO.P,R4,1*%
%TO.N,Net-(U4--)*%
X109840000Y-115000000D03*
%TO.P,R4,2*%
%TO.N,Net-(U6--)*%
X120000000Y-115000000D03*
%TD*%
D18*
%TO.N,GND*%
X116080000Y-132000000D02*
X120080000Y-128000000D01*
X106000000Y-132000000D02*
X116080000Y-132000000D01*
X92380000Y-118380000D02*
X106000000Y-132000000D01*
X92380000Y-105620000D02*
X92380000Y-118380000D01*
%TO.N,Net-(U1--)*%
X125460000Y-101540000D02*
X130380000Y-106460000D01*
X108000000Y-97000000D02*
X123920000Y-97000000D01*
X125460000Y-95460000D02*
X125460000Y-79460000D01*
X125460000Y-95460000D02*
X125460000Y-101000000D01*
X123920000Y-97000000D02*
X125460000Y-95460000D01*
X100000000Y-103080000D02*
X101920000Y-103080000D01*
X125460000Y-95460000D02*
X130380000Y-90540000D01*
X125460000Y-101000000D02*
X125460000Y-118080000D01*
X101920000Y-103080000D02*
X108000000Y-97000000D01*
X125460000Y-79460000D02*
X130380000Y-74540000D01*
X125460000Y-101000000D02*
X125460000Y-101540000D01*
X125460000Y-118080000D02*
X130380000Y-123000000D01*
%TO.N,Net-(BT1-+)*%
X76040000Y-88000000D02*
X72000000Y-83960000D01*
X72000000Y-74920000D02*
X76380000Y-70540000D01*
X72000000Y-83960000D02*
X72000000Y-74920000D01*
%TD*%
M02*
