M48
; DRILL file {KiCad 9.0.4} date 2025-10-16T13:31:43+0900
; FORMAT={-:-/ absolute / metric / decimal}
; #@! TF.CreationDate,2025-10-16T13:31:43+09:00
; #@! TF.GenerationSoftware,Kicad,Pcbnew,9.0.4
; #@! TF.FileFunction,Plated,1,2,PTH
FMAT,2
METRIC
; #@! TA.AperFunction,Plated,PTH,ComponentDrill
T1C0.800
; #@! TA.AperFunction,Plated,PTH,ComponentDrill
T2C0.900
; #@! TA.AperFunction,Plated,PTH,ComponentDrill
T3C1.000
; #@! TA.AperFunction,Plated,PTH,ComponentDrill
T4C1.020
%
G90
G05
T1
X84.84Y-80.0
X92.38Y-98.0
X92.38Y-100.54
X92.38Y-103.08
X92.38Y-105.62
X95.0Y-80.0
X100.0Y-98.0
X100.0Y-100.54
X100.0Y-103.08
X100.0Y-105.62
X109.84Y-90.0
X109.84Y-103.0
X109.84Y-115.0
X109.92Y-128.0
X110.38Y-77.0
X120.0Y-90.0
X120.0Y-103.0
X120.0Y-115.0
X120.08Y-128.0
X120.54Y-77.0
X130.38Y-72.0
X130.38Y-74.54
X130.38Y-77.08
X130.38Y-79.62
X130.38Y-88.0
X130.38Y-90.54
X130.38Y-93.08
X130.38Y-95.62
X130.38Y-103.92
X130.38Y-106.46
X130.38Y-109.0
X130.38Y-111.54
X130.38Y-120.46
X130.38Y-123.0
X130.38Y-125.54
X130.38Y-128.08
X138.0Y-72.0
X138.0Y-74.54
X138.0Y-77.08
X138.0Y-79.62
X138.0Y-88.0
X138.0Y-90.54
X138.0Y-93.08
X138.0Y-95.62
X138.0Y-103.92
X138.0Y-106.46
X138.0Y-109.0
X138.0Y-111.54
X138.0Y-120.46
X138.0Y-123.0
X138.0Y-125.54
X138.0Y-128.08
X146.3Y-92.0
X146.3Y-124.46
X146.38Y-76.0
X146.38Y-108.0
X156.46Y-92.0
X156.46Y-124.46
X156.54Y-76.0
X156.54Y-108.0
T2
X88.46Y-72.0
X91.0Y-72.0
X164.46Y-76.08
X164.46Y-92.0
X164.46Y-108.0
X164.46Y-124.46
X167.0Y-76.08
X167.0Y-92.0
X167.0Y-108.0
X167.0Y-124.46
T3
X76.38Y-70.54
X76.38Y-73.08
X76.38Y-103.08
X76.38Y-105.62
T4
X76.04Y-85.0
X76.04Y-88.0
X76.04Y-91.0
M30
