M48
; DRILL file {KiCad 9.0.4} date 2025-11-04T13:52:40+0900
; FORMAT={-:-/ absolute / metric / decimal}
; #@! TF.CreationDate,2025-11-04T13:52:40+09:00
; #@! TF.GenerationSoftware,Kicad,Pcbnew,9.0.4
; #@! TF.FileFunction,Plated,1,2,PTH
FMAT,2
METRIC
; #@! TA.AperFunction,Plated,PTH,ComponentDrill
T1C0.600
; #@! TA.AperFunction,Plated,PTH,ComponentDrill
T2C0.800
; #@! TA.AperFunction,Plated,PTH,ComponentDrill
T3C1.000
; #@! TA.AperFunction,Plated,PTH,ComponentDrill
T4C1.020
%
G90
G05
T1
X181.805Y-102.5
X181.805Y-104.5
T2
X180.5Y-94.0
X180.5Y-97.42
X181.805Y-81.92
X181.805Y-84.46
X181.805Y-87.0
X181.805Y-89.54
X189.305Y-101.0
X189.305Y-106.0
X189.425Y-81.92
X189.425Y-84.46
X189.425Y-87.0
X189.425Y-89.54
X190.66Y-94.0
X190.66Y-97.42
X196.88Y-84.42
X196.88Y-86.96
X196.88Y-89.5
X196.88Y-92.04
X196.88Y-94.58
X196.88Y-97.12
X196.88Y-99.66
X204.5Y-84.42
X204.5Y-86.96
X204.5Y-89.5
X204.5Y-92.04
X204.5Y-94.58
X204.5Y-97.12
X204.5Y-99.66
X211.5Y-83.46
X211.5Y-86.0
X211.5Y-88.54
X211.5Y-91.08
X211.5Y-93.62
X211.5Y-96.16
X211.5Y-98.7
X211.5Y-101.24
X219.12Y-83.46
X219.12Y-86.0
X219.12Y-88.54
X219.12Y-91.08
X219.12Y-93.62
X219.12Y-96.16
X219.12Y-98.7
X219.12Y-101.24
X225.84Y-83.2
X225.84Y-87.25
X225.84Y-91.3
X225.84Y-95.35
X225.84Y-99.4
X225.84Y-103.45
X225.84Y-107.5
X226.0Y-78.75
X236.0Y-83.2
X236.0Y-87.25
X236.0Y-91.3
X236.0Y-95.35
X236.0Y-99.4
X236.0Y-103.45
X236.0Y-107.5
X236.16Y-78.75
X241.92Y-85.757
X241.92Y-100.998
X244.46Y-85.757
X244.46Y-100.998
X247.0Y-85.757
X247.0Y-100.998
X249.54Y-85.757
X249.54Y-100.998
X252.08Y-85.757
X252.08Y-100.998
T3
X170.0Y-100.96
X170.0Y-103.5
T4
X170.0Y-85.0
X170.0Y-88.0
X170.0Y-91.0
M30
