%TF.GenerationSoftware,KiCad,Pcbnew,9.0.4*%
%TF.CreationDate,2025-11-04T13:52:42+09:00*%
%TF.ProjectId,HAM_Seminar,48414d5f-5365-46d6-996e-61722e6b6963,rev?*%
%TF.SameCoordinates,Original*%
%TF.FileFunction,Legend,Top*%
%TF.FilePolarity,Positive*%
%FSLAX46Y46*%
G04 Gerber Fmt 4.6, Leading zero omitted, Abs format (unit mm)*
G04 Created by KiCad (PCBNEW 9.0.4) date 2025-11-04 13:52:42*
%MOMM*%
%LPD*%
G01*
G04 APERTURE LIST*
%ADD10C,0.150000*%
%ADD11C,0.200000*%
%ADD12C,0.120000*%
G04 APERTURE END LIST*
D10*
X229913333Y-79204819D02*
X229341905Y-79204819D01*
X229627619Y-79204819D02*
X229627619Y-78204819D01*
X229627619Y-78204819D02*
X229532381Y-78347676D01*
X229532381Y-78347676D02*
X229437143Y-78442914D01*
X229437143Y-78442914D02*
X229341905Y-78490533D01*
X230532381Y-78204819D02*
X230627619Y-78204819D01*
X230627619Y-78204819D02*
X230722857Y-78252438D01*
X230722857Y-78252438D02*
X230770476Y-78300057D01*
X230770476Y-78300057D02*
X230818095Y-78395295D01*
X230818095Y-78395295D02*
X230865714Y-78585771D01*
X230865714Y-78585771D02*
X230865714Y-78823866D01*
X230865714Y-78823866D02*
X230818095Y-79014342D01*
X230818095Y-79014342D02*
X230770476Y-79109580D01*
X230770476Y-79109580D02*
X230722857Y-79157200D01*
X230722857Y-79157200D02*
X230627619Y-79204819D01*
X230627619Y-79204819D02*
X230532381Y-79204819D01*
X230532381Y-79204819D02*
X230437143Y-79157200D01*
X230437143Y-79157200D02*
X230389524Y-79109580D01*
X230389524Y-79109580D02*
X230341905Y-79014342D01*
X230341905Y-79014342D02*
X230294286Y-78823866D01*
X230294286Y-78823866D02*
X230294286Y-78585771D01*
X230294286Y-78585771D02*
X230341905Y-78395295D01*
X230341905Y-78395295D02*
X230389524Y-78300057D01*
X230389524Y-78300057D02*
X230437143Y-78252438D01*
X230437143Y-78252438D02*
X230532381Y-78204819D01*
X231484762Y-78204819D02*
X231580000Y-78204819D01*
X231580000Y-78204819D02*
X231675238Y-78252438D01*
X231675238Y-78252438D02*
X231722857Y-78300057D01*
X231722857Y-78300057D02*
X231770476Y-78395295D01*
X231770476Y-78395295D02*
X231818095Y-78585771D01*
X231818095Y-78585771D02*
X231818095Y-78823866D01*
X231818095Y-78823866D02*
X231770476Y-79014342D01*
X231770476Y-79014342D02*
X231722857Y-79109580D01*
X231722857Y-79109580D02*
X231675238Y-79157200D01*
X231675238Y-79157200D02*
X231580000Y-79204819D01*
X231580000Y-79204819D02*
X231484762Y-79204819D01*
X231484762Y-79204819D02*
X231389524Y-79157200D01*
X231389524Y-79157200D02*
X231341905Y-79109580D01*
X231341905Y-79109580D02*
X231294286Y-79014342D01*
X231294286Y-79014342D02*
X231246667Y-78823866D01*
X231246667Y-78823866D02*
X231246667Y-78585771D01*
X231246667Y-78585771D02*
X231294286Y-78395295D01*
X231294286Y-78395295D02*
X231341905Y-78300057D01*
X231341905Y-78300057D02*
X231389524Y-78252438D01*
X231389524Y-78252438D02*
X231484762Y-78204819D01*
X232818095Y-79204819D02*
X232484762Y-78728628D01*
X232246667Y-79204819D02*
X232246667Y-78204819D01*
X232246667Y-78204819D02*
X232627619Y-78204819D01*
X232627619Y-78204819D02*
X232722857Y-78252438D01*
X232722857Y-78252438D02*
X232770476Y-78300057D01*
X232770476Y-78300057D02*
X232818095Y-78395295D01*
X232818095Y-78395295D02*
X232818095Y-78538152D01*
X232818095Y-78538152D02*
X232770476Y-78633390D01*
X232770476Y-78633390D02*
X232722857Y-78681009D01*
X232722857Y-78681009D02*
X232627619Y-78728628D01*
X232627619Y-78728628D02*
X232246667Y-78728628D01*
X174527255Y-84430043D02*
X174717731Y-84430043D01*
X174717731Y-84430043D02*
X174812969Y-84477662D01*
X174812969Y-84477662D02*
X174908207Y-84572900D01*
X174908207Y-84572900D02*
X174955826Y-84763376D01*
X174955826Y-84763376D02*
X174955826Y-85096709D01*
X174955826Y-85096709D02*
X174908207Y-85287185D01*
X174908207Y-85287185D02*
X174812969Y-85382424D01*
X174812969Y-85382424D02*
X174717731Y-85430043D01*
X174717731Y-85430043D02*
X174527255Y-85430043D01*
X174527255Y-85430043D02*
X174432017Y-85382424D01*
X174432017Y-85382424D02*
X174336779Y-85287185D01*
X174336779Y-85287185D02*
X174289160Y-85096709D01*
X174289160Y-85096709D02*
X174289160Y-84763376D01*
X174289160Y-84763376D02*
X174336779Y-84572900D01*
X174336779Y-84572900D02*
X174432017Y-84477662D01*
X174432017Y-84477662D02*
X174527255Y-84430043D01*
X175384398Y-85430043D02*
X175384398Y-84430043D01*
X175384398Y-84430043D02*
X175955826Y-85430043D01*
X175955826Y-85430043D02*
X175955826Y-84430043D01*
X174527255Y-90869819D02*
X174717731Y-90869819D01*
X174717731Y-90869819D02*
X174812969Y-90917438D01*
X174812969Y-90917438D02*
X174908207Y-91012676D01*
X174908207Y-91012676D02*
X174955826Y-91203152D01*
X174955826Y-91203152D02*
X174955826Y-91536485D01*
X174955826Y-91536485D02*
X174908207Y-91726961D01*
X174908207Y-91726961D02*
X174812969Y-91822200D01*
X174812969Y-91822200D02*
X174717731Y-91869819D01*
X174717731Y-91869819D02*
X174527255Y-91869819D01*
X174527255Y-91869819D02*
X174432017Y-91822200D01*
X174432017Y-91822200D02*
X174336779Y-91726961D01*
X174336779Y-91726961D02*
X174289160Y-91536485D01*
X174289160Y-91536485D02*
X174289160Y-91203152D01*
X174289160Y-91203152D02*
X174336779Y-91012676D01*
X174336779Y-91012676D02*
X174432017Y-90917438D01*
X174432017Y-90917438D02*
X174527255Y-90869819D01*
X175717731Y-91346009D02*
X175384398Y-91346009D01*
X175384398Y-91869819D02*
X175384398Y-90869819D01*
X175384398Y-90869819D02*
X175860588Y-90869819D01*
X176574874Y-91346009D02*
X176241541Y-91346009D01*
X176241541Y-91869819D02*
X176241541Y-90869819D01*
X176241541Y-90869819D02*
X176717731Y-90869819D01*
X184860588Y-97869819D02*
X184289160Y-97869819D01*
X184574874Y-97869819D02*
X184574874Y-96869819D01*
X184574874Y-96869819D02*
X184479636Y-97012676D01*
X184479636Y-97012676D02*
X184384398Y-97107914D01*
X184384398Y-97107914D02*
X184289160Y-97155533D01*
X185479636Y-96869819D02*
X185574874Y-96869819D01*
X185574874Y-96869819D02*
X185670112Y-96917438D01*
X185670112Y-96917438D02*
X185717731Y-96965057D01*
X185717731Y-96965057D02*
X185765350Y-97060295D01*
X185765350Y-97060295D02*
X185812969Y-97250771D01*
X185812969Y-97250771D02*
X185812969Y-97488866D01*
X185812969Y-97488866D02*
X185765350Y-97679342D01*
X185765350Y-97679342D02*
X185717731Y-97774580D01*
X185717731Y-97774580D02*
X185670112Y-97822200D01*
X185670112Y-97822200D02*
X185574874Y-97869819D01*
X185574874Y-97869819D02*
X185479636Y-97869819D01*
X185479636Y-97869819D02*
X185384398Y-97822200D01*
X185384398Y-97822200D02*
X185336779Y-97774580D01*
X185336779Y-97774580D02*
X185289160Y-97679342D01*
X185289160Y-97679342D02*
X185241541Y-97488866D01*
X185241541Y-97488866D02*
X185241541Y-97250771D01*
X185241541Y-97250771D02*
X185289160Y-97060295D01*
X185289160Y-97060295D02*
X185336779Y-96965057D01*
X185336779Y-96965057D02*
X185384398Y-96917438D01*
X185384398Y-96917438D02*
X185479636Y-96869819D01*
X186241541Y-97869819D02*
X186241541Y-96869819D01*
X186336779Y-97488866D02*
X186622493Y-97869819D01*
X186622493Y-97203152D02*
X186241541Y-97584104D01*
X180860588Y-107869819D02*
X180289160Y-107869819D01*
X180574874Y-107869819D02*
X180574874Y-106869819D01*
X180574874Y-106869819D02*
X180479636Y-107012676D01*
X180479636Y-107012676D02*
X180384398Y-107107914D01*
X180384398Y-107107914D02*
X180289160Y-107155533D01*
X181479636Y-106869819D02*
X181574874Y-106869819D01*
X181574874Y-106869819D02*
X181670112Y-106917438D01*
X181670112Y-106917438D02*
X181717731Y-106965057D01*
X181717731Y-106965057D02*
X181765350Y-107060295D01*
X181765350Y-107060295D02*
X181812969Y-107250771D01*
X181812969Y-107250771D02*
X181812969Y-107488866D01*
X181812969Y-107488866D02*
X181765350Y-107679342D01*
X181765350Y-107679342D02*
X181717731Y-107774580D01*
X181717731Y-107774580D02*
X181670112Y-107822200D01*
X181670112Y-107822200D02*
X181574874Y-107869819D01*
X181574874Y-107869819D02*
X181479636Y-107869819D01*
X181479636Y-107869819D02*
X181384398Y-107822200D01*
X181384398Y-107822200D02*
X181336779Y-107774580D01*
X181336779Y-107774580D02*
X181289160Y-107679342D01*
X181289160Y-107679342D02*
X181241541Y-107488866D01*
X181241541Y-107488866D02*
X181241541Y-107250771D01*
X181241541Y-107250771D02*
X181289160Y-107060295D01*
X181289160Y-107060295D02*
X181336779Y-106965057D01*
X181336779Y-106965057D02*
X181384398Y-106917438D01*
X181384398Y-106917438D02*
X181479636Y-106869819D01*
X182670112Y-107203152D02*
X182670112Y-107869819D01*
X182241541Y-107203152D02*
X182241541Y-107726961D01*
X182241541Y-107726961D02*
X182289160Y-107822200D01*
X182289160Y-107822200D02*
X182384398Y-107869819D01*
X182384398Y-107869819D02*
X182527255Y-107869819D01*
X182527255Y-107869819D02*
X182622493Y-107822200D01*
X182622493Y-107822200D02*
X182670112Y-107774580D01*
X183479636Y-107346009D02*
X183146303Y-107346009D01*
X183146303Y-107869819D02*
X183146303Y-106869819D01*
X183146303Y-106869819D02*
X183622493Y-106869819D01*
X173336779Y-101378922D02*
X174098684Y-101378922D01*
X173717731Y-101759875D02*
X173717731Y-100997970D01*
X173336779Y-102988866D02*
X174098684Y-102988866D01*
X177836779Y-102378922D02*
X178598684Y-102378922D01*
X178217731Y-102759875D02*
X178217731Y-101997970D01*
X177836779Y-103988866D02*
X178598684Y-103988866D01*
X187408207Y-108274580D02*
X187360588Y-108322200D01*
X187360588Y-108322200D02*
X187217731Y-108369819D01*
X187217731Y-108369819D02*
X187122493Y-108369819D01*
X187122493Y-108369819D02*
X186979636Y-108322200D01*
X186979636Y-108322200D02*
X186884398Y-108226961D01*
X186884398Y-108226961D02*
X186836779Y-108131723D01*
X186836779Y-108131723D02*
X186789160Y-107941247D01*
X186789160Y-107941247D02*
X186789160Y-107798390D01*
X186789160Y-107798390D02*
X186836779Y-107607914D01*
X186836779Y-107607914D02*
X186884398Y-107512676D01*
X186884398Y-107512676D02*
X186979636Y-107417438D01*
X186979636Y-107417438D02*
X187122493Y-107369819D01*
X187122493Y-107369819D02*
X187217731Y-107369819D01*
X187217731Y-107369819D02*
X187360588Y-107417438D01*
X187360588Y-107417438D02*
X187408207Y-107465057D01*
X188217731Y-108322200D02*
X188122493Y-108369819D01*
X188122493Y-108369819D02*
X187932017Y-108369819D01*
X187932017Y-108369819D02*
X187836779Y-108322200D01*
X187836779Y-108322200D02*
X187789160Y-108226961D01*
X187789160Y-108226961D02*
X187789160Y-107846009D01*
X187789160Y-107846009D02*
X187836779Y-107750771D01*
X187836779Y-107750771D02*
X187932017Y-107703152D01*
X187932017Y-107703152D02*
X188122493Y-107703152D01*
X188122493Y-107703152D02*
X188217731Y-107750771D01*
X188217731Y-107750771D02*
X188265350Y-107846009D01*
X188265350Y-107846009D02*
X188265350Y-107941247D01*
X188265350Y-107941247D02*
X187789160Y-108036485D01*
X188693922Y-108369819D02*
X188693922Y-107703152D01*
X188693922Y-107893628D02*
X188741541Y-107798390D01*
X188741541Y-107798390D02*
X188789160Y-107750771D01*
X188789160Y-107750771D02*
X188884398Y-107703152D01*
X188884398Y-107703152D02*
X188979636Y-107703152D01*
X189741541Y-108369819D02*
X189741541Y-107846009D01*
X189741541Y-107846009D02*
X189693922Y-107750771D01*
X189693922Y-107750771D02*
X189598684Y-107703152D01*
X189598684Y-107703152D02*
X189408208Y-107703152D01*
X189408208Y-107703152D02*
X189312970Y-107750771D01*
X189741541Y-108322200D02*
X189646303Y-108369819D01*
X189646303Y-108369819D02*
X189408208Y-108369819D01*
X189408208Y-108369819D02*
X189312970Y-108322200D01*
X189312970Y-108322200D02*
X189265351Y-108226961D01*
X189265351Y-108226961D02*
X189265351Y-108131723D01*
X189265351Y-108131723D02*
X189312970Y-108036485D01*
X189312970Y-108036485D02*
X189408208Y-107988866D01*
X189408208Y-107988866D02*
X189646303Y-107988866D01*
X189646303Y-107988866D02*
X189741541Y-107941247D01*
X190217732Y-108369819D02*
X190217732Y-107703152D01*
X190217732Y-107798390D02*
X190265351Y-107750771D01*
X190265351Y-107750771D02*
X190360589Y-107703152D01*
X190360589Y-107703152D02*
X190503446Y-107703152D01*
X190503446Y-107703152D02*
X190598684Y-107750771D01*
X190598684Y-107750771D02*
X190646303Y-107846009D01*
X190646303Y-107846009D02*
X190646303Y-108369819D01*
X190646303Y-107846009D02*
X190693922Y-107750771D01*
X190693922Y-107750771D02*
X190789160Y-107703152D01*
X190789160Y-107703152D02*
X190932017Y-107703152D01*
X190932017Y-107703152D02*
X191027256Y-107750771D01*
X191027256Y-107750771D02*
X191074875Y-107846009D01*
X191074875Y-107846009D02*
X191074875Y-108369819D01*
X191551065Y-108369819D02*
X191551065Y-107703152D01*
X191551065Y-107369819D02*
X191503446Y-107417438D01*
X191503446Y-107417438D02*
X191551065Y-107465057D01*
X191551065Y-107465057D02*
X191598684Y-107417438D01*
X191598684Y-107417438D02*
X191551065Y-107369819D01*
X191551065Y-107369819D02*
X191551065Y-107465057D01*
X192455826Y-108322200D02*
X192360588Y-108369819D01*
X192360588Y-108369819D02*
X192170112Y-108369819D01*
X192170112Y-108369819D02*
X192074874Y-108322200D01*
X192074874Y-108322200D02*
X192027255Y-108274580D01*
X192027255Y-108274580D02*
X191979636Y-108179342D01*
X191979636Y-108179342D02*
X191979636Y-107893628D01*
X191979636Y-107893628D02*
X192027255Y-107798390D01*
X192027255Y-107798390D02*
X192074874Y-107750771D01*
X192074874Y-107750771D02*
X192170112Y-107703152D01*
X192170112Y-107703152D02*
X192360588Y-107703152D01*
X192360588Y-107703152D02*
X192455826Y-107750771D01*
D11*
X167512530Y-76524950D02*
X167512530Y-74524950D01*
X167512530Y-74524950D02*
X168122054Y-74524950D01*
X168122054Y-74524950D02*
X168274435Y-74620188D01*
X168274435Y-74620188D02*
X168350625Y-74715426D01*
X168350625Y-74715426D02*
X168426816Y-74905902D01*
X168426816Y-74905902D02*
X168426816Y-75191616D01*
X168426816Y-75191616D02*
X168350625Y-75382092D01*
X168350625Y-75382092D02*
X168274435Y-75477331D01*
X168274435Y-75477331D02*
X168122054Y-75572569D01*
X168122054Y-75572569D02*
X167512530Y-75572569D01*
X170026816Y-76334473D02*
X169950625Y-76429712D01*
X169950625Y-76429712D02*
X169722054Y-76524950D01*
X169722054Y-76524950D02*
X169569673Y-76524950D01*
X169569673Y-76524950D02*
X169341101Y-76429712D01*
X169341101Y-76429712D02*
X169188720Y-76239235D01*
X169188720Y-76239235D02*
X169112530Y-76048759D01*
X169112530Y-76048759D02*
X169036339Y-75667807D01*
X169036339Y-75667807D02*
X169036339Y-75382092D01*
X169036339Y-75382092D02*
X169112530Y-75001140D01*
X169112530Y-75001140D02*
X169188720Y-74810664D01*
X169188720Y-74810664D02*
X169341101Y-74620188D01*
X169341101Y-74620188D02*
X169569673Y-74524950D01*
X169569673Y-74524950D02*
X169722054Y-74524950D01*
X169722054Y-74524950D02*
X169950625Y-74620188D01*
X169950625Y-74620188D02*
X170026816Y-74715426D01*
X171245863Y-75477331D02*
X171474435Y-75572569D01*
X171474435Y-75572569D02*
X171550625Y-75667807D01*
X171550625Y-75667807D02*
X171626816Y-75858283D01*
X171626816Y-75858283D02*
X171626816Y-76143997D01*
X171626816Y-76143997D02*
X171550625Y-76334473D01*
X171550625Y-76334473D02*
X171474435Y-76429712D01*
X171474435Y-76429712D02*
X171322054Y-76524950D01*
X171322054Y-76524950D02*
X170712530Y-76524950D01*
X170712530Y-76524950D02*
X170712530Y-74524950D01*
X170712530Y-74524950D02*
X171245863Y-74524950D01*
X171245863Y-74524950D02*
X171398244Y-74620188D01*
X171398244Y-74620188D02*
X171474435Y-74715426D01*
X171474435Y-74715426D02*
X171550625Y-74905902D01*
X171550625Y-74905902D02*
X171550625Y-75096378D01*
X171550625Y-75096378D02*
X171474435Y-75286854D01*
X171474435Y-75286854D02*
X171398244Y-75382092D01*
X171398244Y-75382092D02*
X171245863Y-75477331D01*
X171245863Y-75477331D02*
X170712530Y-75477331D01*
X174064911Y-75477331D02*
X174293483Y-75572569D01*
X174293483Y-75572569D02*
X174369673Y-75667807D01*
X174369673Y-75667807D02*
X174445864Y-75858283D01*
X174445864Y-75858283D02*
X174445864Y-76143997D01*
X174445864Y-76143997D02*
X174369673Y-76334473D01*
X174369673Y-76334473D02*
X174293483Y-76429712D01*
X174293483Y-76429712D02*
X174141102Y-76524950D01*
X174141102Y-76524950D02*
X173531578Y-76524950D01*
X173531578Y-76524950D02*
X173531578Y-74524950D01*
X173531578Y-74524950D02*
X174064911Y-74524950D01*
X174064911Y-74524950D02*
X174217292Y-74620188D01*
X174217292Y-74620188D02*
X174293483Y-74715426D01*
X174293483Y-74715426D02*
X174369673Y-74905902D01*
X174369673Y-74905902D02*
X174369673Y-75096378D01*
X174369673Y-75096378D02*
X174293483Y-75286854D01*
X174293483Y-75286854D02*
X174217292Y-75382092D01*
X174217292Y-75382092D02*
X174064911Y-75477331D01*
X174064911Y-75477331D02*
X173531578Y-75477331D01*
X175360149Y-76524950D02*
X175207768Y-76429712D01*
X175207768Y-76429712D02*
X175131578Y-76334473D01*
X175131578Y-76334473D02*
X175055387Y-76143997D01*
X175055387Y-76143997D02*
X175055387Y-75572569D01*
X175055387Y-75572569D02*
X175131578Y-75382092D01*
X175131578Y-75382092D02*
X175207768Y-75286854D01*
X175207768Y-75286854D02*
X175360149Y-75191616D01*
X175360149Y-75191616D02*
X175588721Y-75191616D01*
X175588721Y-75191616D02*
X175741102Y-75286854D01*
X175741102Y-75286854D02*
X175817292Y-75382092D01*
X175817292Y-75382092D02*
X175893483Y-75572569D01*
X175893483Y-75572569D02*
X175893483Y-76143997D01*
X175893483Y-76143997D02*
X175817292Y-76334473D01*
X175817292Y-76334473D02*
X175741102Y-76429712D01*
X175741102Y-76429712D02*
X175588721Y-76524950D01*
X175588721Y-76524950D02*
X175360149Y-76524950D01*
X177264911Y-76524950D02*
X177264911Y-75477331D01*
X177264911Y-75477331D02*
X177188721Y-75286854D01*
X177188721Y-75286854D02*
X177036340Y-75191616D01*
X177036340Y-75191616D02*
X176731578Y-75191616D01*
X176731578Y-75191616D02*
X176579197Y-75286854D01*
X177264911Y-76429712D02*
X177112530Y-76524950D01*
X177112530Y-76524950D02*
X176731578Y-76524950D01*
X176731578Y-76524950D02*
X176579197Y-76429712D01*
X176579197Y-76429712D02*
X176503006Y-76239235D01*
X176503006Y-76239235D02*
X176503006Y-76048759D01*
X176503006Y-76048759D02*
X176579197Y-75858283D01*
X176579197Y-75858283D02*
X176731578Y-75763045D01*
X176731578Y-75763045D02*
X177112530Y-75763045D01*
X177112530Y-75763045D02*
X177264911Y-75667807D01*
X178026816Y-76524950D02*
X178026816Y-75191616D01*
X178026816Y-75572569D02*
X178103006Y-75382092D01*
X178103006Y-75382092D02*
X178179197Y-75286854D01*
X178179197Y-75286854D02*
X178331578Y-75191616D01*
X178331578Y-75191616D02*
X178483959Y-75191616D01*
X179703006Y-76524950D02*
X179703006Y-74524950D01*
X179703006Y-76429712D02*
X179550625Y-76524950D01*
X179550625Y-76524950D02*
X179245863Y-76524950D01*
X179245863Y-76524950D02*
X179093482Y-76429712D01*
X179093482Y-76429712D02*
X179017292Y-76334473D01*
X179017292Y-76334473D02*
X178941101Y-76143997D01*
X178941101Y-76143997D02*
X178941101Y-75572569D01*
X178941101Y-75572569D02*
X179017292Y-75382092D01*
X179017292Y-75382092D02*
X179093482Y-75286854D01*
X179093482Y-75286854D02*
X179245863Y-75191616D01*
X179245863Y-75191616D02*
X179550625Y-75191616D01*
X179550625Y-75191616D02*
X179703006Y-75286854D01*
X181683959Y-76524950D02*
X181683959Y-75191616D01*
X181683959Y-75382092D02*
X181760149Y-75286854D01*
X181760149Y-75286854D02*
X181912530Y-75191616D01*
X181912530Y-75191616D02*
X182141102Y-75191616D01*
X182141102Y-75191616D02*
X182293483Y-75286854D01*
X182293483Y-75286854D02*
X182369673Y-75477331D01*
X182369673Y-75477331D02*
X182369673Y-76524950D01*
X182369673Y-75477331D02*
X182445864Y-75286854D01*
X182445864Y-75286854D02*
X182598245Y-75191616D01*
X182598245Y-75191616D02*
X182826816Y-75191616D01*
X182826816Y-75191616D02*
X182979197Y-75286854D01*
X182979197Y-75286854D02*
X183055387Y-75477331D01*
X183055387Y-75477331D02*
X183055387Y-76524950D01*
X184503006Y-76524950D02*
X184503006Y-75477331D01*
X184503006Y-75477331D02*
X184426816Y-75286854D01*
X184426816Y-75286854D02*
X184274435Y-75191616D01*
X184274435Y-75191616D02*
X183969673Y-75191616D01*
X183969673Y-75191616D02*
X183817292Y-75286854D01*
X184503006Y-76429712D02*
X184350625Y-76524950D01*
X184350625Y-76524950D02*
X183969673Y-76524950D01*
X183969673Y-76524950D02*
X183817292Y-76429712D01*
X183817292Y-76429712D02*
X183741101Y-76239235D01*
X183741101Y-76239235D02*
X183741101Y-76048759D01*
X183741101Y-76048759D02*
X183817292Y-75858283D01*
X183817292Y-75858283D02*
X183969673Y-75763045D01*
X183969673Y-75763045D02*
X184350625Y-75763045D01*
X184350625Y-75763045D02*
X184503006Y-75667807D01*
X185950625Y-76524950D02*
X185950625Y-74524950D01*
X185950625Y-76429712D02*
X185798244Y-76524950D01*
X185798244Y-76524950D02*
X185493482Y-76524950D01*
X185493482Y-76524950D02*
X185341101Y-76429712D01*
X185341101Y-76429712D02*
X185264911Y-76334473D01*
X185264911Y-76334473D02*
X185188720Y-76143997D01*
X185188720Y-76143997D02*
X185188720Y-75572569D01*
X185188720Y-75572569D02*
X185264911Y-75382092D01*
X185264911Y-75382092D02*
X185341101Y-75286854D01*
X185341101Y-75286854D02*
X185493482Y-75191616D01*
X185493482Y-75191616D02*
X185798244Y-75191616D01*
X185798244Y-75191616D02*
X185950625Y-75286854D01*
X187322054Y-76429712D02*
X187169673Y-76524950D01*
X187169673Y-76524950D02*
X186864911Y-76524950D01*
X186864911Y-76524950D02*
X186712530Y-76429712D01*
X186712530Y-76429712D02*
X186636339Y-76239235D01*
X186636339Y-76239235D02*
X186636339Y-75477331D01*
X186636339Y-75477331D02*
X186712530Y-75286854D01*
X186712530Y-75286854D02*
X186864911Y-75191616D01*
X186864911Y-75191616D02*
X187169673Y-75191616D01*
X187169673Y-75191616D02*
X187322054Y-75286854D01*
X187322054Y-75286854D02*
X187398244Y-75477331D01*
X187398244Y-75477331D02*
X187398244Y-75667807D01*
X187398244Y-75667807D02*
X186636339Y-75858283D01*
X189303007Y-76524950D02*
X189303007Y-75191616D01*
X189303007Y-74524950D02*
X189226816Y-74620188D01*
X189226816Y-74620188D02*
X189303007Y-74715426D01*
X189303007Y-74715426D02*
X189379197Y-74620188D01*
X189379197Y-74620188D02*
X189303007Y-74524950D01*
X189303007Y-74524950D02*
X189303007Y-74715426D01*
X190064912Y-75191616D02*
X190064912Y-76524950D01*
X190064912Y-75382092D02*
X190141102Y-75286854D01*
X190141102Y-75286854D02*
X190293483Y-75191616D01*
X190293483Y-75191616D02*
X190522055Y-75191616D01*
X190522055Y-75191616D02*
X190674436Y-75286854D01*
X190674436Y-75286854D02*
X190750626Y-75477331D01*
X190750626Y-75477331D02*
X190750626Y-76524950D01*
X192731579Y-76524950D02*
X192731579Y-74524950D01*
X193645865Y-76524950D02*
X192960150Y-75382092D01*
X193645865Y-74524950D02*
X192731579Y-75667807D01*
X194331579Y-76524950D02*
X194331579Y-74524950D01*
X194331579Y-75477331D02*
X195245865Y-75477331D01*
X195245865Y-76524950D02*
X195245865Y-74524950D01*
X196007769Y-74524950D02*
X196007769Y-76143997D01*
X196007769Y-76143997D02*
X196083959Y-76334473D01*
X196083959Y-76334473D02*
X196160150Y-76429712D01*
X196160150Y-76429712D02*
X196312531Y-76524950D01*
X196312531Y-76524950D02*
X196617293Y-76524950D01*
X196617293Y-76524950D02*
X196769674Y-76429712D01*
X196769674Y-76429712D02*
X196845864Y-76334473D01*
X196845864Y-76334473D02*
X196922055Y-76143997D01*
X196922055Y-76143997D02*
X196922055Y-74524950D01*
X198903007Y-76524950D02*
X198903007Y-74524950D01*
X198903007Y-75477331D02*
X199817293Y-75477331D01*
X199817293Y-76524950D02*
X199817293Y-74524950D01*
X200503006Y-75953521D02*
X201264911Y-75953521D01*
X200350625Y-76524950D02*
X200883959Y-74524950D01*
X200883959Y-74524950D02*
X201417292Y-76524950D01*
X201950626Y-76524950D02*
X201950626Y-74524950D01*
X201950626Y-74524950D02*
X202483959Y-75953521D01*
X202483959Y-75953521D02*
X203017293Y-74524950D01*
X203017293Y-74524950D02*
X203017293Y-76524950D01*
X167436339Y-77935314D02*
X167512530Y-77840076D01*
X167512530Y-77840076D02*
X167664911Y-77744838D01*
X167664911Y-77744838D02*
X168045863Y-77744838D01*
X168045863Y-77744838D02*
X168198244Y-77840076D01*
X168198244Y-77840076D02*
X168274435Y-77935314D01*
X168274435Y-77935314D02*
X168350625Y-78125790D01*
X168350625Y-78125790D02*
X168350625Y-78316266D01*
X168350625Y-78316266D02*
X168274435Y-78601980D01*
X168274435Y-78601980D02*
X167360149Y-79744838D01*
X167360149Y-79744838D02*
X168350625Y-79744838D01*
X169341102Y-77744838D02*
X169493483Y-77744838D01*
X169493483Y-77744838D02*
X169645864Y-77840076D01*
X169645864Y-77840076D02*
X169722054Y-77935314D01*
X169722054Y-77935314D02*
X169798245Y-78125790D01*
X169798245Y-78125790D02*
X169874435Y-78506742D01*
X169874435Y-78506742D02*
X169874435Y-78982933D01*
X169874435Y-78982933D02*
X169798245Y-79363885D01*
X169798245Y-79363885D02*
X169722054Y-79554361D01*
X169722054Y-79554361D02*
X169645864Y-79649600D01*
X169645864Y-79649600D02*
X169493483Y-79744838D01*
X169493483Y-79744838D02*
X169341102Y-79744838D01*
X169341102Y-79744838D02*
X169188721Y-79649600D01*
X169188721Y-79649600D02*
X169112530Y-79554361D01*
X169112530Y-79554361D02*
X169036340Y-79363885D01*
X169036340Y-79363885D02*
X168960149Y-78982933D01*
X168960149Y-78982933D02*
X168960149Y-78506742D01*
X168960149Y-78506742D02*
X169036340Y-78125790D01*
X169036340Y-78125790D02*
X169112530Y-77935314D01*
X169112530Y-77935314D02*
X169188721Y-77840076D01*
X169188721Y-77840076D02*
X169341102Y-77744838D01*
X170483959Y-77935314D02*
X170560150Y-77840076D01*
X170560150Y-77840076D02*
X170712531Y-77744838D01*
X170712531Y-77744838D02*
X171093483Y-77744838D01*
X171093483Y-77744838D02*
X171245864Y-77840076D01*
X171245864Y-77840076D02*
X171322055Y-77935314D01*
X171322055Y-77935314D02*
X171398245Y-78125790D01*
X171398245Y-78125790D02*
X171398245Y-78316266D01*
X171398245Y-78316266D02*
X171322055Y-78601980D01*
X171322055Y-78601980D02*
X170407769Y-79744838D01*
X170407769Y-79744838D02*
X171398245Y-79744838D01*
X172845865Y-77744838D02*
X172083960Y-77744838D01*
X172083960Y-77744838D02*
X172007769Y-78697219D01*
X172007769Y-78697219D02*
X172083960Y-78601980D01*
X172083960Y-78601980D02*
X172236341Y-78506742D01*
X172236341Y-78506742D02*
X172617293Y-78506742D01*
X172617293Y-78506742D02*
X172769674Y-78601980D01*
X172769674Y-78601980D02*
X172845865Y-78697219D01*
X172845865Y-78697219D02*
X172922055Y-78887695D01*
X172922055Y-78887695D02*
X172922055Y-79363885D01*
X172922055Y-79363885D02*
X172845865Y-79554361D01*
X172845865Y-79554361D02*
X172769674Y-79649600D01*
X172769674Y-79649600D02*
X172617293Y-79744838D01*
X172617293Y-79744838D02*
X172236341Y-79744838D01*
X172236341Y-79744838D02*
X172083960Y-79649600D01*
X172083960Y-79649600D02*
X172007769Y-79554361D01*
X173607770Y-79554361D02*
X173683960Y-79649600D01*
X173683960Y-79649600D02*
X173607770Y-79744838D01*
X173607770Y-79744838D02*
X173531579Y-79649600D01*
X173531579Y-79649600D02*
X173607770Y-79554361D01*
X173607770Y-79554361D02*
X173607770Y-79744838D01*
X175207770Y-79744838D02*
X174293484Y-79744838D01*
X174750627Y-79744838D02*
X174750627Y-77744838D01*
X174750627Y-77744838D02*
X174598246Y-78030552D01*
X174598246Y-78030552D02*
X174445865Y-78221028D01*
X174445865Y-78221028D02*
X174293484Y-78316266D01*
X176731580Y-79744838D02*
X175817294Y-79744838D01*
X176274437Y-79744838D02*
X176274437Y-77744838D01*
X176274437Y-77744838D02*
X176122056Y-78030552D01*
X176122056Y-78030552D02*
X175969675Y-78221028D01*
X175969675Y-78221028D02*
X175817294Y-78316266D01*
X177417295Y-79554361D02*
X177493485Y-79649600D01*
X177493485Y-79649600D02*
X177417295Y-79744838D01*
X177417295Y-79744838D02*
X177341104Y-79649600D01*
X177341104Y-79649600D02*
X177417295Y-79554361D01*
X177417295Y-79554361D02*
X177417295Y-79744838D01*
X178483962Y-77744838D02*
X178636343Y-77744838D01*
X178636343Y-77744838D02*
X178788724Y-77840076D01*
X178788724Y-77840076D02*
X178864914Y-77935314D01*
X178864914Y-77935314D02*
X178941105Y-78125790D01*
X178941105Y-78125790D02*
X179017295Y-78506742D01*
X179017295Y-78506742D02*
X179017295Y-78982933D01*
X179017295Y-78982933D02*
X178941105Y-79363885D01*
X178941105Y-79363885D02*
X178864914Y-79554361D01*
X178864914Y-79554361D02*
X178788724Y-79649600D01*
X178788724Y-79649600D02*
X178636343Y-79744838D01*
X178636343Y-79744838D02*
X178483962Y-79744838D01*
X178483962Y-79744838D02*
X178331581Y-79649600D01*
X178331581Y-79649600D02*
X178255390Y-79554361D01*
X178255390Y-79554361D02*
X178179200Y-79363885D01*
X178179200Y-79363885D02*
X178103009Y-78982933D01*
X178103009Y-78982933D02*
X178103009Y-78506742D01*
X178103009Y-78506742D02*
X178179200Y-78125790D01*
X178179200Y-78125790D02*
X178255390Y-77935314D01*
X178255390Y-77935314D02*
X178331581Y-77840076D01*
X178331581Y-77840076D02*
X178483962Y-77744838D01*
X180388724Y-78411504D02*
X180388724Y-79744838D01*
X180007772Y-77649600D02*
X179626819Y-79078171D01*
X179626819Y-79078171D02*
X180617296Y-79078171D01*
D10*
X230913333Y-76834819D02*
X230580000Y-76358628D01*
X230341905Y-76834819D02*
X230341905Y-75834819D01*
X230341905Y-75834819D02*
X230722857Y-75834819D01*
X230722857Y-75834819D02*
X230818095Y-75882438D01*
X230818095Y-75882438D02*
X230865714Y-75930057D01*
X230865714Y-75930057D02*
X230913333Y-76025295D01*
X230913333Y-76025295D02*
X230913333Y-76168152D01*
X230913333Y-76168152D02*
X230865714Y-76263390D01*
X230865714Y-76263390D02*
X230818095Y-76311009D01*
X230818095Y-76311009D02*
X230722857Y-76358628D01*
X230722857Y-76358628D02*
X230341905Y-76358628D01*
X231246667Y-75834819D02*
X231865714Y-75834819D01*
X231865714Y-75834819D02*
X231532381Y-76215771D01*
X231532381Y-76215771D02*
X231675238Y-76215771D01*
X231675238Y-76215771D02*
X231770476Y-76263390D01*
X231770476Y-76263390D02*
X231818095Y-76311009D01*
X231818095Y-76311009D02*
X231865714Y-76406247D01*
X231865714Y-76406247D02*
X231865714Y-76644342D01*
X231865714Y-76644342D02*
X231818095Y-76739580D01*
X231818095Y-76739580D02*
X231770476Y-76787200D01*
X231770476Y-76787200D02*
X231675238Y-76834819D01*
X231675238Y-76834819D02*
X231389524Y-76834819D01*
X231389524Y-76834819D02*
X231294286Y-76787200D01*
X231294286Y-76787200D02*
X231246667Y-76739580D01*
X169214285Y-98511009D02*
X169357142Y-98558628D01*
X169357142Y-98558628D02*
X169404761Y-98606247D01*
X169404761Y-98606247D02*
X169452380Y-98701485D01*
X169452380Y-98701485D02*
X169452380Y-98844342D01*
X169452380Y-98844342D02*
X169404761Y-98939580D01*
X169404761Y-98939580D02*
X169357142Y-98987200D01*
X169357142Y-98987200D02*
X169261904Y-99034819D01*
X169261904Y-99034819D02*
X168880952Y-99034819D01*
X168880952Y-99034819D02*
X168880952Y-98034819D01*
X168880952Y-98034819D02*
X169214285Y-98034819D01*
X169214285Y-98034819D02*
X169309523Y-98082438D01*
X169309523Y-98082438D02*
X169357142Y-98130057D01*
X169357142Y-98130057D02*
X169404761Y-98225295D01*
X169404761Y-98225295D02*
X169404761Y-98320533D01*
X169404761Y-98320533D02*
X169357142Y-98415771D01*
X169357142Y-98415771D02*
X169309523Y-98463390D01*
X169309523Y-98463390D02*
X169214285Y-98511009D01*
X169214285Y-98511009D02*
X168880952Y-98511009D01*
X169738095Y-98034819D02*
X170309523Y-98034819D01*
X170023809Y-99034819D02*
X170023809Y-98034819D01*
X171166666Y-99034819D02*
X170595238Y-99034819D01*
X170880952Y-99034819D02*
X170880952Y-98034819D01*
X170880952Y-98034819D02*
X170785714Y-98177676D01*
X170785714Y-98177676D02*
X170690476Y-98272914D01*
X170690476Y-98272914D02*
X170595238Y-98320533D01*
X185413333Y-92084819D02*
X185080000Y-91608628D01*
X184841905Y-92084819D02*
X184841905Y-91084819D01*
X184841905Y-91084819D02*
X185222857Y-91084819D01*
X185222857Y-91084819D02*
X185318095Y-91132438D01*
X185318095Y-91132438D02*
X185365714Y-91180057D01*
X185365714Y-91180057D02*
X185413333Y-91275295D01*
X185413333Y-91275295D02*
X185413333Y-91418152D01*
X185413333Y-91418152D02*
X185365714Y-91513390D01*
X185365714Y-91513390D02*
X185318095Y-91561009D01*
X185318095Y-91561009D02*
X185222857Y-91608628D01*
X185222857Y-91608628D02*
X184841905Y-91608628D01*
X186365714Y-92084819D02*
X185794286Y-92084819D01*
X186080000Y-92084819D02*
X186080000Y-91084819D01*
X186080000Y-91084819D02*
X185984762Y-91227676D01*
X185984762Y-91227676D02*
X185889524Y-91322914D01*
X185889524Y-91322914D02*
X185794286Y-91370533D01*
X199928095Y-81544819D02*
X199928095Y-82354342D01*
X199928095Y-82354342D02*
X199975714Y-82449580D01*
X199975714Y-82449580D02*
X200023333Y-82497200D01*
X200023333Y-82497200D02*
X200118571Y-82544819D01*
X200118571Y-82544819D02*
X200309047Y-82544819D01*
X200309047Y-82544819D02*
X200404285Y-82497200D01*
X200404285Y-82497200D02*
X200451904Y-82449580D01*
X200451904Y-82449580D02*
X200499523Y-82354342D01*
X200499523Y-82354342D02*
X200499523Y-81544819D01*
X200928095Y-81640057D02*
X200975714Y-81592438D01*
X200975714Y-81592438D02*
X201070952Y-81544819D01*
X201070952Y-81544819D02*
X201309047Y-81544819D01*
X201309047Y-81544819D02*
X201404285Y-81592438D01*
X201404285Y-81592438D02*
X201451904Y-81640057D01*
X201451904Y-81640057D02*
X201499523Y-81735295D01*
X201499523Y-81735295D02*
X201499523Y-81830533D01*
X201499523Y-81830533D02*
X201451904Y-81973390D01*
X201451904Y-81973390D02*
X200880476Y-82544819D01*
X200880476Y-82544819D02*
X201499523Y-82544819D01*
X184853095Y-79044819D02*
X184853095Y-79854342D01*
X184853095Y-79854342D02*
X184900714Y-79949580D01*
X184900714Y-79949580D02*
X184948333Y-79997200D01*
X184948333Y-79997200D02*
X185043571Y-80044819D01*
X185043571Y-80044819D02*
X185234047Y-80044819D01*
X185234047Y-80044819D02*
X185329285Y-79997200D01*
X185329285Y-79997200D02*
X185376904Y-79949580D01*
X185376904Y-79949580D02*
X185424523Y-79854342D01*
X185424523Y-79854342D02*
X185424523Y-79044819D01*
X186424523Y-80044819D02*
X185853095Y-80044819D01*
X186138809Y-80044819D02*
X186138809Y-79044819D01*
X186138809Y-79044819D02*
X186043571Y-79187676D01*
X186043571Y-79187676D02*
X185948333Y-79282914D01*
X185948333Y-79282914D02*
X185853095Y-79330533D01*
X214548095Y-80584819D02*
X214548095Y-81394342D01*
X214548095Y-81394342D02*
X214595714Y-81489580D01*
X214595714Y-81489580D02*
X214643333Y-81537200D01*
X214643333Y-81537200D02*
X214738571Y-81584819D01*
X214738571Y-81584819D02*
X214929047Y-81584819D01*
X214929047Y-81584819D02*
X215024285Y-81537200D01*
X215024285Y-81537200D02*
X215071904Y-81489580D01*
X215071904Y-81489580D02*
X215119523Y-81394342D01*
X215119523Y-81394342D02*
X215119523Y-80584819D01*
X215500476Y-80584819D02*
X216119523Y-80584819D01*
X216119523Y-80584819D02*
X215786190Y-80965771D01*
X215786190Y-80965771D02*
X215929047Y-80965771D01*
X215929047Y-80965771D02*
X216024285Y-81013390D01*
X216024285Y-81013390D02*
X216071904Y-81061009D01*
X216071904Y-81061009D02*
X216119523Y-81156247D01*
X216119523Y-81156247D02*
X216119523Y-81394342D01*
X216119523Y-81394342D02*
X216071904Y-81489580D01*
X216071904Y-81489580D02*
X216024285Y-81537200D01*
X216024285Y-81537200D02*
X215929047Y-81584819D01*
X215929047Y-81584819D02*
X215643333Y-81584819D01*
X215643333Y-81584819D02*
X215548095Y-81537200D01*
X215548095Y-81537200D02*
X215500476Y-81489580D01*
X191864580Y-103666666D02*
X191912200Y-103714285D01*
X191912200Y-103714285D02*
X191959819Y-103857142D01*
X191959819Y-103857142D02*
X191959819Y-103952380D01*
X191959819Y-103952380D02*
X191912200Y-104095237D01*
X191912200Y-104095237D02*
X191816961Y-104190475D01*
X191816961Y-104190475D02*
X191721723Y-104238094D01*
X191721723Y-104238094D02*
X191531247Y-104285713D01*
X191531247Y-104285713D02*
X191388390Y-104285713D01*
X191388390Y-104285713D02*
X191197914Y-104238094D01*
X191197914Y-104238094D02*
X191102676Y-104190475D01*
X191102676Y-104190475D02*
X191007438Y-104095237D01*
X191007438Y-104095237D02*
X190959819Y-103952380D01*
X190959819Y-103952380D02*
X190959819Y-103857142D01*
X190959819Y-103857142D02*
X191007438Y-103714285D01*
X191007438Y-103714285D02*
X191055057Y-103666666D01*
X191055057Y-103285713D02*
X191007438Y-103238094D01*
X191007438Y-103238094D02*
X190959819Y-103142856D01*
X190959819Y-103142856D02*
X190959819Y-102904761D01*
X190959819Y-102904761D02*
X191007438Y-102809523D01*
X191007438Y-102809523D02*
X191055057Y-102761904D01*
X191055057Y-102761904D02*
X191150295Y-102714285D01*
X191150295Y-102714285D02*
X191245533Y-102714285D01*
X191245533Y-102714285D02*
X191388390Y-102761904D01*
X191388390Y-102761904D02*
X191959819Y-103333332D01*
X191959819Y-103333332D02*
X191959819Y-102714285D01*
X238894819Y-101729404D02*
X239704342Y-101729404D01*
X239704342Y-101729404D02*
X239799580Y-101681785D01*
X239799580Y-101681785D02*
X239847200Y-101634166D01*
X239847200Y-101634166D02*
X239894819Y-101538928D01*
X239894819Y-101538928D02*
X239894819Y-101348452D01*
X239894819Y-101348452D02*
X239847200Y-101253214D01*
X239847200Y-101253214D02*
X239799580Y-101205595D01*
X239799580Y-101205595D02*
X239704342Y-101157976D01*
X239704342Y-101157976D02*
X238894819Y-101157976D01*
X239228152Y-100253214D02*
X239894819Y-100253214D01*
X238847200Y-100491309D02*
X239561485Y-100729404D01*
X239561485Y-100729404D02*
X239561485Y-100110357D01*
X185914580Y-103666666D02*
X185962200Y-103714285D01*
X185962200Y-103714285D02*
X186009819Y-103857142D01*
X186009819Y-103857142D02*
X186009819Y-103952380D01*
X186009819Y-103952380D02*
X185962200Y-104095237D01*
X185962200Y-104095237D02*
X185866961Y-104190475D01*
X185866961Y-104190475D02*
X185771723Y-104238094D01*
X185771723Y-104238094D02*
X185581247Y-104285713D01*
X185581247Y-104285713D02*
X185438390Y-104285713D01*
X185438390Y-104285713D02*
X185247914Y-104238094D01*
X185247914Y-104238094D02*
X185152676Y-104190475D01*
X185152676Y-104190475D02*
X185057438Y-104095237D01*
X185057438Y-104095237D02*
X185009819Y-103952380D01*
X185009819Y-103952380D02*
X185009819Y-103857142D01*
X185009819Y-103857142D02*
X185057438Y-103714285D01*
X185057438Y-103714285D02*
X185105057Y-103666666D01*
X186009819Y-102714285D02*
X186009819Y-103285713D01*
X186009819Y-102999999D02*
X185009819Y-102999999D01*
X185009819Y-102999999D02*
X185152676Y-103095237D01*
X185152676Y-103095237D02*
X185247914Y-103190475D01*
X185247914Y-103190475D02*
X185295533Y-103285713D01*
X230753333Y-101534819D02*
X230420000Y-101058628D01*
X230181905Y-101534819D02*
X230181905Y-100534819D01*
X230181905Y-100534819D02*
X230562857Y-100534819D01*
X230562857Y-100534819D02*
X230658095Y-100582438D01*
X230658095Y-100582438D02*
X230705714Y-100630057D01*
X230705714Y-100630057D02*
X230753333Y-100725295D01*
X230753333Y-100725295D02*
X230753333Y-100868152D01*
X230753333Y-100868152D02*
X230705714Y-100963390D01*
X230705714Y-100963390D02*
X230658095Y-101011009D01*
X230658095Y-101011009D02*
X230562857Y-101058628D01*
X230562857Y-101058628D02*
X230181905Y-101058628D01*
X231229524Y-101534819D02*
X231420000Y-101534819D01*
X231420000Y-101534819D02*
X231515238Y-101487200D01*
X231515238Y-101487200D02*
X231562857Y-101439580D01*
X231562857Y-101439580D02*
X231658095Y-101296723D01*
X231658095Y-101296723D02*
X231705714Y-101106247D01*
X231705714Y-101106247D02*
X231705714Y-100725295D01*
X231705714Y-100725295D02*
X231658095Y-100630057D01*
X231658095Y-100630057D02*
X231610476Y-100582438D01*
X231610476Y-100582438D02*
X231515238Y-100534819D01*
X231515238Y-100534819D02*
X231324762Y-100534819D01*
X231324762Y-100534819D02*
X231229524Y-100582438D01*
X231229524Y-100582438D02*
X231181905Y-100630057D01*
X231181905Y-100630057D02*
X231134286Y-100725295D01*
X231134286Y-100725295D02*
X231134286Y-100963390D01*
X231134286Y-100963390D02*
X231181905Y-101058628D01*
X231181905Y-101058628D02*
X231229524Y-101106247D01*
X231229524Y-101106247D02*
X231324762Y-101153866D01*
X231324762Y-101153866D02*
X231515238Y-101153866D01*
X231515238Y-101153866D02*
X231610476Y-101106247D01*
X231610476Y-101106247D02*
X231658095Y-101058628D01*
X231658095Y-101058628D02*
X231705714Y-100963390D01*
X230753333Y-85334819D02*
X230420000Y-84858628D01*
X230181905Y-85334819D02*
X230181905Y-84334819D01*
X230181905Y-84334819D02*
X230562857Y-84334819D01*
X230562857Y-84334819D02*
X230658095Y-84382438D01*
X230658095Y-84382438D02*
X230705714Y-84430057D01*
X230705714Y-84430057D02*
X230753333Y-84525295D01*
X230753333Y-84525295D02*
X230753333Y-84668152D01*
X230753333Y-84668152D02*
X230705714Y-84763390D01*
X230705714Y-84763390D02*
X230658095Y-84811009D01*
X230658095Y-84811009D02*
X230562857Y-84858628D01*
X230562857Y-84858628D02*
X230181905Y-84858628D01*
X231658095Y-84334819D02*
X231181905Y-84334819D01*
X231181905Y-84334819D02*
X231134286Y-84811009D01*
X231134286Y-84811009D02*
X231181905Y-84763390D01*
X231181905Y-84763390D02*
X231277143Y-84715771D01*
X231277143Y-84715771D02*
X231515238Y-84715771D01*
X231515238Y-84715771D02*
X231610476Y-84763390D01*
X231610476Y-84763390D02*
X231658095Y-84811009D01*
X231658095Y-84811009D02*
X231705714Y-84906247D01*
X231705714Y-84906247D02*
X231705714Y-85144342D01*
X231705714Y-85144342D02*
X231658095Y-85239580D01*
X231658095Y-85239580D02*
X231610476Y-85287200D01*
X231610476Y-85287200D02*
X231515238Y-85334819D01*
X231515238Y-85334819D02*
X231277143Y-85334819D01*
X231277143Y-85334819D02*
X231181905Y-85287200D01*
X231181905Y-85287200D02*
X231134286Y-85239580D01*
X230753333Y-97484819D02*
X230420000Y-97008628D01*
X230181905Y-97484819D02*
X230181905Y-96484819D01*
X230181905Y-96484819D02*
X230562857Y-96484819D01*
X230562857Y-96484819D02*
X230658095Y-96532438D01*
X230658095Y-96532438D02*
X230705714Y-96580057D01*
X230705714Y-96580057D02*
X230753333Y-96675295D01*
X230753333Y-96675295D02*
X230753333Y-96818152D01*
X230753333Y-96818152D02*
X230705714Y-96913390D01*
X230705714Y-96913390D02*
X230658095Y-96961009D01*
X230658095Y-96961009D02*
X230562857Y-97008628D01*
X230562857Y-97008628D02*
X230181905Y-97008628D01*
X231324762Y-96913390D02*
X231229524Y-96865771D01*
X231229524Y-96865771D02*
X231181905Y-96818152D01*
X231181905Y-96818152D02*
X231134286Y-96722914D01*
X231134286Y-96722914D02*
X231134286Y-96675295D01*
X231134286Y-96675295D02*
X231181905Y-96580057D01*
X231181905Y-96580057D02*
X231229524Y-96532438D01*
X231229524Y-96532438D02*
X231324762Y-96484819D01*
X231324762Y-96484819D02*
X231515238Y-96484819D01*
X231515238Y-96484819D02*
X231610476Y-96532438D01*
X231610476Y-96532438D02*
X231658095Y-96580057D01*
X231658095Y-96580057D02*
X231705714Y-96675295D01*
X231705714Y-96675295D02*
X231705714Y-96722914D01*
X231705714Y-96722914D02*
X231658095Y-96818152D01*
X231658095Y-96818152D02*
X231610476Y-96865771D01*
X231610476Y-96865771D02*
X231515238Y-96913390D01*
X231515238Y-96913390D02*
X231324762Y-96913390D01*
X231324762Y-96913390D02*
X231229524Y-96961009D01*
X231229524Y-96961009D02*
X231181905Y-97008628D01*
X231181905Y-97008628D02*
X231134286Y-97103866D01*
X231134286Y-97103866D02*
X231134286Y-97294342D01*
X231134286Y-97294342D02*
X231181905Y-97389580D01*
X231181905Y-97389580D02*
X231229524Y-97437200D01*
X231229524Y-97437200D02*
X231324762Y-97484819D01*
X231324762Y-97484819D02*
X231515238Y-97484819D01*
X231515238Y-97484819D02*
X231610476Y-97437200D01*
X231610476Y-97437200D02*
X231658095Y-97389580D01*
X231658095Y-97389580D02*
X231705714Y-97294342D01*
X231705714Y-97294342D02*
X231705714Y-97103866D01*
X231705714Y-97103866D02*
X231658095Y-97008628D01*
X231658095Y-97008628D02*
X231610476Y-96961009D01*
X231610476Y-96961009D02*
X231515238Y-96913390D01*
X174077200Y-89333332D02*
X174124819Y-89190475D01*
X174124819Y-89190475D02*
X174124819Y-88952380D01*
X174124819Y-88952380D02*
X174077200Y-88857142D01*
X174077200Y-88857142D02*
X174029580Y-88809523D01*
X174029580Y-88809523D02*
X173934342Y-88761904D01*
X173934342Y-88761904D02*
X173839104Y-88761904D01*
X173839104Y-88761904D02*
X173743866Y-88809523D01*
X173743866Y-88809523D02*
X173696247Y-88857142D01*
X173696247Y-88857142D02*
X173648628Y-88952380D01*
X173648628Y-88952380D02*
X173601009Y-89142856D01*
X173601009Y-89142856D02*
X173553390Y-89238094D01*
X173553390Y-89238094D02*
X173505771Y-89285713D01*
X173505771Y-89285713D02*
X173410533Y-89333332D01*
X173410533Y-89333332D02*
X173315295Y-89333332D01*
X173315295Y-89333332D02*
X173220057Y-89285713D01*
X173220057Y-89285713D02*
X173172438Y-89238094D01*
X173172438Y-89238094D02*
X173124819Y-89142856D01*
X173124819Y-89142856D02*
X173124819Y-88904761D01*
X173124819Y-88904761D02*
X173172438Y-88761904D01*
X173124819Y-88428570D02*
X174124819Y-88190475D01*
X174124819Y-88190475D02*
X173410533Y-87999999D01*
X173410533Y-87999999D02*
X174124819Y-87809523D01*
X174124819Y-87809523D02*
X173124819Y-87571428D01*
X174124819Y-86666666D02*
X174124819Y-87238094D01*
X174124819Y-86952380D02*
X173124819Y-86952380D01*
X173124819Y-86952380D02*
X173267676Y-87047618D01*
X173267676Y-87047618D02*
X173362914Y-87142856D01*
X173362914Y-87142856D02*
X173410533Y-87238094D01*
X230753333Y-81284819D02*
X230420000Y-80808628D01*
X230181905Y-81284819D02*
X230181905Y-80284819D01*
X230181905Y-80284819D02*
X230562857Y-80284819D01*
X230562857Y-80284819D02*
X230658095Y-80332438D01*
X230658095Y-80332438D02*
X230705714Y-80380057D01*
X230705714Y-80380057D02*
X230753333Y-80475295D01*
X230753333Y-80475295D02*
X230753333Y-80618152D01*
X230753333Y-80618152D02*
X230705714Y-80713390D01*
X230705714Y-80713390D02*
X230658095Y-80761009D01*
X230658095Y-80761009D02*
X230562857Y-80808628D01*
X230562857Y-80808628D02*
X230181905Y-80808628D01*
X231610476Y-80618152D02*
X231610476Y-81284819D01*
X231372381Y-80237200D02*
X231134286Y-80951485D01*
X231134286Y-80951485D02*
X231753333Y-80951485D01*
X230753333Y-93434819D02*
X230420000Y-92958628D01*
X230181905Y-93434819D02*
X230181905Y-92434819D01*
X230181905Y-92434819D02*
X230562857Y-92434819D01*
X230562857Y-92434819D02*
X230658095Y-92482438D01*
X230658095Y-92482438D02*
X230705714Y-92530057D01*
X230705714Y-92530057D02*
X230753333Y-92625295D01*
X230753333Y-92625295D02*
X230753333Y-92768152D01*
X230753333Y-92768152D02*
X230705714Y-92863390D01*
X230705714Y-92863390D02*
X230658095Y-92911009D01*
X230658095Y-92911009D02*
X230562857Y-92958628D01*
X230562857Y-92958628D02*
X230181905Y-92958628D01*
X231086667Y-92434819D02*
X231753333Y-92434819D01*
X231753333Y-92434819D02*
X231324762Y-93434819D01*
X230753333Y-89384819D02*
X230420000Y-88908628D01*
X230181905Y-89384819D02*
X230181905Y-88384819D01*
X230181905Y-88384819D02*
X230562857Y-88384819D01*
X230562857Y-88384819D02*
X230658095Y-88432438D01*
X230658095Y-88432438D02*
X230705714Y-88480057D01*
X230705714Y-88480057D02*
X230753333Y-88575295D01*
X230753333Y-88575295D02*
X230753333Y-88718152D01*
X230753333Y-88718152D02*
X230705714Y-88813390D01*
X230705714Y-88813390D02*
X230658095Y-88861009D01*
X230658095Y-88861009D02*
X230562857Y-88908628D01*
X230562857Y-88908628D02*
X230181905Y-88908628D01*
X231610476Y-88384819D02*
X231420000Y-88384819D01*
X231420000Y-88384819D02*
X231324762Y-88432438D01*
X231324762Y-88432438D02*
X231277143Y-88480057D01*
X231277143Y-88480057D02*
X231181905Y-88622914D01*
X231181905Y-88622914D02*
X231134286Y-88813390D01*
X231134286Y-88813390D02*
X231134286Y-89194342D01*
X231134286Y-89194342D02*
X231181905Y-89289580D01*
X231181905Y-89289580D02*
X231229524Y-89337200D01*
X231229524Y-89337200D02*
X231324762Y-89384819D01*
X231324762Y-89384819D02*
X231515238Y-89384819D01*
X231515238Y-89384819D02*
X231610476Y-89337200D01*
X231610476Y-89337200D02*
X231658095Y-89289580D01*
X231658095Y-89289580D02*
X231705714Y-89194342D01*
X231705714Y-89194342D02*
X231705714Y-88956247D01*
X231705714Y-88956247D02*
X231658095Y-88861009D01*
X231658095Y-88861009D02*
X231610476Y-88813390D01*
X231610476Y-88813390D02*
X231515238Y-88765771D01*
X231515238Y-88765771D02*
X231324762Y-88765771D01*
X231324762Y-88765771D02*
X231229524Y-88813390D01*
X231229524Y-88813390D02*
X231181905Y-88861009D01*
X231181905Y-88861009D02*
X231134286Y-88956247D01*
X185413333Y-100244819D02*
X185080000Y-99768628D01*
X184841905Y-100244819D02*
X184841905Y-99244819D01*
X184841905Y-99244819D02*
X185222857Y-99244819D01*
X185222857Y-99244819D02*
X185318095Y-99292438D01*
X185318095Y-99292438D02*
X185365714Y-99340057D01*
X185365714Y-99340057D02*
X185413333Y-99435295D01*
X185413333Y-99435295D02*
X185413333Y-99578152D01*
X185413333Y-99578152D02*
X185365714Y-99673390D01*
X185365714Y-99673390D02*
X185318095Y-99721009D01*
X185318095Y-99721009D02*
X185222857Y-99768628D01*
X185222857Y-99768628D02*
X184841905Y-99768628D01*
X185794286Y-99340057D02*
X185841905Y-99292438D01*
X185841905Y-99292438D02*
X185937143Y-99244819D01*
X185937143Y-99244819D02*
X186175238Y-99244819D01*
X186175238Y-99244819D02*
X186270476Y-99292438D01*
X186270476Y-99292438D02*
X186318095Y-99340057D01*
X186318095Y-99340057D02*
X186365714Y-99435295D01*
X186365714Y-99435295D02*
X186365714Y-99530533D01*
X186365714Y-99530533D02*
X186318095Y-99673390D01*
X186318095Y-99673390D02*
X185746667Y-100244819D01*
X185746667Y-100244819D02*
X186365714Y-100244819D01*
X230277142Y-105584819D02*
X229943809Y-105108628D01*
X229705714Y-105584819D02*
X229705714Y-104584819D01*
X229705714Y-104584819D02*
X230086666Y-104584819D01*
X230086666Y-104584819D02*
X230181904Y-104632438D01*
X230181904Y-104632438D02*
X230229523Y-104680057D01*
X230229523Y-104680057D02*
X230277142Y-104775295D01*
X230277142Y-104775295D02*
X230277142Y-104918152D01*
X230277142Y-104918152D02*
X230229523Y-105013390D01*
X230229523Y-105013390D02*
X230181904Y-105061009D01*
X230181904Y-105061009D02*
X230086666Y-105108628D01*
X230086666Y-105108628D02*
X229705714Y-105108628D01*
X231229523Y-105584819D02*
X230658095Y-105584819D01*
X230943809Y-105584819D02*
X230943809Y-104584819D01*
X230943809Y-104584819D02*
X230848571Y-104727676D01*
X230848571Y-104727676D02*
X230753333Y-104822914D01*
X230753333Y-104822914D02*
X230658095Y-104870533D01*
X231848571Y-104584819D02*
X231943809Y-104584819D01*
X231943809Y-104584819D02*
X232039047Y-104632438D01*
X232039047Y-104632438D02*
X232086666Y-104680057D01*
X232086666Y-104680057D02*
X232134285Y-104775295D01*
X232134285Y-104775295D02*
X232181904Y-104965771D01*
X232181904Y-104965771D02*
X232181904Y-105203866D01*
X232181904Y-105203866D02*
X232134285Y-105394342D01*
X232134285Y-105394342D02*
X232086666Y-105489580D01*
X232086666Y-105489580D02*
X232039047Y-105537200D01*
X232039047Y-105537200D02*
X231943809Y-105584819D01*
X231943809Y-105584819D02*
X231848571Y-105584819D01*
X231848571Y-105584819D02*
X231753333Y-105537200D01*
X231753333Y-105537200D02*
X231705714Y-105489580D01*
X231705714Y-105489580D02*
X231658095Y-105394342D01*
X231658095Y-105394342D02*
X231610476Y-105203866D01*
X231610476Y-105203866D02*
X231610476Y-104965771D01*
X231610476Y-104965771D02*
X231658095Y-104775295D01*
X231658095Y-104775295D02*
X231705714Y-104680057D01*
X231705714Y-104680057D02*
X231753333Y-104632438D01*
X231753333Y-104632438D02*
X231848571Y-104584819D01*
D12*
%TO.C,R3*%
X227040000Y-78750000D02*
X227810000Y-78750000D01*
X235120000Y-78750000D02*
X234350000Y-78750000D01*
X227810000Y-77380000D02*
X234350000Y-77380000D01*
X234350000Y-80120000D01*
X227810000Y-80120000D01*
X227810000Y-77380000D01*
%TO.C,BT1*%
X168620000Y-99580000D02*
X170000000Y-99580000D01*
X168620000Y-100960000D02*
X168620000Y-99580000D01*
X168620000Y-102230000D02*
X168620000Y-104880000D01*
X168620000Y-102230000D02*
X171380000Y-102230000D01*
X168620000Y-104880000D02*
X171380000Y-104880000D01*
X171380000Y-102230000D02*
X171380000Y-104880000D01*
%TO.C,R1*%
X181540000Y-94000000D02*
X182310000Y-94000000D01*
X189620000Y-94000000D02*
X188850000Y-94000000D01*
X182310000Y-92630000D02*
X188850000Y-92630000D01*
X188850000Y-95370000D01*
X182310000Y-95370000D01*
X182310000Y-92630000D01*
%TO.C,U2*%
X198040000Y-83090000D02*
X198040000Y-100990000D01*
X198040000Y-100990000D02*
X203340000Y-100990000D01*
X199690000Y-83090000D02*
X198040000Y-83090000D01*
X203340000Y-83090000D02*
X201690000Y-83090000D01*
X203340000Y-100990000D02*
X203340000Y-83090000D01*
X201690000Y-83090000D02*
G75*
G02*
X199690000Y-83090000I-1000000J0D01*
G01*
%TO.C,U1*%
X182965000Y-80590000D02*
X182965000Y-90870000D01*
X182965000Y-90870000D02*
X188265000Y-90870000D01*
X184615000Y-80590000D02*
X182965000Y-80590000D01*
X188265000Y-80590000D02*
X186615000Y-80590000D01*
X188265000Y-90870000D02*
X188265000Y-80590000D01*
X186615000Y-80590000D02*
G75*
G02*
X184615000Y-80590000I-1000000J0D01*
G01*
%TO.C,U3*%
X212660000Y-82130000D02*
X212660000Y-102570000D01*
X212660000Y-102570000D02*
X217960000Y-102570000D01*
X214310000Y-82130000D02*
X212660000Y-82130000D01*
X217960000Y-82130000D02*
X216310000Y-82130000D01*
X217960000Y-102570000D02*
X217960000Y-82130000D01*
X216310000Y-82130000D02*
G75*
G02*
X214310000Y-82130000I-1000000J0D01*
G01*
%TO.C,C2*%
X188235000Y-105770000D02*
X188235000Y-101230000D01*
X188291000Y-105770000D02*
X188235000Y-105770000D01*
X190319000Y-101230000D02*
X190375000Y-101230000D01*
X190375000Y-101230000D02*
X190375000Y-105770000D01*
%TO.C,U4*%
X240640000Y-83767500D02*
X240640000Y-102987500D01*
X240640000Y-83767500D02*
X253360000Y-83767500D01*
X240640000Y-102987500D02*
X253360000Y-102987500D01*
X241120000Y-103337500D02*
X242730000Y-103337500D01*
X245079400Y-87814300D02*
X245079400Y-93173700D01*
X245079400Y-93351500D02*
X245079400Y-98253700D01*
X245257200Y-87788900D02*
X248940200Y-87788900D01*
X245257200Y-93249900D02*
X248940200Y-93249900D01*
X245257200Y-98253700D02*
X248940200Y-98253700D01*
X249118000Y-87814300D02*
X249118000Y-93173700D01*
X249118000Y-93351500D02*
X249118000Y-98253700D01*
X253360000Y-83767500D02*
X253360000Y-102987500D01*
X250462467Y-98439967D02*
G75*
G02*
X249517533Y-98439967I-472467J0D01*
G01*
X249517533Y-98439967D02*
G75*
G02*
X250462467Y-98439967I472467J0D01*
G01*
%TO.C,C1*%
X184425000Y-103500000D02*
G75*
G02*
X179185000Y-103500000I-2620000J0D01*
G01*
X179185000Y-103500000D02*
G75*
G02*
X184425000Y-103500000I2620000J0D01*
G01*
%TO.C,R9*%
X226880000Y-103450000D02*
X227650000Y-103450000D01*
X234960000Y-103450000D02*
X234190000Y-103450000D01*
X227650000Y-102080000D02*
X234190000Y-102080000D01*
X234190000Y-104820000D01*
X227650000Y-104820000D01*
X227650000Y-102080000D01*
%TO.C,R5*%
X226880000Y-87250000D02*
X227650000Y-87250000D01*
X234960000Y-87250000D02*
X234190000Y-87250000D01*
X227650000Y-85880000D02*
X234190000Y-85880000D01*
X234190000Y-88620000D01*
X227650000Y-88620000D01*
X227650000Y-85880000D01*
%TO.C,R8*%
X226880000Y-99400000D02*
X227650000Y-99400000D01*
X234960000Y-99400000D02*
X234190000Y-99400000D01*
X227650000Y-98030000D02*
X234190000Y-98030000D01*
X234190000Y-100770000D01*
X227650000Y-100770000D01*
X227650000Y-98030000D01*
%TO.C,SW1*%
X167990000Y-81565000D02*
X167990000Y-94435000D01*
X167990000Y-94435000D02*
X171065000Y-94435000D01*
X171065000Y-81565000D02*
X167990000Y-81565000D01*
X172080000Y-82985000D02*
X172080000Y-93015000D01*
X172080000Y-93015000D02*
X172580000Y-93015000D01*
X172580000Y-82985000D02*
X172080000Y-82985000D01*
X172580000Y-83005000D02*
X172580000Y-82985000D01*
X172580000Y-93015000D02*
X172580000Y-92995000D01*
%TO.C,R4*%
X226880000Y-83200000D02*
X227650000Y-83200000D01*
X234960000Y-83200000D02*
X234190000Y-83200000D01*
X227650000Y-81830000D02*
X234190000Y-81830000D01*
X234190000Y-84570000D01*
X227650000Y-84570000D01*
X227650000Y-81830000D01*
%TO.C,R7*%
X226880000Y-95350000D02*
X227650000Y-95350000D01*
X234960000Y-95350000D02*
X234190000Y-95350000D01*
X227650000Y-93980000D02*
X234190000Y-93980000D01*
X234190000Y-96720000D01*
X227650000Y-96720000D01*
X227650000Y-93980000D01*
%TO.C,R6*%
X226880000Y-91300000D02*
X227650000Y-91300000D01*
X234960000Y-91300000D02*
X234190000Y-91300000D01*
X227650000Y-89930000D02*
X234190000Y-89930000D01*
X234190000Y-92670000D01*
X227650000Y-92670000D01*
X227650000Y-89930000D01*
%TO.C,R2*%
X181540000Y-97420000D02*
X182310000Y-97420000D01*
X189620000Y-97420000D02*
X188850000Y-97420000D01*
X188850000Y-98790000D02*
X182310000Y-98790000D01*
X182310000Y-96050000D01*
X188850000Y-96050000D01*
X188850000Y-98790000D01*
%TO.C,R10*%
X226880000Y-107500000D02*
X227650000Y-107500000D01*
X234960000Y-107500000D02*
X234190000Y-107500000D01*
X227650000Y-106130000D02*
X234190000Y-106130000D01*
X234190000Y-108870000D01*
X227650000Y-108870000D01*
X227650000Y-106130000D01*
%TD*%
M02*
