%TF.GenerationSoftware,KiCad,Pcbnew,9.0.4*%
%TF.CreationDate,2025-10-16T13:30:46+09:00*%
%TF.ProjectId,HAM_Seminiar_Charger,48414d5f-5365-46d6-996e-6961725f4368,rev?*%
%TF.SameCoordinates,Original*%
%TF.FileFunction,Soldermask,Top*%
%TF.FilePolarity,Negative*%
%FSLAX46Y46*%
G04 Gerber Fmt 4.6, Leading zero omitted, Abs format (unit mm)*
G04 Created by KiCad (PCBNEW 9.0.4) date 2025-10-16 13:30:46*
%MOMM*%
%LPD*%
G01*
G04 APERTURE LIST*
G04 Aperture macros list*
%AMRoundRect*
0 Rectangle with rounded corners*
0 $1 Rounding radius*
0 $2 $3 $4 $5 $6 $7 $8 $9 X,Y pos of 4 corners*
0 Add a 4 corners polygon primitive as box body*
4,1,4,$2,$3,$4,$5,$6,$7,$8,$9,$2,$3,0*
0 Add four circle primitives for the rounded corners*
1,1,$1+$1,$2,$3*
1,1,$1+$1,$4,$5*
1,1,$1+$1,$6,$7*
1,1,$1+$1,$8,$9*
0 Add four rect primitives between the rounded corners*
20,1,$1+$1,$2,$3,$4,$5,0*
20,1,$1+$1,$4,$5,$6,$7,0*
20,1,$1+$1,$6,$7,$8,$9,0*
20,1,$1+$1,$8,$9,$2,$3,0*%
G04 Aperture macros list end*
%ADD10C,3.200000*%
%ADD11RoundRect,0.249999X1.250001X-1.250001X1.250001X1.250001X-1.250001X1.250001X-1.250001X-1.250001X0*%
%ADD12C,3.000000*%
%ADD13C,1.600000*%
%ADD14R,2.200000X1.500000*%
%ADD15R,1.800000X1.800000*%
%ADD16C,1.800000*%
%ADD17RoundRect,0.175000X-0.425000X0.175000X-0.425000X-0.175000X0.425000X-0.175000X0.425000X0.175000X0*%
%ADD18RoundRect,0.190000X0.410000X-0.190000X0.410000X0.190000X-0.410000X0.190000X-0.410000X-0.190000X0*%
%ADD19RoundRect,0.200000X0.400000X-0.200000X0.400000X0.200000X-0.400000X0.200000X-0.400000X-0.200000X0*%
%ADD20RoundRect,0.175000X0.425000X-0.175000X0.425000X0.175000X-0.425000X0.175000X-0.425000X-0.175000X0*%
%ADD21RoundRect,0.190000X-0.410000X0.190000X-0.410000X-0.190000X0.410000X-0.190000X0.410000X0.190000X0*%
%ADD22RoundRect,0.200000X-0.400000X0.200000X-0.400000X-0.200000X0.400000X-0.200000X0.400000X0.200000X0*%
%ADD23O,1.700000X1.100000*%
%ADD24C,1.270000*%
%ADD25RoundRect,0.250001X0.499999X0.759999X-0.499999X0.759999X-0.499999X-0.759999X0.499999X-0.759999X0*%
%ADD26O,1.500000X2.020000*%
%ADD27RoundRect,0.150000X0.150000X-0.825000X0.150000X0.825000X-0.150000X0.825000X-0.150000X-0.825000X0*%
%ADD28R,3.300000X2.410000*%
%ADD29RoundRect,0.249999X-0.850001X0.850001X-0.850001X-0.850001X0.850001X-0.850001X0.850001X0.850001X0*%
%ADD30C,2.200000*%
%ADD31RoundRect,0.150000X0.150000X-0.512500X0.150000X0.512500X-0.150000X0.512500X-0.150000X-0.512500X0*%
%ADD32R,0.380000X1.000000*%
%ADD33R,0.700000X1.150000*%
%ADD34RoundRect,0.250000X0.550000X-0.550000X0.550000X0.550000X-0.550000X0.550000X-0.550000X-0.550000X0*%
G04 APERTURE END LIST*
D10*
%TO.C,BT1*%
X174200000Y-117805000D03*
X174200000Y-62195000D03*
D11*
X174200000Y-126250000D03*
D12*
X174200000Y-53350000D03*
%TD*%
D13*
%TO.C,R8*%
X147700000Y-124305000D03*
X137540000Y-124305000D03*
%TD*%
D14*
%TO.C,L1*%
X155200000Y-99605000D03*
X155200000Y-106005000D03*
%TD*%
D13*
%TO.C,R9*%
X147700000Y-120305000D03*
X137540000Y-120305000D03*
%TD*%
D15*
%TO.C,D3*%
X147040000Y-53805000D03*
D16*
X149580000Y-53805000D03*
%TD*%
D13*
%TO.C,R1*%
X150200000Y-95885000D03*
X150200000Y-85725000D03*
%TD*%
%TO.C,R4*%
X140200000Y-85725000D03*
X140200000Y-95885000D03*
%TD*%
%TO.C,R5*%
X155200000Y-95885000D03*
X155200000Y-85725000D03*
%TD*%
D17*
%TO.C,J1*%
X138580000Y-109305000D03*
D18*
X138580000Y-111325000D03*
D19*
X138580000Y-112555000D03*
D20*
X138580000Y-110305000D03*
D21*
X138580000Y-108285000D03*
D22*
X138580000Y-107055000D03*
D23*
X138500000Y-105485000D03*
X134700000Y-105485000D03*
X138500000Y-114125000D03*
X134700000Y-114125000D03*
%TD*%
D24*
%TO.C,SW1*%
X147200000Y-79765000D03*
X135200000Y-79765000D03*
D25*
X144200000Y-77805000D03*
D26*
X141200000Y-77805000D03*
X138200000Y-77805000D03*
%TD*%
D27*
%TO.C,U2*%
X138375000Y-68280000D03*
X139645000Y-68280000D03*
X140915000Y-68280000D03*
X142185000Y-68280000D03*
X142185000Y-63330000D03*
X140915000Y-63330000D03*
X139645000Y-63330000D03*
X138375000Y-63330000D03*
D28*
X140280000Y-65805000D03*
%TD*%
D29*
%TO.C,D1*%
X145200000Y-85885000D03*
D30*
X145200000Y-96045000D03*
%TD*%
D31*
%TO.C,U1*%
X143250000Y-102942500D03*
X144200000Y-102942500D03*
X145150000Y-102942500D03*
X145150000Y-100667500D03*
X144200000Y-100667500D03*
X143250000Y-100667500D03*
%TD*%
D13*
%TO.C,R10*%
X148280000Y-69805000D03*
X158440000Y-69805000D03*
%TD*%
%TO.C,R2*%
X147120000Y-113805000D03*
X157280000Y-113805000D03*
%TD*%
D15*
%TO.C,D2*%
X138040000Y-53805000D03*
D16*
X140580000Y-53805000D03*
%TD*%
D13*
%TO.C,R7*%
X148120000Y-61805000D03*
X158280000Y-61805000D03*
%TD*%
%TO.C,R3*%
X147120000Y-109805000D03*
X157280000Y-109805000D03*
%TD*%
%TO.C,R6*%
X148120000Y-65805000D03*
X158280000Y-65805000D03*
%TD*%
D32*
%TO.C,P1*%
X149530000Y-130765000D03*
X149030000Y-130765000D03*
X148530000Y-130765000D03*
X148030000Y-130765000D03*
X147530000Y-130765000D03*
X147030000Y-130765000D03*
X146530000Y-130765000D03*
X146030000Y-130765000D03*
X145530000Y-130765000D03*
X145030000Y-130765000D03*
X144530000Y-130765000D03*
X144030000Y-130765000D03*
D33*
X150200000Y-129925000D03*
%TD*%
D34*
%TO.C,C1*%
X158200000Y-120805000D03*
D13*
X158200000Y-118805000D03*
%TD*%
M02*
