M48
; DRILL file {KiCad 9.0.4} date 2025-10-16T13:30:43+0900
; FORMAT={-:-/ absolute / metric / decimal}
; #@! TF.CreationDate,2025-10-16T13:30:43+09:00
; #@! TF.GenerationSoftware,Kicad,Pcbnew,9.0.4
; #@! TF.FileFunction,Plated,1,2,PTH
FMAT,2
METRIC
; #@! TA.AperFunction,Plated,PTH,ComponentDrill
T1C0.200
; #@! TA.AperFunction,Plated,PTH,ViaDrill
T2C0.300
; #@! TA.AperFunction,Plated,PTH,ComponentDrill
T3C0.600
; #@! TA.AperFunction,Plated,PTH,ComponentDrill
T4C0.800
; #@! TA.AperFunction,Plated,PTH,ComponentDrill
T5C0.900
; #@! TA.AperFunction,Plated,PTH,ComponentDrill
T6C1.020
; #@! TA.AperFunction,Plated,PTH,ComponentDrill
T7C1.100
; #@! TA.AperFunction,Plated,PTH,ComponentDrill
T8C1.570
%
G90
G05
T1
X139.08Y-65.105
X139.08Y-66.505
X140.28Y-65.105
X140.28Y-66.505
X141.48Y-65.105
X141.48Y-66.505
T2
X142.2Y-127.305
X142.2Y-128.805
X144.7Y-63.305
X144.7Y-127.305
X146.2Y-104.805
X151.7Y-128.305
T4
X137.54Y-120.305
X137.54Y-124.305
X140.2Y-85.725
X140.2Y-95.885
X147.12Y-109.805
X147.12Y-113.805
X147.7Y-120.305
X147.7Y-124.305
X148.12Y-61.805
X148.12Y-65.805
X148.28Y-69.805
X150.2Y-85.725
X150.2Y-95.885
X155.2Y-85.725
X155.2Y-95.885
X157.28Y-109.805
X157.28Y-113.805
X158.2Y-118.805
X158.2Y-120.805
X158.28Y-61.805
X158.28Y-65.805
X158.44Y-69.805
T5
X138.04Y-53.805
X140.58Y-53.805
X147.04Y-53.805
X149.58Y-53.805
T6
X138.2Y-77.805
X141.2Y-77.805
X144.2Y-77.805
T7
X145.2Y-85.885
X145.2Y-96.045
T8
X174.2Y-53.35
X174.2Y-126.25
T3
G00X135.0Y-105.485
M15
G01X134.4Y-105.485
M16
G05
G00X135.0Y-114.125
M15
G01X134.4Y-114.125
M16
G05
G00X138.8Y-105.485
M15
G01X138.2Y-105.485
M16
G05
G00X138.8Y-114.125
M15
G01X138.2Y-114.125
M16
G05
M30
