M48
; DRILL file {KiCad 9.0.4} date 2025-09-01T19:52:20+0900
; FORMAT={-:-/ absolute / metric / decimal}
; #@! TF.CreationDate,2025-09-01T19:52:20+09:00
; #@! TF.GenerationSoftware,Kicad,Pcbnew,9.0.4
; #@! TF.FileFunction,Plated,1,2,PTH
FMAT,2
METRIC
; #@! TA.AperFunction,Plated,PTH,ViaDrill
T1C0.300
; #@! TA.AperFunction,Plated,PTH,ComponentDrill
T2C0.600
; #@! TA.AperFunction,Plated,PTH,ComponentDrill
T3C0.700
; #@! TA.AperFunction,Plated,PTH,ComponentDrill
T4C0.800
; #@! TA.AperFunction,Plated,PTH,ComponentDrill
T5C1.000
%
G90
G05
T1
X133.0Y-100.5
T2
X135.5Y-103.0
X135.5Y-104.5
X171.6Y-81.16
X173.1Y-81.16
T3
X220.88Y-86.38
X220.88Y-88.92
X220.88Y-91.46
X220.88Y-94.0
X220.88Y-96.54
X220.88Y-99.08
X220.88Y-101.62
X228.5Y-86.38
X228.5Y-88.92
X228.5Y-91.46
X228.5Y-94.0
X228.5Y-96.54
X228.5Y-99.08
X228.5Y-101.62
T4
X133.5Y-86.5
X133.5Y-96.66
X143.5Y-104.0
X144.38Y-89.38
X144.38Y-91.92
X144.38Y-94.46
X144.38Y-97.0
X152.0Y-89.38
X152.0Y-91.92
X152.0Y-94.46
X152.0Y-97.0
X153.66Y-104.0
X163.38Y-86.12
X163.38Y-88.66
X163.38Y-91.2
X163.38Y-93.74
X163.38Y-96.28
X163.38Y-98.82
X171.0Y-86.12
X171.0Y-88.66
X171.0Y-91.2
X171.0Y-93.74
X171.0Y-96.28
X171.0Y-98.82
X184.38Y-85.46
X184.38Y-88.0
X184.38Y-90.54
X184.38Y-93.08
X184.38Y-95.62
X184.38Y-98.16
X184.38Y-100.7
X184.38Y-103.24
X192.0Y-85.46
X192.0Y-88.0
X192.0Y-90.54
X192.0Y-93.08
X192.0Y-95.62
X192.0Y-98.16
X192.0Y-100.7
X192.0Y-103.24
X202.34Y-83.45
X202.34Y-87.5
X202.34Y-91.55
X202.34Y-95.6
X202.34Y-99.65
X202.34Y-103.7
X202.34Y-107.75
X202.5Y-79.0
X212.5Y-83.45
X212.5Y-87.5
X212.5Y-91.55
X212.5Y-95.6
X212.5Y-99.65
X212.5Y-103.7
X212.5Y-107.75
X212.66Y-79.0
T5
X117.0Y-90.225
X117.0Y-92.765
M30
