%TF.GenerationSoftware,KiCad,Pcbnew,9.0.4*%
%TF.CreationDate,2025-09-01T19:52:22+09:00*%
%TF.ProjectId,HAM_Seminar,48414d5f-5365-46d6-996e-61722e6b6963,rev?*%
%TF.SameCoordinates,Original*%
%TF.FileFunction,Soldermask,Top*%
%TF.FilePolarity,Negative*%
%FSLAX46Y46*%
G04 Gerber Fmt 4.6, Leading zero omitted, Abs format (unit mm)*
G04 Created by KiCad (PCBNEW 9.0.4) date 2025-09-01 19:52:22*
%MOMM*%
%LPD*%
G01*
G04 APERTURE LIST*
G04 Aperture macros list*
%AMRoundRect*
0 Rectangle with rounded corners*
0 $1 Rounding radius*
0 $2 $3 $4 $5 $6 $7 $8 $9 X,Y pos of 4 corners*
0 Add a 4 corners polygon primitive as box body*
4,1,4,$2,$3,$4,$5,$6,$7,$8,$9,$2,$3,0*
0 Add four circle primitives for the rounded corners*
1,1,$1+$1,$2,$3*
1,1,$1+$1,$4,$5*
1,1,$1+$1,$6,$7*
1,1,$1+$1,$8,$9*
0 Add four rect primitives between the rounded corners*
20,1,$1+$1,$2,$3,$4,$5,0*
20,1,$1+$1,$4,$5,$6,$7,0*
20,1,$1+$1,$6,$7,$8,$9,0*
20,1,$1+$1,$8,$9,$2,$3,0*%
G04 Aperture macros list end*
%ADD10C,1.600000*%
%ADD11RoundRect,0.250000X0.550000X0.550000X-0.550000X0.550000X-0.550000X-0.550000X0.550000X-0.550000X0*%
%ADD12R,1.700000X1.700000*%
%ADD13C,1.700000*%
%ADD14C,1.200000*%
%ADD15R,1.500000X1.500000*%
%ADD16C,1.500000*%
%ADD17RoundRect,0.250000X-0.550000X-0.550000X0.550000X-0.550000X0.550000X0.550000X-0.550000X0.550000X0*%
G04 APERTURE END LIST*
D10*
%TO.C,R1*%
X202500000Y-79000000D03*
X212660000Y-79000000D03*
%TD*%
D11*
%TO.C,U1*%
X152000000Y-97000000D03*
D10*
X152000000Y-94460000D03*
X152000000Y-91920000D03*
X152000000Y-89380000D03*
X144380000Y-89380000D03*
X144380000Y-91920000D03*
X144380000Y-94460000D03*
X144380000Y-97000000D03*
%TD*%
%TO.C,R2*%
X143500000Y-104000000D03*
X153660000Y-104000000D03*
%TD*%
D12*
%TO.C,J2*%
X117000000Y-90225000D03*
D13*
X117000000Y-92765000D03*
%TD*%
D14*
%TO.C,C2*%
X171600000Y-81160000D03*
X173100000Y-81160000D03*
%TD*%
%TO.C,C1*%
X135500000Y-103000000D03*
X135500000Y-104500000D03*
%TD*%
D15*
%TO.C,U4*%
X220880000Y-86380000D03*
D16*
X220880000Y-88920000D03*
X220880000Y-91460000D03*
X220880000Y-94000000D03*
X220880000Y-96540000D03*
X220880000Y-99080000D03*
X220880000Y-101620000D03*
X228500000Y-101620000D03*
X228500000Y-99080000D03*
X228500000Y-96540000D03*
X228500000Y-94000000D03*
X228500000Y-91460000D03*
X228500000Y-88920000D03*
X228500000Y-86380000D03*
%TD*%
D17*
%TO.C,U3*%
X184380000Y-85460000D03*
D10*
X184380000Y-88000000D03*
X184380000Y-90540000D03*
X184380000Y-93080000D03*
X184380000Y-95620000D03*
X184380000Y-98160000D03*
X184380000Y-100700000D03*
X184380000Y-103240000D03*
X192000000Y-103240000D03*
X192000000Y-100700000D03*
X192000000Y-98160000D03*
X192000000Y-95620000D03*
X192000000Y-93080000D03*
X192000000Y-90540000D03*
X192000000Y-88000000D03*
X192000000Y-85460000D03*
%TD*%
D17*
%TO.C,U2*%
X163380000Y-86120000D03*
D10*
X163380000Y-88660000D03*
X163380000Y-91200000D03*
X163380000Y-93740000D03*
X163380000Y-96280000D03*
X163380000Y-98820000D03*
X171000000Y-98820000D03*
X171000000Y-96280000D03*
X171000000Y-93740000D03*
X171000000Y-91200000D03*
X171000000Y-88660000D03*
X171000000Y-86120000D03*
%TD*%
%TO.C,R10*%
X133500000Y-96660000D03*
X133500000Y-86500000D03*
%TD*%
%TO.C,R9*%
X202340000Y-107750000D03*
X212500000Y-107750000D03*
%TD*%
%TO.C,R8*%
X202340000Y-103700000D03*
X212500000Y-103700000D03*
%TD*%
%TO.C,R7*%
X202340000Y-99650000D03*
X212500000Y-99650000D03*
%TD*%
%TO.C,R6*%
X202340000Y-95600000D03*
X212500000Y-95600000D03*
%TD*%
%TO.C,R5*%
X202340000Y-91550000D03*
X212500000Y-91550000D03*
%TD*%
%TO.C,R4*%
X202340000Y-87500000D03*
X212500000Y-87500000D03*
%TD*%
%TO.C,R3*%
X202340000Y-83450000D03*
X212500000Y-83450000D03*
%TD*%
M02*
