%TF.GenerationSoftware,KiCad,Pcbnew,9.0.4*%
%TF.CreationDate,2025-10-16T13:30:05+09:00*%
%TF.ProjectId,HAM_Seminar,48414d5f-5365-46d6-996e-61722e6b6963,rev?*%
%TF.SameCoordinates,Original*%
%TF.FileFunction,Copper,L1,Top*%
%TF.FilePolarity,Positive*%
%FSLAX46Y46*%
G04 Gerber Fmt 4.6, Leading zero omitted, Abs format (unit mm)*
G04 Created by KiCad (PCBNEW 9.0.4) date 2025-10-16 13:30:05*
%MOMM*%
%LPD*%
G01*
G04 APERTURE LIST*
G04 Aperture macros list*
%AMRoundRect*
0 Rectangle with rounded corners*
0 $1 Rounding radius*
0 $2 $3 $4 $5 $6 $7 $8 $9 X,Y pos of 4 corners*
0 Add a 4 corners polygon primitive as box body*
4,1,4,$2,$3,$4,$5,$6,$7,$8,$9,$2,$3,0*
0 Add four circle primitives for the rounded corners*
1,1,$1+$1,$2,$3*
1,1,$1+$1,$4,$5*
1,1,$1+$1,$6,$7*
1,1,$1+$1,$8,$9*
0 Add four rect primitives between the rounded corners*
20,1,$1+$1,$2,$3,$4,$5,0*
20,1,$1+$1,$4,$5,$6,$7,0*
20,1,$1+$1,$6,$7,$8,$9,0*
20,1,$1+$1,$8,$9,$2,$3,0*%
G04 Aperture macros list end*
%TA.AperFunction,ComponentPad*%
%ADD10C,1.400000*%
%TD*%
%TA.AperFunction,ComponentPad*%
%ADD11R,1.700000X1.700000*%
%TD*%
%TA.AperFunction,ComponentPad*%
%ADD12C,1.700000*%
%TD*%
%TA.AperFunction,ComponentPad*%
%ADD13RoundRect,0.250000X-0.550000X-0.550000X0.550000X-0.550000X0.550000X0.550000X-0.550000X0.550000X0*%
%TD*%
%TA.AperFunction,ComponentPad*%
%ADD14C,1.600000*%
%TD*%
%TA.AperFunction,ComponentPad*%
%ADD15R,1.600000X1.600000*%
%TD*%
%TA.AperFunction,ComponentPad*%
%ADD16C,1.200000*%
%TD*%
%TA.AperFunction,ComponentPad*%
%ADD17RoundRect,0.250001X-0.759999X0.499999X-0.759999X-0.499999X0.759999X-0.499999X0.759999X0.499999X0*%
%TD*%
%TA.AperFunction,ComponentPad*%
%ADD18O,2.020000X1.500000*%
%TD*%
%TA.AperFunction,Conductor*%
%ADD19C,0.200000*%
%TD*%
G04 APERTURE END LIST*
D10*
%TO.P,R3,1*%
%TO.N,Net-(U3-a)*%
X226000000Y-78750000D03*
%TO.P,R3,2*%
%TO.N,Net-(U4-A)*%
X233620000Y-78750000D03*
%TD*%
D11*
%TO.P,BT1,1,+*%
%TO.N,Net-(BT1-+)*%
X170000000Y-100960000D03*
D12*
%TO.P,BT1,2,-*%
%TO.N,GND*%
X170000000Y-103500000D03*
%TD*%
D10*
%TO.P,R1,1*%
%TO.N,VCC*%
X181610000Y-94420000D03*
%TO.P,R1,2*%
%TO.N,Net-(U1-DIS)*%
X189230000Y-94420000D03*
%TD*%
D13*
%TO.P,U2,1,CP1..3*%
%TO.N,Net-(U2-CP1..3)*%
X196880000Y-84420000D03*
D14*
%TO.P,U2,2,R0(1)*%
%TO.N,GND*%
X196880000Y-86960000D03*
%TO.P,U2,3,R0(2)*%
X196880000Y-89500000D03*
%TO.P,U2,4*%
%TO.N,N/C*%
X196880000Y-92040000D03*
%TO.P,U2,5,VCC*%
%TO.N,VCC*%
X196880000Y-94580000D03*
%TO.P,U2,6,R9(1)*%
%TO.N,GND*%
X196880000Y-97120000D03*
%TO.P,U2,7,R9(2)*%
X196880000Y-99660000D03*
%TO.P,U2,8,Q2*%
%TO.N,Net-(U2-Q2)*%
X204500000Y-99660000D03*
%TO.P,U2,9,Q1*%
%TO.N,Net-(U2-Q1)*%
X204500000Y-97120000D03*
%TO.P,U2,10,GND*%
%TO.N,GND*%
X204500000Y-94580000D03*
%TO.P,U2,11,Q3*%
%TO.N,Net-(U2-Q3)*%
X204500000Y-92040000D03*
%TO.P,U2,12,Q0*%
%TO.N,Net-(U2-CP1..3)*%
X204500000Y-89500000D03*
%TO.P,U2,13*%
%TO.N,N/C*%
X204500000Y-86960000D03*
%TO.P,U2,14,CP0*%
%TO.N,Net-(U1-Q)*%
X204500000Y-84420000D03*
%TD*%
D13*
%TO.P,U1,1,GND*%
%TO.N,GND*%
X181805000Y-81920000D03*
D14*
%TO.P,U1,2,TR*%
%TO.N,Net-(U1-THR)*%
X181805000Y-84460000D03*
%TO.P,U1,3,Q*%
%TO.N,Net-(U1-Q)*%
X181805000Y-87000000D03*
%TO.P,U1,4,R*%
%TO.N,VCC*%
X181805000Y-89540000D03*
%TO.P,U1,5,CV*%
%TO.N,Net-(U1-CV)*%
X189425000Y-89540000D03*
%TO.P,U1,6,THR*%
%TO.N,Net-(U1-THR)*%
X189425000Y-87000000D03*
%TO.P,U1,7,DIS*%
%TO.N,Net-(U1-DIS)*%
X189425000Y-84460000D03*
%TO.P,U1,8,VCC*%
%TO.N,VCC*%
X189425000Y-81920000D03*
%TD*%
D13*
%TO.P,U3,1,B*%
%TO.N,Net-(U2-Q1)*%
X211500000Y-83460000D03*
D14*
%TO.P,U3,2,C*%
%TO.N,Net-(U2-Q2)*%
X211500000Y-86000000D03*
%TO.P,U3,3,LT*%
%TO.N,VCC*%
X211500000Y-88540000D03*
%TO.P,U3,4,BI*%
X211500000Y-91080000D03*
%TO.P,U3,5,RBI*%
X211500000Y-93620000D03*
%TO.P,U3,6,D*%
%TO.N,Net-(U2-Q3)*%
X211500000Y-96160000D03*
%TO.P,U3,7,A*%
%TO.N,Net-(U2-CP1..3)*%
X211500000Y-98700000D03*
%TO.P,U3,8,GND*%
%TO.N,GND*%
X211500000Y-101240000D03*
%TO.P,U3,9,e*%
%TO.N,Net-(U3-e)*%
X219120000Y-101240000D03*
%TO.P,U3,10,d*%
%TO.N,Net-(U3-d)*%
X219120000Y-98700000D03*
%TO.P,U3,11,c*%
%TO.N,Net-(U3-c)*%
X219120000Y-96160000D03*
%TO.P,U3,12,b*%
%TO.N,Net-(U3-b)*%
X219120000Y-93620000D03*
%TO.P,U3,13,a*%
%TO.N,Net-(U3-a)*%
X219120000Y-91080000D03*
%TO.P,U3,14,g*%
%TO.N,Net-(U3-g)*%
X219120000Y-88540000D03*
%TO.P,U3,15,f*%
%TO.N,Net-(U3-f)*%
X219120000Y-86000000D03*
%TO.P,U3,16,VCC*%
%TO.N,VCC*%
X219120000Y-83460000D03*
%TD*%
%TO.P,C2,1*%
%TO.N,Net-(U1-CV)*%
X189305000Y-101000000D03*
%TO.P,C2,2*%
%TO.N,GND*%
X189305000Y-106000000D03*
%TD*%
D15*
%TO.P,U4,1,E*%
%TO.N,Net-(U4-E)*%
X241920000Y-100997500D03*
D14*
%TO.P,U4,2,D*%
%TO.N,Net-(U4-D)*%
X244460000Y-100997500D03*
%TO.P,U4,3,CC*%
%TO.N,GND*%
X247000000Y-100997500D03*
%TO.P,U4,4,C*%
%TO.N,Net-(U4-C)*%
X249540000Y-100997500D03*
%TO.P,U4,5,DP*%
%TO.N,Net-(U4-DP)*%
X252080000Y-100997500D03*
%TO.P,U4,6,B*%
%TO.N,Net-(U4-B)*%
X252080000Y-85757500D03*
%TO.P,U4,7,A*%
%TO.N,Net-(U4-A)*%
X249540000Y-85757500D03*
%TO.P,U4,8,CC*%
%TO.N,GND*%
X247000000Y-85757500D03*
%TO.P,U4,9,F*%
%TO.N,Net-(U4-F)*%
X244460000Y-85757500D03*
%TO.P,U4,10,G*%
%TO.N,Net-(U4-G)*%
X241920000Y-85757500D03*
%TD*%
D16*
%TO.P,C1,1*%
%TO.N,Net-(U1-THR)*%
X181805000Y-102500000D03*
%TO.P,C1,2*%
%TO.N,GND*%
X181805000Y-104500000D03*
%TD*%
D10*
%TO.P,R9,1*%
%TO.N,Net-(U3-g)*%
X225840000Y-103450000D03*
%TO.P,R9,2*%
%TO.N,Net-(U4-G)*%
X233460000Y-103450000D03*
%TD*%
%TO.P,R5,1*%
%TO.N,Net-(U3-c)*%
X225840000Y-87250000D03*
%TO.P,R5,2*%
%TO.N,Net-(U4-C)*%
X233460000Y-87250000D03*
%TD*%
%TO.P,R8,1*%
%TO.N,Net-(U3-f)*%
X225840000Y-99400000D03*
%TO.P,R8,2*%
%TO.N,Net-(U4-F)*%
X233460000Y-99400000D03*
%TD*%
D17*
%TO.P,SW1,1,A*%
%TO.N,VCC*%
X170000000Y-85000000D03*
D18*
%TO.P,SW1,2,B*%
%TO.N,Net-(BT1-+)*%
X170000000Y-88000000D03*
%TO.P,SW1,3,C*%
%TO.N,unconnected-(SW1-C-Pad3)*%
X170000000Y-91000000D03*
%TD*%
D10*
%TO.P,R4,1*%
%TO.N,Net-(U3-b)*%
X225840000Y-83200000D03*
%TO.P,R4,2*%
%TO.N,Net-(U4-B)*%
X233460000Y-83200000D03*
%TD*%
%TO.P,R7,1*%
%TO.N,Net-(U3-e)*%
X225840000Y-95350000D03*
%TO.P,R7,2*%
%TO.N,Net-(U4-E)*%
X233460000Y-95350000D03*
%TD*%
%TO.P,R6,1*%
%TO.N,Net-(U3-d)*%
X225840000Y-91300000D03*
%TO.P,R6,2*%
%TO.N,Net-(U4-D)*%
X233460000Y-91300000D03*
%TD*%
%TO.P,R2,1*%
%TO.N,Net-(U1-DIS)*%
X189230000Y-97420000D03*
%TO.P,R2,2*%
%TO.N,Net-(U1-THR)*%
X181610000Y-97420000D03*
%TD*%
%TO.P,R10,1*%
%TO.N,Net-(U1-Q)*%
X225840000Y-107500000D03*
%TO.P,R10,2*%
%TO.N,Net-(U4-DP)*%
X233460000Y-107500000D03*
%TD*%
D19*
%TO.N,Net-(U1-DIS)*%
X191000000Y-92650000D02*
X189230000Y-94420000D01*
X191000000Y-86035000D02*
X191000000Y-92650000D01*
X189230000Y-94420000D02*
X189230000Y-97420000D01*
X189425000Y-84460000D02*
X191000000Y-86035000D01*
%TO.N,Net-(U1-CV)*%
X189305000Y-101000000D02*
X187500000Y-99195000D01*
X187500000Y-99195000D02*
X187500000Y-91465000D01*
X187500000Y-91465000D02*
X189425000Y-89540000D01*
%TO.N,VCC*%
X181610000Y-94420000D02*
X181610000Y-89735000D01*
X181610000Y-89735000D02*
X181805000Y-89540000D01*
X177540000Y-89540000D02*
X181805000Y-89540000D01*
X173000000Y-85000000D02*
X177540000Y-89540000D01*
X211500000Y-88540000D02*
X214040000Y-88540000D01*
X170000000Y-85000000D02*
X173000000Y-85000000D01*
X211500000Y-93620000D02*
X211500000Y-88540000D01*
X214040000Y-88540000D02*
X219120000Y-83460000D01*
%TO.N,Net-(U1-Q)*%
X188000000Y-80500000D02*
X200580000Y-80500000D01*
X200580000Y-80500000D02*
X204500000Y-84420000D01*
X180500000Y-83500000D02*
X180641000Y-83359000D01*
X180641000Y-83359000D02*
X185141000Y-83359000D01*
X180500000Y-85695000D02*
X180500000Y-83500000D01*
X185141000Y-83359000D02*
X188000000Y-80500000D01*
X181805000Y-87000000D02*
X180500000Y-85695000D01*
%TO.N,Net-(U3-a)*%
X222500000Y-82250000D02*
X226000000Y-78750000D01*
X219120000Y-91080000D02*
X222500000Y-87700000D01*
X222500000Y-87700000D02*
X222500000Y-82250000D01*
%TO.N,Net-(U3-b)*%
X223000000Y-86000000D02*
X223040000Y-86000000D01*
X219120000Y-93620000D02*
X223000000Y-89740000D01*
X223000000Y-89740000D02*
X223000000Y-86000000D01*
X223040000Y-86000000D02*
X225840000Y-83200000D01*
%TO.N,Net-(U3-c)*%
X219120000Y-96160000D02*
X223500000Y-91780000D01*
X223500000Y-91780000D02*
X223500000Y-89590000D01*
X223500000Y-89590000D02*
X225840000Y-87250000D01*
%TO.N,Net-(U3-d)*%
X223910000Y-93230000D02*
X223910000Y-93910000D01*
X225840000Y-91300000D02*
X223910000Y-93230000D01*
X219120000Y-98700000D02*
X223910000Y-93910000D01*
%TO.N,Net-(U3-e)*%
X225150000Y-95350000D02*
X225840000Y-95350000D01*
X219260000Y-101240000D02*
X225150000Y-95350000D01*
X219120000Y-101240000D02*
X219260000Y-101240000D01*
%TO.N,Net-(U2-CP1..3)*%
X205631370Y-89500000D02*
X204500000Y-89500000D01*
X213000000Y-96000000D02*
X213000000Y-97200000D01*
X196880000Y-84420000D02*
X199420000Y-84420000D01*
X213000000Y-96000000D02*
X212059000Y-95059000D01*
X211190370Y-95059000D02*
X205631370Y-89500000D01*
X213000000Y-97200000D02*
X211500000Y-98700000D01*
X212059000Y-95059000D02*
X211190370Y-95059000D01*
X199420000Y-84420000D02*
X204500000Y-89500000D01*
%TO.N,Net-(U2-Q3)*%
X204500000Y-92040000D02*
X207380000Y-92040000D01*
X207380000Y-92040000D02*
X211500000Y-96160000D01*
%TO.N,Net-(U1-THR)*%
X181805000Y-97615000D02*
X181610000Y-97420000D01*
X184500000Y-94530000D02*
X184500000Y-87000000D01*
X181805000Y-84460000D02*
X181960000Y-84460000D01*
X181610000Y-97420000D02*
X184500000Y-94530000D01*
X181805000Y-102500000D02*
X181805000Y-97615000D01*
X184500000Y-87000000D02*
X189425000Y-87000000D01*
X181960000Y-84460000D02*
X184500000Y-87000000D01*
%TO.N,Net-(U4-A)*%
X249540000Y-85757500D02*
X242532500Y-78750000D01*
X242532500Y-78750000D02*
X233620000Y-78750000D01*
%TO.N,Net-(U4-C)*%
X233460000Y-87250000D02*
X235792500Y-87250000D01*
X235792500Y-87250000D02*
X249540000Y-100997500D01*
%TO.N,Net-(U4-D)*%
X233460000Y-91300000D02*
X234762500Y-91300000D01*
X234762500Y-91300000D02*
X244460000Y-100997500D01*
%TO.N,Net-(U4-E)*%
X236272500Y-95350000D02*
X241920000Y-100997500D01*
X233460000Y-95350000D02*
X236272500Y-95350000D01*
%TO.N,Net-(U4-DP)*%
X245577500Y-107500000D02*
X252080000Y-100997500D01*
X233460000Y-107500000D02*
X245577500Y-107500000D01*
%TO.N,Net-(BT1-+)*%
X170000000Y-100960000D02*
X173000000Y-97960000D01*
X173000000Y-91000000D02*
X170000000Y-88000000D01*
X173000000Y-97960000D02*
X173000000Y-91000000D01*
%TD*%
M02*
