%TF.GenerationSoftware,KiCad,Pcbnew,9.0.4*%
%TF.CreationDate,2025-09-01T19:52:21+09:00*%
%TF.ProjectId,HAM_Seminar,48414d5f-5365-46d6-996e-61722e6b6963,rev?*%
%TF.SameCoordinates,Original*%
%TF.FileFunction,Copper,L1,Top*%
%TF.FilePolarity,Positive*%
%FSLAX46Y46*%
G04 Gerber Fmt 4.6, Leading zero omitted, Abs format (unit mm)*
G04 Created by KiCad (PCBNEW 9.0.4) date 2025-09-01 19:52:21*
%MOMM*%
%LPD*%
G01*
G04 APERTURE LIST*
G04 Aperture macros list*
%AMRoundRect*
0 Rectangle with rounded corners*
0 $1 Rounding radius*
0 $2 $3 $4 $5 $6 $7 $8 $9 X,Y pos of 4 corners*
0 Add a 4 corners polygon primitive as box body*
4,1,4,$2,$3,$4,$5,$6,$7,$8,$9,$2,$3,0*
0 Add four circle primitives for the rounded corners*
1,1,$1+$1,$2,$3*
1,1,$1+$1,$4,$5*
1,1,$1+$1,$6,$7*
1,1,$1+$1,$8,$9*
0 Add four rect primitives between the rounded corners*
20,1,$1+$1,$2,$3,$4,$5,0*
20,1,$1+$1,$4,$5,$6,$7,0*
20,1,$1+$1,$6,$7,$8,$9,0*
20,1,$1+$1,$8,$9,$2,$3,0*%
G04 Aperture macros list end*
%TA.AperFunction,ComponentPad*%
%ADD10C,1.600000*%
%TD*%
%TA.AperFunction,ComponentPad*%
%ADD11RoundRect,0.250000X0.550000X0.550000X-0.550000X0.550000X-0.550000X-0.550000X0.550000X-0.550000X0*%
%TD*%
%TA.AperFunction,ComponentPad*%
%ADD12R,1.700000X1.700000*%
%TD*%
%TA.AperFunction,ComponentPad*%
%ADD13C,1.700000*%
%TD*%
%TA.AperFunction,ComponentPad*%
%ADD14C,1.200000*%
%TD*%
%TA.AperFunction,ComponentPad*%
%ADD15R,1.500000X1.500000*%
%TD*%
%TA.AperFunction,ComponentPad*%
%ADD16C,1.500000*%
%TD*%
%TA.AperFunction,ComponentPad*%
%ADD17RoundRect,0.250000X-0.550000X-0.550000X0.550000X-0.550000X0.550000X0.550000X-0.550000X0.550000X0*%
%TD*%
%TA.AperFunction,ViaPad*%
%ADD18C,0.600000*%
%TD*%
%TA.AperFunction,Conductor*%
%ADD19C,0.200000*%
%TD*%
G04 APERTURE END LIST*
D10*
%TO.P,R1,1*%
%TO.N,Net-(U3-a)*%
X202500000Y-79000000D03*
%TO.P,R1,2*%
%TO.N,Net-(U4-A)*%
X212660000Y-79000000D03*
%TD*%
D11*
%TO.P,U1,1,GND*%
%TO.N,GND*%
X152000000Y-97000000D03*
D10*
%TO.P,U1,2,TR*%
%TO.N,Net-(U1-THR)*%
X152000000Y-94460000D03*
%TO.P,U1,3,Q*%
%TO.N,Net-(U1-Q)*%
X152000000Y-91920000D03*
%TO.P,U1,4,R*%
%TO.N,VCC*%
X152000000Y-89380000D03*
%TO.P,U1,5,CV*%
%TO.N,Net-(U1-CV)*%
X144380000Y-89380000D03*
%TO.P,U1,6,THR*%
%TO.N,Net-(U1-THR)*%
X144380000Y-91920000D03*
%TO.P,U1,7,DIS*%
%TO.N,Net-(U1-DIS)*%
X144380000Y-94460000D03*
%TO.P,U1,8,VCC*%
%TO.N,VCC*%
X144380000Y-97000000D03*
%TD*%
%TO.P,R2,1*%
%TO.N,VCC*%
X143500000Y-104000000D03*
%TO.P,R2,2*%
%TO.N,Net-(U1-DIS)*%
X153660000Y-104000000D03*
%TD*%
D12*
%TO.P,J2,1,Pin_1*%
%TO.N,VCC*%
X117000000Y-90225000D03*
D13*
%TO.P,J2,2,Pin_2*%
%TO.N,GND*%
X117000000Y-92765000D03*
%TD*%
D14*
%TO.P,C2,1*%
%TO.N,Net-(U1-CV)*%
X171600000Y-81160000D03*
%TO.P,C2,2*%
%TO.N,GND*%
X173100000Y-81160000D03*
%TD*%
%TO.P,C1,1*%
%TO.N,Net-(U1-THR)*%
X135500000Y-103000000D03*
%TO.P,C1,2*%
%TO.N,GND*%
X135500000Y-104500000D03*
%TD*%
D15*
%TO.P,U4,1,F*%
%TO.N,Net-(U4-F)*%
X220880000Y-86380000D03*
D16*
%TO.P,U4,2,G*%
%TO.N,Net-(U4-G)*%
X220880000Y-88920000D03*
%TO.P,U4,3,NC*%
%TO.N,unconnected-(U4-NC-Pad3)*%
X220880000Y-91460000D03*
%TO.P,U4,4,CC*%
%TO.N,GND*%
X220880000Y-94000000D03*
%TO.P,U4,5,NC*%
%TO.N,unconnected-(U4-NC-Pad5)*%
X220880000Y-96540000D03*
%TO.P,U4,6,E*%
%TO.N,Net-(U4-E)*%
X220880000Y-99080000D03*
%TO.P,U4,7,D*%
%TO.N,Net-(U4-D)*%
X220880000Y-101620000D03*
%TO.P,U4,8,C*%
%TO.N,Net-(U4-C)*%
X228500000Y-101620000D03*
%TO.P,U4,9,D.P.*%
%TO.N,Net-(U4-D.P.)*%
X228500000Y-99080000D03*
%TO.P,U4,10,NC*%
%TO.N,unconnected-(U4-NC-Pad10)*%
X228500000Y-96540000D03*
%TO.P,U4,11,NC*%
%TO.N,unconnected-(U4-NC-Pad11)*%
X228500000Y-94000000D03*
%TO.P,U4,12,CC*%
%TO.N,GND*%
X228500000Y-91460000D03*
%TO.P,U4,13,B*%
%TO.N,Net-(U4-B)*%
X228500000Y-88920000D03*
%TO.P,U4,14,A*%
%TO.N,Net-(U4-A)*%
X228500000Y-86380000D03*
%TD*%
D17*
%TO.P,U3,1,B*%
%TO.N,Net-(U2-Q1)*%
X184380000Y-85460000D03*
D10*
%TO.P,U3,2,C*%
%TO.N,Net-(U2-Q2)*%
X184380000Y-88000000D03*
%TO.P,U3,3,LT*%
%TO.N,VCC*%
X184380000Y-90540000D03*
%TO.P,U3,4,BI*%
X184380000Y-93080000D03*
%TO.P,U3,5,RBI*%
X184380000Y-95620000D03*
%TO.P,U3,6,D*%
%TO.N,Net-(U2-Q3)*%
X184380000Y-98160000D03*
%TO.P,U3,7,A*%
%TO.N,Net-(U2-CP1..3)*%
X184380000Y-100700000D03*
%TO.P,U3,8,GND*%
%TO.N,GND*%
X184380000Y-103240000D03*
%TO.P,U3,9,e*%
%TO.N,Net-(U3-e)*%
X192000000Y-103240000D03*
%TO.P,U3,10,d*%
%TO.N,Net-(U3-d)*%
X192000000Y-100700000D03*
%TO.P,U3,11,c*%
%TO.N,Net-(U3-c)*%
X192000000Y-98160000D03*
%TO.P,U3,12,b*%
%TO.N,Net-(U3-b)*%
X192000000Y-95620000D03*
%TO.P,U3,13,a*%
%TO.N,Net-(U3-a)*%
X192000000Y-93080000D03*
%TO.P,U3,14,g*%
%TO.N,Net-(U3-g)*%
X192000000Y-90540000D03*
%TO.P,U3,15,f*%
%TO.N,Net-(U3-f)*%
X192000000Y-88000000D03*
%TO.P,U3,16,VCC*%
%TO.N,VCC*%
X192000000Y-85460000D03*
%TD*%
D17*
%TO.P,U2,1,CP1..3*%
%TO.N,Net-(U2-CP1..3)*%
X163380000Y-86120000D03*
D10*
%TO.P,U2,2,R0(1)*%
%TO.N,GND*%
X163380000Y-88660000D03*
%TO.P,U2,3,R0(2)*%
X163380000Y-91200000D03*
%TO.P,U2,4*%
%TO.N,N/C*%
X163380000Y-93740000D03*
%TO.P,U2,5,VCC*%
%TO.N,VCC*%
X163380000Y-96280000D03*
%TO.P,U2,6,R9(1)*%
%TO.N,GND*%
X163380000Y-98820000D03*
%TO.P,U2,7,R9(2)*%
X171000000Y-98820000D03*
%TO.P,U2,8,Q2*%
%TO.N,Net-(U2-Q2)*%
X171000000Y-96280000D03*
%TO.P,U2,9,Q1*%
%TO.N,Net-(U2-Q1)*%
X171000000Y-93740000D03*
%TO.P,U2,10,GND*%
%TO.N,GND*%
X171000000Y-91200000D03*
%TO.P,U2,11,Q3*%
%TO.N,Net-(U2-Q3)*%
X171000000Y-88660000D03*
%TO.P,U2,12,Q0*%
%TO.N,Net-(U2-CP1..3)*%
X171000000Y-86120000D03*
%TD*%
%TO.P,R10,1*%
%TO.N,Net-(U1-DIS)*%
X133500000Y-96660000D03*
%TO.P,R10,2*%
%TO.N,Net-(U1-THR)*%
X133500000Y-86500000D03*
%TD*%
%TO.P,R9,1*%
%TO.N,Net-(U1-Q)*%
X202340000Y-107750000D03*
%TO.P,R9,2*%
%TO.N,Net-(U4-D.P.)*%
X212500000Y-107750000D03*
%TD*%
%TO.P,R8,1*%
%TO.N,Net-(U3-g)*%
X202340000Y-103700000D03*
%TO.P,R8,2*%
%TO.N,Net-(U4-G)*%
X212500000Y-103700000D03*
%TD*%
%TO.P,R7,1*%
%TO.N,Net-(U3-f)*%
X202340000Y-99650000D03*
%TO.P,R7,2*%
%TO.N,Net-(U4-F)*%
X212500000Y-99650000D03*
%TD*%
%TO.P,R6,1*%
%TO.N,Net-(U3-e)*%
X202340000Y-95600000D03*
%TO.P,R6,2*%
%TO.N,Net-(U4-E)*%
X212500000Y-95600000D03*
%TD*%
%TO.P,R5,1*%
%TO.N,Net-(U3-d)*%
X202340000Y-91550000D03*
%TO.P,R5,2*%
%TO.N,Net-(U4-D)*%
X212500000Y-91550000D03*
%TD*%
%TO.P,R4,1*%
%TO.N,Net-(U3-c)*%
X202340000Y-87500000D03*
%TO.P,R4,2*%
%TO.N,Net-(U4-C)*%
X212500000Y-87500000D03*
%TD*%
%TO.P,R3,1*%
%TO.N,Net-(U3-b)*%
X202340000Y-83450000D03*
%TO.P,R3,2*%
%TO.N,Net-(U4-B)*%
X212500000Y-83450000D03*
%TD*%
D18*
%TO.N,VCC*%
X133000000Y-100500000D03*
%TD*%
D19*
%TO.N,Net-(U3-a)*%
X202500000Y-81732950D02*
X202500000Y-79000000D01*
X192000000Y-92232950D02*
X202500000Y-81732950D01*
X192000000Y-93080000D02*
X192000000Y-92232950D01*
%TO.N,Net-(U4-D)*%
X209500000Y-94550000D02*
X212500000Y-91550000D01*
X209500000Y-99500000D02*
X209500000Y-94550000D01*
X220880000Y-101620000D02*
X211620000Y-101620000D01*
X211620000Y-101620000D02*
X209500000Y-99500000D01*
%TO.N,VCC*%
X122725000Y-90225000D02*
X133000000Y-100500000D01*
X117000000Y-90225000D02*
X122725000Y-90225000D01*
%TO.N,Net-(U4-E)*%
X212500000Y-95600000D02*
X217400000Y-95600000D01*
X217400000Y-95600000D02*
X220880000Y-99080000D01*
%TO.N,Net-(U4-D.P.)*%
X223250000Y-107750000D02*
X212500000Y-107750000D01*
X224500000Y-106500000D02*
X223250000Y-107750000D01*
X225567100Y-106500000D02*
X224500000Y-106500000D01*
X227449000Y-104618100D02*
X225567100Y-106500000D01*
X227449000Y-100551000D02*
X227449000Y-104618100D01*
X227500000Y-100500000D02*
X227449000Y-100551000D01*
X227500000Y-100080000D02*
X227500000Y-100500000D01*
X228500000Y-99080000D02*
X227500000Y-100080000D01*
%TO.N,Net-(U4-C)*%
X231000000Y-99120000D02*
X228500000Y-101620000D01*
X231000000Y-92473661D02*
X231000000Y-99120000D01*
X228935339Y-90409000D02*
X231000000Y-92473661D01*
X227909000Y-90409000D02*
X228935339Y-90409000D01*
X222000000Y-84500000D02*
X227909000Y-90409000D01*
X217000000Y-84500000D02*
X222000000Y-84500000D01*
X214000000Y-87500000D02*
X217000000Y-84500000D01*
X212500000Y-87500000D02*
X214000000Y-87500000D01*
%TO.N,Net-(U4-A)*%
X221120000Y-79000000D02*
X228500000Y-86380000D01*
X212660000Y-79000000D02*
X221120000Y-79000000D01*
%TO.N,Net-(U4-B)*%
X223030000Y-83450000D02*
X228500000Y-88920000D01*
X212500000Y-83450000D02*
X223030000Y-83450000D01*
%TO.N,GND*%
X225500000Y-94460000D02*
X225500000Y-97000000D01*
X228500000Y-91460000D02*
X225500000Y-94460000D01*
X222500000Y-94000000D02*
X220880000Y-94000000D01*
X225500000Y-106000000D02*
X225500000Y-97000000D01*
X187140000Y-106000000D02*
X225500000Y-106000000D01*
X225500000Y-97000000D02*
X222500000Y-94000000D01*
X184380000Y-103240000D02*
X187140000Y-106000000D01*
%TO.N,Net-(U3-b)*%
X202340000Y-85280000D02*
X202340000Y-83450000D01*
X192000000Y-95620000D02*
X202340000Y-85280000D01*
%TO.N,Net-(U3-c)*%
X192000000Y-98160000D02*
X202340000Y-87820000D01*
X202340000Y-87820000D02*
X202340000Y-87500000D01*
%TO.N,Net-(U3-d)*%
X193190000Y-100700000D02*
X202340000Y-91550000D01*
X192000000Y-100700000D02*
X193190000Y-100700000D01*
%TO.N,Net-(U3-e)*%
X194700000Y-103240000D02*
X202340000Y-95600000D01*
X192000000Y-103240000D02*
X194700000Y-103240000D01*
%TO.N,GND*%
X171000000Y-98820000D02*
X179960000Y-98820000D01*
X179960000Y-98820000D02*
X184380000Y-103240000D01*
%TO.N,Net-(U1-Q)*%
X167830000Y-107750000D02*
X202340000Y-107750000D01*
X152000000Y-91920000D02*
X167830000Y-107750000D01*
%TO.N,VCC*%
X158900000Y-96280000D02*
X152000000Y-89380000D01*
X163380000Y-96280000D02*
X158900000Y-96280000D01*
%TO.N,GND*%
X173100000Y-89100000D02*
X171000000Y-91200000D01*
X173100000Y-81160000D02*
X173100000Y-89100000D01*
%TO.N,Net-(U2-Q2)*%
X179280000Y-88000000D02*
X171000000Y-96280000D01*
X184380000Y-88000000D02*
X179280000Y-88000000D01*
%TO.N,Net-(U2-Q1)*%
X179280000Y-85460000D02*
X171000000Y-93740000D01*
X184380000Y-85460000D02*
X179280000Y-85460000D01*
%TO.N,VCC*%
X192000000Y-85460000D02*
X184380000Y-93080000D01*
X184380000Y-95620000D02*
X184380000Y-90540000D01*
X181880000Y-95620000D02*
X184380000Y-95620000D01*
X164481000Y-97381000D02*
X180119000Y-97381000D01*
X180119000Y-97381000D02*
X181880000Y-95620000D01*
X163380000Y-96280000D02*
X164481000Y-97381000D01*
%TO.N,GND*%
X163380000Y-98820000D02*
X171000000Y-98820000D01*
X163380000Y-88660000D02*
X163380000Y-91200000D01*
X163380000Y-91200000D02*
X171000000Y-91200000D01*
%TO.N,Net-(U2-CP1..3)*%
X163380000Y-86120000D02*
X171000000Y-86120000D01*
%TO.N,Net-(U1-CV)*%
X152600000Y-81160000D02*
X144380000Y-89380000D01*
X171600000Y-81160000D02*
X152600000Y-81160000D01*
%TO.N,Net-(U1-THR)*%
X147420000Y-91920000D02*
X144380000Y-91920000D01*
X149960000Y-94460000D02*
X147420000Y-91920000D01*
X152000000Y-94460000D02*
X149960000Y-94460000D01*
X138960000Y-86500000D02*
X144380000Y-91920000D01*
X133500000Y-86500000D02*
X138960000Y-86500000D01*
X135500000Y-100800000D02*
X144380000Y-91920000D01*
X135500000Y-103000000D02*
X135500000Y-100800000D01*
%TO.N,VCC*%
X143500000Y-97880000D02*
X144380000Y-97000000D01*
X143500000Y-104000000D02*
X143500000Y-97880000D01*
%TO.N,GND*%
X152000000Y-100000000D02*
X152000000Y-97000000D01*
X147500000Y-104500000D02*
X152000000Y-100000000D01*
X137000000Y-106000000D02*
X147500000Y-106000000D01*
X135500000Y-104500000D02*
X137000000Y-106000000D01*
X147500000Y-106000000D02*
X147500000Y-104500000D01*
X128735000Y-104500000D02*
X117000000Y-92765000D01*
X135500000Y-104500000D02*
X128735000Y-104500000D01*
%TD*%
M02*
