%TF.GenerationSoftware,KiCad,Pcbnew,9.0.4*%
%TF.CreationDate,2026-04-02T10:35:19+09:00*%
%TF.ProjectId,SPLD_Test,53504c44-5f54-4657-9374-2e6b69636164,rev?*%
%TF.SameCoordinates,Original*%
%TF.FileFunction,Soldermask,Bot*%
%TF.FilePolarity,Negative*%
%FSLAX46Y46*%
G04 Gerber Fmt 4.6, Leading zero omitted, Abs format (unit mm)*
G04 Created by KiCad (PCBNEW 9.0.4) date 2026-04-02 10:35:19*
%MOMM*%
%LPD*%
G01*
G04 APERTURE LIST*
G04 Aperture macros list*
%AMRoundRect*
0 Rectangle with rounded corners*
0 $1 Rounding radius*
0 $2 $3 $4 $5 $6 $7 $8 $9 X,Y pos of 4 corners*
0 Add a 4 corners polygon primitive as box body*
4,1,4,$2,$3,$4,$5,$6,$7,$8,$9,$2,$3,0*
0 Add four circle primitives for the rounded corners*
1,1,$1+$1,$2,$3*
1,1,$1+$1,$4,$5*
1,1,$1+$1,$6,$7*
1,1,$1+$1,$8,$9*
0 Add four rect primitives between the rounded corners*
20,1,$1+$1,$2,$3,$4,$5,0*
20,1,$1+$1,$4,$5,$6,$7,0*
20,1,$1+$1,$6,$7,$8,$9,0*
20,1,$1+$1,$8,$9,$2,$3,0*%
G04 Aperture macros list end*
%ADD10O,1.700000X1.100000*%
%ADD11R,1.422400X1.422400*%
%ADD12C,1.422400*%
%ADD13C,2.000000*%
%ADD14R,1.500000X1.500000*%
%ADD15C,1.500000*%
%ADD16C,1.320800*%
%ADD17C,1.752600*%
%ADD18R,1.700000X1.700000*%
%ADD19C,1.700000*%
%ADD20RoundRect,0.200000X-0.450000X0.200000X-0.450000X-0.200000X0.450000X-0.200000X0.450000X0.200000X0*%
%ADD21O,1.300000X0.800000*%
%ADD22RoundRect,0.250000X-0.600000X-0.600000X0.600000X-0.600000X0.600000X0.600000X-0.600000X0.600000X0*%
%ADD23RoundRect,0.160000X-0.197500X-0.160000X0.197500X-0.160000X0.197500X0.160000X-0.197500X0.160000X0*%
G04 APERTURE END LIST*
D10*
%TO.C,J1*%
X122500000Y-47180000D03*
X118700000Y-47180000D03*
X122500000Y-55820000D03*
X118700000Y-55820000D03*
%TD*%
D11*
%TO.C,U3*%
X145170000Y-86540000D03*
D12*
X142630000Y-84000000D03*
X142630000Y-86540000D03*
X140090000Y-84000000D03*
X140090000Y-86540000D03*
X137550000Y-84000000D03*
X135010000Y-86540000D03*
X137550000Y-86540000D03*
X135010000Y-89080000D03*
X137550000Y-89080000D03*
X135010000Y-91620000D03*
X137550000Y-91620000D03*
X135010000Y-94160000D03*
X137550000Y-94160000D03*
X135010000Y-96700000D03*
X137550000Y-96700000D03*
X135010000Y-99240000D03*
X137550000Y-101780000D03*
X137550000Y-99240000D03*
X140090000Y-101780000D03*
X140090000Y-99240000D03*
X142630000Y-101780000D03*
X142630000Y-99240000D03*
X145170000Y-101780000D03*
X145170000Y-99240000D03*
X147710000Y-101780000D03*
X147710000Y-99240000D03*
X150250000Y-101780000D03*
X152790000Y-99240000D03*
X150250000Y-99240000D03*
X152790000Y-96700000D03*
X150250000Y-96700000D03*
X152790000Y-94160000D03*
X150250000Y-94160000D03*
X152790000Y-91620000D03*
X150250000Y-91620000D03*
X152790000Y-89080000D03*
X150250000Y-89080000D03*
X152790000Y-86540000D03*
X150250000Y-84000000D03*
X150250000Y-86540000D03*
X147710000Y-84000000D03*
X147710000Y-86540000D03*
X145170000Y-84000000D03*
%TD*%
D13*
%TO.C,SW2*%
X190246000Y-94615000D03*
X196746000Y-94615000D03*
X190246000Y-99115000D03*
X196746000Y-99115000D03*
%TD*%
D14*
%TO.C,U5*%
X183388000Y-64516000D03*
D15*
X185928000Y-64516000D03*
X188468000Y-64516000D03*
X191008000Y-64516000D03*
X193548000Y-64516000D03*
X196088000Y-64516000D03*
X196088000Y-49276000D03*
X193548000Y-49276000D03*
X191008000Y-49276000D03*
X188468000Y-49276000D03*
X185928000Y-49276000D03*
X183388000Y-49276000D03*
%TD*%
D16*
%TO.C,SW1*%
X118999000Y-63421000D03*
X118999000Y-65421001D03*
X118999000Y-67421002D03*
D17*
X118999000Y-61321002D03*
X118999000Y-69521000D03*
%TD*%
D13*
%TO.C,SW3*%
X141500000Y-65508000D03*
X148000000Y-65508000D03*
X141500000Y-70008000D03*
X148000000Y-70008000D03*
%TD*%
%TO.C,SW4*%
X128292000Y-65508000D03*
X134792000Y-65508000D03*
X128292000Y-70008000D03*
X134792000Y-70008000D03*
%TD*%
%TO.C,SW5*%
X154962000Y-65000000D03*
X161462000Y-65000000D03*
X154962000Y-69500000D03*
X161462000Y-69500000D03*
%TD*%
D18*
%TO.C,J4*%
X211022000Y-91277000D03*
D19*
X211022000Y-93817000D03*
X211022000Y-96357000D03*
X211022000Y-98897000D03*
X211022000Y-101437000D03*
X211022000Y-103977000D03*
%TD*%
D20*
%TO.C,BT1*%
X123000000Y-75500000D03*
D21*
X123000000Y-76750000D03*
%TD*%
D22*
%TO.C,J2*%
X122747500Y-90420000D03*
D19*
X125287500Y-90420000D03*
X122747500Y-92960000D03*
X125287500Y-92960000D03*
X122747500Y-95500000D03*
X125287500Y-95500000D03*
X122747500Y-98040000D03*
X125287500Y-98040000D03*
X122747500Y-100580000D03*
X125287500Y-100580000D03*
%TD*%
D18*
%TO.C,J5*%
X184000000Y-70000000D03*
D19*
X186540000Y-70000000D03*
X189080000Y-70000000D03*
X191620000Y-70000000D03*
%TD*%
D23*
%TO.C,R24*%
X177602500Y-57400000D03*
X178797500Y-57400000D03*
%TD*%
%TO.C,R22*%
X177602500Y-51000000D03*
X178797500Y-51000000D03*
%TD*%
%TO.C,R23*%
X177602500Y-54600000D03*
X178797500Y-54600000D03*
%TD*%
%TO.C,R29*%
X177602500Y-58800000D03*
X178797500Y-58800000D03*
%TD*%
%TO.C,R27*%
X177602500Y-52400000D03*
X178797500Y-52400000D03*
%TD*%
%TO.C,R28*%
X177602500Y-56000000D03*
X178797500Y-56000000D03*
%TD*%
%TO.C,R26*%
X177602500Y-61600000D03*
X178797500Y-61600000D03*
%TD*%
%TO.C,R25*%
X177602500Y-60200000D03*
X178797500Y-60200000D03*
%TD*%
M02*
