M48
; DRILL file {KiCad 9.0.4} date 2026-04-02T10:35:15+0900
; FORMAT={-:-/ absolute / metric / decimal}
; #@! TF.CreationDate,2026-04-02T10:35:15+09:00
; #@! TF.GenerationSoftware,Kicad,Pcbnew,9.0.4
; #@! TF.FileFunction,Plated,1,2,PTH
FMAT,2
METRIC
; #@! TA.AperFunction,Plated,PTH,ComponentDrill
T1C0.200
; #@! TA.AperFunction,Plated,PTH,ViaDrill
T2C0.300
; #@! TA.AperFunction,Plated,PTH,ComponentDrill
T3C0.500
; #@! TA.AperFunction,Plated,PTH,ComponentDrill
T4C0.600
; #@! TA.AperFunction,Plated,PTH,ComponentDrill
T5C0.800
; #@! TA.AperFunction,Plated,PTH,ComponentDrill
T6C0.813
; #@! TA.AperFunction,Plated,PTH,ComponentDrill
T7C1.000
; #@! TA.AperFunction,Plated,PTH,ComponentDrill
T8C1.100
; #@! TA.AperFunction,Plated,PTH,ComponentDrill
T9C1.245
%
G90
G05
T1
X130.8Y-53.8
X130.8Y-55.0
X130.8Y-56.2
X132.2Y-53.8
X132.2Y-55.0
X132.2Y-56.2
T2
X120.447Y-79.299
X122.885Y-63.094
X128.0Y-59.0
X129.0Y-51.0
X129.306Y-88.798
X130.038Y-91.601
X130.108Y-94.112
X130.206Y-95.148
X134.0Y-60.0
X134.893Y-75.693
X136.0Y-49.0
X136.347Y-88.392
X136.754Y-76.098
X137.393Y-73.193
X137.719Y-77.368
X140.0Y-49.0
X140.0Y-60.0
X140.157Y-74.473
X140.462Y-76.708
X141.0Y-90.718
X142.0Y-94.0
X142.646Y-75.641
X143.0Y-44.0
X145.0Y-57.0
X145.034Y-74.778
X146.007Y-73.98
X149.0Y-58.0
X150.0Y-47.0
X154.0Y-101.0
X154.0Y-102.0
X154.0Y-104.0
X154.829Y-102.549
X156.0Y-103.5
X158.648Y-72.562
X158.699Y-67.259
X159.918Y-73.162
X161.0Y-83.4
X161.29Y-73.447
X163.0Y-62.0
X163.0Y-94.0
X163.0Y-97.0
X163.0Y-99.0
X163.0Y-102.0
X164.033Y-68.885
X165.0Y-86.0
X165.5Y-92.5
X166.0Y-95.0
X166.992Y-99.008
X167.0Y-79.5
X167.0Y-102.0
X169.0Y-55.0
X169.0Y-75.0
X169.0Y-95.0
X169.0Y-97.0
X172.0Y-73.0
X172.0Y-88.0
X172.6Y-92.6
X173.2Y-86.2
X173.75Y-90.75
X174.5Y-93.0
X174.8Y-53.2
X175.599Y-91.599
X176.524Y-91.524
X180.0Y-96.0
X180.1Y-87.7
X180.8Y-88.6
X181.2Y-89.8
X184.0Y-87.0
X187.0Y-56.0
T3
X123.0Y-75.5
X123.0Y-76.75
T5
X135.01Y-86.54
X135.01Y-89.08
X135.01Y-91.62
X135.01Y-94.16
X135.01Y-96.7
X135.01Y-99.24
X137.55Y-84.0
X137.55Y-86.54
X137.55Y-89.08
X137.55Y-91.62
X137.55Y-94.16
X137.55Y-96.7
X137.55Y-99.24
X137.55Y-101.78
X140.09Y-84.0
X140.09Y-86.54
X140.09Y-99.24
X140.09Y-101.78
X142.63Y-84.0
X142.63Y-86.54
X142.63Y-99.24
X142.63Y-101.78
X145.17Y-84.0
X145.17Y-86.54
X145.17Y-99.24
X145.17Y-101.78
X147.71Y-84.0
X147.71Y-86.54
X147.71Y-99.24
X147.71Y-101.78
X150.25Y-84.0
X150.25Y-86.54
X150.25Y-89.08
X150.25Y-91.62
X150.25Y-94.16
X150.25Y-96.7
X150.25Y-99.24
X150.25Y-101.78
X152.79Y-86.54
X152.79Y-89.08
X152.79Y-91.62
X152.79Y-94.16
X152.79Y-96.7
X152.79Y-99.24
T6
X118.999Y-63.421
X118.999Y-65.421
X118.999Y-67.421
T7
X122.747Y-90.42
X122.747Y-92.96
X122.747Y-95.5
X122.747Y-98.04
X122.747Y-100.58
X125.287Y-90.42
X125.287Y-92.96
X125.287Y-95.5
X125.287Y-98.04
X125.287Y-100.58
X183.388Y-49.276
X183.388Y-64.516
X184.0Y-70.0
X185.928Y-49.276
X185.928Y-64.516
X186.54Y-70.0
X188.468Y-49.276
X188.468Y-64.516
X189.08Y-70.0
X191.008Y-49.276
X191.008Y-64.516
X191.62Y-70.0
X193.548Y-49.276
X193.548Y-64.516
X196.088Y-49.276
X196.088Y-64.516
X211.022Y-91.277
X211.022Y-93.817
X211.022Y-96.357
X211.022Y-98.897
X211.022Y-101.437
X211.022Y-103.977
T8
X128.292Y-65.508
X128.292Y-70.008
X134.792Y-65.508
X134.792Y-70.008
X141.5Y-65.508
X141.5Y-70.008
X148.0Y-65.508
X148.0Y-70.008
X154.962Y-65.0
X154.962Y-69.5
X161.462Y-65.0
X161.462Y-69.5
X190.246Y-94.615
X190.246Y-99.115
X196.746Y-94.615
X196.746Y-99.115
T9
X118.999Y-61.321
X118.999Y-69.521
T4
G00X119.0Y-47.18
M15
G01X118.4Y-47.18
M16
G05
G00X119.0Y-55.82
M15
G01X118.4Y-55.82
M16
G05
G00X122.8Y-47.18
M15
G01X122.2Y-47.18
M16
G05
G00X122.8Y-55.82
M15
G01X122.2Y-55.82
M16
G05
M30
