%TF.GenerationSoftware,KiCad,Pcbnew,9.0.4*%
%TF.CreationDate,2026-04-02T10:35:08+09:00*%
%TF.ProjectId,HAM_Seminar_NE555,48414d5f-5365-46d6-996e-61725f4e4535,rev?*%
%TF.SameCoordinates,Original*%
%TF.FileFunction,Legend,Top*%
%TF.FilePolarity,Positive*%
%FSLAX46Y46*%
G04 Gerber Fmt 4.6, Leading zero omitted, Abs format (unit mm)*
G04 Created by KiCad (PCBNEW 9.0.4) date 2026-04-02 10:35:08*
%MOMM*%
%LPD*%
G01*
G04 APERTURE LIST*
%ADD10C,0.300000*%
%ADD11C,0.150000*%
%ADD12C,0.120000*%
G04 APERTURE END LIST*
D10*
X118578320Y-78629114D02*
X118673558Y-78533876D01*
X118673558Y-78533876D02*
X118864034Y-78438638D01*
X118864034Y-78438638D02*
X119340225Y-78438638D01*
X119340225Y-78438638D02*
X119530701Y-78533876D01*
X119530701Y-78533876D02*
X119625939Y-78629114D01*
X119625939Y-78629114D02*
X119721177Y-78819590D01*
X119721177Y-78819590D02*
X119721177Y-79010066D01*
X119721177Y-79010066D02*
X119625939Y-79295780D01*
X119625939Y-79295780D02*
X118483082Y-80438638D01*
X118483082Y-80438638D02*
X119721177Y-80438638D01*
X120959272Y-78438638D02*
X121149749Y-78438638D01*
X121149749Y-78438638D02*
X121340225Y-78533876D01*
X121340225Y-78533876D02*
X121435463Y-78629114D01*
X121435463Y-78629114D02*
X121530701Y-78819590D01*
X121530701Y-78819590D02*
X121625939Y-79200542D01*
X121625939Y-79200542D02*
X121625939Y-79676733D01*
X121625939Y-79676733D02*
X121530701Y-80057685D01*
X121530701Y-80057685D02*
X121435463Y-80248161D01*
X121435463Y-80248161D02*
X121340225Y-80343400D01*
X121340225Y-80343400D02*
X121149749Y-80438638D01*
X121149749Y-80438638D02*
X120959272Y-80438638D01*
X120959272Y-80438638D02*
X120768796Y-80343400D01*
X120768796Y-80343400D02*
X120673558Y-80248161D01*
X120673558Y-80248161D02*
X120578320Y-80057685D01*
X120578320Y-80057685D02*
X120483082Y-79676733D01*
X120483082Y-79676733D02*
X120483082Y-79200542D01*
X120483082Y-79200542D02*
X120578320Y-78819590D01*
X120578320Y-78819590D02*
X120673558Y-78629114D01*
X120673558Y-78629114D02*
X120768796Y-78533876D01*
X120768796Y-78533876D02*
X120959272Y-78438638D01*
X122387844Y-78629114D02*
X122483082Y-78533876D01*
X122483082Y-78533876D02*
X122673558Y-78438638D01*
X122673558Y-78438638D02*
X123149749Y-78438638D01*
X123149749Y-78438638D02*
X123340225Y-78533876D01*
X123340225Y-78533876D02*
X123435463Y-78629114D01*
X123435463Y-78629114D02*
X123530701Y-78819590D01*
X123530701Y-78819590D02*
X123530701Y-79010066D01*
X123530701Y-79010066D02*
X123435463Y-79295780D01*
X123435463Y-79295780D02*
X122292606Y-80438638D01*
X122292606Y-80438638D02*
X123530701Y-80438638D01*
X125244987Y-78438638D02*
X124864034Y-78438638D01*
X124864034Y-78438638D02*
X124673558Y-78533876D01*
X124673558Y-78533876D02*
X124578320Y-78629114D01*
X124578320Y-78629114D02*
X124387844Y-78914828D01*
X124387844Y-78914828D02*
X124292606Y-79295780D01*
X124292606Y-79295780D02*
X124292606Y-80057685D01*
X124292606Y-80057685D02*
X124387844Y-80248161D01*
X124387844Y-80248161D02*
X124483082Y-80343400D01*
X124483082Y-80343400D02*
X124673558Y-80438638D01*
X124673558Y-80438638D02*
X125054511Y-80438638D01*
X125054511Y-80438638D02*
X125244987Y-80343400D01*
X125244987Y-80343400D02*
X125340225Y-80248161D01*
X125340225Y-80248161D02*
X125435463Y-80057685D01*
X125435463Y-80057685D02*
X125435463Y-79581495D01*
X125435463Y-79581495D02*
X125340225Y-79391019D01*
X125340225Y-79391019D02*
X125244987Y-79295780D01*
X125244987Y-79295780D02*
X125054511Y-79200542D01*
X125054511Y-79200542D02*
X124673558Y-79200542D01*
X124673558Y-79200542D02*
X124483082Y-79295780D01*
X124483082Y-79295780D02*
X124387844Y-79391019D01*
X124387844Y-79391019D02*
X124292606Y-79581495D01*
X126292606Y-79676733D02*
X127816416Y-79676733D01*
X129816415Y-80438638D02*
X128673558Y-80438638D01*
X129244986Y-80438638D02*
X129244986Y-78438638D01*
X129244986Y-78438638D02*
X129054510Y-78724352D01*
X129054510Y-78724352D02*
X128864034Y-78914828D01*
X128864034Y-78914828D02*
X128673558Y-79010066D01*
X132197368Y-80438638D02*
X132197368Y-78438638D01*
X132197368Y-79391019D02*
X133340225Y-79391019D01*
X133340225Y-80438638D02*
X133340225Y-78438638D01*
X134197368Y-79867209D02*
X135149749Y-79867209D01*
X134006892Y-80438638D02*
X134673558Y-78438638D01*
X134673558Y-78438638D02*
X135340225Y-80438638D01*
X136006892Y-80438638D02*
X136006892Y-78438638D01*
X136006892Y-78438638D02*
X136673559Y-79867209D01*
X136673559Y-79867209D02*
X137340225Y-78438638D01*
X137340225Y-78438638D02*
X137340225Y-80438638D01*
X139721178Y-80343400D02*
X140006892Y-80438638D01*
X140006892Y-80438638D02*
X140483083Y-80438638D01*
X140483083Y-80438638D02*
X140673559Y-80343400D01*
X140673559Y-80343400D02*
X140768797Y-80248161D01*
X140768797Y-80248161D02*
X140864035Y-80057685D01*
X140864035Y-80057685D02*
X140864035Y-79867209D01*
X140864035Y-79867209D02*
X140768797Y-79676733D01*
X140768797Y-79676733D02*
X140673559Y-79581495D01*
X140673559Y-79581495D02*
X140483083Y-79486257D01*
X140483083Y-79486257D02*
X140102130Y-79391019D01*
X140102130Y-79391019D02*
X139911654Y-79295780D01*
X139911654Y-79295780D02*
X139816416Y-79200542D01*
X139816416Y-79200542D02*
X139721178Y-79010066D01*
X139721178Y-79010066D02*
X139721178Y-78819590D01*
X139721178Y-78819590D02*
X139816416Y-78629114D01*
X139816416Y-78629114D02*
X139911654Y-78533876D01*
X139911654Y-78533876D02*
X140102130Y-78438638D01*
X140102130Y-78438638D02*
X140578321Y-78438638D01*
X140578321Y-78438638D02*
X140864035Y-78533876D01*
X142483083Y-80343400D02*
X142292607Y-80438638D01*
X142292607Y-80438638D02*
X141911654Y-80438638D01*
X141911654Y-80438638D02*
X141721178Y-80343400D01*
X141721178Y-80343400D02*
X141625940Y-80152923D01*
X141625940Y-80152923D02*
X141625940Y-79391019D01*
X141625940Y-79391019D02*
X141721178Y-79200542D01*
X141721178Y-79200542D02*
X141911654Y-79105304D01*
X141911654Y-79105304D02*
X142292607Y-79105304D01*
X142292607Y-79105304D02*
X142483083Y-79200542D01*
X142483083Y-79200542D02*
X142578321Y-79391019D01*
X142578321Y-79391019D02*
X142578321Y-79581495D01*
X142578321Y-79581495D02*
X141625940Y-79771971D01*
X143435464Y-80438638D02*
X143435464Y-79105304D01*
X143435464Y-79295780D02*
X143530702Y-79200542D01*
X143530702Y-79200542D02*
X143721178Y-79105304D01*
X143721178Y-79105304D02*
X144006893Y-79105304D01*
X144006893Y-79105304D02*
X144197369Y-79200542D01*
X144197369Y-79200542D02*
X144292607Y-79391019D01*
X144292607Y-79391019D02*
X144292607Y-80438638D01*
X144292607Y-79391019D02*
X144387845Y-79200542D01*
X144387845Y-79200542D02*
X144578321Y-79105304D01*
X144578321Y-79105304D02*
X144864035Y-79105304D01*
X144864035Y-79105304D02*
X145054512Y-79200542D01*
X145054512Y-79200542D02*
X145149750Y-79391019D01*
X145149750Y-79391019D02*
X145149750Y-80438638D01*
X146102131Y-80438638D02*
X146102131Y-79105304D01*
X146102131Y-78438638D02*
X146006893Y-78533876D01*
X146006893Y-78533876D02*
X146102131Y-78629114D01*
X146102131Y-78629114D02*
X146197369Y-78533876D01*
X146197369Y-78533876D02*
X146102131Y-78438638D01*
X146102131Y-78438638D02*
X146102131Y-78629114D01*
X147054512Y-79105304D02*
X147054512Y-80438638D01*
X147054512Y-79295780D02*
X147149750Y-79200542D01*
X147149750Y-79200542D02*
X147340226Y-79105304D01*
X147340226Y-79105304D02*
X147625941Y-79105304D01*
X147625941Y-79105304D02*
X147816417Y-79200542D01*
X147816417Y-79200542D02*
X147911655Y-79391019D01*
X147911655Y-79391019D02*
X147911655Y-80438638D01*
X149721179Y-80438638D02*
X149721179Y-79391019D01*
X149721179Y-79391019D02*
X149625941Y-79200542D01*
X149625941Y-79200542D02*
X149435465Y-79105304D01*
X149435465Y-79105304D02*
X149054512Y-79105304D01*
X149054512Y-79105304D02*
X148864036Y-79200542D01*
X149721179Y-80343400D02*
X149530703Y-80438638D01*
X149530703Y-80438638D02*
X149054512Y-80438638D01*
X149054512Y-80438638D02*
X148864036Y-80343400D01*
X148864036Y-80343400D02*
X148768798Y-80152923D01*
X148768798Y-80152923D02*
X148768798Y-79962447D01*
X148768798Y-79962447D02*
X148864036Y-79771971D01*
X148864036Y-79771971D02*
X149054512Y-79676733D01*
X149054512Y-79676733D02*
X149530703Y-79676733D01*
X149530703Y-79676733D02*
X149721179Y-79581495D01*
X150673560Y-80438638D02*
X150673560Y-79105304D01*
X150673560Y-79486257D02*
X150768798Y-79295780D01*
X150768798Y-79295780D02*
X150864036Y-79200542D01*
X150864036Y-79200542D02*
X151054512Y-79105304D01*
X151054512Y-79105304D02*
X151244989Y-79105304D01*
X118673558Y-83658526D02*
X118673558Y-81658526D01*
X118673558Y-81658526D02*
X119149748Y-81658526D01*
X119149748Y-81658526D02*
X119435463Y-81753764D01*
X119435463Y-81753764D02*
X119625939Y-81944240D01*
X119625939Y-81944240D02*
X119721177Y-82134716D01*
X119721177Y-82134716D02*
X119816415Y-82515668D01*
X119816415Y-82515668D02*
X119816415Y-82801383D01*
X119816415Y-82801383D02*
X119721177Y-83182335D01*
X119721177Y-83182335D02*
X119625939Y-83372811D01*
X119625939Y-83372811D02*
X119435463Y-83563288D01*
X119435463Y-83563288D02*
X119149748Y-83658526D01*
X119149748Y-83658526D02*
X118673558Y-83658526D01*
X121435463Y-83563288D02*
X121244987Y-83658526D01*
X121244987Y-83658526D02*
X120864034Y-83658526D01*
X120864034Y-83658526D02*
X120673558Y-83563288D01*
X120673558Y-83563288D02*
X120578320Y-83372811D01*
X120578320Y-83372811D02*
X120578320Y-82610907D01*
X120578320Y-82610907D02*
X120673558Y-82420430D01*
X120673558Y-82420430D02*
X120864034Y-82325192D01*
X120864034Y-82325192D02*
X121244987Y-82325192D01*
X121244987Y-82325192D02*
X121435463Y-82420430D01*
X121435463Y-82420430D02*
X121530701Y-82610907D01*
X121530701Y-82610907D02*
X121530701Y-82801383D01*
X121530701Y-82801383D02*
X120578320Y-82991859D01*
X122292606Y-83563288D02*
X122483082Y-83658526D01*
X122483082Y-83658526D02*
X122864034Y-83658526D01*
X122864034Y-83658526D02*
X123054511Y-83563288D01*
X123054511Y-83563288D02*
X123149749Y-83372811D01*
X123149749Y-83372811D02*
X123149749Y-83277573D01*
X123149749Y-83277573D02*
X123054511Y-83087097D01*
X123054511Y-83087097D02*
X122864034Y-82991859D01*
X122864034Y-82991859D02*
X122578320Y-82991859D01*
X122578320Y-82991859D02*
X122387844Y-82896621D01*
X122387844Y-82896621D02*
X122292606Y-82706145D01*
X122292606Y-82706145D02*
X122292606Y-82610907D01*
X122292606Y-82610907D02*
X122387844Y-82420430D01*
X122387844Y-82420430D02*
X122578320Y-82325192D01*
X122578320Y-82325192D02*
X122864034Y-82325192D01*
X122864034Y-82325192D02*
X123054511Y-82420430D01*
X124006892Y-83658526D02*
X124006892Y-82325192D01*
X124006892Y-81658526D02*
X123911654Y-81753764D01*
X123911654Y-81753764D02*
X124006892Y-81849002D01*
X124006892Y-81849002D02*
X124102130Y-81753764D01*
X124102130Y-81753764D02*
X124006892Y-81658526D01*
X124006892Y-81658526D02*
X124006892Y-81849002D01*
X125816416Y-82325192D02*
X125816416Y-83944240D01*
X125816416Y-83944240D02*
X125721178Y-84134716D01*
X125721178Y-84134716D02*
X125625940Y-84229954D01*
X125625940Y-84229954D02*
X125435463Y-84325192D01*
X125435463Y-84325192D02*
X125149749Y-84325192D01*
X125149749Y-84325192D02*
X124959273Y-84229954D01*
X125816416Y-83563288D02*
X125625940Y-83658526D01*
X125625940Y-83658526D02*
X125244987Y-83658526D01*
X125244987Y-83658526D02*
X125054511Y-83563288D01*
X125054511Y-83563288D02*
X124959273Y-83468049D01*
X124959273Y-83468049D02*
X124864035Y-83277573D01*
X124864035Y-83277573D02*
X124864035Y-82706145D01*
X124864035Y-82706145D02*
X124959273Y-82515668D01*
X124959273Y-82515668D02*
X125054511Y-82420430D01*
X125054511Y-82420430D02*
X125244987Y-82325192D01*
X125244987Y-82325192D02*
X125625940Y-82325192D01*
X125625940Y-82325192D02*
X125816416Y-82420430D01*
X126768797Y-82325192D02*
X126768797Y-83658526D01*
X126768797Y-82515668D02*
X126864035Y-82420430D01*
X126864035Y-82420430D02*
X127054511Y-82325192D01*
X127054511Y-82325192D02*
X127340226Y-82325192D01*
X127340226Y-82325192D02*
X127530702Y-82420430D01*
X127530702Y-82420430D02*
X127625940Y-82610907D01*
X127625940Y-82610907D02*
X127625940Y-83658526D01*
X129340226Y-83563288D02*
X129149750Y-83658526D01*
X129149750Y-83658526D02*
X128768797Y-83658526D01*
X128768797Y-83658526D02*
X128578321Y-83563288D01*
X128578321Y-83563288D02*
X128483083Y-83372811D01*
X128483083Y-83372811D02*
X128483083Y-82610907D01*
X128483083Y-82610907D02*
X128578321Y-82420430D01*
X128578321Y-82420430D02*
X128768797Y-82325192D01*
X128768797Y-82325192D02*
X129149750Y-82325192D01*
X129149750Y-82325192D02*
X129340226Y-82420430D01*
X129340226Y-82420430D02*
X129435464Y-82610907D01*
X129435464Y-82610907D02*
X129435464Y-82801383D01*
X129435464Y-82801383D02*
X128483083Y-82991859D01*
X131149750Y-83658526D02*
X131149750Y-81658526D01*
X131149750Y-83563288D02*
X130959274Y-83658526D01*
X130959274Y-83658526D02*
X130578321Y-83658526D01*
X130578321Y-83658526D02*
X130387845Y-83563288D01*
X130387845Y-83563288D02*
X130292607Y-83468049D01*
X130292607Y-83468049D02*
X130197369Y-83277573D01*
X130197369Y-83277573D02*
X130197369Y-82706145D01*
X130197369Y-82706145D02*
X130292607Y-82515668D01*
X130292607Y-82515668D02*
X130387845Y-82420430D01*
X130387845Y-82420430D02*
X130578321Y-82325192D01*
X130578321Y-82325192D02*
X130959274Y-82325192D01*
X130959274Y-82325192D02*
X131149750Y-82420430D01*
X133625941Y-83658526D02*
X133625941Y-82325192D01*
X133625941Y-81658526D02*
X133530703Y-81753764D01*
X133530703Y-81753764D02*
X133625941Y-81849002D01*
X133625941Y-81849002D02*
X133721179Y-81753764D01*
X133721179Y-81753764D02*
X133625941Y-81658526D01*
X133625941Y-81658526D02*
X133625941Y-81849002D01*
X134578322Y-82325192D02*
X134578322Y-83658526D01*
X134578322Y-82515668D02*
X134673560Y-82420430D01*
X134673560Y-82420430D02*
X134864036Y-82325192D01*
X134864036Y-82325192D02*
X135149751Y-82325192D01*
X135149751Y-82325192D02*
X135340227Y-82420430D01*
X135340227Y-82420430D02*
X135435465Y-82610907D01*
X135435465Y-82610907D02*
X135435465Y-83658526D01*
X137911656Y-83658526D02*
X137911656Y-81658526D01*
X139054513Y-83658526D02*
X138197370Y-82515668D01*
X139054513Y-81658526D02*
X137911656Y-82801383D01*
X139911656Y-83658526D02*
X139911656Y-81658526D01*
X139911656Y-82610907D02*
X141054513Y-82610907D01*
X141054513Y-83658526D02*
X141054513Y-81658526D01*
X142006894Y-81658526D02*
X142006894Y-83277573D01*
X142006894Y-83277573D02*
X142102132Y-83468049D01*
X142102132Y-83468049D02*
X142197370Y-83563288D01*
X142197370Y-83563288D02*
X142387846Y-83658526D01*
X142387846Y-83658526D02*
X142768799Y-83658526D01*
X142768799Y-83658526D02*
X142959275Y-83563288D01*
X142959275Y-83563288D02*
X143054513Y-83468049D01*
X143054513Y-83468049D02*
X143149751Y-83277573D01*
X143149751Y-83277573D02*
X143149751Y-81658526D01*
X145625942Y-83658526D02*
X145625942Y-81658526D01*
X145625942Y-82610907D02*
X146768799Y-82610907D01*
X146768799Y-83658526D02*
X146768799Y-81658526D01*
X147625942Y-83087097D02*
X148578323Y-83087097D01*
X147435466Y-83658526D02*
X148102132Y-81658526D01*
X148102132Y-81658526D02*
X148768799Y-83658526D01*
X149435466Y-83658526D02*
X149435466Y-81658526D01*
X149435466Y-81658526D02*
X150102133Y-83087097D01*
X150102133Y-83087097D02*
X150768799Y-81658526D01*
X150768799Y-81658526D02*
X150768799Y-83658526D01*
X154483085Y-82706145D02*
X154387847Y-82610907D01*
X154387847Y-82610907D02*
X154197371Y-82515668D01*
X154197371Y-82515668D02*
X154006895Y-82515668D01*
X154006895Y-82515668D02*
X153816419Y-82610907D01*
X153816419Y-82610907D02*
X153721180Y-82706145D01*
X153721180Y-82706145D02*
X153625942Y-82896621D01*
X153625942Y-82896621D02*
X153625942Y-83087097D01*
X153625942Y-83087097D02*
X153721180Y-83277573D01*
X153721180Y-83277573D02*
X153816419Y-83372811D01*
X153816419Y-83372811D02*
X154006895Y-83468049D01*
X154006895Y-83468049D02*
X154197371Y-83468049D01*
X154197371Y-83468049D02*
X154387847Y-83372811D01*
X154387847Y-83372811D02*
X154483085Y-83277573D01*
X154483085Y-82515668D02*
X154483085Y-83277573D01*
X154483085Y-83277573D02*
X154578323Y-83372811D01*
X154578323Y-83372811D02*
X154673561Y-83372811D01*
X154673561Y-83372811D02*
X154864038Y-83277573D01*
X154864038Y-83277573D02*
X154959276Y-83087097D01*
X154959276Y-83087097D02*
X154959276Y-82610907D01*
X154959276Y-82610907D02*
X154768800Y-82325192D01*
X154768800Y-82325192D02*
X154483085Y-82134716D01*
X154483085Y-82134716D02*
X154102133Y-82039478D01*
X154102133Y-82039478D02*
X153721180Y-82134716D01*
X153721180Y-82134716D02*
X153435466Y-82325192D01*
X153435466Y-82325192D02*
X153244990Y-82610907D01*
X153244990Y-82610907D02*
X153149752Y-82991859D01*
X153149752Y-82991859D02*
X153244990Y-83372811D01*
X153244990Y-83372811D02*
X153435466Y-83658526D01*
X153435466Y-83658526D02*
X153721180Y-83849002D01*
X153721180Y-83849002D02*
X154102133Y-83944240D01*
X154102133Y-83944240D02*
X154483085Y-83849002D01*
X154483085Y-83849002D02*
X154768800Y-83658526D01*
X157244991Y-81849002D02*
X157340229Y-81753764D01*
X157340229Y-81753764D02*
X157530705Y-81658526D01*
X157530705Y-81658526D02*
X158006896Y-81658526D01*
X158006896Y-81658526D02*
X158197372Y-81753764D01*
X158197372Y-81753764D02*
X158292610Y-81849002D01*
X158292610Y-81849002D02*
X158387848Y-82039478D01*
X158387848Y-82039478D02*
X158387848Y-82229954D01*
X158387848Y-82229954D02*
X158292610Y-82515668D01*
X158292610Y-82515668D02*
X157149753Y-83658526D01*
X157149753Y-83658526D02*
X158387848Y-83658526D01*
X159625943Y-81658526D02*
X159816420Y-81658526D01*
X159816420Y-81658526D02*
X160006896Y-81753764D01*
X160006896Y-81753764D02*
X160102134Y-81849002D01*
X160102134Y-81849002D02*
X160197372Y-82039478D01*
X160197372Y-82039478D02*
X160292610Y-82420430D01*
X160292610Y-82420430D02*
X160292610Y-82896621D01*
X160292610Y-82896621D02*
X160197372Y-83277573D01*
X160197372Y-83277573D02*
X160102134Y-83468049D01*
X160102134Y-83468049D02*
X160006896Y-83563288D01*
X160006896Y-83563288D02*
X159816420Y-83658526D01*
X159816420Y-83658526D02*
X159625943Y-83658526D01*
X159625943Y-83658526D02*
X159435467Y-83563288D01*
X159435467Y-83563288D02*
X159340229Y-83468049D01*
X159340229Y-83468049D02*
X159244991Y-83277573D01*
X159244991Y-83277573D02*
X159149753Y-82896621D01*
X159149753Y-82896621D02*
X159149753Y-82420430D01*
X159149753Y-82420430D02*
X159244991Y-82039478D01*
X159244991Y-82039478D02*
X159340229Y-81849002D01*
X159340229Y-81849002D02*
X159435467Y-81753764D01*
X159435467Y-81753764D02*
X159625943Y-81658526D01*
X161054515Y-81849002D02*
X161149753Y-81753764D01*
X161149753Y-81753764D02*
X161340229Y-81658526D01*
X161340229Y-81658526D02*
X161816420Y-81658526D01*
X161816420Y-81658526D02*
X162006896Y-81753764D01*
X162006896Y-81753764D02*
X162102134Y-81849002D01*
X162102134Y-81849002D02*
X162197372Y-82039478D01*
X162197372Y-82039478D02*
X162197372Y-82229954D01*
X162197372Y-82229954D02*
X162102134Y-82515668D01*
X162102134Y-82515668D02*
X160959277Y-83658526D01*
X160959277Y-83658526D02*
X162197372Y-83658526D01*
X163911658Y-81658526D02*
X163530705Y-81658526D01*
X163530705Y-81658526D02*
X163340229Y-81753764D01*
X163340229Y-81753764D02*
X163244991Y-81849002D01*
X163244991Y-81849002D02*
X163054515Y-82134716D01*
X163054515Y-82134716D02*
X162959277Y-82515668D01*
X162959277Y-82515668D02*
X162959277Y-83277573D01*
X162959277Y-83277573D02*
X163054515Y-83468049D01*
X163054515Y-83468049D02*
X163149753Y-83563288D01*
X163149753Y-83563288D02*
X163340229Y-83658526D01*
X163340229Y-83658526D02*
X163721182Y-83658526D01*
X163721182Y-83658526D02*
X163911658Y-83563288D01*
X163911658Y-83563288D02*
X164006896Y-83468049D01*
X164006896Y-83468049D02*
X164102134Y-83277573D01*
X164102134Y-83277573D02*
X164102134Y-82801383D01*
X164102134Y-82801383D02*
X164006896Y-82610907D01*
X164006896Y-82610907D02*
X163911658Y-82515668D01*
X163911658Y-82515668D02*
X163721182Y-82420430D01*
X163721182Y-82420430D02*
X163340229Y-82420430D01*
X163340229Y-82420430D02*
X163149753Y-82515668D01*
X163149753Y-82515668D02*
X163054515Y-82610907D01*
X163054515Y-82610907D02*
X162959277Y-82801383D01*
X164959277Y-83468049D02*
X165054515Y-83563288D01*
X165054515Y-83563288D02*
X164959277Y-83658526D01*
X164959277Y-83658526D02*
X164864039Y-83563288D01*
X164864039Y-83563288D02*
X164959277Y-83468049D01*
X164959277Y-83468049D02*
X164959277Y-83658526D01*
X166292610Y-81658526D02*
X166483087Y-81658526D01*
X166483087Y-81658526D02*
X166673563Y-81753764D01*
X166673563Y-81753764D02*
X166768801Y-81849002D01*
X166768801Y-81849002D02*
X166864039Y-82039478D01*
X166864039Y-82039478D02*
X166959277Y-82420430D01*
X166959277Y-82420430D02*
X166959277Y-82896621D01*
X166959277Y-82896621D02*
X166864039Y-83277573D01*
X166864039Y-83277573D02*
X166768801Y-83468049D01*
X166768801Y-83468049D02*
X166673563Y-83563288D01*
X166673563Y-83563288D02*
X166483087Y-83658526D01*
X166483087Y-83658526D02*
X166292610Y-83658526D01*
X166292610Y-83658526D02*
X166102134Y-83563288D01*
X166102134Y-83563288D02*
X166006896Y-83468049D01*
X166006896Y-83468049D02*
X165911658Y-83277573D01*
X165911658Y-83277573D02*
X165816420Y-82896621D01*
X165816420Y-82896621D02*
X165816420Y-82420430D01*
X165816420Y-82420430D02*
X165911658Y-82039478D01*
X165911658Y-82039478D02*
X166006896Y-81849002D01*
X166006896Y-81849002D02*
X166102134Y-81753764D01*
X166102134Y-81753764D02*
X166292610Y-81658526D01*
X167625944Y-81658526D02*
X168864039Y-81658526D01*
X168864039Y-81658526D02*
X168197372Y-82420430D01*
X168197372Y-82420430D02*
X168483087Y-82420430D01*
X168483087Y-82420430D02*
X168673563Y-82515668D01*
X168673563Y-82515668D02*
X168768801Y-82610907D01*
X168768801Y-82610907D02*
X168864039Y-82801383D01*
X168864039Y-82801383D02*
X168864039Y-83277573D01*
X168864039Y-83277573D02*
X168768801Y-83468049D01*
X168768801Y-83468049D02*
X168673563Y-83563288D01*
X168673563Y-83563288D02*
X168483087Y-83658526D01*
X168483087Y-83658526D02*
X167911658Y-83658526D01*
X167911658Y-83658526D02*
X167721182Y-83563288D01*
X167721182Y-83563288D02*
X167625944Y-83468049D01*
X169721182Y-83468049D02*
X169816420Y-83563288D01*
X169816420Y-83563288D02*
X169721182Y-83658526D01*
X169721182Y-83658526D02*
X169625944Y-83563288D01*
X169625944Y-83563288D02*
X169721182Y-83468049D01*
X169721182Y-83468049D02*
X169721182Y-83658526D01*
X170483087Y-81658526D02*
X171721182Y-81658526D01*
X171721182Y-81658526D02*
X171054515Y-82420430D01*
X171054515Y-82420430D02*
X171340230Y-82420430D01*
X171340230Y-82420430D02*
X171530706Y-82515668D01*
X171530706Y-82515668D02*
X171625944Y-82610907D01*
X171625944Y-82610907D02*
X171721182Y-82801383D01*
X171721182Y-82801383D02*
X171721182Y-83277573D01*
X171721182Y-83277573D02*
X171625944Y-83468049D01*
X171625944Y-83468049D02*
X171530706Y-83563288D01*
X171530706Y-83563288D02*
X171340230Y-83658526D01*
X171340230Y-83658526D02*
X170768801Y-83658526D01*
X170768801Y-83658526D02*
X170578325Y-83563288D01*
X170578325Y-83563288D02*
X170483087Y-83468049D01*
X172959277Y-81658526D02*
X173149754Y-81658526D01*
X173149754Y-81658526D02*
X173340230Y-81753764D01*
X173340230Y-81753764D02*
X173435468Y-81849002D01*
X173435468Y-81849002D02*
X173530706Y-82039478D01*
X173530706Y-82039478D02*
X173625944Y-82420430D01*
X173625944Y-82420430D02*
X173625944Y-82896621D01*
X173625944Y-82896621D02*
X173530706Y-83277573D01*
X173530706Y-83277573D02*
X173435468Y-83468049D01*
X173435468Y-83468049D02*
X173340230Y-83563288D01*
X173340230Y-83563288D02*
X173149754Y-83658526D01*
X173149754Y-83658526D02*
X172959277Y-83658526D01*
X172959277Y-83658526D02*
X172768801Y-83563288D01*
X172768801Y-83563288D02*
X172673563Y-83468049D01*
X172673563Y-83468049D02*
X172578325Y-83277573D01*
X172578325Y-83277573D02*
X172483087Y-82896621D01*
X172483087Y-82896621D02*
X172483087Y-82420430D01*
X172483087Y-82420430D02*
X172578325Y-82039478D01*
X172578325Y-82039478D02*
X172673563Y-81849002D01*
X172673563Y-81849002D02*
X172768801Y-81753764D01*
X172768801Y-81753764D02*
X172959277Y-81658526D01*
D11*
X186015333Y-95958819D02*
X185682000Y-95482628D01*
X185443905Y-95958819D02*
X185443905Y-94958819D01*
X185443905Y-94958819D02*
X185824857Y-94958819D01*
X185824857Y-94958819D02*
X185920095Y-95006438D01*
X185920095Y-95006438D02*
X185967714Y-95054057D01*
X185967714Y-95054057D02*
X186015333Y-95149295D01*
X186015333Y-95149295D02*
X186015333Y-95292152D01*
X186015333Y-95292152D02*
X185967714Y-95387390D01*
X185967714Y-95387390D02*
X185920095Y-95435009D01*
X185920095Y-95435009D02*
X185824857Y-95482628D01*
X185824857Y-95482628D02*
X185443905Y-95482628D01*
X186872476Y-95292152D02*
X186872476Y-95958819D01*
X186634381Y-94911200D02*
X186396286Y-95625485D01*
X186396286Y-95625485D02*
X187015333Y-95625485D01*
X124465221Y-106972580D02*
X124417602Y-107020200D01*
X124417602Y-107020200D02*
X124274745Y-107067819D01*
X124274745Y-107067819D02*
X124179507Y-107067819D01*
X124179507Y-107067819D02*
X124036650Y-107020200D01*
X124036650Y-107020200D02*
X123941412Y-106924961D01*
X123941412Y-106924961D02*
X123893793Y-106829723D01*
X123893793Y-106829723D02*
X123846174Y-106639247D01*
X123846174Y-106639247D02*
X123846174Y-106496390D01*
X123846174Y-106496390D02*
X123893793Y-106305914D01*
X123893793Y-106305914D02*
X123941412Y-106210676D01*
X123941412Y-106210676D02*
X124036650Y-106115438D01*
X124036650Y-106115438D02*
X124179507Y-106067819D01*
X124179507Y-106067819D02*
X124274745Y-106067819D01*
X124274745Y-106067819D02*
X124417602Y-106115438D01*
X124417602Y-106115438D02*
X124465221Y-106163057D01*
X125417602Y-107067819D02*
X124846174Y-107067819D01*
X125131888Y-107067819D02*
X125131888Y-106067819D01*
X125131888Y-106067819D02*
X125036650Y-106210676D01*
X125036650Y-106210676D02*
X124941412Y-106305914D01*
X124941412Y-106305914D02*
X124846174Y-106353533D01*
X186015333Y-108108819D02*
X185682000Y-107632628D01*
X185443905Y-108108819D02*
X185443905Y-107108819D01*
X185443905Y-107108819D02*
X185824857Y-107108819D01*
X185824857Y-107108819D02*
X185920095Y-107156438D01*
X185920095Y-107156438D02*
X185967714Y-107204057D01*
X185967714Y-107204057D02*
X186015333Y-107299295D01*
X186015333Y-107299295D02*
X186015333Y-107442152D01*
X186015333Y-107442152D02*
X185967714Y-107537390D01*
X185967714Y-107537390D02*
X185920095Y-107585009D01*
X185920095Y-107585009D02*
X185824857Y-107632628D01*
X185824857Y-107632628D02*
X185443905Y-107632628D01*
X186348667Y-107108819D02*
X187015333Y-107108819D01*
X187015333Y-107108819D02*
X186586762Y-108108819D01*
X118666666Y-88763819D02*
X118666666Y-89478104D01*
X118666666Y-89478104D02*
X118619047Y-89620961D01*
X118619047Y-89620961D02*
X118523809Y-89716200D01*
X118523809Y-89716200D02*
X118380952Y-89763819D01*
X118380952Y-89763819D02*
X118285714Y-89763819D01*
X119666666Y-89763819D02*
X119095238Y-89763819D01*
X119380952Y-89763819D02*
X119380952Y-88763819D01*
X119380952Y-88763819D02*
X119285714Y-88906676D01*
X119285714Y-88906676D02*
X119190476Y-89001914D01*
X119190476Y-89001914D02*
X119095238Y-89049533D01*
X151257095Y-88100819D02*
X151257095Y-88910342D01*
X151257095Y-88910342D02*
X151304714Y-89005580D01*
X151304714Y-89005580D02*
X151352333Y-89053200D01*
X151352333Y-89053200D02*
X151447571Y-89100819D01*
X151447571Y-89100819D02*
X151638047Y-89100819D01*
X151638047Y-89100819D02*
X151733285Y-89053200D01*
X151733285Y-89053200D02*
X151780904Y-89005580D01*
X151780904Y-89005580D02*
X151828523Y-88910342D01*
X151828523Y-88910342D02*
X151828523Y-88100819D01*
X152257095Y-88196057D02*
X152304714Y-88148438D01*
X152304714Y-88148438D02*
X152399952Y-88100819D01*
X152399952Y-88100819D02*
X152638047Y-88100819D01*
X152638047Y-88100819D02*
X152733285Y-88148438D01*
X152733285Y-88148438D02*
X152780904Y-88196057D01*
X152780904Y-88196057D02*
X152828523Y-88291295D01*
X152828523Y-88291295D02*
X152828523Y-88386533D01*
X152828523Y-88386533D02*
X152780904Y-88529390D01*
X152780904Y-88529390D02*
X152209476Y-89100819D01*
X152209476Y-89100819D02*
X152828523Y-89100819D01*
X203327095Y-85560819D02*
X203327095Y-86370342D01*
X203327095Y-86370342D02*
X203374714Y-86465580D01*
X203374714Y-86465580D02*
X203422333Y-86513200D01*
X203422333Y-86513200D02*
X203517571Y-86560819D01*
X203517571Y-86560819D02*
X203708047Y-86560819D01*
X203708047Y-86560819D02*
X203803285Y-86513200D01*
X203803285Y-86513200D02*
X203850904Y-86465580D01*
X203850904Y-86465580D02*
X203898523Y-86370342D01*
X203898523Y-86370342D02*
X203898523Y-85560819D01*
X204803285Y-85894152D02*
X204803285Y-86560819D01*
X204565190Y-85513200D02*
X204327095Y-86227485D01*
X204327095Y-86227485D02*
X204946142Y-86227485D01*
X185666142Y-112341819D02*
X185332809Y-111865628D01*
X185094714Y-112341819D02*
X185094714Y-111341819D01*
X185094714Y-111341819D02*
X185475666Y-111341819D01*
X185475666Y-111341819D02*
X185570904Y-111389438D01*
X185570904Y-111389438D02*
X185618523Y-111437057D01*
X185618523Y-111437057D02*
X185666142Y-111532295D01*
X185666142Y-111532295D02*
X185666142Y-111675152D01*
X185666142Y-111675152D02*
X185618523Y-111770390D01*
X185618523Y-111770390D02*
X185570904Y-111818009D01*
X185570904Y-111818009D02*
X185475666Y-111865628D01*
X185475666Y-111865628D02*
X185094714Y-111865628D01*
X186618523Y-112341819D02*
X186047095Y-112341819D01*
X186332809Y-112341819D02*
X186332809Y-111341819D01*
X186332809Y-111341819D02*
X186237571Y-111484676D01*
X186237571Y-111484676D02*
X186142333Y-111579914D01*
X186142333Y-111579914D02*
X186047095Y-111627533D01*
X187237571Y-111341819D02*
X187332809Y-111341819D01*
X187332809Y-111341819D02*
X187428047Y-111389438D01*
X187428047Y-111389438D02*
X187475666Y-111437057D01*
X187475666Y-111437057D02*
X187523285Y-111532295D01*
X187523285Y-111532295D02*
X187570904Y-111722771D01*
X187570904Y-111722771D02*
X187570904Y-111960866D01*
X187570904Y-111960866D02*
X187523285Y-112151342D01*
X187523285Y-112151342D02*
X187475666Y-112246580D01*
X187475666Y-112246580D02*
X187428047Y-112294200D01*
X187428047Y-112294200D02*
X187332809Y-112341819D01*
X187332809Y-112341819D02*
X187237571Y-112341819D01*
X187237571Y-112341819D02*
X187142333Y-112294200D01*
X187142333Y-112294200D02*
X187094714Y-112246580D01*
X187094714Y-112246580D02*
X187047095Y-112151342D01*
X187047095Y-112151342D02*
X186999476Y-111960866D01*
X186999476Y-111960866D02*
X186999476Y-111722771D01*
X186999476Y-111722771D02*
X187047095Y-111532295D01*
X187047095Y-111532295D02*
X187094714Y-111437057D01*
X187094714Y-111437057D02*
X187142333Y-111389438D01*
X187142333Y-111389438D02*
X187237571Y-111341819D01*
X169291095Y-87040819D02*
X169291095Y-87850342D01*
X169291095Y-87850342D02*
X169338714Y-87945580D01*
X169338714Y-87945580D02*
X169386333Y-87993200D01*
X169386333Y-87993200D02*
X169481571Y-88040819D01*
X169481571Y-88040819D02*
X169672047Y-88040819D01*
X169672047Y-88040819D02*
X169767285Y-87993200D01*
X169767285Y-87993200D02*
X169814904Y-87945580D01*
X169814904Y-87945580D02*
X169862523Y-87850342D01*
X169862523Y-87850342D02*
X169862523Y-87040819D01*
X170243476Y-87040819D02*
X170862523Y-87040819D01*
X170862523Y-87040819D02*
X170529190Y-87421771D01*
X170529190Y-87421771D02*
X170672047Y-87421771D01*
X170672047Y-87421771D02*
X170767285Y-87469390D01*
X170767285Y-87469390D02*
X170814904Y-87517009D01*
X170814904Y-87517009D02*
X170862523Y-87612247D01*
X170862523Y-87612247D02*
X170862523Y-87850342D01*
X170862523Y-87850342D02*
X170814904Y-87945580D01*
X170814904Y-87945580D02*
X170767285Y-87993200D01*
X170767285Y-87993200D02*
X170672047Y-88040819D01*
X170672047Y-88040819D02*
X170386333Y-88040819D01*
X170386333Y-88040819D02*
X170291095Y-87993200D01*
X170291095Y-87993200D02*
X170243476Y-87945580D01*
X186269333Y-87830819D02*
X185936000Y-87354628D01*
X185697905Y-87830819D02*
X185697905Y-86830819D01*
X185697905Y-86830819D02*
X186078857Y-86830819D01*
X186078857Y-86830819D02*
X186174095Y-86878438D01*
X186174095Y-86878438D02*
X186221714Y-86926057D01*
X186221714Y-86926057D02*
X186269333Y-87021295D01*
X186269333Y-87021295D02*
X186269333Y-87164152D01*
X186269333Y-87164152D02*
X186221714Y-87259390D01*
X186221714Y-87259390D02*
X186174095Y-87307009D01*
X186174095Y-87307009D02*
X186078857Y-87354628D01*
X186078857Y-87354628D02*
X185697905Y-87354628D01*
X186745524Y-87830819D02*
X186936000Y-87830819D01*
X186936000Y-87830819D02*
X187031238Y-87783200D01*
X187031238Y-87783200D02*
X187078857Y-87735580D01*
X187078857Y-87735580D02*
X187174095Y-87592723D01*
X187174095Y-87592723D02*
X187221714Y-87402247D01*
X187221714Y-87402247D02*
X187221714Y-87021295D01*
X187221714Y-87021295D02*
X187174095Y-86926057D01*
X187174095Y-86926057D02*
X187126476Y-86878438D01*
X187126476Y-86878438D02*
X187031238Y-86830819D01*
X187031238Y-86830819D02*
X186840762Y-86830819D01*
X186840762Y-86830819D02*
X186745524Y-86878438D01*
X186745524Y-86878438D02*
X186697905Y-86926057D01*
X186697905Y-86926057D02*
X186650286Y-87021295D01*
X186650286Y-87021295D02*
X186650286Y-87259390D01*
X186650286Y-87259390D02*
X186697905Y-87354628D01*
X186697905Y-87354628D02*
X186745524Y-87402247D01*
X186745524Y-87402247D02*
X186840762Y-87449866D01*
X186840762Y-87449866D02*
X187031238Y-87449866D01*
X187031238Y-87449866D02*
X187126476Y-87402247D01*
X187126476Y-87402247D02*
X187174095Y-87354628D01*
X187174095Y-87354628D02*
X187221714Y-87259390D01*
X138517333Y-92275819D02*
X138184000Y-91799628D01*
X137945905Y-92275819D02*
X137945905Y-91275819D01*
X137945905Y-91275819D02*
X138326857Y-91275819D01*
X138326857Y-91275819D02*
X138422095Y-91323438D01*
X138422095Y-91323438D02*
X138469714Y-91371057D01*
X138469714Y-91371057D02*
X138517333Y-91466295D01*
X138517333Y-91466295D02*
X138517333Y-91609152D01*
X138517333Y-91609152D02*
X138469714Y-91704390D01*
X138469714Y-91704390D02*
X138422095Y-91752009D01*
X138422095Y-91752009D02*
X138326857Y-91799628D01*
X138326857Y-91799628D02*
X137945905Y-91799628D01*
X139469714Y-92275819D02*
X138898286Y-92275819D01*
X139184000Y-92275819D02*
X139184000Y-91275819D01*
X139184000Y-91275819D02*
X139088762Y-91418676D01*
X139088762Y-91418676D02*
X138993524Y-91513914D01*
X138993524Y-91513914D02*
X138898286Y-91561533D01*
X186269333Y-83780819D02*
X185936000Y-83304628D01*
X185697905Y-83780819D02*
X185697905Y-82780819D01*
X185697905Y-82780819D02*
X186078857Y-82780819D01*
X186078857Y-82780819D02*
X186174095Y-82828438D01*
X186174095Y-82828438D02*
X186221714Y-82876057D01*
X186221714Y-82876057D02*
X186269333Y-82971295D01*
X186269333Y-82971295D02*
X186269333Y-83114152D01*
X186269333Y-83114152D02*
X186221714Y-83209390D01*
X186221714Y-83209390D02*
X186174095Y-83257009D01*
X186174095Y-83257009D02*
X186078857Y-83304628D01*
X186078857Y-83304628D02*
X185697905Y-83304628D01*
X186840762Y-83209390D02*
X186745524Y-83161771D01*
X186745524Y-83161771D02*
X186697905Y-83114152D01*
X186697905Y-83114152D02*
X186650286Y-83018914D01*
X186650286Y-83018914D02*
X186650286Y-82971295D01*
X186650286Y-82971295D02*
X186697905Y-82876057D01*
X186697905Y-82876057D02*
X186745524Y-82828438D01*
X186745524Y-82828438D02*
X186840762Y-82780819D01*
X186840762Y-82780819D02*
X187031238Y-82780819D01*
X187031238Y-82780819D02*
X187126476Y-82828438D01*
X187126476Y-82828438D02*
X187174095Y-82876057D01*
X187174095Y-82876057D02*
X187221714Y-82971295D01*
X187221714Y-82971295D02*
X187221714Y-83018914D01*
X187221714Y-83018914D02*
X187174095Y-83114152D01*
X187174095Y-83114152D02*
X187126476Y-83161771D01*
X187126476Y-83161771D02*
X187031238Y-83209390D01*
X187031238Y-83209390D02*
X186840762Y-83209390D01*
X186840762Y-83209390D02*
X186745524Y-83257009D01*
X186745524Y-83257009D02*
X186697905Y-83304628D01*
X186697905Y-83304628D02*
X186650286Y-83399866D01*
X186650286Y-83399866D02*
X186650286Y-83590342D01*
X186650286Y-83590342D02*
X186697905Y-83685580D01*
X186697905Y-83685580D02*
X186745524Y-83733200D01*
X186745524Y-83733200D02*
X186840762Y-83780819D01*
X186840762Y-83780819D02*
X187031238Y-83780819D01*
X187031238Y-83780819D02*
X187126476Y-83733200D01*
X187126476Y-83733200D02*
X187174095Y-83685580D01*
X187174095Y-83685580D02*
X187221714Y-83590342D01*
X187221714Y-83590342D02*
X187221714Y-83399866D01*
X187221714Y-83399866D02*
X187174095Y-83304628D01*
X187174095Y-83304628D02*
X187126476Y-83257009D01*
X187126476Y-83257009D02*
X187031238Y-83209390D01*
X138517333Y-105737819D02*
X138184000Y-105261628D01*
X137945905Y-105737819D02*
X137945905Y-104737819D01*
X137945905Y-104737819D02*
X138326857Y-104737819D01*
X138326857Y-104737819D02*
X138422095Y-104785438D01*
X138422095Y-104785438D02*
X138469714Y-104833057D01*
X138469714Y-104833057D02*
X138517333Y-104928295D01*
X138517333Y-104928295D02*
X138517333Y-105071152D01*
X138517333Y-105071152D02*
X138469714Y-105166390D01*
X138469714Y-105166390D02*
X138422095Y-105214009D01*
X138422095Y-105214009D02*
X138326857Y-105261628D01*
X138326857Y-105261628D02*
X137945905Y-105261628D01*
X138898286Y-104833057D02*
X138945905Y-104785438D01*
X138945905Y-104785438D02*
X139041143Y-104737819D01*
X139041143Y-104737819D02*
X139279238Y-104737819D01*
X139279238Y-104737819D02*
X139374476Y-104785438D01*
X139374476Y-104785438D02*
X139422095Y-104833057D01*
X139422095Y-104833057D02*
X139469714Y-104928295D01*
X139469714Y-104928295D02*
X139469714Y-105023533D01*
X139469714Y-105023533D02*
X139422095Y-105166390D01*
X139422095Y-105166390D02*
X138850667Y-105737819D01*
X138850667Y-105737819D02*
X139469714Y-105737819D01*
X186015333Y-91908819D02*
X185682000Y-91432628D01*
X185443905Y-91908819D02*
X185443905Y-90908819D01*
X185443905Y-90908819D02*
X185824857Y-90908819D01*
X185824857Y-90908819D02*
X185920095Y-90956438D01*
X185920095Y-90956438D02*
X185967714Y-91004057D01*
X185967714Y-91004057D02*
X186015333Y-91099295D01*
X186015333Y-91099295D02*
X186015333Y-91242152D01*
X186015333Y-91242152D02*
X185967714Y-91337390D01*
X185967714Y-91337390D02*
X185920095Y-91385009D01*
X185920095Y-91385009D02*
X185824857Y-91432628D01*
X185824857Y-91432628D02*
X185443905Y-91432628D01*
X186348667Y-90908819D02*
X186967714Y-90908819D01*
X186967714Y-90908819D02*
X186634381Y-91289771D01*
X186634381Y-91289771D02*
X186777238Y-91289771D01*
X186777238Y-91289771D02*
X186872476Y-91337390D01*
X186872476Y-91337390D02*
X186920095Y-91385009D01*
X186920095Y-91385009D02*
X186967714Y-91480247D01*
X186967714Y-91480247D02*
X186967714Y-91718342D01*
X186967714Y-91718342D02*
X186920095Y-91813580D01*
X186920095Y-91813580D02*
X186872476Y-91861200D01*
X186872476Y-91861200D02*
X186777238Y-91908819D01*
X186777238Y-91908819D02*
X186491524Y-91908819D01*
X186491524Y-91908819D02*
X186396286Y-91861200D01*
X186396286Y-91861200D02*
X186348667Y-91813580D01*
X186015333Y-104058819D02*
X185682000Y-103582628D01*
X185443905Y-104058819D02*
X185443905Y-103058819D01*
X185443905Y-103058819D02*
X185824857Y-103058819D01*
X185824857Y-103058819D02*
X185920095Y-103106438D01*
X185920095Y-103106438D02*
X185967714Y-103154057D01*
X185967714Y-103154057D02*
X186015333Y-103249295D01*
X186015333Y-103249295D02*
X186015333Y-103392152D01*
X186015333Y-103392152D02*
X185967714Y-103487390D01*
X185967714Y-103487390D02*
X185920095Y-103535009D01*
X185920095Y-103535009D02*
X185824857Y-103582628D01*
X185824857Y-103582628D02*
X185443905Y-103582628D01*
X186872476Y-103058819D02*
X186682000Y-103058819D01*
X186682000Y-103058819D02*
X186586762Y-103106438D01*
X186586762Y-103106438D02*
X186539143Y-103154057D01*
X186539143Y-103154057D02*
X186443905Y-103296914D01*
X186443905Y-103296914D02*
X186396286Y-103487390D01*
X186396286Y-103487390D02*
X186396286Y-103868342D01*
X186396286Y-103868342D02*
X186443905Y-103963580D01*
X186443905Y-103963580D02*
X186491524Y-104011200D01*
X186491524Y-104011200D02*
X186586762Y-104058819D01*
X186586762Y-104058819D02*
X186777238Y-104058819D01*
X186777238Y-104058819D02*
X186872476Y-104011200D01*
X186872476Y-104011200D02*
X186920095Y-103963580D01*
X186920095Y-103963580D02*
X186967714Y-103868342D01*
X186967714Y-103868342D02*
X186967714Y-103630247D01*
X186967714Y-103630247D02*
X186920095Y-103535009D01*
X186920095Y-103535009D02*
X186872476Y-103487390D01*
X186872476Y-103487390D02*
X186777238Y-103439771D01*
X186777238Y-103439771D02*
X186586762Y-103439771D01*
X186586762Y-103439771D02*
X186491524Y-103487390D01*
X186491524Y-103487390D02*
X186443905Y-103535009D01*
X186443905Y-103535009D02*
X186396286Y-103630247D01*
X186015333Y-100008819D02*
X185682000Y-99532628D01*
X185443905Y-100008819D02*
X185443905Y-99008819D01*
X185443905Y-99008819D02*
X185824857Y-99008819D01*
X185824857Y-99008819D02*
X185920095Y-99056438D01*
X185920095Y-99056438D02*
X185967714Y-99104057D01*
X185967714Y-99104057D02*
X186015333Y-99199295D01*
X186015333Y-99199295D02*
X186015333Y-99342152D01*
X186015333Y-99342152D02*
X185967714Y-99437390D01*
X185967714Y-99437390D02*
X185920095Y-99485009D01*
X185920095Y-99485009D02*
X185824857Y-99532628D01*
X185824857Y-99532628D02*
X185443905Y-99532628D01*
X186920095Y-99008819D02*
X186443905Y-99008819D01*
X186443905Y-99008819D02*
X186396286Y-99485009D01*
X186396286Y-99485009D02*
X186443905Y-99437390D01*
X186443905Y-99437390D02*
X186539143Y-99389771D01*
X186539143Y-99389771D02*
X186777238Y-99389771D01*
X186777238Y-99389771D02*
X186872476Y-99437390D01*
X186872476Y-99437390D02*
X186920095Y-99485009D01*
X186920095Y-99485009D02*
X186967714Y-99580247D01*
X186967714Y-99580247D02*
X186967714Y-99818342D01*
X186967714Y-99818342D02*
X186920095Y-99913580D01*
X186920095Y-99913580D02*
X186872476Y-99961200D01*
X186872476Y-99961200D02*
X186777238Y-100008819D01*
X186777238Y-100008819D02*
X186539143Y-100008819D01*
X186539143Y-100008819D02*
X186443905Y-99961200D01*
X186443905Y-99961200D02*
X186396286Y-99913580D01*
X132167333Y-106785580D02*
X132119714Y-106833200D01*
X132119714Y-106833200D02*
X131976857Y-106880819D01*
X131976857Y-106880819D02*
X131881619Y-106880819D01*
X131881619Y-106880819D02*
X131738762Y-106833200D01*
X131738762Y-106833200D02*
X131643524Y-106737961D01*
X131643524Y-106737961D02*
X131595905Y-106642723D01*
X131595905Y-106642723D02*
X131548286Y-106452247D01*
X131548286Y-106452247D02*
X131548286Y-106309390D01*
X131548286Y-106309390D02*
X131595905Y-106118914D01*
X131595905Y-106118914D02*
X131643524Y-106023676D01*
X131643524Y-106023676D02*
X131738762Y-105928438D01*
X131738762Y-105928438D02*
X131881619Y-105880819D01*
X131881619Y-105880819D02*
X131976857Y-105880819D01*
X131976857Y-105880819D02*
X132119714Y-105928438D01*
X132119714Y-105928438D02*
X132167333Y-105976057D01*
X132548286Y-105976057D02*
X132595905Y-105928438D01*
X132595905Y-105928438D02*
X132691143Y-105880819D01*
X132691143Y-105880819D02*
X132929238Y-105880819D01*
X132929238Y-105880819D02*
X133024476Y-105928438D01*
X133024476Y-105928438D02*
X133072095Y-105976057D01*
X133072095Y-105976057D02*
X133119714Y-106071295D01*
X133119714Y-106071295D02*
X133119714Y-106166533D01*
X133119714Y-106166533D02*
X133072095Y-106309390D01*
X133072095Y-106309390D02*
X132500667Y-106880819D01*
X132500667Y-106880819D02*
X133119714Y-106880819D01*
X127767095Y-91231819D02*
X127767095Y-92041342D01*
X127767095Y-92041342D02*
X127814714Y-92136580D01*
X127814714Y-92136580D02*
X127862333Y-92184200D01*
X127862333Y-92184200D02*
X127957571Y-92231819D01*
X127957571Y-92231819D02*
X128148047Y-92231819D01*
X128148047Y-92231819D02*
X128243285Y-92184200D01*
X128243285Y-92184200D02*
X128290904Y-92136580D01*
X128290904Y-92136580D02*
X128338523Y-92041342D01*
X128338523Y-92041342D02*
X128338523Y-91231819D01*
X129338523Y-92231819D02*
X128767095Y-92231819D01*
X129052809Y-92231819D02*
X129052809Y-91231819D01*
X129052809Y-91231819D02*
X128957571Y-91374676D01*
X128957571Y-91374676D02*
X128862333Y-91469914D01*
X128862333Y-91469914D02*
X128767095Y-91517533D01*
D12*
%TO.C,R4*%
X182142000Y-95504000D02*
X182912000Y-95504000D01*
X190222000Y-95504000D02*
X189452000Y-95504000D01*
X182912000Y-94134000D02*
X189452000Y-94134000D01*
X189452000Y-96874000D01*
X182912000Y-96874000D01*
X182912000Y-94134000D01*
%TO.C,C1*%
X121827113Y-108888000D02*
X122327113Y-108888000D01*
X122077113Y-108638000D02*
X122077113Y-109138000D01*
X124631888Y-107783000D02*
X124631888Y-112943000D01*
X124671888Y-107783000D02*
X124671888Y-112943000D01*
X124711888Y-107784000D02*
X124711888Y-112942000D01*
X124751888Y-107786000D02*
X124751888Y-112940000D01*
X124791888Y-107788000D02*
X124791888Y-112938000D01*
X124831888Y-107791000D02*
X124831888Y-112935000D01*
X124871888Y-107794000D02*
X124871888Y-109323000D01*
X124871888Y-111403000D02*
X124871888Y-112932000D01*
X124911888Y-107798000D02*
X124911888Y-109323000D01*
X124911888Y-111403000D02*
X124911888Y-112928000D01*
X124951888Y-107803000D02*
X124951888Y-109323000D01*
X124951888Y-111403000D02*
X124951888Y-112923000D01*
X124991888Y-107808000D02*
X124991888Y-109323000D01*
X124991888Y-111403000D02*
X124991888Y-112918000D01*
X125031888Y-107814000D02*
X125031888Y-109323000D01*
X125031888Y-111403000D02*
X125031888Y-112912000D01*
X125071888Y-107820000D02*
X125071888Y-109323000D01*
X125071888Y-111403000D02*
X125071888Y-112906000D01*
X125111888Y-107827000D02*
X125111888Y-109323000D01*
X125111888Y-111403000D02*
X125111888Y-112899000D01*
X125151888Y-107835000D02*
X125151888Y-109323000D01*
X125151888Y-111403000D02*
X125151888Y-112891000D01*
X125191888Y-107844000D02*
X125191888Y-109323000D01*
X125191888Y-111403000D02*
X125191888Y-112882000D01*
X125231888Y-107853000D02*
X125231888Y-109323000D01*
X125231888Y-111403000D02*
X125231888Y-112873000D01*
X125271888Y-107862000D02*
X125271888Y-109323000D01*
X125271888Y-111403000D02*
X125271888Y-112864000D01*
X125311888Y-107873000D02*
X125311888Y-109323000D01*
X125311888Y-111403000D02*
X125311888Y-112853000D01*
X125351888Y-107884000D02*
X125351888Y-109323000D01*
X125351888Y-111403000D02*
X125351888Y-112842000D01*
X125391888Y-107896000D02*
X125391888Y-109323000D01*
X125391888Y-111403000D02*
X125391888Y-112830000D01*
X125431888Y-107908000D02*
X125431888Y-109323000D01*
X125431888Y-111403000D02*
X125431888Y-112818000D01*
X125471888Y-107921000D02*
X125471888Y-109323000D01*
X125471888Y-111403000D02*
X125471888Y-112805000D01*
X125511888Y-107935000D02*
X125511888Y-109323000D01*
X125511888Y-111403000D02*
X125511888Y-112791000D01*
X125551888Y-107950000D02*
X125551888Y-109323000D01*
X125551888Y-111403000D02*
X125551888Y-112776000D01*
X125591888Y-107965000D02*
X125591888Y-109323000D01*
X125591888Y-111403000D02*
X125591888Y-112761000D01*
X125631888Y-107981000D02*
X125631888Y-109323000D01*
X125631888Y-111403000D02*
X125631888Y-112745000D01*
X125671888Y-107998000D02*
X125671888Y-109323000D01*
X125671888Y-111403000D02*
X125671888Y-112728000D01*
X125711888Y-108016000D02*
X125711888Y-109323000D01*
X125711888Y-111403000D02*
X125711888Y-112710000D01*
X125751888Y-108034000D02*
X125751888Y-109323000D01*
X125751888Y-111403000D02*
X125751888Y-112692000D01*
X125791888Y-108054000D02*
X125791888Y-109323000D01*
X125791888Y-111403000D02*
X125791888Y-112672000D01*
X125831888Y-108074000D02*
X125831888Y-109323000D01*
X125831888Y-111403000D02*
X125831888Y-112652000D01*
X125871888Y-108095000D02*
X125871888Y-109323000D01*
X125871888Y-111403000D02*
X125871888Y-112631000D01*
X125911888Y-108117000D02*
X125911888Y-109323000D01*
X125911888Y-111403000D02*
X125911888Y-112609000D01*
X125951888Y-108140000D02*
X125951888Y-109323000D01*
X125951888Y-111403000D02*
X125951888Y-112586000D01*
X125991888Y-108164000D02*
X125991888Y-109323000D01*
X125991888Y-111403000D02*
X125991888Y-112562000D01*
X126031888Y-108188000D02*
X126031888Y-109323000D01*
X126031888Y-111403000D02*
X126031888Y-112538000D01*
X126071888Y-108214000D02*
X126071888Y-109323000D01*
X126071888Y-111403000D02*
X126071888Y-112512000D01*
X126111888Y-108241000D02*
X126111888Y-109323000D01*
X126111888Y-111403000D02*
X126111888Y-112485000D01*
X126151888Y-108269000D02*
X126151888Y-109323000D01*
X126151888Y-111403000D02*
X126151888Y-112457000D01*
X126191888Y-108298000D02*
X126191888Y-109323000D01*
X126191888Y-111403000D02*
X126191888Y-112428000D01*
X126231888Y-108328000D02*
X126231888Y-109323000D01*
X126231888Y-111403000D02*
X126231888Y-112398000D01*
X126271888Y-108360000D02*
X126271888Y-109323000D01*
X126271888Y-111403000D02*
X126271888Y-112366000D01*
X126311888Y-108393000D02*
X126311888Y-109323000D01*
X126311888Y-111403000D02*
X126311888Y-112333000D01*
X126351888Y-108427000D02*
X126351888Y-109323000D01*
X126351888Y-111403000D02*
X126351888Y-112299000D01*
X126391888Y-108462000D02*
X126391888Y-109323000D01*
X126391888Y-111403000D02*
X126391888Y-112264000D01*
X126431888Y-108499000D02*
X126431888Y-109323000D01*
X126431888Y-111403000D02*
X126431888Y-112227000D01*
X126471888Y-108538000D02*
X126471888Y-109323000D01*
X126471888Y-111403000D02*
X126471888Y-112188000D01*
X126511888Y-108578000D02*
X126511888Y-109323000D01*
X126511888Y-111403000D02*
X126511888Y-112148000D01*
X126551888Y-108620000D02*
X126551888Y-109323000D01*
X126551888Y-111403000D02*
X126551888Y-112106000D01*
X126591888Y-108664000D02*
X126591888Y-109323000D01*
X126591888Y-111403000D02*
X126591888Y-112062000D01*
X126631888Y-108711000D02*
X126631888Y-109323000D01*
X126631888Y-111403000D02*
X126631888Y-112015000D01*
X126671888Y-108759000D02*
X126671888Y-109323000D01*
X126671888Y-111403000D02*
X126671888Y-111967000D01*
X126711888Y-108810000D02*
X126711888Y-109323000D01*
X126711888Y-111403000D02*
X126711888Y-111916000D01*
X126751888Y-108864000D02*
X126751888Y-109323000D01*
X126751888Y-111403000D02*
X126751888Y-111862000D01*
X126791888Y-108920000D02*
X126791888Y-109323000D01*
X126791888Y-111403000D02*
X126791888Y-111806000D01*
X126831888Y-108980000D02*
X126831888Y-109323000D01*
X126831888Y-111403000D02*
X126831888Y-111746000D01*
X126871888Y-109044000D02*
X126871888Y-109323000D01*
X126871888Y-111403000D02*
X126871888Y-111682000D01*
X126911888Y-109112000D02*
X126911888Y-109323000D01*
X126911888Y-111403000D02*
X126911888Y-111614000D01*
X126951888Y-109186000D02*
X126951888Y-111540000D01*
X126991888Y-109265000D02*
X126991888Y-111461000D01*
X127031888Y-109352000D02*
X127031888Y-111374000D01*
X127071888Y-109449000D02*
X127071888Y-111277000D01*
X127111888Y-109558000D02*
X127111888Y-111168000D01*
X127151888Y-109686000D02*
X127151888Y-111040000D01*
X127191888Y-109846000D02*
X127191888Y-110880000D01*
X127231888Y-110080000D02*
X127231888Y-110646000D01*
X127251888Y-110363000D02*
G75*
G02*
X122011888Y-110363000I-2620000J0D01*
G01*
X122011888Y-110363000D02*
G75*
G02*
X127251888Y-110363000I2620000J0D01*
G01*
%TO.C,R7*%
X182142000Y-107654000D02*
X182912000Y-107654000D01*
X190222000Y-107654000D02*
X189452000Y-107654000D01*
X182912000Y-106284000D02*
X189452000Y-106284000D01*
X189452000Y-109024000D01*
X182912000Y-109024000D01*
X182912000Y-106284000D01*
%TO.C,J1*%
X117620000Y-90309000D02*
X119000000Y-90309000D01*
X117620000Y-91689000D02*
X117620000Y-90309000D01*
X117620000Y-92959000D02*
X117620000Y-95609000D01*
X117620000Y-92959000D02*
X120380000Y-92959000D01*
X117620000Y-95609000D02*
X120380000Y-95609000D01*
X120380000Y-92959000D02*
X120380000Y-95609000D01*
%TO.C,U2*%
X149369000Y-89602000D02*
X149369000Y-107502000D01*
X149369000Y-107502000D02*
X154669000Y-107502000D01*
X151019000Y-89602000D02*
X149369000Y-89602000D01*
X154669000Y-89602000D02*
X153019000Y-89602000D01*
X154669000Y-107502000D02*
X154669000Y-89602000D01*
X146879000Y-89542000D02*
X157159000Y-89542000D01*
X157159000Y-107562000D01*
X146879000Y-107562000D01*
X146879000Y-89542000D01*
X153019000Y-89602000D02*
G75*
G02*
X151019000Y-89602000I-1000000J0D01*
G01*
%TO.C,U4*%
X196332000Y-87803500D02*
X196332000Y-107023500D01*
X196332000Y-87803500D02*
X209052000Y-87803500D01*
X196332000Y-107023500D02*
X209052000Y-107023500D01*
X196812000Y-107373500D02*
X198422000Y-107373500D01*
X200771400Y-91850300D02*
X200771400Y-97209700D01*
X200771400Y-97387500D02*
X200771400Y-102289700D01*
X200949200Y-91824900D02*
X204632200Y-91824900D01*
X200949200Y-97285900D02*
X204632200Y-97285900D01*
X200949200Y-102289700D02*
X204632200Y-102289700D01*
X204810000Y-91850300D02*
X204810000Y-97209700D01*
X204810000Y-97387500D02*
X204810000Y-102289700D01*
X209052000Y-87803500D02*
X209052000Y-107023500D01*
X206154467Y-102475967D02*
G75*
G02*
X205209533Y-102475967I-472467J0D01*
G01*
X205209533Y-102475967D02*
G75*
G02*
X206154467Y-102475967I472467J0D01*
G01*
%TO.C,R10*%
X182269000Y-111887000D02*
X183039000Y-111887000D01*
X190349000Y-111887000D02*
X189579000Y-111887000D01*
X183039000Y-110517000D02*
X189579000Y-110517000D01*
X189579000Y-113257000D01*
X183039000Y-113257000D01*
X183039000Y-110517000D01*
%TO.C,U3*%
X167403000Y-88586000D02*
X167403000Y-109026000D01*
X167403000Y-109026000D02*
X172703000Y-109026000D01*
X169053000Y-88586000D02*
X167403000Y-88586000D01*
X172703000Y-88586000D02*
X171053000Y-88586000D01*
X172703000Y-109026000D02*
X172703000Y-88586000D01*
X164913000Y-88526000D02*
X175193000Y-88526000D01*
X175193000Y-109086000D01*
X164913000Y-109086000D01*
X164913000Y-88526000D01*
X171053000Y-88586000D02*
G75*
G02*
X169053000Y-88586000I-1000000J0D01*
G01*
%TO.C,R9*%
X182396000Y-87376000D02*
X183166000Y-87376000D01*
X190476000Y-87376000D02*
X189706000Y-87376000D01*
X183166000Y-86006000D02*
X189706000Y-86006000D01*
X189706000Y-88746000D01*
X183166000Y-88746000D01*
X183166000Y-86006000D01*
%TO.C,R1*%
X138684000Y-87781000D02*
X138684000Y-88551000D01*
X138684000Y-95861000D02*
X138684000Y-95091000D01*
X140054000Y-88551000D02*
X137314000Y-88551000D01*
X137314000Y-95091000D01*
X140054000Y-95091000D01*
X140054000Y-88551000D01*
%TO.C,R8*%
X182396000Y-83326000D02*
X183166000Y-83326000D01*
X190476000Y-83326000D02*
X189706000Y-83326000D01*
X183166000Y-81956000D02*
X189706000Y-81956000D01*
X189706000Y-84696000D01*
X183166000Y-84696000D01*
X183166000Y-81956000D01*
%TO.C,R2*%
X138684000Y-101243000D02*
X138684000Y-102013000D01*
X138684000Y-109323000D02*
X138684000Y-108553000D01*
X140054000Y-102013000D02*
X137314000Y-102013000D01*
X137314000Y-108553000D01*
X140054000Y-108553000D01*
X140054000Y-102013000D01*
%TO.C,R3*%
X182142000Y-91454000D02*
X182912000Y-91454000D01*
X190222000Y-91454000D02*
X189452000Y-91454000D01*
X182912000Y-90084000D02*
X189452000Y-90084000D01*
X189452000Y-92824000D01*
X182912000Y-92824000D01*
X182912000Y-90084000D01*
%TO.C,R6*%
X182142000Y-103604000D02*
X182912000Y-103604000D01*
X190222000Y-103604000D02*
X189452000Y-103604000D01*
X182912000Y-102234000D02*
X189452000Y-102234000D01*
X189452000Y-104974000D01*
X182912000Y-104974000D01*
X182912000Y-102234000D01*
%TO.C,R5*%
X182142000Y-99554000D02*
X182912000Y-99554000D01*
X190222000Y-99554000D02*
X189452000Y-99554000D01*
X182912000Y-98184000D02*
X189452000Y-98184000D01*
X189452000Y-100924000D01*
X182912000Y-100924000D01*
X182912000Y-98184000D01*
%TO.C,C2*%
X131414000Y-110600000D02*
X131414000Y-109070000D01*
X133254000Y-109070000D02*
X133254000Y-110600000D01*
%TO.C,U1*%
X125879000Y-92777000D02*
X125879000Y-103057000D01*
X125879000Y-103057000D02*
X131179000Y-103057000D01*
X127529000Y-92777000D02*
X125879000Y-92777000D01*
X131179000Y-92777000D02*
X129529000Y-92777000D01*
X131179000Y-103057000D02*
X131179000Y-92777000D01*
X129529000Y-92777000D02*
G75*
G02*
X127529000Y-92777000I-1000000J0D01*
G01*
%TD*%
M02*
