M48
; DRILL file {KiCad 9.0.4} date 2026-04-02T10:35:05+0900
; FORMAT={-:-/ absolute / metric / decimal}
; #@! TF.CreationDate,2026-04-02T10:35:05+09:00
; #@! TF.GenerationSoftware,Kicad,Pcbnew,9.0.4
; #@! TF.FileFunction,Plated,1,2,PTH
FMAT,2
METRIC
; #@! TA.AperFunction,Plated,PTH,ViaDrill
T1C0.300
; #@! TA.AperFunction,Plated,PTH,ComponentDrill
T2C0.800
; #@! TA.AperFunction,Plated,PTH,ComponentDrill
T3C1.000
%
G90
G05
T1
X117.0Y-78.0
X118.0Y-117.0
X160.0Y-78.0
X160.0Y-117.0
X212.0Y-78.0
X212.0Y-117.0
T2
X123.382Y-110.363
X124.719Y-94.107
X124.719Y-96.647
X124.719Y-99.187
X124.719Y-101.727
X125.882Y-110.363
X132.334Y-108.585
X132.334Y-111.085
X132.339Y-94.107
X132.339Y-96.647
X132.339Y-99.187
X132.339Y-101.727
X138.684Y-86.741
X138.684Y-96.901
X138.684Y-100.203
X138.684Y-110.363
X148.209Y-90.932
X148.209Y-93.472
X148.209Y-96.012
X148.209Y-98.552
X148.209Y-101.092
X148.209Y-103.632
X148.209Y-106.172
X155.829Y-90.932
X155.829Y-93.472
X155.829Y-96.012
X155.829Y-98.552
X155.829Y-101.092
X155.829Y-103.632
X155.829Y-106.172
X166.243Y-89.916
X166.243Y-92.456
X166.243Y-94.996
X166.243Y-97.536
X166.243Y-100.076
X166.243Y-102.616
X166.243Y-105.156
X166.243Y-107.696
X173.863Y-89.916
X173.863Y-92.456
X173.863Y-94.996
X173.863Y-97.536
X173.863Y-100.076
X173.863Y-102.616
X173.863Y-105.156
X173.863Y-107.696
X181.102Y-91.454
X181.102Y-95.504
X181.102Y-99.554
X181.102Y-103.604
X181.102Y-107.654
X181.229Y-111.887
X181.356Y-83.326
X181.356Y-87.376
X191.262Y-91.454
X191.262Y-95.504
X191.262Y-99.554
X191.262Y-103.604
X191.262Y-107.654
X191.389Y-111.887
X191.516Y-83.326
X191.516Y-87.376
X197.612Y-89.793
X197.612Y-105.033
X200.152Y-89.793
X200.152Y-105.033
X202.692Y-89.793
X202.692Y-105.033
X205.232Y-89.793
X205.232Y-105.033
X207.772Y-89.793
X207.772Y-105.033
T3
X119.0Y-91.689
X119.0Y-94.229
M30
