%TF.GenerationSoftware,KiCad,Pcbnew,9.0.4*%
%TF.CreationDate,2026-04-02T10:35:08+09:00*%
%TF.ProjectId,HAM_Seminar_NE555,48414d5f-5365-46d6-996e-61725f4e4535,rev?*%
%TF.SameCoordinates,Original*%
%TF.FileFunction,Soldermask,Bot*%
%TF.FilePolarity,Negative*%
%FSLAX46Y46*%
G04 Gerber Fmt 4.6, Leading zero omitted, Abs format (unit mm)*
G04 Created by KiCad (PCBNEW 9.0.4) date 2026-04-02 10:35:08*
%MOMM*%
%LPD*%
G01*
G04 APERTURE LIST*
G04 Aperture macros list*
%AMRoundRect*
0 Rectangle with rounded corners*
0 $1 Rounding radius*
0 $2 $3 $4 $5 $6 $7 $8 $9 X,Y pos of 4 corners*
0 Add a 4 corners polygon primitive as box body*
4,1,4,$2,$3,$4,$5,$6,$7,$8,$9,$2,$3,0*
0 Add four circle primitives for the rounded corners*
1,1,$1+$1,$2,$3*
1,1,$1+$1,$4,$5*
1,1,$1+$1,$6,$7*
1,1,$1+$1,$8,$9*
0 Add four rect primitives between the rounded corners*
20,1,$1+$1,$2,$3,$4,$5,0*
20,1,$1+$1,$4,$5,$6,$7,0*
20,1,$1+$1,$6,$7,$8,$9,0*
20,1,$1+$1,$8,$9,$2,$3,0*%
G04 Aperture macros list end*
%ADD10C,1.600000*%
%ADD11RoundRect,0.250000X-0.550000X-0.550000X0.550000X-0.550000X0.550000X0.550000X-0.550000X0.550000X0*%
%ADD12R,1.700000X1.700000*%
%ADD13C,1.700000*%
%ADD14R,1.600000X1.600000*%
G04 APERTURE END LIST*
D10*
%TO.C,R4*%
X181102000Y-95504000D03*
X191262000Y-95504000D03*
%TD*%
D11*
%TO.C,C1*%
X123381888Y-110363000D03*
D10*
X125881888Y-110363000D03*
%TD*%
%TO.C,R7*%
X181102000Y-107654000D03*
X191262000Y-107654000D03*
%TD*%
D12*
%TO.C,J1*%
X119000000Y-91689000D03*
D13*
X119000000Y-94229000D03*
%TD*%
D11*
%TO.C,U2*%
X148209000Y-90932000D03*
D10*
X148209000Y-93472000D03*
X148209000Y-96012000D03*
X148209000Y-98552000D03*
X148209000Y-101092000D03*
X148209000Y-103632000D03*
X148209000Y-106172000D03*
X155829000Y-106172000D03*
X155829000Y-103632000D03*
X155829000Y-101092000D03*
X155829000Y-98552000D03*
X155829000Y-96012000D03*
X155829000Y-93472000D03*
X155829000Y-90932000D03*
%TD*%
D14*
%TO.C,U4*%
X197612000Y-105033500D03*
D10*
X200152000Y-105033500D03*
X202692000Y-105033500D03*
X205232000Y-105033500D03*
X207772000Y-105033500D03*
X207772000Y-89793500D03*
X205232000Y-89793500D03*
X202692000Y-89793500D03*
X200152000Y-89793500D03*
X197612000Y-89793500D03*
%TD*%
%TO.C,R10*%
X181229000Y-111887000D03*
X191389000Y-111887000D03*
%TD*%
D11*
%TO.C,U3*%
X166243000Y-89916000D03*
D10*
X166243000Y-92456000D03*
X166243000Y-94996000D03*
X166243000Y-97536000D03*
X166243000Y-100076000D03*
X166243000Y-102616000D03*
X166243000Y-105156000D03*
X166243000Y-107696000D03*
X173863000Y-107696000D03*
X173863000Y-105156000D03*
X173863000Y-102616000D03*
X173863000Y-100076000D03*
X173863000Y-97536000D03*
X173863000Y-94996000D03*
X173863000Y-92456000D03*
X173863000Y-89916000D03*
%TD*%
%TO.C,R9*%
X181356000Y-87376000D03*
X191516000Y-87376000D03*
%TD*%
%TO.C,R1*%
X138684000Y-86741000D03*
X138684000Y-96901000D03*
%TD*%
%TO.C,R8*%
X181356000Y-83326000D03*
X191516000Y-83326000D03*
%TD*%
%TO.C,R2*%
X138684000Y-100203000D03*
X138684000Y-110363000D03*
%TD*%
%TO.C,R3*%
X181102000Y-91454000D03*
X191262000Y-91454000D03*
%TD*%
%TO.C,R6*%
X181102000Y-103604000D03*
X191262000Y-103604000D03*
%TD*%
%TO.C,R5*%
X181102000Y-99554000D03*
X191262000Y-99554000D03*
%TD*%
%TO.C,C2*%
X132334000Y-108585000D03*
X132334000Y-111085000D03*
%TD*%
D11*
%TO.C,U1*%
X124719000Y-94107000D03*
D10*
X124719000Y-96647000D03*
X124719000Y-99187000D03*
X124719000Y-101727000D03*
X132339000Y-101727000D03*
X132339000Y-99187000D03*
X132339000Y-96647000D03*
X132339000Y-94107000D03*
%TD*%
M02*
