%TF.GenerationSoftware,KiCad,Pcbnew,9.0.4*%
%TF.CreationDate,2026-04-02T10:35:08+09:00*%
%TF.ProjectId,HAM_Seminar_NE555,48414d5f-5365-46d6-996e-61725f4e4535,rev?*%
%TF.SameCoordinates,Original*%
%TF.FileFunction,Copper,L1,Top*%
%TF.FilePolarity,Positive*%
%FSLAX46Y46*%
G04 Gerber Fmt 4.6, Leading zero omitted, Abs format (unit mm)*
G04 Created by KiCad (PCBNEW 9.0.4) date 2026-04-02 10:35:08*
%MOMM*%
%LPD*%
G01*
G04 APERTURE LIST*
G04 Aperture macros list*
%AMRoundRect*
0 Rectangle with rounded corners*
0 $1 Rounding radius*
0 $2 $3 $4 $5 $6 $7 $8 $9 X,Y pos of 4 corners*
0 Add a 4 corners polygon primitive as box body*
4,1,4,$2,$3,$4,$5,$6,$7,$8,$9,$2,$3,0*
0 Add four circle primitives for the rounded corners*
1,1,$1+$1,$2,$3*
1,1,$1+$1,$4,$5*
1,1,$1+$1,$6,$7*
1,1,$1+$1,$8,$9*
0 Add four rect primitives between the rounded corners*
20,1,$1+$1,$2,$3,$4,$5,0*
20,1,$1+$1,$4,$5,$6,$7,0*
20,1,$1+$1,$6,$7,$8,$9,0*
20,1,$1+$1,$8,$9,$2,$3,0*%
G04 Aperture macros list end*
%TA.AperFunction,ComponentPad*%
%ADD10C,1.600000*%
%TD*%
%TA.AperFunction,ComponentPad*%
%ADD11RoundRect,0.250000X-0.550000X-0.550000X0.550000X-0.550000X0.550000X0.550000X-0.550000X0.550000X0*%
%TD*%
%TA.AperFunction,ComponentPad*%
%ADD12R,1.700000X1.700000*%
%TD*%
%TA.AperFunction,ComponentPad*%
%ADD13C,1.700000*%
%TD*%
%TA.AperFunction,ComponentPad*%
%ADD14R,1.600000X1.600000*%
%TD*%
%TA.AperFunction,ViaPad*%
%ADD15C,0.600000*%
%TD*%
%TA.AperFunction,Conductor*%
%ADD16C,0.200000*%
%TD*%
G04 APERTURE END LIST*
D10*
%TO.P,R4,1*%
%TO.N,Net-(U3-b)*%
X181102000Y-95504000D03*
%TO.P,R4,2*%
%TO.N,Net-(U4-B)*%
X191262000Y-95504000D03*
%TD*%
D11*
%TO.P,C1,1*%
%TO.N,Net-(U1-THR)*%
X123381888Y-110363000D03*
D10*
%TO.P,C1,2*%
%TO.N,GND*%
X125881888Y-110363000D03*
%TD*%
%TO.P,R7,1*%
%TO.N,Net-(U3-e)*%
X181102000Y-107654000D03*
%TO.P,R7,2*%
%TO.N,Net-(U4-E)*%
X191262000Y-107654000D03*
%TD*%
D12*
%TO.P,J1,1,Pin_1*%
%TO.N,VCC*%
X119000000Y-91689000D03*
D13*
%TO.P,J1,2,Pin_2*%
%TO.N,GND*%
X119000000Y-94229000D03*
%TD*%
D11*
%TO.P,U2,1,CP1..3*%
%TO.N,Net-(U2-CP1..3)*%
X148209000Y-90932000D03*
D10*
%TO.P,U2,2,R0(1)*%
%TO.N,GND*%
X148209000Y-93472000D03*
%TO.P,U2,3,R0(2)*%
X148209000Y-96012000D03*
%TO.P,U2,4*%
%TO.N,N/C*%
X148209000Y-98552000D03*
%TO.P,U2,5,VCC*%
%TO.N,VCC*%
X148209000Y-101092000D03*
%TO.P,U2,6,R9(1)*%
%TO.N,GND*%
X148209000Y-103632000D03*
%TO.P,U2,7,R9(2)*%
X148209000Y-106172000D03*
%TO.P,U2,8,Q2*%
%TO.N,Net-(U2-Q2)*%
X155829000Y-106172000D03*
%TO.P,U2,9,Q1*%
%TO.N,Net-(U2-Q1)*%
X155829000Y-103632000D03*
%TO.P,U2,10,GND*%
%TO.N,GND*%
X155829000Y-101092000D03*
%TO.P,U2,11,Q3*%
%TO.N,Net-(U2-Q3)*%
X155829000Y-98552000D03*
%TO.P,U2,12,Q0*%
%TO.N,Net-(U2-CP1..3)*%
X155829000Y-96012000D03*
%TO.P,U2,13*%
%TO.N,N/C*%
X155829000Y-93472000D03*
%TO.P,U2,14,CP0*%
%TO.N,Net-(U1-Q)*%
X155829000Y-90932000D03*
%TD*%
D14*
%TO.P,U4,1,E*%
%TO.N,Net-(U4-E)*%
X197612000Y-105033500D03*
D10*
%TO.P,U4,2,D*%
%TO.N,Net-(U4-D)*%
X200152000Y-105033500D03*
%TO.P,U4,3,CA*%
%TO.N,VCC*%
X202692000Y-105033500D03*
%TO.P,U4,4,C*%
%TO.N,Net-(U4-C)*%
X205232000Y-105033500D03*
%TO.P,U4,5,DP*%
%TO.N,Net-(U4-DP)*%
X207772000Y-105033500D03*
%TO.P,U4,6,B*%
%TO.N,Net-(U4-B)*%
X207772000Y-89793500D03*
%TO.P,U4,7,A*%
%TO.N,Net-(U4-A)*%
X205232000Y-89793500D03*
%TO.P,U4,8,CA*%
%TO.N,VCC*%
X202692000Y-89793500D03*
%TO.P,U4,9,F*%
%TO.N,Net-(U4-F)*%
X200152000Y-89793500D03*
%TO.P,U4,10,G*%
%TO.N,Net-(U4-G)*%
X197612000Y-89793500D03*
%TD*%
%TO.P,R10,1*%
%TO.N,Net-(U1-Q)*%
X181229000Y-111887000D03*
%TO.P,R10,2*%
%TO.N,Net-(U4-DP)*%
X191389000Y-111887000D03*
%TD*%
D11*
%TO.P,U3,1,B*%
%TO.N,Net-(U2-Q1)*%
X166243000Y-89916000D03*
D10*
%TO.P,U3,2,C*%
%TO.N,Net-(U2-Q2)*%
X166243000Y-92456000D03*
%TO.P,U3,3,LT*%
%TO.N,VCC*%
X166243000Y-94996000D03*
%TO.P,U3,4,BI*%
X166243000Y-97536000D03*
%TO.P,U3,5,RBI*%
X166243000Y-100076000D03*
%TO.P,U3,6,D*%
%TO.N,Net-(U2-Q3)*%
X166243000Y-102616000D03*
%TO.P,U3,7,A*%
%TO.N,Net-(U2-CP1..3)*%
X166243000Y-105156000D03*
%TO.P,U3,8,GND*%
%TO.N,GND*%
X166243000Y-107696000D03*
%TO.P,U3,9,e*%
%TO.N,Net-(U3-e)*%
X173863000Y-107696000D03*
%TO.P,U3,10,d*%
%TO.N,Net-(U3-d)*%
X173863000Y-105156000D03*
%TO.P,U3,11,c*%
%TO.N,Net-(U3-c)*%
X173863000Y-102616000D03*
%TO.P,U3,12,b*%
%TO.N,Net-(U3-b)*%
X173863000Y-100076000D03*
%TO.P,U3,13,a*%
%TO.N,Net-(U3-a)*%
X173863000Y-97536000D03*
%TO.P,U3,14,g*%
%TO.N,Net-(U3-g)*%
X173863000Y-94996000D03*
%TO.P,U3,15,f*%
%TO.N,Net-(U3-f)*%
X173863000Y-92456000D03*
%TO.P,U3,16,VCC*%
%TO.N,VCC*%
X173863000Y-89916000D03*
%TD*%
%TO.P,R9,1*%
%TO.N,Net-(U3-g)*%
X181356000Y-87376000D03*
%TO.P,R9,2*%
%TO.N,Net-(U4-G)*%
X191516000Y-87376000D03*
%TD*%
%TO.P,R1,1*%
%TO.N,VCC*%
X138684000Y-86741000D03*
%TO.P,R1,2*%
%TO.N,Net-(U1-DIS)*%
X138684000Y-96901000D03*
%TD*%
%TO.P,R8,1*%
%TO.N,Net-(U3-f)*%
X181356000Y-83326000D03*
%TO.P,R8,2*%
%TO.N,Net-(U4-F)*%
X191516000Y-83326000D03*
%TD*%
%TO.P,R2,1*%
%TO.N,Net-(U1-DIS)*%
X138684000Y-100203000D03*
%TO.P,R2,2*%
%TO.N,Net-(U1-THR)*%
X138684000Y-110363000D03*
%TD*%
%TO.P,R3,1*%
%TO.N,Net-(U3-a)*%
X181102000Y-91454000D03*
%TO.P,R3,2*%
%TO.N,Net-(U4-A)*%
X191262000Y-91454000D03*
%TD*%
%TO.P,R6,1*%
%TO.N,Net-(U3-d)*%
X181102000Y-103604000D03*
%TO.P,R6,2*%
%TO.N,Net-(U4-D)*%
X191262000Y-103604000D03*
%TD*%
%TO.P,R5,1*%
%TO.N,Net-(U3-c)*%
X181102000Y-99554000D03*
%TO.P,R5,2*%
%TO.N,Net-(U4-C)*%
X191262000Y-99554000D03*
%TD*%
%TO.P,C2,1*%
%TO.N,Net-(U1-CV)*%
X132334000Y-108585000D03*
%TO.P,C2,2*%
%TO.N,GND*%
X132334000Y-111085000D03*
%TD*%
D11*
%TO.P,U1,1,GND*%
%TO.N,GND*%
X124719000Y-94107000D03*
D10*
%TO.P,U1,2,TR*%
%TO.N,Net-(U1-THR)*%
X124719000Y-96647000D03*
%TO.P,U1,3,Q*%
%TO.N,Net-(U1-Q)*%
X124719000Y-99187000D03*
%TO.P,U1,4,R*%
%TO.N,VCC*%
X124719000Y-101727000D03*
%TO.P,U1,5,CV*%
%TO.N,Net-(U1-CV)*%
X132339000Y-101727000D03*
%TO.P,U1,6,THR*%
%TO.N,Net-(U1-THR)*%
X132339000Y-99187000D03*
%TO.P,U1,7,DIS*%
%TO.N,Net-(U1-DIS)*%
X132339000Y-96647000D03*
%TO.P,U1,8,VCC*%
%TO.N,VCC*%
X132339000Y-94107000D03*
%TD*%
D15*
%TO.N,GND*%
X212000000Y-78000000D03*
X117000000Y-78000000D03*
X212000000Y-117000000D03*
X118000000Y-117000000D03*
X160000000Y-117000000D03*
X160000000Y-78000000D03*
%TD*%
D16*
%TO.N,Net-(U1-THR)*%
X123381888Y-109917112D02*
X123381888Y-110363000D01*
X129032000Y-99187000D02*
X132339000Y-99187000D01*
X127825500Y-97980500D02*
X129032000Y-99187000D01*
X126492000Y-96647000D02*
X127825500Y-97980500D01*
X136017000Y-113030000D02*
X126048888Y-113030000D01*
X128143000Y-98298000D02*
X128143000Y-105156000D01*
X128143000Y-105156000D02*
X123381888Y-109917112D01*
X126048888Y-113030000D02*
X123381888Y-110363000D01*
X124719000Y-96647000D02*
X126492000Y-96647000D01*
X138684000Y-110363000D02*
X136017000Y-113030000D01*
X127825500Y-97980500D02*
X128143000Y-98298000D01*
%TO.N,GND*%
X154178000Y-107061000D02*
X154178000Y-102743000D01*
X153670000Y-101092000D02*
X150749000Y-101092000D01*
X166243000Y-107696000D02*
X164846000Y-109093000D01*
X119000000Y-94229000D02*
X124597000Y-94229000D01*
X153289000Y-101092000D02*
X153670000Y-101092000D01*
X164719000Y-108966000D02*
X156083000Y-108966000D01*
X124597000Y-94229000D02*
X124719000Y-94107000D01*
X154178000Y-102743000D02*
X155829000Y-101092000D01*
X148209000Y-103632000D02*
X148209000Y-106172000D01*
X148209000Y-93472000D02*
X148209000Y-96012000D01*
X164846000Y-109093000D02*
X164719000Y-108966000D01*
X150749000Y-101092000D02*
X148209000Y-103632000D01*
X156083000Y-108966000D02*
X154178000Y-107061000D01*
X148209000Y-96012000D02*
X153289000Y-101092000D01*
X155829000Y-101092000D02*
X153670000Y-101092000D01*
%TO.N,Net-(U1-CV)*%
X132334000Y-101732000D02*
X132339000Y-101727000D01*
X132334000Y-108585000D02*
X132334000Y-101732000D01*
%TO.N,VCC*%
X144653000Y-97536000D02*
X144526000Y-97409000D01*
X142494000Y-95377000D02*
X142494000Y-90551000D01*
X132339000Y-93086000D02*
X132339000Y-94107000D01*
X173863000Y-89916000D02*
X171323000Y-89916000D01*
X142494000Y-90551000D02*
X138684000Y-86741000D01*
X168656000Y-113411000D02*
X147701000Y-113411000D01*
X148209000Y-101092000D02*
X144526000Y-97409000D01*
X171323000Y-89916000D02*
X166243000Y-94996000D01*
X147701000Y-113411000D02*
X144653000Y-110363000D01*
X138684000Y-86741000D02*
X132339000Y-93086000D01*
X144526000Y-97409000D02*
X142494000Y-95377000D01*
X166243000Y-100076000D02*
X166243000Y-94996000D01*
X169418000Y-103251000D02*
X169418000Y-112649000D01*
X166243000Y-100076000D02*
X169418000Y-103251000D01*
X144653000Y-110363000D02*
X144653000Y-97536000D01*
X169418000Y-112649000D02*
X168656000Y-113411000D01*
%TO.N,Net-(U1-DIS)*%
X138684000Y-98806000D02*
X138684000Y-96901000D01*
X136525000Y-96647000D02*
X138684000Y-98806000D01*
X132339000Y-96647000D02*
X136525000Y-96647000D01*
X138684000Y-100203000D02*
X138684000Y-98806000D01*
%TO.N,Net-(U4-A)*%
X203571500Y-91454000D02*
X205232000Y-89793500D01*
X191262000Y-91454000D02*
X203571500Y-91454000D01*
%TO.N,Net-(U3-a)*%
X175020000Y-97536000D02*
X181102000Y-91454000D01*
X173863000Y-97536000D02*
X175020000Y-97536000D01*
%TO.N,Net-(U4-B)*%
X202061500Y-95504000D02*
X207772000Y-89793500D01*
X191262000Y-95504000D02*
X202061500Y-95504000D01*
%TO.N,Net-(U3-b)*%
X176530000Y-100076000D02*
X181102000Y-95504000D01*
X173863000Y-100076000D02*
X176530000Y-100076000D01*
%TO.N,Net-(U3-c)*%
X173863000Y-102616000D02*
X178040000Y-102616000D01*
X178040000Y-102616000D02*
X181102000Y-99554000D01*
%TO.N,Net-(U4-C)*%
X191262000Y-99554000D02*
X199752500Y-99554000D01*
X199752500Y-99554000D02*
X205232000Y-105033500D01*
%TO.N,Net-(U3-d)*%
X179550000Y-105156000D02*
X181102000Y-103604000D01*
X173863000Y-105156000D02*
X179550000Y-105156000D01*
%TO.N,Net-(U4-D)*%
X198722500Y-103604000D02*
X200152000Y-105033500D01*
X191262000Y-103604000D02*
X198722500Y-103604000D01*
%TO.N,Net-(U3-e)*%
X181060000Y-107696000D02*
X181102000Y-107654000D01*
X173863000Y-107696000D02*
X181060000Y-107696000D01*
%TO.N,Net-(U4-E)*%
X191262000Y-107654000D02*
X194991500Y-107654000D01*
X194991500Y-107654000D02*
X197612000Y-105033500D01*
%TO.N,Net-(U3-f)*%
X181356000Y-84963000D02*
X181356000Y-83326000D01*
X173863000Y-92456000D02*
X181356000Y-84963000D01*
%TO.N,Net-(U4-F)*%
X191516000Y-83326000D02*
X193684500Y-83326000D01*
X193684500Y-83326000D02*
X200152000Y-89793500D01*
%TO.N,Net-(U3-g)*%
X181356000Y-87503000D02*
X181356000Y-87376000D01*
X173863000Y-94996000D02*
X181356000Y-87503000D01*
%TO.N,Net-(U4-G)*%
X191516000Y-87376000D02*
X195194500Y-87376000D01*
X195194500Y-87376000D02*
X197612000Y-89793500D01*
%TO.N,Net-(U4-DP)*%
X191389000Y-111887000D02*
X200918500Y-111887000D01*
X200918500Y-111887000D02*
X207772000Y-105033500D01*
%TO.N,Net-(U1-Q)*%
X137477500Y-84899500D02*
X126831000Y-95546000D01*
X181973974Y-81534000D02*
X184277000Y-83837026D01*
X123190000Y-96618950D02*
X123190000Y-97658000D01*
X159893000Y-81534000D02*
X181973974Y-81534000D01*
X184277000Y-83837026D02*
X184277000Y-110363000D01*
X182753000Y-111887000D02*
X181229000Y-111887000D01*
X124262950Y-95546000D02*
X123190000Y-96618950D01*
X184277000Y-110363000D02*
X182753000Y-111887000D01*
X123190000Y-97658000D02*
X124719000Y-99187000D01*
X156527500Y-84899500D02*
X137477500Y-84899500D01*
X156527500Y-84899500D02*
X156273500Y-85153500D01*
X156273500Y-85153500D02*
X159893000Y-81534000D01*
X126831000Y-95546000D02*
X124262950Y-95546000D01*
X155829000Y-85598000D02*
X155829000Y-90932000D01*
X156273500Y-85153500D02*
X155829000Y-85598000D01*
%TO.N,Net-(U2-CP1..3)*%
X155541950Y-99822000D02*
X153797000Y-98077050D01*
X164719000Y-105156000D02*
X159385000Y-99822000D01*
X153797000Y-98077050D02*
X153797000Y-93980000D01*
X166243000Y-105156000D02*
X164719000Y-105156000D01*
X150749000Y-90932000D02*
X152209500Y-92392500D01*
X159385000Y-99822000D02*
X155541950Y-99822000D01*
X148209000Y-90932000D02*
X150749000Y-90932000D01*
X152209500Y-92392500D02*
X155829000Y-96012000D01*
X153797000Y-93980000D02*
X152209500Y-92392500D01*
%TO.N,Net-(U2-Q3)*%
X162179000Y-98552000D02*
X166243000Y-102616000D01*
X155829000Y-98552000D02*
X162179000Y-98552000D01*
%TD*%
%TA.AperFunction,Conductor*%
%TO.N,GND*%
G36*
X150515942Y-91552185D02*
G01*
X150536584Y-91568819D01*
X153160181Y-94192416D01*
X153193666Y-94253739D01*
X153196500Y-94280097D01*
X153196500Y-97990380D01*
X153196499Y-97990398D01*
X153196499Y-98156104D01*
X153196498Y-98156104D01*
X153196499Y-98156107D01*
X153237423Y-98308835D01*
X153243992Y-98320213D01*
X153243993Y-98320216D01*
X153243994Y-98320216D01*
X153316477Y-98445762D01*
X153316481Y-98445767D01*
X153435349Y-98564635D01*
X153435355Y-98564640D01*
X155057089Y-100186374D01*
X155057099Y-100186385D01*
X155061429Y-100190715D01*
X155061430Y-100190716D01*
X155173234Y-100302520D01*
X155258959Y-100352013D01*
X155310165Y-100381577D01*
X155462893Y-100422501D01*
X155462895Y-100422501D01*
X155470953Y-100423562D01*
X155470742Y-100425158D01*
X155528732Y-100442186D01*
X155549374Y-100458820D01*
X155782554Y-100692000D01*
X155776339Y-100692000D01*
X155674606Y-100719259D01*
X155583394Y-100771920D01*
X155508920Y-100846394D01*
X155456259Y-100937606D01*
X155429000Y-101039339D01*
X155429000Y-101045553D01*
X154749524Y-100366077D01*
X154749523Y-100366077D01*
X154717143Y-100410644D01*
X154624244Y-100592968D01*
X154561009Y-100787582D01*
X154529000Y-100989682D01*
X154529000Y-101194317D01*
X154561009Y-101396417D01*
X154624244Y-101591031D01*
X154717141Y-101773350D01*
X154717147Y-101773359D01*
X154749523Y-101817921D01*
X154749524Y-101817922D01*
X155429000Y-101138446D01*
X155429000Y-101144661D01*
X155456259Y-101246394D01*
X155508920Y-101337606D01*
X155583394Y-101412080D01*
X155674606Y-101464741D01*
X155776339Y-101492000D01*
X155782553Y-101492000D01*
X155103076Y-102171474D01*
X155147652Y-102203861D01*
X155240628Y-102251234D01*
X155291425Y-102299208D01*
X155308220Y-102367029D01*
X155285683Y-102433164D01*
X155240630Y-102472203D01*
X155147388Y-102519713D01*
X154981786Y-102640028D01*
X154837028Y-102784786D01*
X154716715Y-102950386D01*
X154623781Y-103132776D01*
X154560522Y-103327465D01*
X154528500Y-103529648D01*
X154528500Y-103734351D01*
X154560522Y-103936534D01*
X154623781Y-104131223D01*
X154687691Y-104256653D01*
X154716585Y-104313359D01*
X154716715Y-104313613D01*
X154837028Y-104479213D01*
X154981786Y-104623971D01*
X155102226Y-104711474D01*
X155147390Y-104744287D01*
X155238840Y-104790883D01*
X155240080Y-104791515D01*
X155290876Y-104839490D01*
X155307671Y-104907311D01*
X155285134Y-104973446D01*
X155240080Y-105012485D01*
X155147386Y-105059715D01*
X154981786Y-105180028D01*
X154837028Y-105324786D01*
X154716715Y-105490386D01*
X154623781Y-105672776D01*
X154560522Y-105867465D01*
X154535498Y-106025466D01*
X154528500Y-106069648D01*
X154528500Y-106274352D01*
X154531627Y-106294092D01*
X154560522Y-106476534D01*
X154623781Y-106671223D01*
X154687691Y-106796653D01*
X154716585Y-106853359D01*
X154716715Y-106853613D01*
X154837028Y-107019213D01*
X154981786Y-107163971D01*
X155102226Y-107251474D01*
X155147390Y-107284287D01*
X155223877Y-107323259D01*
X155329776Y-107377218D01*
X155329778Y-107377218D01*
X155329781Y-107377220D01*
X155373623Y-107391465D01*
X155524465Y-107440477D01*
X155587078Y-107450394D01*
X155726648Y-107472500D01*
X155726649Y-107472500D01*
X155931351Y-107472500D01*
X155931352Y-107472500D01*
X156133534Y-107440477D01*
X156328219Y-107377220D01*
X156510610Y-107284287D01*
X156603590Y-107216732D01*
X156676213Y-107163971D01*
X156676215Y-107163968D01*
X156676219Y-107163966D01*
X156820966Y-107019219D01*
X156820968Y-107019215D01*
X156820971Y-107019213D01*
X156873732Y-106946590D01*
X156941287Y-106853610D01*
X157034220Y-106671219D01*
X157097477Y-106476534D01*
X157129500Y-106274352D01*
X157129500Y-106069648D01*
X157109121Y-105940983D01*
X157097477Y-105867465D01*
X157048125Y-105715576D01*
X157034220Y-105672781D01*
X157034218Y-105672778D01*
X157034218Y-105672776D01*
X156982677Y-105571623D01*
X156941287Y-105490390D01*
X156909092Y-105446077D01*
X156820971Y-105324786D01*
X156676213Y-105180028D01*
X156510614Y-105059715D01*
X156498707Y-105053648D01*
X156417917Y-105012483D01*
X156367123Y-104964511D01*
X156350328Y-104896690D01*
X156372865Y-104830555D01*
X156417917Y-104791516D01*
X156510610Y-104744287D01*
X156631060Y-104656776D01*
X156676213Y-104623971D01*
X156676215Y-104623968D01*
X156676219Y-104623966D01*
X156820966Y-104479219D01*
X156820968Y-104479215D01*
X156820971Y-104479213D01*
X156873732Y-104406590D01*
X156941287Y-104313610D01*
X157034220Y-104131219D01*
X157097477Y-103936534D01*
X157129500Y-103734352D01*
X157129500Y-103529648D01*
X157118978Y-103463213D01*
X157097477Y-103327465D01*
X157046945Y-103171945D01*
X157034220Y-103132781D01*
X157034218Y-103132778D01*
X157034218Y-103132776D01*
X156989199Y-103044423D01*
X156941287Y-102950390D01*
X156909092Y-102906077D01*
X156820971Y-102784786D01*
X156676213Y-102640028D01*
X156510611Y-102519713D01*
X156417369Y-102472203D01*
X156366574Y-102424229D01*
X156349779Y-102356407D01*
X156372317Y-102290273D01*
X156417371Y-102251234D01*
X156510346Y-102203861D01*
X156510347Y-102203861D01*
X156554921Y-102171474D01*
X155875447Y-101492000D01*
X155881661Y-101492000D01*
X155983394Y-101464741D01*
X156074606Y-101412080D01*
X156149080Y-101337606D01*
X156201741Y-101246394D01*
X156229000Y-101144661D01*
X156229000Y-101138446D01*
X156908474Y-101817921D01*
X156940859Y-101773349D01*
X157033755Y-101591031D01*
X157096990Y-101396417D01*
X157129000Y-101194317D01*
X157129000Y-100989682D01*
X157096990Y-100787582D01*
X157032251Y-100588340D01*
X157033512Y-100587930D01*
X157026697Y-100524470D01*
X157057978Y-100461994D01*
X157118071Y-100426348D01*
X157148724Y-100422500D01*
X159084903Y-100422500D01*
X159151942Y-100442185D01*
X159172584Y-100458819D01*
X164234139Y-105520374D01*
X164234149Y-105520385D01*
X164238479Y-105524715D01*
X164238480Y-105524716D01*
X164350284Y-105636520D01*
X164437095Y-105686639D01*
X164437097Y-105686641D01*
X164475151Y-105708611D01*
X164487215Y-105715577D01*
X164639943Y-105756500D01*
X165013398Y-105756500D01*
X165080437Y-105776185D01*
X165123883Y-105824205D01*
X165130715Y-105837614D01*
X165251028Y-106003213D01*
X165395786Y-106147971D01*
X165561385Y-106268284D01*
X165561387Y-106268285D01*
X165561390Y-106268287D01*
X165654080Y-106315515D01*
X165654630Y-106315795D01*
X165705426Y-106363770D01*
X165722221Y-106431591D01*
X165699684Y-106497725D01*
X165654630Y-106536765D01*
X165561644Y-106584143D01*
X165517077Y-106616523D01*
X165517077Y-106616524D01*
X166196554Y-107296000D01*
X166190339Y-107296000D01*
X166088606Y-107323259D01*
X165997394Y-107375920D01*
X165922920Y-107450394D01*
X165870259Y-107541606D01*
X165843000Y-107643339D01*
X165843000Y-107649553D01*
X165163524Y-106970077D01*
X165163523Y-106970077D01*
X165131143Y-107014644D01*
X165038244Y-107196968D01*
X164975009Y-107391582D01*
X164943000Y-107593682D01*
X164943000Y-107798317D01*
X164975009Y-108000417D01*
X165038244Y-108195031D01*
X165131141Y-108377350D01*
X165131147Y-108377359D01*
X165163523Y-108421921D01*
X165163524Y-108421922D01*
X165843000Y-107742446D01*
X165843000Y-107748661D01*
X165870259Y-107850394D01*
X165922920Y-107941606D01*
X165997394Y-108016080D01*
X166088606Y-108068741D01*
X166190339Y-108096000D01*
X166196553Y-108096000D01*
X165517076Y-108775474D01*
X165561650Y-108807859D01*
X165743968Y-108900755D01*
X165938582Y-108963990D01*
X166140683Y-108996000D01*
X166345317Y-108996000D01*
X166547417Y-108963990D01*
X166742031Y-108900755D01*
X166924349Y-108807859D01*
X166968921Y-108775474D01*
X166289447Y-108096000D01*
X166295661Y-108096000D01*
X166397394Y-108068741D01*
X166488606Y-108016080D01*
X166563080Y-107941606D01*
X166615741Y-107850394D01*
X166643000Y-107748661D01*
X166643000Y-107742447D01*
X167322474Y-108421921D01*
X167354859Y-108377349D01*
X167447755Y-108195031D01*
X167510990Y-108000417D01*
X167543000Y-107798317D01*
X167543000Y-107593682D01*
X167510990Y-107391582D01*
X167447755Y-107196968D01*
X167354859Y-107014650D01*
X167322474Y-106970077D01*
X167322474Y-106970076D01*
X166643000Y-107649551D01*
X166643000Y-107643339D01*
X166615741Y-107541606D01*
X166563080Y-107450394D01*
X166488606Y-107375920D01*
X166397394Y-107323259D01*
X166295661Y-107296000D01*
X166289446Y-107296000D01*
X166968922Y-106616524D01*
X166968921Y-106616523D01*
X166924359Y-106584147D01*
X166924350Y-106584141D01*
X166831369Y-106536765D01*
X166780573Y-106488790D01*
X166763778Y-106420969D01*
X166786315Y-106354835D01*
X166831370Y-106315795D01*
X166831920Y-106315515D01*
X166924610Y-106268287D01*
X167030927Y-106191044D01*
X167090213Y-106147971D01*
X167090215Y-106147968D01*
X167090219Y-106147966D01*
X167234966Y-106003219D01*
X167234968Y-106003215D01*
X167234971Y-106003213D01*
X167307007Y-105904062D01*
X167355287Y-105837610D01*
X167448220Y-105655219D01*
X167511477Y-105460534D01*
X167543500Y-105258352D01*
X167543500Y-105053648D01*
X167511477Y-104851466D01*
X167507585Y-104839489D01*
X167448218Y-104656776D01*
X167414503Y-104590607D01*
X167355287Y-104474390D01*
X167347556Y-104463749D01*
X167234971Y-104308786D01*
X167090213Y-104164028D01*
X166924614Y-104043715D01*
X166901622Y-104032000D01*
X166831917Y-103996483D01*
X166781123Y-103948511D01*
X166764328Y-103880690D01*
X166786865Y-103814555D01*
X166831917Y-103775516D01*
X166924610Y-103728287D01*
X166984657Y-103684661D01*
X167090213Y-103607971D01*
X167090215Y-103607968D01*
X167090219Y-103607966D01*
X167234966Y-103463219D01*
X167234968Y-103463215D01*
X167234971Y-103463213D01*
X167333511Y-103327582D01*
X167355287Y-103297610D01*
X167448220Y-103115219D01*
X167511477Y-102920534D01*
X167543500Y-102718352D01*
X167543500Y-102525097D01*
X167563185Y-102458058D01*
X167615989Y-102412303D01*
X167685147Y-102402359D01*
X167748703Y-102431384D01*
X167755181Y-102437416D01*
X168781181Y-103463416D01*
X168814666Y-103524739D01*
X168817500Y-103551097D01*
X168817500Y-112348902D01*
X168797815Y-112415941D01*
X168781181Y-112436583D01*
X168443584Y-112774181D01*
X168382261Y-112807666D01*
X168355903Y-112810500D01*
X148001097Y-112810500D01*
X147934058Y-112790815D01*
X147913416Y-112774181D01*
X145289819Y-110150584D01*
X145256334Y-110089261D01*
X145253500Y-110062903D01*
X145253500Y-99285097D01*
X145273185Y-99218058D01*
X145325989Y-99172303D01*
X145395147Y-99162359D01*
X145458703Y-99191384D01*
X145465179Y-99197414D01*
X146200249Y-99932485D01*
X146914921Y-100647157D01*
X146948406Y-100708480D01*
X146945173Y-100773149D01*
X146940523Y-100787460D01*
X146940523Y-100787462D01*
X146908500Y-100989648D01*
X146908500Y-101194351D01*
X146940522Y-101396534D01*
X147003781Y-101591223D01*
X147067691Y-101716653D01*
X147096585Y-101773359D01*
X147096715Y-101773613D01*
X147217028Y-101939213D01*
X147361786Y-102083971D01*
X147527385Y-102204284D01*
X147527387Y-102204285D01*
X147527390Y-102204287D01*
X147570442Y-102226223D01*
X147620630Y-102251795D01*
X147671426Y-102299770D01*
X147688221Y-102367591D01*
X147665684Y-102433725D01*
X147620630Y-102472765D01*
X147527644Y-102520143D01*
X147483077Y-102552523D01*
X147483077Y-102552524D01*
X148162554Y-103232000D01*
X148156339Y-103232000D01*
X148054606Y-103259259D01*
X147963394Y-103311920D01*
X147888920Y-103386394D01*
X147836259Y-103477606D01*
X147809000Y-103579339D01*
X147809000Y-103585553D01*
X147129524Y-102906077D01*
X147129523Y-102906077D01*
X147097143Y-102950644D01*
X147004244Y-103132968D01*
X146941009Y-103327582D01*
X146909000Y-103529682D01*
X146909000Y-103734317D01*
X146941009Y-103936417D01*
X147004244Y-104131031D01*
X147097141Y-104313350D01*
X147097147Y-104313359D01*
X147129523Y-104357921D01*
X147129524Y-104357922D01*
X147809000Y-103678446D01*
X147809000Y-103684661D01*
X147836259Y-103786394D01*
X147888920Y-103877606D01*
X147963394Y-103952080D01*
X148054606Y-104004741D01*
X148156339Y-104032000D01*
X148162553Y-104032000D01*
X147483076Y-104711474D01*
X147527650Y-104743859D01*
X147621180Y-104791515D01*
X147671976Y-104839489D01*
X147688771Y-104907310D01*
X147666234Y-104973445D01*
X147621180Y-105012485D01*
X147527644Y-105060143D01*
X147483077Y-105092523D01*
X147483077Y-105092524D01*
X148162554Y-105772000D01*
X148156339Y-105772000D01*
X148054606Y-105799259D01*
X147963394Y-105851920D01*
X147888920Y-105926394D01*
X147836259Y-106017606D01*
X147809000Y-106119339D01*
X147809000Y-106125553D01*
X147129524Y-105446077D01*
X147129523Y-105446077D01*
X147097143Y-105490644D01*
X147004244Y-105672968D01*
X146941009Y-105867582D01*
X146909000Y-106069682D01*
X146909000Y-106274317D01*
X146941009Y-106476417D01*
X147004244Y-106671031D01*
X147097141Y-106853350D01*
X147097147Y-106853359D01*
X147129523Y-106897921D01*
X147129524Y-106897922D01*
X147809000Y-106218446D01*
X147809000Y-106224661D01*
X147836259Y-106326394D01*
X147888920Y-106417606D01*
X147963394Y-106492080D01*
X148054606Y-106544741D01*
X148156339Y-106572000D01*
X148162553Y-106572000D01*
X147483076Y-107251474D01*
X147527650Y-107283859D01*
X147709968Y-107376755D01*
X147904582Y-107439990D01*
X148106683Y-107472000D01*
X148311317Y-107472000D01*
X148513417Y-107439990D01*
X148708031Y-107376755D01*
X148890349Y-107283859D01*
X148934921Y-107251474D01*
X148255447Y-106572000D01*
X148261661Y-106572000D01*
X148363394Y-106544741D01*
X148454606Y-106492080D01*
X148529080Y-106417606D01*
X148581741Y-106326394D01*
X148609000Y-106224661D01*
X148609000Y-106218447D01*
X149288474Y-106897921D01*
X149320859Y-106853349D01*
X149413755Y-106671031D01*
X149476990Y-106476417D01*
X149509000Y-106274317D01*
X149509000Y-106069682D01*
X149476990Y-105867582D01*
X149413755Y-105672968D01*
X149320859Y-105490650D01*
X149288474Y-105446077D01*
X149288474Y-105446076D01*
X148609000Y-106125551D01*
X148609000Y-106119339D01*
X148581741Y-106017606D01*
X148529080Y-105926394D01*
X148454606Y-105851920D01*
X148363394Y-105799259D01*
X148261661Y-105772000D01*
X148255446Y-105772000D01*
X148934922Y-105092524D01*
X148934921Y-105092523D01*
X148890359Y-105060147D01*
X148890350Y-105060141D01*
X148796819Y-105012485D01*
X148746023Y-104964511D01*
X148729228Y-104896690D01*
X148751765Y-104830555D01*
X148796820Y-104791515D01*
X148890346Y-104743861D01*
X148890347Y-104743861D01*
X148934921Y-104711474D01*
X148255447Y-104032000D01*
X148261661Y-104032000D01*
X148363394Y-104004741D01*
X148454606Y-103952080D01*
X148529080Y-103877606D01*
X148581741Y-103786394D01*
X148609000Y-103684661D01*
X148609000Y-103678447D01*
X149288474Y-104357921D01*
X149320859Y-104313349D01*
X149413755Y-104131031D01*
X149476990Y-103936417D01*
X149509000Y-103734317D01*
X149509000Y-103529682D01*
X149476990Y-103327582D01*
X149413755Y-103132968D01*
X149320859Y-102950650D01*
X149288474Y-102906077D01*
X149288474Y-102906076D01*
X148609000Y-103585551D01*
X148609000Y-103579339D01*
X148581741Y-103477606D01*
X148529080Y-103386394D01*
X148454606Y-103311920D01*
X148363394Y-103259259D01*
X148261661Y-103232000D01*
X148255446Y-103232000D01*
X148934922Y-102552524D01*
X148934921Y-102552523D01*
X148890359Y-102520147D01*
X148890350Y-102520141D01*
X148797369Y-102472765D01*
X148746573Y-102424790D01*
X148729778Y-102356969D01*
X148752315Y-102290835D01*
X148797370Y-102251795D01*
X148847558Y-102226223D01*
X148890610Y-102204287D01*
X149011060Y-102116776D01*
X149056213Y-102083971D01*
X149056215Y-102083968D01*
X149056219Y-102083966D01*
X149200966Y-101939219D01*
X149200968Y-101939215D01*
X149200971Y-101939213D01*
X149280789Y-101829351D01*
X149321287Y-101773610D01*
X149414220Y-101591219D01*
X149477477Y-101396534D01*
X149509500Y-101194352D01*
X149509500Y-100989648D01*
X149492099Y-100879786D01*
X149477477Y-100787465D01*
X149441422Y-100676500D01*
X149414220Y-100592781D01*
X149414218Y-100592778D01*
X149414218Y-100592776D01*
X149370784Y-100507534D01*
X149321287Y-100410390D01*
X149308086Y-100392220D01*
X149200971Y-100244786D01*
X149056213Y-100100028D01*
X148890614Y-99979715D01*
X148878707Y-99973648D01*
X148797917Y-99932483D01*
X148747123Y-99884511D01*
X148730328Y-99816690D01*
X148752865Y-99750555D01*
X148797917Y-99711516D01*
X148890610Y-99664287D01*
X149011060Y-99576776D01*
X149056213Y-99543971D01*
X149056215Y-99543968D01*
X149056219Y-99543966D01*
X149200966Y-99399219D01*
X149200968Y-99399215D01*
X149200971Y-99399213D01*
X149280789Y-99289351D01*
X149321287Y-99233610D01*
X149414220Y-99051219D01*
X149477477Y-98856534D01*
X149509500Y-98654352D01*
X149509500Y-98449648D01*
X149492099Y-98339786D01*
X149477477Y-98247465D01*
X149428125Y-98095577D01*
X149414220Y-98052781D01*
X149414218Y-98052778D01*
X149414218Y-98052776D01*
X149371788Y-97969504D01*
X149321287Y-97870390D01*
X149308086Y-97852220D01*
X149200971Y-97704786D01*
X149056213Y-97560028D01*
X148890611Y-97439713D01*
X148797369Y-97392203D01*
X148746574Y-97344229D01*
X148729779Y-97276407D01*
X148752317Y-97210273D01*
X148797371Y-97171234D01*
X148890346Y-97123861D01*
X148890347Y-97123861D01*
X148934921Y-97091474D01*
X148255447Y-96412000D01*
X148261661Y-96412000D01*
X148363394Y-96384741D01*
X148454606Y-96332080D01*
X148529080Y-96257606D01*
X148581741Y-96166394D01*
X148609000Y-96064661D01*
X148609000Y-96058447D01*
X149288474Y-96737921D01*
X149320859Y-96693349D01*
X149413755Y-96511031D01*
X149476990Y-96316417D01*
X149509000Y-96114317D01*
X149509000Y-95909682D01*
X149476990Y-95707582D01*
X149413755Y-95512968D01*
X149320859Y-95330650D01*
X149288474Y-95286077D01*
X149288474Y-95286076D01*
X148609000Y-95965551D01*
X148609000Y-95959339D01*
X148581741Y-95857606D01*
X148529080Y-95766394D01*
X148454606Y-95691920D01*
X148363394Y-95639259D01*
X148261661Y-95612000D01*
X148255446Y-95612000D01*
X148934922Y-94932524D01*
X148934921Y-94932523D01*
X148890359Y-94900147D01*
X148890350Y-94900141D01*
X148796819Y-94852485D01*
X148746023Y-94804511D01*
X148729228Y-94736690D01*
X148751765Y-94670555D01*
X148796820Y-94631515D01*
X148890346Y-94583861D01*
X148890347Y-94583861D01*
X148934921Y-94551474D01*
X148255447Y-93872000D01*
X148261661Y-93872000D01*
X148363394Y-93844741D01*
X148454606Y-93792080D01*
X148529080Y-93717606D01*
X148581741Y-93626394D01*
X148609000Y-93524661D01*
X148609000Y-93518447D01*
X149288474Y-94197921D01*
X149320859Y-94153349D01*
X149413755Y-93971031D01*
X149476990Y-93776417D01*
X149509000Y-93574317D01*
X149509000Y-93369682D01*
X149476990Y-93167582D01*
X149413755Y-92972968D01*
X149320859Y-92790650D01*
X149288474Y-92746077D01*
X149288474Y-92746076D01*
X148609000Y-93425551D01*
X148609000Y-93419339D01*
X148581741Y-93317606D01*
X148529080Y-93226394D01*
X148454606Y-93151920D01*
X148363394Y-93099259D01*
X148261661Y-93072000D01*
X148255446Y-93072000D01*
X148934922Y-92392524D01*
X148933570Y-92375349D01*
X148919299Y-92356842D01*
X148913320Y-92287229D01*
X148945925Y-92225433D01*
X148995845Y-92194148D01*
X149078334Y-92166814D01*
X149227656Y-92074712D01*
X149351712Y-91950656D01*
X149443814Y-91801334D01*
X149498999Y-91634797D01*
X149498999Y-91634793D01*
X149499912Y-91630533D01*
X149533199Y-91569102D01*
X149594414Y-91535419D01*
X149621163Y-91532500D01*
X150448903Y-91532500D01*
X150515942Y-91552185D01*
G37*
%TD.AperFunction*%
%TA.AperFunction,Conductor*%
G36*
X128899593Y-99773205D02*
G01*
X128952943Y-99787501D01*
X128952944Y-99787501D01*
X129118654Y-99787501D01*
X129118670Y-99787500D01*
X131109398Y-99787500D01*
X131176437Y-99807185D01*
X131219883Y-99855205D01*
X131226715Y-99868614D01*
X131347028Y-100034213D01*
X131491786Y-100178971D01*
X131630426Y-100279697D01*
X131657390Y-100299287D01*
X131748840Y-100345883D01*
X131750080Y-100346515D01*
X131800876Y-100394490D01*
X131817671Y-100462311D01*
X131795134Y-100528446D01*
X131750080Y-100567485D01*
X131657386Y-100614715D01*
X131491786Y-100735028D01*
X131347028Y-100879786D01*
X131226715Y-101045386D01*
X131133781Y-101227776D01*
X131070522Y-101422465D01*
X131038500Y-101624648D01*
X131038500Y-101829351D01*
X131070522Y-102031534D01*
X131133781Y-102226223D01*
X131187423Y-102331500D01*
X131221704Y-102398780D01*
X131226715Y-102408613D01*
X131347028Y-102574213D01*
X131491786Y-102718971D01*
X131657387Y-102839286D01*
X131665792Y-102843568D01*
X131716589Y-102891541D01*
X131733500Y-102954054D01*
X131733500Y-107355397D01*
X131713815Y-107422436D01*
X131665800Y-107465879D01*
X131652389Y-107472712D01*
X131486786Y-107593028D01*
X131342028Y-107737786D01*
X131221715Y-107903386D01*
X131128781Y-108085776D01*
X131065522Y-108280465D01*
X131033500Y-108482648D01*
X131033500Y-108687351D01*
X131065522Y-108889534D01*
X131128781Y-109084223D01*
X131166498Y-109158245D01*
X131213834Y-109251147D01*
X131221715Y-109266613D01*
X131342028Y-109432213D01*
X131486786Y-109576971D01*
X131652385Y-109697284D01*
X131652387Y-109697285D01*
X131652390Y-109697287D01*
X131706378Y-109724795D01*
X131757174Y-109772769D01*
X131773969Y-109840590D01*
X131751432Y-109906725D01*
X131706378Y-109945765D01*
X131652644Y-109973143D01*
X131608077Y-110005523D01*
X131608077Y-110005524D01*
X132287554Y-110685000D01*
X132281339Y-110685000D01*
X132179606Y-110712259D01*
X132088394Y-110764920D01*
X132013920Y-110839394D01*
X131961259Y-110930606D01*
X131934000Y-111032339D01*
X131934000Y-111038553D01*
X131254524Y-110359077D01*
X131254523Y-110359077D01*
X131222143Y-110403644D01*
X131129244Y-110585968D01*
X131066009Y-110780582D01*
X131034000Y-110982682D01*
X131034000Y-111187317D01*
X131066009Y-111389417D01*
X131129244Y-111584031D01*
X131222141Y-111766350D01*
X131222147Y-111766359D01*
X131254523Y-111810921D01*
X131254524Y-111810922D01*
X131934000Y-111131446D01*
X131934000Y-111137661D01*
X131961259Y-111239394D01*
X132013920Y-111330606D01*
X132088394Y-111405080D01*
X132179606Y-111457741D01*
X132281339Y-111485000D01*
X132287553Y-111485000D01*
X131608076Y-112164474D01*
X131652657Y-112196864D01*
X131656803Y-112199405D01*
X131655659Y-112201271D01*
X131699836Y-112243006D01*
X131716620Y-112310830D01*
X131694072Y-112376961D01*
X131639351Y-112420404D01*
X131592735Y-112429500D01*
X126348986Y-112429500D01*
X126281947Y-112409815D01*
X126261305Y-112393181D01*
X125742805Y-111874681D01*
X125709320Y-111813358D01*
X125714304Y-111743666D01*
X125756176Y-111687733D01*
X125821640Y-111663316D01*
X125830486Y-111663000D01*
X125984205Y-111663000D01*
X126186305Y-111630990D01*
X126380919Y-111567755D01*
X126563237Y-111474859D01*
X126607809Y-111442474D01*
X125928335Y-110763000D01*
X125934549Y-110763000D01*
X126036282Y-110735741D01*
X126127494Y-110683080D01*
X126201968Y-110608606D01*
X126254629Y-110517394D01*
X126281888Y-110415661D01*
X126281888Y-110409447D01*
X126961362Y-111088921D01*
X126993747Y-111044349D01*
X127056332Y-110921521D01*
X127056333Y-110921519D01*
X127086642Y-110862034D01*
X127149878Y-110667417D01*
X127181888Y-110465317D01*
X127181888Y-110260682D01*
X127149878Y-110058582D01*
X127086643Y-109863968D01*
X126993747Y-109681650D01*
X126961362Y-109637077D01*
X126961362Y-109637076D01*
X126281888Y-110316551D01*
X126281888Y-110310339D01*
X126254629Y-110208606D01*
X126201968Y-110117394D01*
X126127494Y-110042920D01*
X126036282Y-109990259D01*
X125934549Y-109963000D01*
X125928334Y-109963000D01*
X126607810Y-109283524D01*
X126607809Y-109283523D01*
X126563247Y-109251147D01*
X126563238Y-109251141D01*
X126380919Y-109158244D01*
X126186305Y-109095009D01*
X125984205Y-109063000D01*
X125779571Y-109063000D01*
X125577470Y-109095009D01*
X125382853Y-109158245D01*
X125279434Y-109210940D01*
X125210765Y-109223836D01*
X125146024Y-109197559D01*
X125105768Y-109140452D01*
X125102776Y-109070647D01*
X125135457Y-109012776D01*
X128511713Y-105636521D01*
X128511716Y-105636520D01*
X128623520Y-105524716D01*
X128673639Y-105437904D01*
X128702577Y-105387785D01*
X128743500Y-105235057D01*
X128743500Y-105076943D01*
X128743500Y-99892980D01*
X128763185Y-99825941D01*
X128815989Y-99780186D01*
X128885147Y-99770242D01*
X128899593Y-99773205D01*
G37*
%TD.AperFunction*%
%TA.AperFunction,Conductor*%
G36*
X155113184Y-85502550D02*
G01*
X155122144Y-85501262D01*
X155146183Y-85512239D01*
X155171538Y-85519685D01*
X155177465Y-85526525D01*
X155185700Y-85530286D01*
X155199989Y-85552520D01*
X155217293Y-85572489D01*
X155219579Y-85583000D01*
X155223476Y-85589063D01*
X155228499Y-85623998D01*
X155228499Y-85677057D01*
X155228499Y-85677059D01*
X155228500Y-85687057D01*
X155228500Y-89702397D01*
X155208815Y-89769436D01*
X155160800Y-89812879D01*
X155147389Y-89819712D01*
X154981786Y-89940028D01*
X154837028Y-90084786D01*
X154716715Y-90250386D01*
X154623781Y-90432776D01*
X154560522Y-90627465D01*
X154528500Y-90829648D01*
X154528500Y-91034351D01*
X154560522Y-91236534D01*
X154623781Y-91431223D01*
X154685415Y-91552185D01*
X154714252Y-91608781D01*
X154716715Y-91613613D01*
X154837028Y-91779213D01*
X154981786Y-91923971D01*
X155105121Y-92013577D01*
X155147390Y-92044287D01*
X155238840Y-92090883D01*
X155240080Y-92091515D01*
X155290876Y-92139490D01*
X155307671Y-92207311D01*
X155285134Y-92273446D01*
X155240080Y-92312485D01*
X155147386Y-92359715D01*
X154981786Y-92480028D01*
X154837028Y-92624786D01*
X154716715Y-92790386D01*
X154623781Y-92972776D01*
X154560522Y-93167465D01*
X154528500Y-93369648D01*
X154528500Y-93562903D01*
X154522261Y-93584148D01*
X154520682Y-93606237D01*
X154512609Y-93617020D01*
X154508815Y-93629942D01*
X154492081Y-93644441D01*
X154478810Y-93662170D01*
X154466189Y-93666877D01*
X154456011Y-93675697D01*
X154434093Y-93678848D01*
X154413346Y-93686587D01*
X154400185Y-93683724D01*
X154386853Y-93685641D01*
X154366709Y-93676441D01*
X154345073Y-93671735D01*
X154327347Y-93658466D01*
X154323297Y-93656616D01*
X154316819Y-93650584D01*
X154284590Y-93618355D01*
X154284588Y-93618352D01*
X154284587Y-93618351D01*
X154284587Y-93618352D01*
X154277520Y-93611285D01*
X154277520Y-93611284D01*
X154165716Y-93499480D01*
X154165715Y-93499479D01*
X154161385Y-93495149D01*
X154161374Y-93495139D01*
X151236590Y-90570355D01*
X151236588Y-90570352D01*
X151117717Y-90451481D01*
X151117716Y-90451480D01*
X151018157Y-90394000D01*
X150980785Y-90372423D01*
X150828057Y-90331499D01*
X150669943Y-90331499D01*
X150662347Y-90331499D01*
X150662331Y-90331500D01*
X149621163Y-90331500D01*
X149554124Y-90311815D01*
X149508369Y-90259011D01*
X149499911Y-90233459D01*
X149499000Y-90229207D01*
X149496126Y-90220534D01*
X149443814Y-90062666D01*
X149351712Y-89913344D01*
X149227656Y-89789288D01*
X149134888Y-89732069D01*
X149078336Y-89697187D01*
X149078331Y-89697185D01*
X149076862Y-89696698D01*
X148911797Y-89642001D01*
X148911795Y-89642000D01*
X148809010Y-89631500D01*
X147608998Y-89631500D01*
X147608981Y-89631501D01*
X147506203Y-89642000D01*
X147506200Y-89642001D01*
X147339668Y-89697185D01*
X147339663Y-89697187D01*
X147190342Y-89789289D01*
X147066289Y-89913342D01*
X146974187Y-90062663D01*
X146974185Y-90062668D01*
X146963610Y-90094583D01*
X146919001Y-90229203D01*
X146919001Y-90229204D01*
X146919000Y-90229204D01*
X146908500Y-90331983D01*
X146908500Y-91532001D01*
X146908501Y-91532018D01*
X146919000Y-91634796D01*
X146919001Y-91634799D01*
X146974185Y-91801331D01*
X146974187Y-91801336D01*
X146987374Y-91822716D01*
X147066288Y-91950656D01*
X147190344Y-92074712D01*
X147339666Y-92166814D01*
X147422152Y-92194147D01*
X147479597Y-92233920D01*
X147506420Y-92298436D01*
X147494105Y-92367212D01*
X147484143Y-92378975D01*
X147483077Y-92392524D01*
X148162554Y-93072000D01*
X148156339Y-93072000D01*
X148054606Y-93099259D01*
X147963394Y-93151920D01*
X147888920Y-93226394D01*
X147836259Y-93317606D01*
X147809000Y-93419339D01*
X147809000Y-93425553D01*
X147129524Y-92746077D01*
X147129523Y-92746077D01*
X147097143Y-92790644D01*
X147004244Y-92972968D01*
X146941009Y-93167582D01*
X146909000Y-93369682D01*
X146909000Y-93574317D01*
X146941009Y-93776417D01*
X147004244Y-93971031D01*
X147097141Y-94153350D01*
X147097147Y-94153359D01*
X147129523Y-94197921D01*
X147129524Y-94197922D01*
X147809000Y-93518446D01*
X147809000Y-93524661D01*
X147836259Y-93626394D01*
X147888920Y-93717606D01*
X147963394Y-93792080D01*
X148054606Y-93844741D01*
X148156339Y-93872000D01*
X148162553Y-93872000D01*
X147483076Y-94551474D01*
X147527650Y-94583859D01*
X147621180Y-94631515D01*
X147671976Y-94679489D01*
X147688771Y-94747310D01*
X147666234Y-94813445D01*
X147621180Y-94852485D01*
X147527644Y-94900143D01*
X147483077Y-94932523D01*
X147483077Y-94932524D01*
X148162554Y-95612000D01*
X148156339Y-95612000D01*
X148054606Y-95639259D01*
X147963394Y-95691920D01*
X147888920Y-95766394D01*
X147836259Y-95857606D01*
X147809000Y-95959339D01*
X147809000Y-95965553D01*
X147129524Y-95286077D01*
X147129523Y-95286077D01*
X147097143Y-95330644D01*
X147004244Y-95512968D01*
X146941009Y-95707582D01*
X146909000Y-95909682D01*
X146909000Y-96114317D01*
X146941009Y-96316417D01*
X147004244Y-96511031D01*
X147097141Y-96693350D01*
X147097147Y-96693359D01*
X147129523Y-96737921D01*
X147129524Y-96737922D01*
X147809000Y-96058446D01*
X147809000Y-96064661D01*
X147836259Y-96166394D01*
X147888920Y-96257606D01*
X147963394Y-96332080D01*
X148054606Y-96384741D01*
X148156339Y-96412000D01*
X148162553Y-96412000D01*
X147483076Y-97091474D01*
X147527652Y-97123861D01*
X147620628Y-97171234D01*
X147671425Y-97219208D01*
X147688220Y-97287029D01*
X147665683Y-97353164D01*
X147620630Y-97392203D01*
X147527388Y-97439713D01*
X147361786Y-97560028D01*
X147217028Y-97704786D01*
X147096715Y-97870386D01*
X147003781Y-98052776D01*
X146940522Y-98247465D01*
X146908500Y-98449648D01*
X146908500Y-98642902D01*
X146888815Y-98709941D01*
X146836011Y-98755696D01*
X146766853Y-98765640D01*
X146703297Y-98736615D01*
X146696819Y-98730583D01*
X145140590Y-97174355D01*
X145133521Y-97167286D01*
X145133520Y-97167284D01*
X145021716Y-97055480D01*
X145021713Y-97055478D01*
X144894716Y-96928481D01*
X143130819Y-95164584D01*
X143097334Y-95103261D01*
X143094500Y-95076903D01*
X143094500Y-90640060D01*
X143094501Y-90640047D01*
X143094501Y-90471944D01*
X143089018Y-90451480D01*
X143053577Y-90319216D01*
X143049304Y-90311815D01*
X142974524Y-90182290D01*
X142974518Y-90182282D01*
X141483069Y-88690833D01*
X139978076Y-87185841D01*
X139944592Y-87124519D01*
X139947828Y-87059841D01*
X139952477Y-87045534D01*
X139984500Y-86843352D01*
X139984500Y-86638648D01*
X139967099Y-86528786D01*
X139952477Y-86436465D01*
X139923127Y-86346137D01*
X139889220Y-86241781D01*
X139889218Y-86241778D01*
X139889218Y-86241776D01*
X139853043Y-86170780D01*
X139796287Y-86059390D01*
X139755326Y-86003011D01*
X139675971Y-85893786D01*
X139531215Y-85749030D01*
X139497202Y-85724319D01*
X139454535Y-85668989D01*
X139448556Y-85599376D01*
X139481161Y-85537581D01*
X139541999Y-85503223D01*
X139570086Y-85500000D01*
X155104499Y-85500000D01*
X155113184Y-85502550D01*
G37*
%TD.AperFunction*%
%TA.AperFunction,Conductor*%
G36*
X212943039Y-77019685D02*
G01*
X212988794Y-77072489D01*
X213000000Y-77124000D01*
X213000000Y-117876000D01*
X212980315Y-117943039D01*
X212927511Y-117988794D01*
X212876000Y-118000000D01*
X116124000Y-118000000D01*
X116056961Y-117980315D01*
X116011206Y-117927511D01*
X116000000Y-117876000D01*
X116000000Y-109762983D01*
X122081388Y-109762983D01*
X122081388Y-110963001D01*
X122081389Y-110963018D01*
X122091888Y-111065796D01*
X122091889Y-111065799D01*
X122147073Y-111232331D01*
X122147075Y-111232336D01*
X122155753Y-111246405D01*
X122239176Y-111381656D01*
X122363232Y-111505712D01*
X122512554Y-111597814D01*
X122679091Y-111652999D01*
X122781879Y-111663500D01*
X123781789Y-111663499D01*
X123848828Y-111683183D01*
X123869470Y-111699818D01*
X125680172Y-113510520D01*
X125680174Y-113510521D01*
X125680178Y-113510524D01*
X125817097Y-113589573D01*
X125817104Y-113589577D01*
X125969831Y-113630501D01*
X125969833Y-113630501D01*
X126135542Y-113630501D01*
X126135558Y-113630500D01*
X135930331Y-113630500D01*
X135930347Y-113630501D01*
X135937943Y-113630501D01*
X136096054Y-113630501D01*
X136096057Y-113630501D01*
X136248785Y-113589577D01*
X136298904Y-113560639D01*
X136385716Y-113510520D01*
X136497520Y-113398716D01*
X136497520Y-113398714D01*
X136507728Y-113388507D01*
X136507729Y-113388504D01*
X138239159Y-111657075D01*
X138300480Y-111623592D01*
X138365154Y-111626826D01*
X138379466Y-111631477D01*
X138581648Y-111663500D01*
X138581649Y-111663500D01*
X138786351Y-111663500D01*
X138786352Y-111663500D01*
X138988534Y-111631477D01*
X139183219Y-111568220D01*
X139365610Y-111475287D01*
X139494482Y-111381657D01*
X139531213Y-111354971D01*
X139531215Y-111354968D01*
X139531219Y-111354966D01*
X139675966Y-111210219D01*
X139675968Y-111210215D01*
X139675971Y-111210213D01*
X139766942Y-111085000D01*
X139796287Y-111044610D01*
X139889220Y-110862219D01*
X139952477Y-110667534D01*
X139984500Y-110465352D01*
X139984500Y-110260648D01*
X139963798Y-110129942D01*
X139952477Y-110058465D01*
X139903173Y-109906725D01*
X139889220Y-109863781D01*
X139889218Y-109863778D01*
X139889218Y-109863776D01*
X139837865Y-109762991D01*
X139796287Y-109681390D01*
X139764092Y-109637077D01*
X139675971Y-109515786D01*
X139531213Y-109371028D01*
X139365613Y-109250715D01*
X139365612Y-109250714D01*
X139365610Y-109250713D01*
X139305898Y-109220288D01*
X139183223Y-109157781D01*
X138988534Y-109094522D01*
X138813995Y-109066878D01*
X138786352Y-109062500D01*
X138581648Y-109062500D01*
X138557329Y-109066351D01*
X138379465Y-109094522D01*
X138184776Y-109157781D01*
X138002386Y-109250715D01*
X137836786Y-109371028D01*
X137692028Y-109515786D01*
X137571715Y-109681386D01*
X137478781Y-109863776D01*
X137415522Y-110058465D01*
X137391113Y-110212581D01*
X137383500Y-110260648D01*
X137383500Y-110465352D01*
X137391743Y-110517394D01*
X137415523Y-110667535D01*
X137420172Y-110681845D01*
X137422165Y-110751687D01*
X137389921Y-110807841D01*
X135804584Y-112393181D01*
X135743261Y-112426666D01*
X135716903Y-112429500D01*
X133075265Y-112429500D01*
X133008226Y-112409815D01*
X132962471Y-112357011D01*
X132952527Y-112287853D01*
X132981552Y-112224297D01*
X133011893Y-112200549D01*
X133011193Y-112199407D01*
X133015347Y-112196861D01*
X133059921Y-112164474D01*
X132380447Y-111485000D01*
X132386661Y-111485000D01*
X132488394Y-111457741D01*
X132579606Y-111405080D01*
X132654080Y-111330606D01*
X132706741Y-111239394D01*
X132734000Y-111137661D01*
X132734000Y-111131447D01*
X133413474Y-111810921D01*
X133445859Y-111766349D01*
X133538755Y-111584031D01*
X133601990Y-111389417D01*
X133634000Y-111187317D01*
X133634000Y-110982682D01*
X133601990Y-110780582D01*
X133538755Y-110585968D01*
X133445859Y-110403650D01*
X133413474Y-110359077D01*
X133413474Y-110359076D01*
X132734000Y-111038551D01*
X132734000Y-111032339D01*
X132706741Y-110930606D01*
X132654080Y-110839394D01*
X132579606Y-110764920D01*
X132488394Y-110712259D01*
X132386661Y-110685000D01*
X132380446Y-110685000D01*
X133059922Y-110005524D01*
X133059921Y-110005523D01*
X133015359Y-109973147D01*
X133015350Y-109973141D01*
X132961621Y-109945765D01*
X132910825Y-109897791D01*
X132894030Y-109829970D01*
X132916567Y-109763835D01*
X132961621Y-109724795D01*
X133015610Y-109697287D01*
X133098484Y-109637076D01*
X133181213Y-109576971D01*
X133181215Y-109576968D01*
X133181219Y-109576966D01*
X133325966Y-109432219D01*
X133325968Y-109432215D01*
X133325971Y-109432213D01*
X133433998Y-109283524D01*
X133446287Y-109266610D01*
X133539220Y-109084219D01*
X133602477Y-108889534D01*
X133634500Y-108687352D01*
X133634500Y-108482648D01*
X133609088Y-108322205D01*
X133602477Y-108280465D01*
X133562833Y-108158454D01*
X133539220Y-108085781D01*
X133539218Y-108085778D01*
X133539218Y-108085776D01*
X133505503Y-108019607D01*
X133446287Y-107903390D01*
X133438556Y-107892749D01*
X133325971Y-107737786D01*
X133181213Y-107593028D01*
X133015610Y-107472712D01*
X133002200Y-107465879D01*
X132951406Y-107417903D01*
X132934500Y-107355397D01*
X132934500Y-102959149D01*
X132954185Y-102892110D01*
X133002205Y-102848664D01*
X133020610Y-102839287D01*
X133109066Y-102775020D01*
X133186213Y-102718971D01*
X133186215Y-102718968D01*
X133186219Y-102718966D01*
X133330966Y-102574219D01*
X133330968Y-102574215D01*
X133330971Y-102574213D01*
X133430358Y-102437416D01*
X133451287Y-102408610D01*
X133544220Y-102226219D01*
X133607477Y-102031534D01*
X133639500Y-101829352D01*
X133639500Y-101624648D01*
X133620346Y-101503715D01*
X133607477Y-101422465D01*
X133578127Y-101332137D01*
X133544220Y-101227781D01*
X133544218Y-101227778D01*
X133544218Y-101227776D01*
X133501868Y-101144661D01*
X133451287Y-101045390D01*
X133410813Y-100989682D01*
X133330971Y-100879786D01*
X133186213Y-100735028D01*
X133020614Y-100614715D01*
X132968045Y-100587930D01*
X132927917Y-100567483D01*
X132877123Y-100519511D01*
X132860328Y-100451690D01*
X132882865Y-100385555D01*
X132927917Y-100346516D01*
X133020610Y-100299287D01*
X133047574Y-100279697D01*
X133186213Y-100178971D01*
X133186215Y-100178968D01*
X133186219Y-100178966D01*
X133330966Y-100034219D01*
X133330968Y-100034215D01*
X133330971Y-100034213D01*
X133404879Y-99932485D01*
X133451287Y-99868610D01*
X133544220Y-99686219D01*
X133607477Y-99491534D01*
X133639500Y-99289352D01*
X133639500Y-99084648D01*
X133625210Y-98994423D01*
X133607477Y-98882465D01*
X133558127Y-98730583D01*
X133544220Y-98687781D01*
X133544218Y-98687778D01*
X133544218Y-98687776D01*
X133498524Y-98598098D01*
X133451287Y-98505390D01*
X133443556Y-98494749D01*
X133330971Y-98339786D01*
X133186213Y-98195028D01*
X133020614Y-98074715D01*
X132998725Y-98063562D01*
X132927917Y-98027483D01*
X132877123Y-97979511D01*
X132860328Y-97911690D01*
X132882865Y-97845555D01*
X132927917Y-97806516D01*
X133020610Y-97759287D01*
X133095632Y-97704781D01*
X133186213Y-97638971D01*
X133186215Y-97638968D01*
X133186219Y-97638966D01*
X133330966Y-97494219D01*
X133330968Y-97494215D01*
X133330971Y-97494213D01*
X133451284Y-97328614D01*
X133451285Y-97328613D01*
X133451287Y-97328610D01*
X133458117Y-97315204D01*
X133506091Y-97264409D01*
X133568602Y-97247500D01*
X136224903Y-97247500D01*
X136291942Y-97267185D01*
X136312584Y-97283819D01*
X137967544Y-98938779D01*
X138001029Y-99000102D01*
X137996045Y-99069794D01*
X137954173Y-99125727D01*
X137952748Y-99126778D01*
X137836787Y-99211028D01*
X137836782Y-99211032D01*
X137692028Y-99355786D01*
X137571715Y-99521386D01*
X137478781Y-99703776D01*
X137415522Y-99898465D01*
X137383500Y-100100648D01*
X137383500Y-100305351D01*
X137415522Y-100507534D01*
X137478781Y-100702223D01*
X137525721Y-100794346D01*
X137569252Y-100879781D01*
X137571715Y-100884613D01*
X137692028Y-101050213D01*
X137836786Y-101194971D01*
X137964558Y-101287801D01*
X138002390Y-101315287D01*
X138118607Y-101374503D01*
X138184776Y-101408218D01*
X138184778Y-101408218D01*
X138184781Y-101408220D01*
X138228623Y-101422465D01*
X138379465Y-101471477D01*
X138480557Y-101487488D01*
X138581648Y-101503500D01*
X138581649Y-101503500D01*
X138786351Y-101503500D01*
X138786352Y-101503500D01*
X138988534Y-101471477D01*
X139183219Y-101408220D01*
X139365610Y-101315287D01*
X139486060Y-101227776D01*
X139531213Y-101194971D01*
X139531215Y-101194968D01*
X139531219Y-101194966D01*
X139675966Y-101050219D01*
X139675968Y-101050215D01*
X139675971Y-101050213D01*
X139768236Y-100923219D01*
X139796287Y-100884610D01*
X139889220Y-100702219D01*
X139952477Y-100507534D01*
X139984500Y-100305352D01*
X139984500Y-100100648D01*
X139984402Y-100100028D01*
X139952477Y-99898465D01*
X139914045Y-99780186D01*
X139889220Y-99703781D01*
X139889218Y-99703778D01*
X139889218Y-99703776D01*
X139824510Y-99576781D01*
X139796287Y-99521390D01*
X139774596Y-99491534D01*
X139675971Y-99355786D01*
X139531213Y-99211028D01*
X139365610Y-99090712D01*
X139352200Y-99083879D01*
X139301406Y-99035903D01*
X139284500Y-98973397D01*
X139284500Y-98130601D01*
X139304185Y-98063562D01*
X139352206Y-98020116D01*
X139365610Y-98013287D01*
X139531219Y-97892966D01*
X139675966Y-97748219D01*
X139675968Y-97748215D01*
X139675971Y-97748213D01*
X139728732Y-97675590D01*
X139796287Y-97582610D01*
X139889220Y-97400219D01*
X139952477Y-97205534D01*
X139984500Y-97003352D01*
X139984500Y-96798648D01*
X139970336Y-96709220D01*
X139952477Y-96596465D01*
X139911358Y-96469916D01*
X139889220Y-96401781D01*
X139889218Y-96401778D01*
X139889218Y-96401776D01*
X139855503Y-96335607D01*
X139796287Y-96219390D01*
X139783086Y-96201220D01*
X139675971Y-96053786D01*
X139531213Y-95909028D01*
X139365613Y-95788715D01*
X139365612Y-95788714D01*
X139365610Y-95788713D01*
X139281216Y-95745712D01*
X139183223Y-95695781D01*
X138988534Y-95632522D01*
X138813995Y-95604878D01*
X138786352Y-95600500D01*
X138581648Y-95600500D01*
X138557329Y-95604351D01*
X138379465Y-95632522D01*
X138184776Y-95695781D01*
X138002386Y-95788715D01*
X137836786Y-95909028D01*
X137692028Y-96053786D01*
X137571715Y-96219386D01*
X137478781Y-96401776D01*
X137455534Y-96473325D01*
X137416096Y-96531000D01*
X137351737Y-96558198D01*
X137282891Y-96546283D01*
X137249922Y-96522687D01*
X137012590Y-96285355D01*
X137012588Y-96285352D01*
X136893717Y-96166481D01*
X136893716Y-96166480D01*
X136788228Y-96105577D01*
X136788227Y-96105576D01*
X136756783Y-96087422D01*
X136671837Y-96064661D01*
X136604057Y-96046499D01*
X136445943Y-96046499D01*
X136438347Y-96046499D01*
X136438331Y-96046500D01*
X133568602Y-96046500D01*
X133501563Y-96026815D01*
X133458117Y-95978795D01*
X133451284Y-95965385D01*
X133330971Y-95799786D01*
X133186213Y-95655028D01*
X133020614Y-95534715D01*
X132977556Y-95512776D01*
X132927917Y-95487483D01*
X132877123Y-95439511D01*
X132860328Y-95371690D01*
X132882865Y-95305555D01*
X132927917Y-95266516D01*
X133020610Y-95219287D01*
X133041770Y-95203913D01*
X133186213Y-95098971D01*
X133186215Y-95098968D01*
X133186219Y-95098966D01*
X133330966Y-94954219D01*
X133330968Y-94954215D01*
X133330971Y-94954213D01*
X133417005Y-94835795D01*
X133451287Y-94788610D01*
X133544220Y-94606219D01*
X133607477Y-94411534D01*
X133639500Y-94209352D01*
X133639500Y-94004648D01*
X133620346Y-93883715D01*
X133607477Y-93802465D01*
X133561583Y-93661220D01*
X133544220Y-93607781D01*
X133544218Y-93607778D01*
X133544218Y-93607776D01*
X133501868Y-93524661D01*
X133451287Y-93425390D01*
X133410813Y-93369682D01*
X133330971Y-93259786D01*
X133260390Y-93189205D01*
X133226905Y-93127882D01*
X133231889Y-93058190D01*
X133260388Y-93013845D01*
X138239158Y-88035075D01*
X138300479Y-88001592D01*
X138365151Y-88004825D01*
X138379466Y-88009477D01*
X138581648Y-88041500D01*
X138581649Y-88041500D01*
X138786351Y-88041500D01*
X138786352Y-88041500D01*
X138988534Y-88009477D01*
X139002842Y-88004827D01*
X139072682Y-88002831D01*
X139128842Y-88035077D01*
X141857181Y-90763416D01*
X141890666Y-90824739D01*
X141893500Y-90851097D01*
X141893500Y-95290330D01*
X141893499Y-95290348D01*
X141893499Y-95456054D01*
X141893498Y-95456054D01*
X141934424Y-95608789D01*
X141934425Y-95608790D01*
X141954340Y-95643283D01*
X141954341Y-95643284D01*
X142013477Y-95745712D01*
X142013481Y-95745717D01*
X142132349Y-95864585D01*
X142132355Y-95864590D01*
X144016181Y-97748416D01*
X144049666Y-97809739D01*
X144052500Y-97836097D01*
X144052500Y-110276330D01*
X144052499Y-110276348D01*
X144052499Y-110442054D01*
X144052498Y-110442054D01*
X144093423Y-110594785D01*
X144122358Y-110644900D01*
X144122359Y-110644904D01*
X144122360Y-110644904D01*
X144143687Y-110681845D01*
X144172479Y-110731714D01*
X144172481Y-110731717D01*
X144291349Y-110850585D01*
X144291355Y-110850590D01*
X147216139Y-113775374D01*
X147216149Y-113775385D01*
X147220479Y-113779715D01*
X147220480Y-113779716D01*
X147332284Y-113891520D01*
X147419095Y-113941639D01*
X147419097Y-113941641D01*
X147457151Y-113963611D01*
X147469215Y-113970577D01*
X147621943Y-114011501D01*
X147621946Y-114011501D01*
X147787653Y-114011501D01*
X147787669Y-114011500D01*
X168569331Y-114011500D01*
X168569347Y-114011501D01*
X168576943Y-114011501D01*
X168735054Y-114011501D01*
X168735057Y-114011501D01*
X168887785Y-113970577D01*
X168937904Y-113941639D01*
X169024716Y-113891520D01*
X169136520Y-113779716D01*
X169136520Y-113779714D01*
X169146728Y-113769507D01*
X169146729Y-113769504D01*
X169898520Y-113017716D01*
X169977577Y-112880784D01*
X170018501Y-112728057D01*
X170018501Y-112569942D01*
X170018501Y-112562347D01*
X170018500Y-112562329D01*
X170018500Y-103171945D01*
X170018500Y-103171943D01*
X169987960Y-103057965D01*
X169977577Y-103019215D01*
X169948639Y-102969095D01*
X169898520Y-102882284D01*
X169786716Y-102770480D01*
X169786715Y-102770479D01*
X169782385Y-102766149D01*
X169782374Y-102766139D01*
X167537077Y-100520842D01*
X167503592Y-100459519D01*
X167506828Y-100394841D01*
X167506942Y-100394490D01*
X167511477Y-100380534D01*
X167543500Y-100178352D01*
X167543500Y-99973648D01*
X167526863Y-99868610D01*
X167511477Y-99771465D01*
X167448218Y-99576776D01*
X167404784Y-99491534D01*
X167355287Y-99394390D01*
X167316846Y-99341480D01*
X167234971Y-99228786D01*
X167090213Y-99084028D01*
X166924610Y-98963712D01*
X166911200Y-98956879D01*
X166900138Y-98946431D01*
X166886297Y-98940110D01*
X166875255Y-98922928D01*
X166860406Y-98908903D01*
X166856165Y-98893223D01*
X166848523Y-98881332D01*
X166843500Y-98846397D01*
X166843500Y-98765601D01*
X166863185Y-98698562D01*
X166911206Y-98655116D01*
X166924610Y-98648287D01*
X167090219Y-98527966D01*
X167234966Y-98383219D01*
X167234968Y-98383215D01*
X167234971Y-98383213D01*
X167289009Y-98308834D01*
X167355287Y-98217610D01*
X167448220Y-98035219D01*
X167511477Y-97840534D01*
X167543500Y-97638352D01*
X167543500Y-97433648D01*
X167520322Y-97287311D01*
X167511477Y-97231465D01*
X167465991Y-97091474D01*
X167448220Y-97036781D01*
X167448218Y-97036778D01*
X167448218Y-97036776D01*
X167393038Y-96928481D01*
X167355287Y-96854390D01*
X167319040Y-96804500D01*
X167234971Y-96688786D01*
X167090213Y-96544028D01*
X166924610Y-96423712D01*
X166911200Y-96416879D01*
X166900138Y-96406431D01*
X166886297Y-96400110D01*
X166875255Y-96382928D01*
X166860406Y-96368903D01*
X166856165Y-96353223D01*
X166848523Y-96341332D01*
X166843500Y-96306397D01*
X166843500Y-96225601D01*
X166863185Y-96158562D01*
X166911206Y-96115116D01*
X166924610Y-96108287D01*
X167090219Y-95987966D01*
X167234966Y-95843219D01*
X167234968Y-95843215D01*
X167234971Y-95843213D01*
X167333511Y-95707582D01*
X167355287Y-95677610D01*
X167448220Y-95495219D01*
X167511477Y-95300534D01*
X167543500Y-95098352D01*
X167543500Y-94893648D01*
X167517422Y-94729000D01*
X167511478Y-94691472D01*
X167511477Y-94691471D01*
X167511477Y-94691466D01*
X167506825Y-94677151D01*
X167504832Y-94607312D01*
X167537075Y-94551158D01*
X171535416Y-90552819D01*
X171596739Y-90519334D01*
X171623097Y-90516500D01*
X172633398Y-90516500D01*
X172700437Y-90536185D01*
X172743883Y-90584205D01*
X172750715Y-90597614D01*
X172871028Y-90763213D01*
X173015786Y-90907971D01*
X173140691Y-90998718D01*
X173181390Y-91028287D01*
X173272840Y-91074883D01*
X173274080Y-91075515D01*
X173324876Y-91123490D01*
X173341671Y-91191311D01*
X173319134Y-91257446D01*
X173274080Y-91296485D01*
X173181386Y-91343715D01*
X173015786Y-91464028D01*
X172871028Y-91608786D01*
X172750715Y-91774386D01*
X172657781Y-91956776D01*
X172594522Y-92151465D01*
X172562500Y-92353648D01*
X172562500Y-92558351D01*
X172594522Y-92760534D01*
X172657781Y-92955223D01*
X172700722Y-93039498D01*
X172745756Y-93127882D01*
X172750715Y-93137613D01*
X172871028Y-93303213D01*
X173015786Y-93447971D01*
X173116922Y-93521449D01*
X173181390Y-93568287D01*
X173265776Y-93611284D01*
X173274080Y-93615515D01*
X173324876Y-93663490D01*
X173341671Y-93731311D01*
X173319134Y-93797446D01*
X173274080Y-93836485D01*
X173181386Y-93883715D01*
X173015786Y-94004028D01*
X172871028Y-94148786D01*
X172750715Y-94314386D01*
X172657781Y-94496776D01*
X172594522Y-94691465D01*
X172562500Y-94893648D01*
X172562500Y-95098351D01*
X172594522Y-95300534D01*
X172657781Y-95495223D01*
X172711423Y-95600500D01*
X172740948Y-95658446D01*
X172750715Y-95677613D01*
X172871028Y-95843213D01*
X173015786Y-95987971D01*
X173152673Y-96087423D01*
X173181390Y-96108287D01*
X173261427Y-96149068D01*
X173274080Y-96155515D01*
X173324876Y-96203490D01*
X173341671Y-96271311D01*
X173319134Y-96337446D01*
X173274080Y-96376485D01*
X173181386Y-96423715D01*
X173015786Y-96544028D01*
X172871028Y-96688786D01*
X172750715Y-96854386D01*
X172657781Y-97036776D01*
X172594522Y-97231465D01*
X172562500Y-97433648D01*
X172562500Y-97638351D01*
X172594522Y-97840534D01*
X172657781Y-98035223D01*
X172710415Y-98138521D01*
X172743882Y-98204204D01*
X172750715Y-98217613D01*
X172871028Y-98383213D01*
X173015786Y-98527971D01*
X173170749Y-98640556D01*
X173181390Y-98648287D01*
X173261427Y-98689068D01*
X173274080Y-98695515D01*
X173324876Y-98743490D01*
X173341671Y-98811311D01*
X173319134Y-98877446D01*
X173274080Y-98916485D01*
X173181386Y-98963715D01*
X173015786Y-99084028D01*
X172871028Y-99228786D01*
X172750715Y-99394386D01*
X172657781Y-99576776D01*
X172594522Y-99771465D01*
X172562500Y-99973648D01*
X172562500Y-100178351D01*
X172594522Y-100380534D01*
X172657781Y-100575223D01*
X172750715Y-100757613D01*
X172871028Y-100923213D01*
X173015786Y-101067971D01*
X173121343Y-101144661D01*
X173181390Y-101188287D01*
X173272840Y-101234883D01*
X173274080Y-101235515D01*
X173324876Y-101283490D01*
X173341671Y-101351311D01*
X173319134Y-101417446D01*
X173274080Y-101456485D01*
X173181386Y-101503715D01*
X173015786Y-101624028D01*
X172871028Y-101768786D01*
X172750715Y-101934386D01*
X172657781Y-102116776D01*
X172594522Y-102311465D01*
X172562500Y-102513648D01*
X172562500Y-102718351D01*
X172594522Y-102920534D01*
X172657781Y-103115223D01*
X172709385Y-103216500D01*
X172740948Y-103278446D01*
X172750715Y-103297613D01*
X172871028Y-103463213D01*
X173015786Y-103607971D01*
X173170749Y-103720556D01*
X173181390Y-103728287D01*
X173266528Y-103771667D01*
X173274080Y-103775515D01*
X173324876Y-103823490D01*
X173341671Y-103891311D01*
X173319134Y-103957446D01*
X173274080Y-103996485D01*
X173181386Y-104043715D01*
X173015786Y-104164028D01*
X172871028Y-104308786D01*
X172750715Y-104474386D01*
X172657781Y-104656776D01*
X172594522Y-104851465D01*
X172562500Y-105053648D01*
X172562500Y-105258351D01*
X172594522Y-105460534D01*
X172657781Y-105655223D01*
X172709385Y-105756499D01*
X172740948Y-105818446D01*
X172750715Y-105837613D01*
X172871028Y-106003213D01*
X173015786Y-106147971D01*
X173121343Y-106224661D01*
X173181390Y-106268287D01*
X173272840Y-106314883D01*
X173274080Y-106315515D01*
X173324876Y-106363490D01*
X173341671Y-106431311D01*
X173319134Y-106497446D01*
X173274080Y-106536485D01*
X173181386Y-106583715D01*
X173015786Y-106704028D01*
X172871028Y-106848786D01*
X172750715Y-107014386D01*
X172657781Y-107196776D01*
X172594522Y-107391465D01*
X172562500Y-107593648D01*
X172562500Y-107798351D01*
X172594522Y-108000534D01*
X172657781Y-108195223D01*
X172709385Y-108296500D01*
X172750585Y-108377359D01*
X172750715Y-108377613D01*
X172871028Y-108543213D01*
X173015786Y-108687971D01*
X173123577Y-108766284D01*
X173181390Y-108808287D01*
X173297607Y-108867503D01*
X173363776Y-108901218D01*
X173363778Y-108901218D01*
X173363781Y-108901220D01*
X173468137Y-108935127D01*
X173558465Y-108964477D01*
X173659557Y-108980488D01*
X173760648Y-108996500D01*
X173760649Y-108996500D01*
X173965351Y-108996500D01*
X173965352Y-108996500D01*
X174167534Y-108964477D01*
X174362219Y-108901220D01*
X174544610Y-108808287D01*
X174637590Y-108740732D01*
X174710213Y-108687971D01*
X174710215Y-108687968D01*
X174710219Y-108687966D01*
X174854966Y-108543219D01*
X174854968Y-108543215D01*
X174854971Y-108543213D01*
X174975284Y-108377614D01*
X174975285Y-108377613D01*
X174975287Y-108377610D01*
X174982117Y-108364204D01*
X175030091Y-108313409D01*
X175092602Y-108296500D01*
X179898116Y-108296500D01*
X179965155Y-108316185D01*
X179998434Y-108347615D01*
X180110028Y-108501212D01*
X180110032Y-108501217D01*
X180254786Y-108645971D01*
X180409749Y-108758556D01*
X180420390Y-108766287D01*
X180501980Y-108807859D01*
X180602776Y-108859218D01*
X180602778Y-108859218D01*
X180602781Y-108859220D01*
X180696078Y-108889534D01*
X180797465Y-108922477D01*
X180898557Y-108938488D01*
X180999648Y-108954500D01*
X180999649Y-108954500D01*
X181204351Y-108954500D01*
X181204352Y-108954500D01*
X181406534Y-108922477D01*
X181601219Y-108859220D01*
X181783610Y-108766287D01*
X181891404Y-108687971D01*
X181949213Y-108645971D01*
X181949215Y-108645968D01*
X181949219Y-108645966D01*
X182093966Y-108501219D01*
X182093968Y-108501215D01*
X182093971Y-108501213D01*
X182151579Y-108421921D01*
X182214287Y-108335610D01*
X182307220Y-108153219D01*
X182370477Y-107958534D01*
X182402500Y-107756352D01*
X182402500Y-107551648D01*
X182383452Y-107431385D01*
X182370477Y-107349465D01*
X182320927Y-107196968D01*
X182307220Y-107154781D01*
X182307218Y-107154778D01*
X182307218Y-107154776D01*
X182266985Y-107075815D01*
X182214287Y-106972390D01*
X182206556Y-106961749D01*
X182093971Y-106806786D01*
X181949213Y-106662028D01*
X181783613Y-106541715D01*
X181783612Y-106541714D01*
X181783610Y-106541713D01*
X181697279Y-106497725D01*
X181601223Y-106448781D01*
X181406534Y-106385522D01*
X181231995Y-106357878D01*
X181204352Y-106353500D01*
X180999648Y-106353500D01*
X180975329Y-106357351D01*
X180797465Y-106385522D01*
X180602776Y-106448781D01*
X180420386Y-106541715D01*
X180254786Y-106662028D01*
X180110028Y-106806786D01*
X179989715Y-106972385D01*
X179973441Y-107004325D01*
X179965853Y-107019219D01*
X179961483Y-107027795D01*
X179913509Y-107078591D01*
X179850998Y-107095500D01*
X175092602Y-107095500D01*
X175025563Y-107075815D01*
X174982117Y-107027795D01*
X174975287Y-107014390D01*
X174975285Y-107014387D01*
X174975284Y-107014385D01*
X174854971Y-106848786D01*
X174710213Y-106704028D01*
X174544614Y-106583715D01*
X174521622Y-106572000D01*
X174451917Y-106536483D01*
X174401123Y-106488511D01*
X174384328Y-106420690D01*
X174406865Y-106354555D01*
X174451917Y-106315516D01*
X174544610Y-106268287D01*
X174650923Y-106191047D01*
X174710213Y-106147971D01*
X174710215Y-106147968D01*
X174710219Y-106147966D01*
X174854966Y-106003219D01*
X174854968Y-106003215D01*
X174854971Y-106003213D01*
X174975284Y-105837614D01*
X174975285Y-105837613D01*
X174975287Y-105837610D01*
X174982117Y-105824204D01*
X175030091Y-105773409D01*
X175092602Y-105756500D01*
X179463331Y-105756500D01*
X179463347Y-105756501D01*
X179470943Y-105756501D01*
X179629054Y-105756501D01*
X179629057Y-105756501D01*
X179781785Y-105715577D01*
X179831904Y-105686639D01*
X179918716Y-105636520D01*
X180030520Y-105524716D01*
X180030520Y-105524714D01*
X180040728Y-105514507D01*
X180040730Y-105514504D01*
X180657158Y-104898075D01*
X180718479Y-104864592D01*
X180783151Y-104867825D01*
X180797466Y-104872477D01*
X180999648Y-104904500D01*
X180999649Y-104904500D01*
X181204351Y-104904500D01*
X181204352Y-104904500D01*
X181406534Y-104872477D01*
X181601219Y-104809220D01*
X181783610Y-104716287D01*
X181885324Y-104642388D01*
X181949213Y-104595971D01*
X181949215Y-104595968D01*
X181949219Y-104595966D01*
X182093966Y-104451219D01*
X182093968Y-104451215D01*
X182093971Y-104451213D01*
X182166135Y-104351886D01*
X182214287Y-104285610D01*
X182307220Y-104103219D01*
X182370477Y-103908534D01*
X182402500Y-103706352D01*
X182402500Y-103501648D01*
X182370477Y-103299466D01*
X182369875Y-103297614D01*
X182320820Y-103146639D01*
X182307220Y-103104781D01*
X182307218Y-103104778D01*
X182307218Y-103104776D01*
X182263621Y-103019213D01*
X182214287Y-102922390D01*
X182202434Y-102906076D01*
X182093971Y-102756786D01*
X181949213Y-102612028D01*
X181783613Y-102491715D01*
X181783612Y-102491714D01*
X181783610Y-102491713D01*
X181726653Y-102462691D01*
X181601223Y-102398781D01*
X181406534Y-102335522D01*
X181231995Y-102307878D01*
X181204352Y-102303500D01*
X180999648Y-102303500D01*
X180975329Y-102307351D01*
X180797465Y-102335522D01*
X180602776Y-102398781D01*
X180420386Y-102491715D01*
X180254786Y-102612028D01*
X180110028Y-102756786D01*
X179989715Y-102922386D01*
X179896781Y-103104776D01*
X179833522Y-103299465D01*
X179801500Y-103501648D01*
X179801500Y-103706351D01*
X179833523Y-103908534D01*
X179838172Y-103922843D01*
X179840167Y-103992684D01*
X179807922Y-104048842D01*
X179337584Y-104519181D01*
X179276261Y-104552666D01*
X179249903Y-104555500D01*
X175092602Y-104555500D01*
X175025563Y-104535815D01*
X174982117Y-104487795D01*
X174980196Y-104484025D01*
X174975287Y-104474390D01*
X174975285Y-104474387D01*
X174975284Y-104474385D01*
X174854971Y-104308786D01*
X174710213Y-104164028D01*
X174544614Y-104043715D01*
X174521622Y-104032000D01*
X174451917Y-103996483D01*
X174401123Y-103948511D01*
X174384328Y-103880690D01*
X174406865Y-103814555D01*
X174451917Y-103775516D01*
X174544610Y-103728287D01*
X174604657Y-103684661D01*
X174710213Y-103607971D01*
X174710215Y-103607968D01*
X174710219Y-103607966D01*
X174854966Y-103463219D01*
X174854968Y-103463215D01*
X174854971Y-103463213D01*
X174964890Y-103311920D01*
X174975287Y-103297610D01*
X174982117Y-103284204D01*
X175030091Y-103233409D01*
X175092602Y-103216500D01*
X177953331Y-103216500D01*
X177953347Y-103216501D01*
X177960943Y-103216501D01*
X178119054Y-103216501D01*
X178119057Y-103216501D01*
X178271785Y-103175577D01*
X178321904Y-103146639D01*
X178408716Y-103096520D01*
X178520520Y-102984716D01*
X178520520Y-102984714D01*
X178530728Y-102974507D01*
X178530730Y-102974504D01*
X180657158Y-100848075D01*
X180718479Y-100814592D01*
X180783151Y-100817825D01*
X180797466Y-100822477D01*
X180999648Y-100854500D01*
X180999649Y-100854500D01*
X181204351Y-100854500D01*
X181204352Y-100854500D01*
X181406534Y-100822477D01*
X181601219Y-100759220D01*
X181783610Y-100666287D01*
X181908950Y-100575223D01*
X181949213Y-100545971D01*
X181949215Y-100545968D01*
X181949219Y-100545966D01*
X182093966Y-100401219D01*
X182093968Y-100401215D01*
X182093971Y-100401213D01*
X182163617Y-100305352D01*
X182214287Y-100235610D01*
X182307220Y-100053219D01*
X182370477Y-99858534D01*
X182402500Y-99656352D01*
X182402500Y-99451648D01*
X182378934Y-99302858D01*
X182370477Y-99249465D01*
X182341127Y-99159137D01*
X182307220Y-99054781D01*
X182307218Y-99054778D01*
X182307218Y-99054776D01*
X182257336Y-98956879D01*
X182214287Y-98872390D01*
X182167159Y-98807523D01*
X182093971Y-98706786D01*
X181949213Y-98562028D01*
X181783613Y-98441715D01*
X181783612Y-98441714D01*
X181783610Y-98441713D01*
X181726653Y-98412691D01*
X181601223Y-98348781D01*
X181406534Y-98285522D01*
X181231995Y-98257878D01*
X181204352Y-98253500D01*
X180999648Y-98253500D01*
X180975329Y-98257351D01*
X180797465Y-98285522D01*
X180602776Y-98348781D01*
X180420386Y-98441715D01*
X180254786Y-98562028D01*
X180110028Y-98706786D01*
X179989715Y-98872386D01*
X179896781Y-99054776D01*
X179833522Y-99249465D01*
X179801500Y-99451648D01*
X179801500Y-99656351D01*
X179833522Y-99858534D01*
X179838173Y-99872848D01*
X179840165Y-99942690D01*
X179807921Y-99998842D01*
X177827584Y-101979181D01*
X177766261Y-102012666D01*
X177739903Y-102015500D01*
X175092602Y-102015500D01*
X175025563Y-101995815D01*
X174982117Y-101947795D01*
X174975287Y-101934390D01*
X174975285Y-101934387D01*
X174975284Y-101934385D01*
X174854971Y-101768786D01*
X174710213Y-101624028D01*
X174544614Y-101503715D01*
X174481343Y-101471477D01*
X174451917Y-101456483D01*
X174401123Y-101408511D01*
X174384328Y-101340690D01*
X174406865Y-101274555D01*
X174451917Y-101235516D01*
X174544610Y-101188287D01*
X174604657Y-101144661D01*
X174710213Y-101067971D01*
X174710215Y-101067968D01*
X174710219Y-101067966D01*
X174854966Y-100923219D01*
X174854968Y-100923215D01*
X174854971Y-100923213D01*
X174975284Y-100757614D01*
X174975285Y-100757613D01*
X174975287Y-100757610D01*
X174982117Y-100744204D01*
X175030091Y-100693409D01*
X175092602Y-100676500D01*
X176443331Y-100676500D01*
X176443347Y-100676501D01*
X176450943Y-100676501D01*
X176609054Y-100676501D01*
X176609057Y-100676501D01*
X176761785Y-100635577D01*
X176811904Y-100606639D01*
X176898716Y-100556520D01*
X177010520Y-100444716D01*
X177010520Y-100444714D01*
X177020728Y-100434507D01*
X177020730Y-100434504D01*
X180657158Y-96798075D01*
X180718479Y-96764592D01*
X180783151Y-96767825D01*
X180797466Y-96772477D01*
X180999648Y-96804500D01*
X180999649Y-96804500D01*
X181204351Y-96804500D01*
X181204352Y-96804500D01*
X181406534Y-96772477D01*
X181601219Y-96709220D01*
X181783610Y-96616287D01*
X181883067Y-96544028D01*
X181949213Y-96495971D01*
X181949215Y-96495968D01*
X181949219Y-96495966D01*
X182093966Y-96351219D01*
X182093968Y-96351215D01*
X182093971Y-96351213D01*
X182156987Y-96264477D01*
X182214287Y-96185610D01*
X182307220Y-96003219D01*
X182370477Y-95808534D01*
X182402500Y-95606352D01*
X182402500Y-95401648D01*
X182386485Y-95300534D01*
X182370477Y-95199465D01*
X182307218Y-95004776D01*
X182272457Y-94936554D01*
X182214287Y-94822390D01*
X182159739Y-94747310D01*
X182093971Y-94656786D01*
X181949213Y-94512028D01*
X181783613Y-94391715D01*
X181783612Y-94391714D01*
X181783610Y-94391713D01*
X181715482Y-94357000D01*
X181601223Y-94298781D01*
X181406534Y-94235522D01*
X181231995Y-94207878D01*
X181204352Y-94203500D01*
X180999648Y-94203500D01*
X180975329Y-94207351D01*
X180797465Y-94235522D01*
X180602776Y-94298781D01*
X180420386Y-94391715D01*
X180254786Y-94512028D01*
X180110028Y-94656786D01*
X179989715Y-94822386D01*
X179896781Y-95004776D01*
X179833522Y-95199465D01*
X179812787Y-95330386D01*
X179801500Y-95401648D01*
X179801500Y-95606352D01*
X179801886Y-95608789D01*
X179833522Y-95808534D01*
X179838173Y-95822848D01*
X179840165Y-95892690D01*
X179807921Y-95948842D01*
X176317584Y-99439181D01*
X176256261Y-99472666D01*
X176229903Y-99475500D01*
X175092602Y-99475500D01*
X175025563Y-99455815D01*
X174982117Y-99407795D01*
X174975287Y-99394390D01*
X174975285Y-99394387D01*
X174975284Y-99394385D01*
X174854971Y-99228786D01*
X174710213Y-99084028D01*
X174544614Y-98963715D01*
X174538006Y-98960348D01*
X174451917Y-98916483D01*
X174401123Y-98868511D01*
X174384328Y-98800690D01*
X174406865Y-98734555D01*
X174451917Y-98695516D01*
X174544610Y-98648287D01*
X174613690Y-98598098D01*
X174710213Y-98527971D01*
X174710215Y-98527968D01*
X174710219Y-98527966D01*
X174854966Y-98383219D01*
X174854968Y-98383215D01*
X174854971Y-98383213D01*
X174975285Y-98217613D01*
X174982118Y-98204204D01*
X175030094Y-98153409D01*
X175092602Y-98136501D01*
X175099054Y-98136501D01*
X175099057Y-98136501D01*
X175251785Y-98095577D01*
X175314173Y-98059557D01*
X175388716Y-98016520D01*
X175500520Y-97904716D01*
X175500520Y-97904714D01*
X175510724Y-97894511D01*
X175510728Y-97894506D01*
X180657158Y-92748075D01*
X180718479Y-92714592D01*
X180783151Y-92717825D01*
X180797466Y-92722477D01*
X180999648Y-92754500D01*
X180999649Y-92754500D01*
X181204351Y-92754500D01*
X181204352Y-92754500D01*
X181406534Y-92722477D01*
X181601219Y-92659220D01*
X181783610Y-92566287D01*
X181902328Y-92480034D01*
X181949213Y-92445971D01*
X181949215Y-92445968D01*
X181949219Y-92445966D01*
X182093966Y-92301219D01*
X182093968Y-92301215D01*
X182093971Y-92301213D01*
X182151522Y-92221999D01*
X182214287Y-92135610D01*
X182307220Y-91953219D01*
X182370477Y-91758534D01*
X182402500Y-91556352D01*
X182402500Y-91351648D01*
X182386524Y-91250780D01*
X182370477Y-91149465D01*
X182332910Y-91033846D01*
X182307220Y-90954781D01*
X182307218Y-90954778D01*
X182307218Y-90954776D01*
X182273503Y-90888607D01*
X182214287Y-90772390D01*
X182206556Y-90761749D01*
X182093971Y-90606786D01*
X181949213Y-90462028D01*
X181783613Y-90341715D01*
X181783612Y-90341714D01*
X181783610Y-90341713D01*
X181687462Y-90292723D01*
X181601223Y-90248781D01*
X181406534Y-90185522D01*
X181231995Y-90157878D01*
X181204352Y-90153500D01*
X180999648Y-90153500D01*
X180975329Y-90157351D01*
X180797465Y-90185522D01*
X180602776Y-90248781D01*
X180420386Y-90341715D01*
X180254786Y-90462028D01*
X180110028Y-90606786D01*
X179989715Y-90772386D01*
X179896781Y-90954776D01*
X179833522Y-91149465D01*
X179803242Y-91340649D01*
X179801500Y-91351648D01*
X179801500Y-91556352D01*
X179805878Y-91583995D01*
X179833522Y-91758534D01*
X179838173Y-91772848D01*
X179840165Y-91842690D01*
X179807921Y-91898842D01*
X175024155Y-96682608D01*
X174962832Y-96716093D01*
X174893140Y-96711109D01*
X174848793Y-96682608D01*
X174710213Y-96544028D01*
X174544614Y-96423715D01*
X174538006Y-96420348D01*
X174451917Y-96376483D01*
X174401123Y-96328511D01*
X174384328Y-96260690D01*
X174406865Y-96194555D01*
X174451917Y-96155516D01*
X174544610Y-96108287D01*
X174606149Y-96063577D01*
X174710213Y-95987971D01*
X174710215Y-95987968D01*
X174710219Y-95987966D01*
X174854966Y-95843219D01*
X174854968Y-95843215D01*
X174854971Y-95843213D01*
X174953511Y-95707582D01*
X174975287Y-95677610D01*
X175068220Y-95495219D01*
X175131477Y-95300534D01*
X175163500Y-95098352D01*
X175163500Y-94893648D01*
X175137422Y-94729000D01*
X175131478Y-94691472D01*
X175131477Y-94691471D01*
X175131477Y-94691466D01*
X175126825Y-94677151D01*
X175124832Y-94607312D01*
X175157075Y-94551158D01*
X181017402Y-88690831D01*
X181078723Y-88657348D01*
X181124479Y-88656041D01*
X181181363Y-88665050D01*
X181253648Y-88676500D01*
X181253649Y-88676500D01*
X181458351Y-88676500D01*
X181458352Y-88676500D01*
X181660534Y-88644477D01*
X181855219Y-88581220D01*
X182037610Y-88488287D01*
X182142151Y-88412334D01*
X182203213Y-88367971D01*
X182203215Y-88367968D01*
X182203219Y-88367966D01*
X182347966Y-88223219D01*
X182347968Y-88223215D01*
X182347971Y-88223213D01*
X182400732Y-88150590D01*
X182468287Y-88057610D01*
X182561220Y-87875219D01*
X182624477Y-87680534D01*
X182656500Y-87478352D01*
X182656500Y-87273648D01*
X182624477Y-87071466D01*
X182561220Y-86876781D01*
X182561218Y-86876778D01*
X182561218Y-86876776D01*
X182527503Y-86810607D01*
X182468287Y-86694390D01*
X182460556Y-86683749D01*
X182347971Y-86528786D01*
X182203213Y-86384028D01*
X182037613Y-86263715D01*
X182037612Y-86263714D01*
X182037610Y-86263713D01*
X181980653Y-86234691D01*
X181855223Y-86170781D01*
X181660534Y-86107522D01*
X181485995Y-86079878D01*
X181458352Y-86075500D01*
X181392096Y-86075500D01*
X181325057Y-86055815D01*
X181279302Y-86003011D01*
X181269358Y-85933853D01*
X181298383Y-85870297D01*
X181304415Y-85863819D01*
X181499245Y-85668989D01*
X181714506Y-85453728D01*
X181714511Y-85453724D01*
X181724714Y-85443520D01*
X181724716Y-85443520D01*
X181836520Y-85331716D01*
X181895659Y-85229284D01*
X181915577Y-85194785D01*
X181956500Y-85042058D01*
X181956500Y-84883943D01*
X181956500Y-84555601D01*
X181976185Y-84488562D01*
X182024206Y-84445116D01*
X182037610Y-84438287D01*
X182203219Y-84317966D01*
X182347966Y-84173219D01*
X182347968Y-84173215D01*
X182347971Y-84173213D01*
X182411507Y-84085761D01*
X182468287Y-84007610D01*
X182561220Y-83825219D01*
X182624477Y-83630534D01*
X182656500Y-83428352D01*
X182656500Y-83365123D01*
X182676185Y-83298084D01*
X182728989Y-83252329D01*
X182798147Y-83242385D01*
X182861703Y-83271410D01*
X182868169Y-83277431D01*
X183195974Y-83605235D01*
X183640181Y-84049442D01*
X183673666Y-84110765D01*
X183676500Y-84137123D01*
X183676500Y-110062903D01*
X183656815Y-110129942D01*
X183640181Y-110150584D01*
X182544359Y-111246405D01*
X182483036Y-111279890D01*
X182413344Y-111274906D01*
X182357411Y-111233034D01*
X182346193Y-111215018D01*
X182341286Y-111205388D01*
X182220971Y-111039786D01*
X182076213Y-110895028D01*
X181910613Y-110774715D01*
X181910612Y-110774714D01*
X181910610Y-110774713D01*
X181853653Y-110745691D01*
X181728223Y-110681781D01*
X181533534Y-110618522D01*
X181358995Y-110590878D01*
X181331352Y-110586500D01*
X181126648Y-110586500D01*
X181102329Y-110590351D01*
X180924465Y-110618522D01*
X180729776Y-110681781D01*
X180547386Y-110774715D01*
X180381786Y-110895028D01*
X180237028Y-111039786D01*
X180116715Y-111205386D01*
X180023781Y-111387776D01*
X179960522Y-111582465D01*
X179928500Y-111784648D01*
X179928500Y-111989351D01*
X179960522Y-112191534D01*
X180023781Y-112386223D01*
X180116715Y-112568613D01*
X180237028Y-112734213D01*
X180381786Y-112878971D01*
X180536749Y-112991556D01*
X180547390Y-112999287D01*
X180663607Y-113058503D01*
X180729776Y-113092218D01*
X180729778Y-113092218D01*
X180729781Y-113092220D01*
X180834137Y-113126127D01*
X180924465Y-113155477D01*
X181025557Y-113171488D01*
X181126648Y-113187500D01*
X181126649Y-113187500D01*
X181331351Y-113187500D01*
X181331352Y-113187500D01*
X181533534Y-113155477D01*
X181728219Y-113092220D01*
X181910610Y-112999287D01*
X182003590Y-112931732D01*
X182076213Y-112878971D01*
X182076215Y-112878968D01*
X182076219Y-112878966D01*
X182220966Y-112734219D01*
X182220968Y-112734215D01*
X182220971Y-112734213D01*
X182341284Y-112568614D01*
X182341285Y-112568613D01*
X182341287Y-112568610D01*
X182348117Y-112555204D01*
X182358566Y-112544140D01*
X182364889Y-112530297D01*
X182382068Y-112519256D01*
X182396091Y-112504409D01*
X182411772Y-112500167D01*
X182423667Y-112492523D01*
X182458602Y-112487500D01*
X182666331Y-112487500D01*
X182666347Y-112487501D01*
X182673943Y-112487501D01*
X182832054Y-112487501D01*
X182832057Y-112487501D01*
X182984785Y-112446577D01*
X182984787Y-112446575D01*
X182984789Y-112446575D01*
X182984790Y-112446574D01*
X183035640Y-112417216D01*
X183035641Y-112417215D01*
X183121716Y-112367520D01*
X183233520Y-112255716D01*
X183233520Y-112255714D01*
X183243724Y-112245511D01*
X183243728Y-112245506D01*
X184635506Y-110853728D01*
X184635511Y-110853724D01*
X184645714Y-110843520D01*
X184645716Y-110843520D01*
X184757520Y-110731716D01*
X184836577Y-110594784D01*
X184877500Y-110442057D01*
X184877500Y-99451648D01*
X189961500Y-99451648D01*
X189961500Y-99656351D01*
X189993522Y-99858534D01*
X190056781Y-100053223D01*
X190080630Y-100100028D01*
X190148863Y-100233942D01*
X190149715Y-100235613D01*
X190270028Y-100401213D01*
X190414786Y-100545971D01*
X190569749Y-100658556D01*
X190580390Y-100666287D01*
X190684353Y-100719259D01*
X190762776Y-100759218D01*
X190762778Y-100759218D01*
X190762781Y-100759220D01*
X190849695Y-100787460D01*
X190957465Y-100822477D01*
X191058557Y-100838488D01*
X191159648Y-100854500D01*
X191159649Y-100854500D01*
X191364351Y-100854500D01*
X191364352Y-100854500D01*
X191566534Y-100822477D01*
X191761219Y-100759220D01*
X191943610Y-100666287D01*
X192068950Y-100575223D01*
X192109213Y-100545971D01*
X192109215Y-100545968D01*
X192109219Y-100545966D01*
X192253966Y-100401219D01*
X192253968Y-100401215D01*
X192253971Y-100401213D01*
X192374284Y-100235614D01*
X192374285Y-100235613D01*
X192374287Y-100235610D01*
X192381117Y-100222204D01*
X192429091Y-100171409D01*
X192491602Y-100154500D01*
X199452403Y-100154500D01*
X199519442Y-100174185D01*
X199540084Y-100190819D01*
X202870584Y-103521319D01*
X202904069Y-103582642D01*
X202899085Y-103652334D01*
X202857213Y-103708267D01*
X202791749Y-103732684D01*
X202782903Y-103733000D01*
X202589648Y-103733000D01*
X202565329Y-103736851D01*
X202387465Y-103765022D01*
X202192776Y-103828281D01*
X202010386Y-103921215D01*
X201844786Y-104041528D01*
X201700028Y-104186286D01*
X201579715Y-104351886D01*
X201532485Y-104444580D01*
X201484510Y-104495376D01*
X201416689Y-104512171D01*
X201350554Y-104489634D01*
X201311515Y-104444580D01*
X201267360Y-104357922D01*
X201264287Y-104351890D01*
X201247293Y-104328500D01*
X201143971Y-104186286D01*
X200999213Y-104041528D01*
X200833613Y-103921215D01*
X200833612Y-103921214D01*
X200833610Y-103921213D01*
X200761512Y-103884477D01*
X200651223Y-103828281D01*
X200456534Y-103765022D01*
X200281995Y-103737378D01*
X200254352Y-103733000D01*
X200049648Y-103733000D01*
X200011599Y-103739026D01*
X199847468Y-103765022D01*
X199838717Y-103767865D01*
X199833154Y-103769673D01*
X199763313Y-103771667D01*
X199707157Y-103739422D01*
X199210090Y-103242355D01*
X199210088Y-103242352D01*
X199091217Y-103123481D01*
X199091209Y-103123475D01*
X198977741Y-103057965D01*
X198977740Y-103057964D01*
X198961253Y-103048446D01*
X198954285Y-103044423D01*
X198801557Y-103003499D01*
X198643443Y-103003499D01*
X198635847Y-103003499D01*
X198635831Y-103003500D01*
X192491602Y-103003500D01*
X192424563Y-102983815D01*
X192381117Y-102935795D01*
X192374287Y-102922390D01*
X192374285Y-102922387D01*
X192374284Y-102922385D01*
X192253971Y-102756786D01*
X192109213Y-102612028D01*
X191943613Y-102491715D01*
X191943612Y-102491714D01*
X191943610Y-102491713D01*
X191886653Y-102462691D01*
X191761223Y-102398781D01*
X191566534Y-102335522D01*
X191391995Y-102307878D01*
X191364352Y-102303500D01*
X191159648Y-102303500D01*
X191135329Y-102307351D01*
X190957465Y-102335522D01*
X190762776Y-102398781D01*
X190580386Y-102491715D01*
X190414786Y-102612028D01*
X190270028Y-102756786D01*
X190149715Y-102922386D01*
X190056781Y-103104776D01*
X189993522Y-103299465D01*
X189961500Y-103501648D01*
X189961500Y-103706351D01*
X189993522Y-103908534D01*
X190056781Y-104103223D01*
X190108385Y-104204500D01*
X190145320Y-104276989D01*
X190149715Y-104285613D01*
X190270028Y-104451213D01*
X190414786Y-104595971D01*
X190569749Y-104708556D01*
X190580390Y-104716287D01*
X190696607Y-104775503D01*
X190762776Y-104809218D01*
X190762778Y-104809218D01*
X190762781Y-104809220D01*
X190867137Y-104843127D01*
X190957465Y-104872477D01*
X191058557Y-104888488D01*
X191159648Y-104904500D01*
X191159649Y-104904500D01*
X191364351Y-104904500D01*
X191364352Y-104904500D01*
X191566534Y-104872477D01*
X191761219Y-104809220D01*
X191943610Y-104716287D01*
X192045324Y-104642388D01*
X192109213Y-104595971D01*
X192109215Y-104595968D01*
X192109219Y-104595966D01*
X192253966Y-104451219D01*
X192253968Y-104451215D01*
X192253971Y-104451213D01*
X192374284Y-104285614D01*
X192374285Y-104285613D01*
X192374287Y-104285610D01*
X192381117Y-104272204D01*
X192429091Y-104221409D01*
X192491602Y-104204500D01*
X196187500Y-104204500D01*
X196254539Y-104224185D01*
X196300294Y-104276989D01*
X196311500Y-104328500D01*
X196311500Y-105433401D01*
X196291815Y-105500440D01*
X196275181Y-105521082D01*
X194779084Y-107017181D01*
X194717761Y-107050666D01*
X194691403Y-107053500D01*
X192491602Y-107053500D01*
X192424563Y-107033815D01*
X192381117Y-106985795D01*
X192374284Y-106972385D01*
X192253971Y-106806786D01*
X192109213Y-106662028D01*
X191943613Y-106541715D01*
X191943612Y-106541714D01*
X191943610Y-106541713D01*
X191857279Y-106497725D01*
X191761223Y-106448781D01*
X191566534Y-106385522D01*
X191391995Y-106357878D01*
X191364352Y-106353500D01*
X191159648Y-106353500D01*
X191135329Y-106357351D01*
X190957465Y-106385522D01*
X190762776Y-106448781D01*
X190580386Y-106541715D01*
X190414786Y-106662028D01*
X190270028Y-106806786D01*
X190149715Y-106972386D01*
X190056781Y-107154776D01*
X189993522Y-107349465D01*
X189961500Y-107551648D01*
X189961500Y-107756351D01*
X189993522Y-107958534D01*
X190056781Y-108153223D01*
X190108385Y-108254500D01*
X190139815Y-108316185D01*
X190149715Y-108335613D01*
X190270028Y-108501213D01*
X190414786Y-108645971D01*
X190569749Y-108758556D01*
X190580390Y-108766287D01*
X190661980Y-108807859D01*
X190762776Y-108859218D01*
X190762778Y-108859218D01*
X190762781Y-108859220D01*
X190856078Y-108889534D01*
X190957465Y-108922477D01*
X191058557Y-108938488D01*
X191159648Y-108954500D01*
X191159649Y-108954500D01*
X191364351Y-108954500D01*
X191364352Y-108954500D01*
X191566534Y-108922477D01*
X191761219Y-108859220D01*
X191943610Y-108766287D01*
X192051404Y-108687971D01*
X192109213Y-108645971D01*
X192109215Y-108645968D01*
X192109219Y-108645966D01*
X192253966Y-108501219D01*
X192253968Y-108501215D01*
X192253971Y-108501213D01*
X192374284Y-108335614D01*
X192374285Y-108335613D01*
X192374287Y-108335610D01*
X192381117Y-108322204D01*
X192429091Y-108271409D01*
X192491602Y-108254500D01*
X194904831Y-108254500D01*
X194904847Y-108254501D01*
X194912443Y-108254501D01*
X195070554Y-108254501D01*
X195070557Y-108254501D01*
X195223285Y-108213577D01*
X195318762Y-108158453D01*
X195360216Y-108134520D01*
X195472020Y-108022716D01*
X195472020Y-108022714D01*
X195482224Y-108012511D01*
X195482228Y-108012506D01*
X197124416Y-106370318D01*
X197185739Y-106336833D01*
X197212097Y-106333999D01*
X198459871Y-106333999D01*
X198459872Y-106333999D01*
X198519483Y-106327591D01*
X198654331Y-106277296D01*
X198769546Y-106191046D01*
X198855796Y-106075831D01*
X198906091Y-105940983D01*
X198910061Y-105904056D01*
X198936796Y-105839511D01*
X198994188Y-105799661D01*
X199064013Y-105797166D01*
X199124102Y-105832817D01*
X199133667Y-105844429D01*
X199160032Y-105880717D01*
X199304786Y-106025471D01*
X199433987Y-106119339D01*
X199470390Y-106145787D01*
X199559212Y-106191044D01*
X199652776Y-106238718D01*
X199652778Y-106238718D01*
X199652781Y-106238720D01*
X199743770Y-106268284D01*
X199847465Y-106301977D01*
X199932940Y-106315515D01*
X200049648Y-106334000D01*
X200049649Y-106334000D01*
X200254351Y-106334000D01*
X200254352Y-106334000D01*
X200456534Y-106301977D01*
X200651219Y-106238720D01*
X200833610Y-106145787D01*
X200929901Y-106075828D01*
X200999213Y-106025471D01*
X200999215Y-106025468D01*
X200999219Y-106025466D01*
X201143966Y-105880719D01*
X201143968Y-105880715D01*
X201143971Y-105880713D01*
X201264284Y-105715114D01*
X201264285Y-105715113D01*
X201264287Y-105715110D01*
X201311516Y-105622417D01*
X201359489Y-105571623D01*
X201427310Y-105554828D01*
X201493445Y-105577365D01*
X201532483Y-105622417D01*
X201539670Y-105636521D01*
X201579715Y-105715114D01*
X201700028Y-105880713D01*
X201844786Y-106025471D01*
X201973987Y-106119339D01*
X202010390Y-106145787D01*
X202099212Y-106191044D01*
X202192776Y-106238718D01*
X202192778Y-106238718D01*
X202192781Y-106238720D01*
X202283770Y-106268284D01*
X202387465Y-106301977D01*
X202472940Y-106315515D01*
X202589648Y-106334000D01*
X202589649Y-106334000D01*
X202794351Y-106334000D01*
X202794352Y-106334000D01*
X202996534Y-106301977D01*
X203191219Y-106238720D01*
X203373610Y-106145787D01*
X203469901Y-106075828D01*
X203539213Y-106025471D01*
X203539215Y-106025468D01*
X203539219Y-106025466D01*
X203683966Y-105880719D01*
X203683968Y-105880715D01*
X203683971Y-105880713D01*
X203804284Y-105715114D01*
X203804285Y-105715113D01*
X203804287Y-105715110D01*
X203851516Y-105622417D01*
X203899489Y-105571623D01*
X203967310Y-105554828D01*
X204033445Y-105577365D01*
X204072483Y-105622417D01*
X204079670Y-105636521D01*
X204119715Y-105715114D01*
X204240028Y-105880713D01*
X204384786Y-106025471D01*
X204513987Y-106119339D01*
X204550390Y-106145787D01*
X204639212Y-106191044D01*
X204732776Y-106238718D01*
X204732778Y-106238718D01*
X204732781Y-106238720D01*
X204823770Y-106268284D01*
X204927465Y-106301977D01*
X205012940Y-106315515D01*
X205129648Y-106334000D01*
X205129649Y-106334000D01*
X205322901Y-106334000D01*
X205389940Y-106353685D01*
X205435695Y-106406489D01*
X205445639Y-106475647D01*
X205416614Y-106539203D01*
X205410582Y-106545681D01*
X200706084Y-111250181D01*
X200644761Y-111283666D01*
X200618403Y-111286500D01*
X192618602Y-111286500D01*
X192551563Y-111266815D01*
X192508117Y-111218795D01*
X192501287Y-111205390D01*
X192501285Y-111205387D01*
X192501284Y-111205385D01*
X192380971Y-111039786D01*
X192236213Y-110895028D01*
X192070613Y-110774715D01*
X192070612Y-110774714D01*
X192070610Y-110774713D01*
X192013653Y-110745691D01*
X191888223Y-110681781D01*
X191693534Y-110618522D01*
X191518995Y-110590878D01*
X191491352Y-110586500D01*
X191286648Y-110586500D01*
X191262329Y-110590351D01*
X191084465Y-110618522D01*
X190889776Y-110681781D01*
X190707386Y-110774715D01*
X190541786Y-110895028D01*
X190397028Y-111039786D01*
X190276715Y-111205386D01*
X190183781Y-111387776D01*
X190120522Y-111582465D01*
X190088500Y-111784648D01*
X190088500Y-111989351D01*
X190120522Y-112191534D01*
X190183781Y-112386223D01*
X190276715Y-112568613D01*
X190397028Y-112734213D01*
X190541786Y-112878971D01*
X190696749Y-112991556D01*
X190707390Y-112999287D01*
X190823607Y-113058503D01*
X190889776Y-113092218D01*
X190889778Y-113092218D01*
X190889781Y-113092220D01*
X190994137Y-113126127D01*
X191084465Y-113155477D01*
X191185557Y-113171488D01*
X191286648Y-113187500D01*
X191286649Y-113187500D01*
X191491351Y-113187500D01*
X191491352Y-113187500D01*
X191693534Y-113155477D01*
X191888219Y-113092220D01*
X192070610Y-112999287D01*
X192163590Y-112931732D01*
X192236213Y-112878971D01*
X192236215Y-112878968D01*
X192236219Y-112878966D01*
X192380966Y-112734219D01*
X192380968Y-112734215D01*
X192380971Y-112734213D01*
X192501284Y-112568614D01*
X192501285Y-112568613D01*
X192501287Y-112568610D01*
X192508117Y-112555204D01*
X192556091Y-112504409D01*
X192618602Y-112487500D01*
X200831831Y-112487500D01*
X200831847Y-112487501D01*
X200839443Y-112487501D01*
X200997554Y-112487501D01*
X200997557Y-112487501D01*
X201150285Y-112446577D01*
X201150287Y-112446575D01*
X201150289Y-112446575D01*
X201150290Y-112446574D01*
X201201140Y-112417216D01*
X201201141Y-112417215D01*
X201287216Y-112367520D01*
X201399020Y-112255716D01*
X201399020Y-112255714D01*
X201409224Y-112245511D01*
X201409227Y-112245506D01*
X207327159Y-106327575D01*
X207388480Y-106294092D01*
X207453154Y-106297326D01*
X207467466Y-106301977D01*
X207669648Y-106334000D01*
X207669649Y-106334000D01*
X207874351Y-106334000D01*
X207874352Y-106334000D01*
X208076534Y-106301977D01*
X208271219Y-106238720D01*
X208453610Y-106145787D01*
X208549901Y-106075828D01*
X208619213Y-106025471D01*
X208619215Y-106025468D01*
X208619219Y-106025466D01*
X208763966Y-105880719D01*
X208763968Y-105880715D01*
X208763971Y-105880713D01*
X208824670Y-105797166D01*
X208884287Y-105715110D01*
X208977220Y-105532719D01*
X209040477Y-105338034D01*
X209072500Y-105135852D01*
X209072500Y-104931148D01*
X209040477Y-104728966D01*
X209036357Y-104716287D01*
X208983801Y-104554536D01*
X208977220Y-104534281D01*
X208977218Y-104534278D01*
X208977218Y-104534276D01*
X208887360Y-104357922D01*
X208884287Y-104351890D01*
X208867293Y-104328500D01*
X208763971Y-104186286D01*
X208619213Y-104041528D01*
X208453613Y-103921215D01*
X208453612Y-103921214D01*
X208453610Y-103921213D01*
X208381512Y-103884477D01*
X208271223Y-103828281D01*
X208076534Y-103765022D01*
X207901995Y-103737378D01*
X207874352Y-103733000D01*
X207669648Y-103733000D01*
X207645329Y-103736851D01*
X207467465Y-103765022D01*
X207272776Y-103828281D01*
X207090386Y-103921215D01*
X206924786Y-104041528D01*
X206780028Y-104186286D01*
X206659715Y-104351886D01*
X206612485Y-104444580D01*
X206564510Y-104495376D01*
X206496689Y-104512171D01*
X206430554Y-104489634D01*
X206391515Y-104444580D01*
X206347360Y-104357922D01*
X206344287Y-104351890D01*
X206327293Y-104328500D01*
X206223971Y-104186286D01*
X206079213Y-104041528D01*
X205913613Y-103921215D01*
X205913612Y-103921214D01*
X205913610Y-103921213D01*
X205841512Y-103884477D01*
X205731223Y-103828281D01*
X205536534Y-103765022D01*
X205361995Y-103737378D01*
X205334352Y-103733000D01*
X205129648Y-103733000D01*
X205091599Y-103739026D01*
X204927468Y-103765022D01*
X204918717Y-103767865D01*
X204913154Y-103769673D01*
X204843313Y-103771667D01*
X204787157Y-103739422D01*
X200240090Y-99192355D01*
X200240088Y-99192352D01*
X200121217Y-99073481D01*
X200121216Y-99073480D01*
X199990099Y-98997780D01*
X199984285Y-98994423D01*
X199831557Y-98953499D01*
X199673443Y-98953499D01*
X199665847Y-98953499D01*
X199665831Y-98953500D01*
X192491602Y-98953500D01*
X192424563Y-98933815D01*
X192381117Y-98885795D01*
X192379421Y-98882466D01*
X192374287Y-98872390D01*
X192374285Y-98872387D01*
X192374284Y-98872385D01*
X192253971Y-98706786D01*
X192109213Y-98562028D01*
X191943613Y-98441715D01*
X191943612Y-98441714D01*
X191943610Y-98441713D01*
X191886653Y-98412691D01*
X191761223Y-98348781D01*
X191566534Y-98285522D01*
X191391995Y-98257878D01*
X191364352Y-98253500D01*
X191159648Y-98253500D01*
X191135329Y-98257351D01*
X190957465Y-98285522D01*
X190762776Y-98348781D01*
X190580386Y-98441715D01*
X190414786Y-98562028D01*
X190270028Y-98706786D01*
X190149715Y-98872386D01*
X190056781Y-99054776D01*
X189993522Y-99249465D01*
X189961500Y-99451648D01*
X184877500Y-99451648D01*
X184877500Y-91351648D01*
X189961500Y-91351648D01*
X189961500Y-91556352D01*
X189965878Y-91583995D01*
X189993522Y-91758534D01*
X190056781Y-91953223D01*
X190108385Y-92054500D01*
X190147137Y-92130555D01*
X190149715Y-92135613D01*
X190270028Y-92301213D01*
X190414786Y-92445971D01*
X190565884Y-92555748D01*
X190580390Y-92566287D01*
X190688186Y-92621212D01*
X190762776Y-92659218D01*
X190762778Y-92659218D01*
X190762781Y-92659220D01*
X190867137Y-92693127D01*
X190957465Y-92722477D01*
X191058557Y-92738488D01*
X191159648Y-92754500D01*
X191159649Y-92754500D01*
X191364351Y-92754500D01*
X191364352Y-92754500D01*
X191566534Y-92722477D01*
X191761219Y-92659220D01*
X191943610Y-92566287D01*
X192062328Y-92480034D01*
X192109213Y-92445971D01*
X192109215Y-92445968D01*
X192109219Y-92445966D01*
X192253966Y-92301219D01*
X192253968Y-92301215D01*
X192253971Y-92301213D01*
X192374284Y-92135614D01*
X192374285Y-92135613D01*
X192374287Y-92135610D01*
X192381117Y-92122204D01*
X192429091Y-92071409D01*
X192491602Y-92054500D01*
X203484831Y-92054500D01*
X203484847Y-92054501D01*
X203492443Y-92054501D01*
X203650554Y-92054501D01*
X203650557Y-92054501D01*
X203803285Y-92013577D01*
X203859995Y-91980835D01*
X203940216Y-91934520D01*
X204052020Y-91822716D01*
X204052020Y-91822714D01*
X204062224Y-91812511D01*
X204062227Y-91812506D01*
X204787159Y-91087575D01*
X204848480Y-91054092D01*
X204913154Y-91057326D01*
X204927466Y-91061977D01*
X205129648Y-91094000D01*
X205129649Y-91094000D01*
X205322901Y-91094000D01*
X205389940Y-91113685D01*
X205435695Y-91166489D01*
X205445639Y-91235647D01*
X205416614Y-91299203D01*
X205410582Y-91305681D01*
X201849084Y-94867181D01*
X201787761Y-94900666D01*
X201761403Y-94903500D01*
X192491602Y-94903500D01*
X192424563Y-94883815D01*
X192381117Y-94835795D01*
X192374284Y-94822385D01*
X192253971Y-94656786D01*
X192109213Y-94512028D01*
X191943613Y-94391715D01*
X191943612Y-94391714D01*
X191943610Y-94391713D01*
X191875482Y-94357000D01*
X191761223Y-94298781D01*
X191566534Y-94235522D01*
X191391995Y-94207878D01*
X191364352Y-94203500D01*
X191159648Y-94203500D01*
X191135329Y-94207351D01*
X190957465Y-94235522D01*
X190762776Y-94298781D01*
X190580386Y-94391715D01*
X190414786Y-94512028D01*
X190270028Y-94656786D01*
X190149715Y-94822386D01*
X190056781Y-95004776D01*
X189993522Y-95199465D01*
X189972787Y-95330386D01*
X189961500Y-95401648D01*
X189961500Y-95606352D01*
X189961886Y-95608789D01*
X189993522Y-95808534D01*
X190056781Y-96003223D01*
X190110313Y-96108284D01*
X190139966Y-96166481D01*
X190149715Y-96185613D01*
X190270028Y-96351213D01*
X190414786Y-96495971D01*
X190569749Y-96608556D01*
X190580390Y-96616287D01*
X190696607Y-96675503D01*
X190762776Y-96709218D01*
X190762778Y-96709218D01*
X190762781Y-96709220D01*
X190851114Y-96737921D01*
X190957465Y-96772477D01*
X191025167Y-96783200D01*
X191159648Y-96804500D01*
X191159649Y-96804500D01*
X191364351Y-96804500D01*
X191364352Y-96804500D01*
X191566534Y-96772477D01*
X191761219Y-96709220D01*
X191943610Y-96616287D01*
X192043067Y-96544028D01*
X192109213Y-96495971D01*
X192109215Y-96495968D01*
X192109219Y-96495966D01*
X192253966Y-96351219D01*
X192253968Y-96351215D01*
X192253971Y-96351213D01*
X192374284Y-96185614D01*
X192374285Y-96185613D01*
X192374287Y-96185610D01*
X192381117Y-96172204D01*
X192429091Y-96121409D01*
X192491602Y-96104500D01*
X201974831Y-96104500D01*
X201974847Y-96104501D01*
X201982443Y-96104501D01*
X202140554Y-96104501D01*
X202140557Y-96104501D01*
X202293285Y-96063577D01*
X202357471Y-96026519D01*
X202430216Y-95984520D01*
X202542020Y-95872716D01*
X202542020Y-95872714D01*
X202552224Y-95862511D01*
X202552227Y-95862506D01*
X207327159Y-91087575D01*
X207388480Y-91054092D01*
X207453154Y-91057326D01*
X207467466Y-91061977D01*
X207669648Y-91094000D01*
X207669649Y-91094000D01*
X207874351Y-91094000D01*
X207874352Y-91094000D01*
X208076534Y-91061977D01*
X208271219Y-90998720D01*
X208453610Y-90905787D01*
X208565164Y-90824739D01*
X208619213Y-90785471D01*
X208619215Y-90785468D01*
X208619219Y-90785466D01*
X208763966Y-90640719D01*
X208763968Y-90640715D01*
X208763971Y-90640713D01*
X208820225Y-90563284D01*
X208884287Y-90475110D01*
X208977220Y-90292719D01*
X209040477Y-90098034D01*
X209072500Y-89895852D01*
X209072500Y-89691148D01*
X209040477Y-89488966D01*
X208977220Y-89294281D01*
X208977218Y-89294278D01*
X208977218Y-89294276D01*
X208931515Y-89204580D01*
X208884287Y-89111890D01*
X208876556Y-89101249D01*
X208763971Y-88946286D01*
X208619213Y-88801528D01*
X208453613Y-88681215D01*
X208453612Y-88681214D01*
X208453610Y-88681213D01*
X208345249Y-88626000D01*
X208271223Y-88588281D01*
X208076534Y-88525022D01*
X207901995Y-88497378D01*
X207874352Y-88493000D01*
X207669648Y-88493000D01*
X207645329Y-88496851D01*
X207467465Y-88525022D01*
X207272776Y-88588281D01*
X207090386Y-88681215D01*
X206924786Y-88801528D01*
X206780028Y-88946286D01*
X206659715Y-89111886D01*
X206612485Y-89204580D01*
X206564510Y-89255376D01*
X206496689Y-89272171D01*
X206430554Y-89249634D01*
X206391515Y-89204580D01*
X206390883Y-89203340D01*
X206344287Y-89111890D01*
X206336556Y-89101249D01*
X206223971Y-88946286D01*
X206079213Y-88801528D01*
X205913613Y-88681215D01*
X205913612Y-88681214D01*
X205913610Y-88681213D01*
X205805249Y-88626000D01*
X205731223Y-88588281D01*
X205536534Y-88525022D01*
X205361995Y-88497378D01*
X205334352Y-88493000D01*
X205129648Y-88493000D01*
X205105329Y-88496851D01*
X204927465Y-88525022D01*
X204732776Y-88588281D01*
X204550386Y-88681215D01*
X204384786Y-88801528D01*
X204240028Y-88946286D01*
X204119715Y-89111886D01*
X204072485Y-89204580D01*
X204024510Y-89255376D01*
X203956689Y-89272171D01*
X203890554Y-89249634D01*
X203851515Y-89204580D01*
X203850883Y-89203340D01*
X203804287Y-89111890D01*
X203796556Y-89101249D01*
X203683971Y-88946286D01*
X203539213Y-88801528D01*
X203373613Y-88681215D01*
X203373612Y-88681214D01*
X203373610Y-88681213D01*
X203265249Y-88626000D01*
X203191223Y-88588281D01*
X202996534Y-88525022D01*
X202821995Y-88497378D01*
X202794352Y-88493000D01*
X202589648Y-88493000D01*
X202565329Y-88496851D01*
X202387465Y-88525022D01*
X202192776Y-88588281D01*
X202010386Y-88681215D01*
X201844786Y-88801528D01*
X201700028Y-88946286D01*
X201579715Y-89111886D01*
X201532485Y-89204580D01*
X201484510Y-89255376D01*
X201416689Y-89272171D01*
X201350554Y-89249634D01*
X201311515Y-89204580D01*
X201310883Y-89203340D01*
X201264287Y-89111890D01*
X201256556Y-89101249D01*
X201143971Y-88946286D01*
X200999213Y-88801528D01*
X200833613Y-88681215D01*
X200833612Y-88681214D01*
X200833610Y-88681213D01*
X200725249Y-88626000D01*
X200651223Y-88588281D01*
X200456534Y-88525022D01*
X200281995Y-88497378D01*
X200254352Y-88493000D01*
X200049648Y-88493000D01*
X200011599Y-88499026D01*
X199847468Y-88525022D01*
X199838717Y-88527865D01*
X199833154Y-88529673D01*
X199763313Y-88531667D01*
X199707157Y-88499422D01*
X194172090Y-82964355D01*
X194172088Y-82964352D01*
X194053217Y-82845481D01*
X194053216Y-82845480D01*
X193966404Y-82795360D01*
X193966404Y-82795359D01*
X193966400Y-82795358D01*
X193916285Y-82766423D01*
X193763557Y-82725499D01*
X193605443Y-82725499D01*
X193597847Y-82725499D01*
X193597831Y-82725500D01*
X192745602Y-82725500D01*
X192678563Y-82705815D01*
X192635117Y-82657795D01*
X192628284Y-82644385D01*
X192507971Y-82478786D01*
X192363213Y-82334028D01*
X192197613Y-82213715D01*
X192197612Y-82213714D01*
X192197610Y-82213713D01*
X192113426Y-82170819D01*
X192015223Y-82120781D01*
X191820534Y-82057522D01*
X191645995Y-82029878D01*
X191618352Y-82025500D01*
X191413648Y-82025500D01*
X191389329Y-82029351D01*
X191211465Y-82057522D01*
X191016776Y-82120781D01*
X190834386Y-82213715D01*
X190668786Y-82334028D01*
X190524028Y-82478786D01*
X190403715Y-82644386D01*
X190310781Y-82826776D01*
X190247522Y-83021465D01*
X190215500Y-83223648D01*
X190215500Y-83428351D01*
X190247522Y-83630534D01*
X190310781Y-83825223D01*
X190403715Y-84007613D01*
X190524028Y-84173213D01*
X190668786Y-84317971D01*
X190807809Y-84418975D01*
X190834390Y-84438287D01*
X190915499Y-84479614D01*
X191016776Y-84531218D01*
X191016778Y-84531218D01*
X191016781Y-84531220D01*
X191091818Y-84555601D01*
X191211465Y-84594477D01*
X191312557Y-84610488D01*
X191413648Y-84626500D01*
X191413649Y-84626500D01*
X191618351Y-84626500D01*
X191618352Y-84626500D01*
X191820534Y-84594477D01*
X192015219Y-84531220D01*
X192197610Y-84438287D01*
X192290590Y-84370732D01*
X192363213Y-84317971D01*
X192363215Y-84317968D01*
X192363219Y-84317966D01*
X192507966Y-84173219D01*
X192507968Y-84173215D01*
X192507971Y-84173213D01*
X192628284Y-84007614D01*
X192628285Y-84007613D01*
X192628287Y-84007610D01*
X192635117Y-83994204D01*
X192683091Y-83943409D01*
X192745602Y-83926500D01*
X193384403Y-83926500D01*
X193451442Y-83946185D01*
X193472084Y-83962819D01*
X197790584Y-88281319D01*
X197824069Y-88342642D01*
X197819085Y-88412334D01*
X197777213Y-88468267D01*
X197711749Y-88492684D01*
X197702903Y-88493000D01*
X197509648Y-88493000D01*
X197471599Y-88499026D01*
X197307468Y-88525022D01*
X197298717Y-88527865D01*
X197293154Y-88529673D01*
X197223313Y-88531667D01*
X197167157Y-88499422D01*
X195682090Y-87014355D01*
X195682088Y-87014352D01*
X195563217Y-86895481D01*
X195563216Y-86895480D01*
X195472927Y-86843352D01*
X195472926Y-86843351D01*
X195426290Y-86816425D01*
X195426289Y-86816424D01*
X195413763Y-86813067D01*
X195273557Y-86775499D01*
X195115443Y-86775499D01*
X195107847Y-86775499D01*
X195107831Y-86775500D01*
X192745602Y-86775500D01*
X192678563Y-86755815D01*
X192635117Y-86707795D01*
X192628284Y-86694385D01*
X192507971Y-86528786D01*
X192363213Y-86384028D01*
X192197613Y-86263715D01*
X192197612Y-86263714D01*
X192197610Y-86263713D01*
X192140653Y-86234691D01*
X192015223Y-86170781D01*
X191820534Y-86107522D01*
X191645995Y-86079878D01*
X191618352Y-86075500D01*
X191413648Y-86075500D01*
X191389329Y-86079351D01*
X191211465Y-86107522D01*
X191016776Y-86170781D01*
X190834386Y-86263715D01*
X190668786Y-86384028D01*
X190524028Y-86528786D01*
X190403715Y-86694386D01*
X190310781Y-86876776D01*
X190247522Y-87071465D01*
X190215500Y-87273648D01*
X190215500Y-87478351D01*
X190247522Y-87680534D01*
X190310781Y-87875223D01*
X190362385Y-87976500D01*
X190379188Y-88009478D01*
X190403715Y-88057613D01*
X190524028Y-88223213D01*
X190668786Y-88367971D01*
X190823749Y-88480556D01*
X190834390Y-88488287D01*
X190919528Y-88531667D01*
X191016776Y-88581218D01*
X191016778Y-88581218D01*
X191016781Y-88581220D01*
X191038513Y-88588281D01*
X191211465Y-88644477D01*
X191230697Y-88647523D01*
X191413648Y-88676500D01*
X191413649Y-88676500D01*
X191618351Y-88676500D01*
X191618352Y-88676500D01*
X191820534Y-88644477D01*
X192015219Y-88581220D01*
X192197610Y-88488287D01*
X192302151Y-88412334D01*
X192363213Y-88367971D01*
X192363215Y-88367968D01*
X192363219Y-88367966D01*
X192507966Y-88223219D01*
X192507968Y-88223215D01*
X192507971Y-88223213D01*
X192628284Y-88057614D01*
X192628285Y-88057613D01*
X192628287Y-88057610D01*
X192635117Y-88044204D01*
X192683091Y-87993409D01*
X192745602Y-87976500D01*
X194894403Y-87976500D01*
X194961442Y-87996185D01*
X194982084Y-88012819D01*
X196317922Y-89348657D01*
X196351407Y-89409980D01*
X196348173Y-89474655D01*
X196343522Y-89488968D01*
X196311500Y-89691148D01*
X196311500Y-89895851D01*
X196343522Y-90098034D01*
X196406781Y-90292723D01*
X196458385Y-90394000D01*
X196498099Y-90471943D01*
X196499715Y-90475113D01*
X196620028Y-90640713D01*
X196621134Y-90641819D01*
X196621418Y-90642340D01*
X196623191Y-90644415D01*
X196622754Y-90644787D01*
X196654619Y-90703142D01*
X196649635Y-90772834D01*
X196607763Y-90828767D01*
X196542299Y-90853184D01*
X196533453Y-90853500D01*
X192491602Y-90853500D01*
X192424563Y-90833815D01*
X192381117Y-90785795D01*
X192380952Y-90785471D01*
X192374287Y-90772390D01*
X192374285Y-90772387D01*
X192374284Y-90772385D01*
X192253971Y-90606786D01*
X192109213Y-90462028D01*
X191943613Y-90341715D01*
X191943612Y-90341714D01*
X191943610Y-90341713D01*
X191847462Y-90292723D01*
X191761223Y-90248781D01*
X191566534Y-90185522D01*
X191391995Y-90157878D01*
X191364352Y-90153500D01*
X191159648Y-90153500D01*
X191135329Y-90157351D01*
X190957465Y-90185522D01*
X190762776Y-90248781D01*
X190580386Y-90341715D01*
X190414786Y-90462028D01*
X190270028Y-90606786D01*
X190149715Y-90772386D01*
X190056781Y-90954776D01*
X189993522Y-91149465D01*
X189963242Y-91340649D01*
X189961500Y-91351648D01*
X184877500Y-91351648D01*
X184877500Y-83926086D01*
X184877501Y-83926073D01*
X184877501Y-83757970D01*
X184836576Y-83605240D01*
X184836573Y-83605235D01*
X184757524Y-83468316D01*
X184757518Y-83468308D01*
X182461564Y-81172355D01*
X182461562Y-81172352D01*
X182342691Y-81053481D01*
X182342690Y-81053480D01*
X182255878Y-81003360D01*
X182255878Y-81003359D01*
X182255874Y-81003358D01*
X182205759Y-80974423D01*
X182053031Y-80933499D01*
X181894917Y-80933499D01*
X181887321Y-80933499D01*
X181887305Y-80933500D01*
X159979669Y-80933500D01*
X159979653Y-80933499D01*
X159972057Y-80933499D01*
X159813943Y-80933499D01*
X159706587Y-80962265D01*
X159661210Y-80974424D01*
X159661209Y-80974425D01*
X159611096Y-81003359D01*
X159611095Y-81003360D01*
X159567689Y-81028420D01*
X159524285Y-81053479D01*
X159524282Y-81053481D01*
X159412480Y-81165284D01*
X159412478Y-81165286D01*
X157852265Y-82725500D01*
X156315084Y-84262681D01*
X156253761Y-84296166D01*
X156227403Y-84299000D01*
X137564170Y-84299000D01*
X137564154Y-84298999D01*
X137556558Y-84298999D01*
X137398443Y-84298999D01*
X137327663Y-84317965D01*
X137245714Y-84339923D01*
X137245709Y-84339926D01*
X137108790Y-84418975D01*
X137108782Y-84418981D01*
X126618584Y-94909181D01*
X126557261Y-94942666D01*
X126530903Y-94945500D01*
X126131946Y-94945500D01*
X126064907Y-94925815D01*
X126019152Y-94873011D01*
X126008588Y-94808898D01*
X126018999Y-94706988D01*
X126019000Y-94706973D01*
X126019000Y-94357000D01*
X125034686Y-94357000D01*
X125039080Y-94352606D01*
X125091741Y-94261394D01*
X125119000Y-94159661D01*
X125119000Y-94054339D01*
X125091741Y-93952606D01*
X125039080Y-93861394D01*
X125034686Y-93857000D01*
X126018999Y-93857000D01*
X126018999Y-93507028D01*
X126018998Y-93507013D01*
X126008505Y-93404302D01*
X125953358Y-93237880D01*
X125953356Y-93237875D01*
X125861315Y-93088654D01*
X125737345Y-92964684D01*
X125588124Y-92872643D01*
X125588119Y-92872641D01*
X125421697Y-92817494D01*
X125421690Y-92817493D01*
X125318986Y-92807000D01*
X124969000Y-92807000D01*
X124969000Y-93791314D01*
X124964606Y-93786920D01*
X124873394Y-93734259D01*
X124771661Y-93707000D01*
X124666339Y-93707000D01*
X124564606Y-93734259D01*
X124473394Y-93786920D01*
X124469000Y-93791314D01*
X124469000Y-92807000D01*
X124119028Y-92807000D01*
X124119012Y-92807001D01*
X124016302Y-92817494D01*
X123849880Y-92872641D01*
X123849875Y-92872643D01*
X123700654Y-92964684D01*
X123576684Y-93088654D01*
X123484643Y-93237875D01*
X123484641Y-93237880D01*
X123429494Y-93404302D01*
X123429493Y-93404309D01*
X123419000Y-93507013D01*
X123419000Y-93857000D01*
X124403314Y-93857000D01*
X124398920Y-93861394D01*
X124346259Y-93952606D01*
X124319000Y-94054339D01*
X124319000Y-94159661D01*
X124346259Y-94261394D01*
X124398920Y-94352606D01*
X124403314Y-94357000D01*
X123419001Y-94357000D01*
X123419001Y-94706986D01*
X123429494Y-94809697D01*
X123484641Y-94976119D01*
X123484643Y-94976124D01*
X123576684Y-95125345D01*
X123617845Y-95166506D01*
X123651330Y-95227829D01*
X123646346Y-95297521D01*
X123617845Y-95341868D01*
X122824768Y-96134945D01*
X122824762Y-96134951D01*
X122821286Y-96138428D01*
X122821284Y-96138430D01*
X122709480Y-96250234D01*
X122679586Y-96302013D01*
X122673913Y-96311838D01*
X122673912Y-96311840D01*
X122630424Y-96387163D01*
X122630423Y-96387165D01*
X122589499Y-96539893D01*
X122589499Y-96539895D01*
X122589499Y-96707996D01*
X122589500Y-96708009D01*
X122589500Y-97571330D01*
X122589499Y-97571348D01*
X122589499Y-97737054D01*
X122589498Y-97737054D01*
X122589499Y-97737057D01*
X122620357Y-97852220D01*
X122630424Y-97889787D01*
X122637427Y-97901916D01*
X122645256Y-97915477D01*
X122647014Y-97918521D01*
X122647015Y-97918523D01*
X122709477Y-98026712D01*
X122709481Y-98026717D01*
X122828349Y-98145585D01*
X122828355Y-98145590D01*
X123424921Y-98742157D01*
X123458406Y-98803480D01*
X123455173Y-98868149D01*
X123450523Y-98882460D01*
X123450523Y-98882462D01*
X123418500Y-99084648D01*
X123418500Y-99289351D01*
X123450522Y-99491534D01*
X123513781Y-99686223D01*
X123606715Y-99868613D01*
X123727028Y-100034213D01*
X123871786Y-100178971D01*
X124010426Y-100279697D01*
X124037390Y-100299287D01*
X124128840Y-100345883D01*
X124130080Y-100346515D01*
X124180876Y-100394490D01*
X124197671Y-100462311D01*
X124175134Y-100528446D01*
X124130080Y-100567485D01*
X124037386Y-100614715D01*
X123871786Y-100735028D01*
X123727028Y-100879786D01*
X123606715Y-101045386D01*
X123513781Y-101227776D01*
X123450522Y-101422465D01*
X123418500Y-101624648D01*
X123418500Y-101829351D01*
X123450522Y-102031534D01*
X123513781Y-102226223D01*
X123567423Y-102331500D01*
X123601704Y-102398780D01*
X123606715Y-102408613D01*
X123727028Y-102574213D01*
X123871786Y-102718971D01*
X124026749Y-102831556D01*
X124037390Y-102839287D01*
X124139944Y-102891541D01*
X124219776Y-102932218D01*
X124219778Y-102932218D01*
X124219781Y-102932220D01*
X124302660Y-102959149D01*
X124414465Y-102995477D01*
X124465114Y-103003499D01*
X124616648Y-103027500D01*
X124616649Y-103027500D01*
X124821351Y-103027500D01*
X124821352Y-103027500D01*
X125023534Y-102995477D01*
X125218219Y-102932220D01*
X125400610Y-102839287D01*
X125493590Y-102771732D01*
X125566213Y-102718971D01*
X125566215Y-102718968D01*
X125566219Y-102718966D01*
X125710966Y-102574219D01*
X125710968Y-102574215D01*
X125710971Y-102574213D01*
X125810358Y-102437416D01*
X125831287Y-102408610D01*
X125924220Y-102226219D01*
X125987477Y-102031534D01*
X126019500Y-101829352D01*
X126019500Y-101624648D01*
X126000346Y-101503715D01*
X125987477Y-101422465D01*
X125958127Y-101332137D01*
X125924220Y-101227781D01*
X125924218Y-101227778D01*
X125924218Y-101227776D01*
X125881868Y-101144661D01*
X125831287Y-101045390D01*
X125790813Y-100989682D01*
X125710971Y-100879786D01*
X125566213Y-100735028D01*
X125400614Y-100614715D01*
X125348045Y-100587930D01*
X125307917Y-100567483D01*
X125257123Y-100519511D01*
X125240328Y-100451690D01*
X125262865Y-100385555D01*
X125307917Y-100346516D01*
X125400610Y-100299287D01*
X125427574Y-100279697D01*
X125566213Y-100178971D01*
X125566215Y-100178968D01*
X125566219Y-100178966D01*
X125710966Y-100034219D01*
X125710968Y-100034215D01*
X125710971Y-100034213D01*
X125784879Y-99932485D01*
X125831287Y-99868610D01*
X125924220Y-99686219D01*
X125987477Y-99491534D01*
X126019500Y-99289352D01*
X126019500Y-99084648D01*
X126005210Y-98994423D01*
X125987477Y-98882465D01*
X125938127Y-98730583D01*
X125924220Y-98687781D01*
X125924218Y-98687778D01*
X125924218Y-98687776D01*
X125878524Y-98598098D01*
X125831287Y-98505390D01*
X125823556Y-98494749D01*
X125710971Y-98339786D01*
X125566213Y-98195028D01*
X125400614Y-98074715D01*
X125378725Y-98063562D01*
X125307917Y-98027483D01*
X125257123Y-97979511D01*
X125240328Y-97911690D01*
X125262865Y-97845555D01*
X125307917Y-97806516D01*
X125400610Y-97759287D01*
X125475632Y-97704781D01*
X125566213Y-97638971D01*
X125566215Y-97638968D01*
X125566219Y-97638966D01*
X125710966Y-97494219D01*
X125710968Y-97494215D01*
X125710971Y-97494213D01*
X125831284Y-97328614D01*
X125831285Y-97328613D01*
X125831287Y-97328610D01*
X125838117Y-97315204D01*
X125848566Y-97304140D01*
X125854889Y-97290297D01*
X125872068Y-97279256D01*
X125886091Y-97264409D01*
X125901772Y-97260167D01*
X125913667Y-97252523D01*
X125948602Y-97247500D01*
X126191903Y-97247500D01*
X126258942Y-97267185D01*
X126279583Y-97283818D01*
X126879559Y-97883795D01*
X127456784Y-98461020D01*
X127506181Y-98510417D01*
X127539666Y-98571740D01*
X127542500Y-98598098D01*
X127542500Y-104855902D01*
X127522815Y-104922941D01*
X127506181Y-104943583D01*
X123423582Y-109026181D01*
X123362259Y-109059666D01*
X123335901Y-109062500D01*
X122781886Y-109062500D01*
X122781868Y-109062501D01*
X122679091Y-109073000D01*
X122679088Y-109073001D01*
X122512556Y-109128185D01*
X122512551Y-109128187D01*
X122363230Y-109220289D01*
X122239177Y-109344342D01*
X122147075Y-109493663D01*
X122147074Y-109493666D01*
X122091889Y-109660203D01*
X122091889Y-109660204D01*
X122091888Y-109660204D01*
X122081388Y-109762983D01*
X116000000Y-109762983D01*
X116000000Y-90791135D01*
X117649500Y-90791135D01*
X117649500Y-92586870D01*
X117649501Y-92586876D01*
X117655908Y-92646483D01*
X117706202Y-92781328D01*
X117706206Y-92781335D01*
X117792452Y-92896544D01*
X117792455Y-92896547D01*
X117907664Y-92982793D01*
X117907671Y-92982797D01*
X117939620Y-92994713D01*
X118042517Y-93033091D01*
X118102127Y-93039500D01*
X118112685Y-93039499D01*
X118179723Y-93059179D01*
X118200372Y-93075818D01*
X118870591Y-93746037D01*
X118807007Y-93763075D01*
X118692993Y-93828901D01*
X118599901Y-93921993D01*
X118534075Y-94036007D01*
X118517037Y-94099591D01*
X117884728Y-93467282D01*
X117884727Y-93467282D01*
X117845380Y-93521439D01*
X117748904Y-93710782D01*
X117683242Y-93912869D01*
X117683242Y-93912872D01*
X117650000Y-94122753D01*
X117650000Y-94335246D01*
X117683242Y-94545127D01*
X117683242Y-94545130D01*
X117748904Y-94747217D01*
X117845375Y-94936550D01*
X117884728Y-94990716D01*
X118517037Y-94358408D01*
X118534075Y-94421993D01*
X118599901Y-94536007D01*
X118692993Y-94629099D01*
X118807007Y-94694925D01*
X118870590Y-94711962D01*
X118238282Y-95344269D01*
X118238282Y-95344270D01*
X118292449Y-95383624D01*
X118481782Y-95480095D01*
X118683870Y-95545757D01*
X118893754Y-95579000D01*
X119106246Y-95579000D01*
X119316127Y-95545757D01*
X119316130Y-95545757D01*
X119518217Y-95480095D01*
X119707554Y-95383622D01*
X119761716Y-95344270D01*
X119761717Y-95344270D01*
X119129408Y-94711962D01*
X119192993Y-94694925D01*
X119307007Y-94629099D01*
X119400099Y-94536007D01*
X119465925Y-94421993D01*
X119482962Y-94358409D01*
X120115270Y-94990717D01*
X120115270Y-94990716D01*
X120154622Y-94936554D01*
X120251095Y-94747217D01*
X120316757Y-94545130D01*
X120316757Y-94545127D01*
X120350000Y-94335246D01*
X120350000Y-94122753D01*
X120316757Y-93912872D01*
X120316757Y-93912869D01*
X120251095Y-93710782D01*
X120174348Y-93560159D01*
X120154624Y-93521449D01*
X120115270Y-93467282D01*
X120115269Y-93467282D01*
X119482962Y-94099590D01*
X119465925Y-94036007D01*
X119400099Y-93921993D01*
X119307007Y-93828901D01*
X119192993Y-93763075D01*
X119129409Y-93746037D01*
X119799627Y-93075818D01*
X119860950Y-93042333D01*
X119887307Y-93039499D01*
X119897872Y-93039499D01*
X119957483Y-93033091D01*
X120092331Y-92982796D01*
X120207546Y-92896546D01*
X120293796Y-92781331D01*
X120344091Y-92646483D01*
X120350500Y-92586873D01*
X120350499Y-90791128D01*
X120344091Y-90731517D01*
X120310223Y-90640713D01*
X120293797Y-90596671D01*
X120293793Y-90596664D01*
X120207547Y-90481455D01*
X120207544Y-90481452D01*
X120092335Y-90395206D01*
X120092328Y-90395202D01*
X119957482Y-90344908D01*
X119957483Y-90344908D01*
X119897883Y-90338501D01*
X119897881Y-90338500D01*
X119897873Y-90338500D01*
X119897864Y-90338500D01*
X118102129Y-90338500D01*
X118102123Y-90338501D01*
X118042516Y-90344908D01*
X117907671Y-90395202D01*
X117907664Y-90395206D01*
X117792455Y-90481452D01*
X117792452Y-90481455D01*
X117706206Y-90596664D01*
X117706202Y-90596671D01*
X117655908Y-90731517D01*
X117650108Y-90785471D01*
X117649501Y-90791123D01*
X117649500Y-90791135D01*
X116000000Y-90791135D01*
X116000000Y-77124000D01*
X116019685Y-77056961D01*
X116072489Y-77011206D01*
X116124000Y-77000000D01*
X212876000Y-77000000D01*
X212943039Y-77019685D01*
G37*
%TD.AperFunction*%
%TD*%
M02*
