%TF.GenerationSoftware,KiCad,Pcbnew,9.0.4*%
%TF.CreationDate,2026-04-02T10:35:08+09:00*%
%TF.ProjectId,HAM_Seminar_NE555,48414d5f-5365-46d6-996e-61725f4e4535,rev?*%
%TF.SameCoordinates,Original*%
%TF.FileFunction,Copper,L2,Bot*%
%TF.FilePolarity,Positive*%
%FSLAX46Y46*%
G04 Gerber Fmt 4.6, Leading zero omitted, Abs format (unit mm)*
G04 Created by KiCad (PCBNEW 9.0.4) date 2026-04-02 10:35:08*
%MOMM*%
%LPD*%
G01*
G04 APERTURE LIST*
G04 Aperture macros list*
%AMRoundRect*
0 Rectangle with rounded corners*
0 $1 Rounding radius*
0 $2 $3 $4 $5 $6 $7 $8 $9 X,Y pos of 4 corners*
0 Add a 4 corners polygon primitive as box body*
4,1,4,$2,$3,$4,$5,$6,$7,$8,$9,$2,$3,0*
0 Add four circle primitives for the rounded corners*
1,1,$1+$1,$2,$3*
1,1,$1+$1,$4,$5*
1,1,$1+$1,$6,$7*
1,1,$1+$1,$8,$9*
0 Add four rect primitives between the rounded corners*
20,1,$1+$1,$2,$3,$4,$5,0*
20,1,$1+$1,$4,$5,$6,$7,0*
20,1,$1+$1,$6,$7,$8,$9,0*
20,1,$1+$1,$8,$9,$2,$3,0*%
G04 Aperture macros list end*
%TA.AperFunction,ComponentPad*%
%ADD10C,1.600000*%
%TD*%
%TA.AperFunction,ComponentPad*%
%ADD11RoundRect,0.250000X-0.550000X-0.550000X0.550000X-0.550000X0.550000X0.550000X-0.550000X0.550000X0*%
%TD*%
%TA.AperFunction,ComponentPad*%
%ADD12R,1.700000X1.700000*%
%TD*%
%TA.AperFunction,ComponentPad*%
%ADD13C,1.700000*%
%TD*%
%TA.AperFunction,ComponentPad*%
%ADD14R,1.600000X1.600000*%
%TD*%
%TA.AperFunction,ViaPad*%
%ADD15C,0.600000*%
%TD*%
%TA.AperFunction,Conductor*%
%ADD16C,0.200000*%
%TD*%
G04 APERTURE END LIST*
D10*
%TO.P,R4,1*%
%TO.N,Net-(U3-b)*%
X181102000Y-95504000D03*
%TO.P,R4,2*%
%TO.N,Net-(U4-B)*%
X191262000Y-95504000D03*
%TD*%
D11*
%TO.P,C1,1*%
%TO.N,Net-(U1-THR)*%
X123381888Y-110363000D03*
D10*
%TO.P,C1,2*%
%TO.N,GND*%
X125881888Y-110363000D03*
%TD*%
%TO.P,R7,1*%
%TO.N,Net-(U3-e)*%
X181102000Y-107654000D03*
%TO.P,R7,2*%
%TO.N,Net-(U4-E)*%
X191262000Y-107654000D03*
%TD*%
D12*
%TO.P,J1,1,Pin_1*%
%TO.N,VCC*%
X119000000Y-91689000D03*
D13*
%TO.P,J1,2,Pin_2*%
%TO.N,GND*%
X119000000Y-94229000D03*
%TD*%
D11*
%TO.P,U2,1,CP1..3*%
%TO.N,Net-(U2-CP1..3)*%
X148209000Y-90932000D03*
D10*
%TO.P,U2,2,R0(1)*%
%TO.N,GND*%
X148209000Y-93472000D03*
%TO.P,U2,3,R0(2)*%
X148209000Y-96012000D03*
%TO.P,U2,4*%
%TO.N,N/C*%
X148209000Y-98552000D03*
%TO.P,U2,5,VCC*%
%TO.N,VCC*%
X148209000Y-101092000D03*
%TO.P,U2,6,R9(1)*%
%TO.N,GND*%
X148209000Y-103632000D03*
%TO.P,U2,7,R9(2)*%
X148209000Y-106172000D03*
%TO.P,U2,8,Q2*%
%TO.N,Net-(U2-Q2)*%
X155829000Y-106172000D03*
%TO.P,U2,9,Q1*%
%TO.N,Net-(U2-Q1)*%
X155829000Y-103632000D03*
%TO.P,U2,10,GND*%
%TO.N,GND*%
X155829000Y-101092000D03*
%TO.P,U2,11,Q3*%
%TO.N,Net-(U2-Q3)*%
X155829000Y-98552000D03*
%TO.P,U2,12,Q0*%
%TO.N,Net-(U2-CP1..3)*%
X155829000Y-96012000D03*
%TO.P,U2,13*%
%TO.N,N/C*%
X155829000Y-93472000D03*
%TO.P,U2,14,CP0*%
%TO.N,Net-(U1-Q)*%
X155829000Y-90932000D03*
%TD*%
D14*
%TO.P,U4,1,E*%
%TO.N,Net-(U4-E)*%
X197612000Y-105033500D03*
D10*
%TO.P,U4,2,D*%
%TO.N,Net-(U4-D)*%
X200152000Y-105033500D03*
%TO.P,U4,3,CA*%
%TO.N,VCC*%
X202692000Y-105033500D03*
%TO.P,U4,4,C*%
%TO.N,Net-(U4-C)*%
X205232000Y-105033500D03*
%TO.P,U4,5,DP*%
%TO.N,Net-(U4-DP)*%
X207772000Y-105033500D03*
%TO.P,U4,6,B*%
%TO.N,Net-(U4-B)*%
X207772000Y-89793500D03*
%TO.P,U4,7,A*%
%TO.N,Net-(U4-A)*%
X205232000Y-89793500D03*
%TO.P,U4,8,CA*%
%TO.N,VCC*%
X202692000Y-89793500D03*
%TO.P,U4,9,F*%
%TO.N,Net-(U4-F)*%
X200152000Y-89793500D03*
%TO.P,U4,10,G*%
%TO.N,Net-(U4-G)*%
X197612000Y-89793500D03*
%TD*%
%TO.P,R10,1*%
%TO.N,Net-(U1-Q)*%
X181229000Y-111887000D03*
%TO.P,R10,2*%
%TO.N,Net-(U4-DP)*%
X191389000Y-111887000D03*
%TD*%
D11*
%TO.P,U3,1,B*%
%TO.N,Net-(U2-Q1)*%
X166243000Y-89916000D03*
D10*
%TO.P,U3,2,C*%
%TO.N,Net-(U2-Q2)*%
X166243000Y-92456000D03*
%TO.P,U3,3,LT*%
%TO.N,VCC*%
X166243000Y-94996000D03*
%TO.P,U3,4,BI*%
X166243000Y-97536000D03*
%TO.P,U3,5,RBI*%
X166243000Y-100076000D03*
%TO.P,U3,6,D*%
%TO.N,Net-(U2-Q3)*%
X166243000Y-102616000D03*
%TO.P,U3,7,A*%
%TO.N,Net-(U2-CP1..3)*%
X166243000Y-105156000D03*
%TO.P,U3,8,GND*%
%TO.N,GND*%
X166243000Y-107696000D03*
%TO.P,U3,9,e*%
%TO.N,Net-(U3-e)*%
X173863000Y-107696000D03*
%TO.P,U3,10,d*%
%TO.N,Net-(U3-d)*%
X173863000Y-105156000D03*
%TO.P,U3,11,c*%
%TO.N,Net-(U3-c)*%
X173863000Y-102616000D03*
%TO.P,U3,12,b*%
%TO.N,Net-(U3-b)*%
X173863000Y-100076000D03*
%TO.P,U3,13,a*%
%TO.N,Net-(U3-a)*%
X173863000Y-97536000D03*
%TO.P,U3,14,g*%
%TO.N,Net-(U3-g)*%
X173863000Y-94996000D03*
%TO.P,U3,15,f*%
%TO.N,Net-(U3-f)*%
X173863000Y-92456000D03*
%TO.P,U3,16,VCC*%
%TO.N,VCC*%
X173863000Y-89916000D03*
%TD*%
%TO.P,R9,1*%
%TO.N,Net-(U3-g)*%
X181356000Y-87376000D03*
%TO.P,R9,2*%
%TO.N,Net-(U4-G)*%
X191516000Y-87376000D03*
%TD*%
%TO.P,R1,1*%
%TO.N,VCC*%
X138684000Y-86741000D03*
%TO.P,R1,2*%
%TO.N,Net-(U1-DIS)*%
X138684000Y-96901000D03*
%TD*%
%TO.P,R8,1*%
%TO.N,Net-(U3-f)*%
X181356000Y-83326000D03*
%TO.P,R8,2*%
%TO.N,Net-(U4-F)*%
X191516000Y-83326000D03*
%TD*%
%TO.P,R2,1*%
%TO.N,Net-(U1-DIS)*%
X138684000Y-100203000D03*
%TO.P,R2,2*%
%TO.N,Net-(U1-THR)*%
X138684000Y-110363000D03*
%TD*%
%TO.P,R3,1*%
%TO.N,Net-(U3-a)*%
X181102000Y-91454000D03*
%TO.P,R3,2*%
%TO.N,Net-(U4-A)*%
X191262000Y-91454000D03*
%TD*%
%TO.P,R6,1*%
%TO.N,Net-(U3-d)*%
X181102000Y-103604000D03*
%TO.P,R6,2*%
%TO.N,Net-(U4-D)*%
X191262000Y-103604000D03*
%TD*%
%TO.P,R5,1*%
%TO.N,Net-(U3-c)*%
X181102000Y-99554000D03*
%TO.P,R5,2*%
%TO.N,Net-(U4-C)*%
X191262000Y-99554000D03*
%TD*%
%TO.P,C2,1*%
%TO.N,Net-(U1-CV)*%
X132334000Y-108585000D03*
%TO.P,C2,2*%
%TO.N,GND*%
X132334000Y-111085000D03*
%TD*%
D11*
%TO.P,U1,1,GND*%
%TO.N,GND*%
X124719000Y-94107000D03*
D10*
%TO.P,U1,2,TR*%
%TO.N,Net-(U1-THR)*%
X124719000Y-96647000D03*
%TO.P,U1,3,Q*%
%TO.N,Net-(U1-Q)*%
X124719000Y-99187000D03*
%TO.P,U1,4,R*%
%TO.N,VCC*%
X124719000Y-101727000D03*
%TO.P,U1,5,CV*%
%TO.N,Net-(U1-CV)*%
X132339000Y-101727000D03*
%TO.P,U1,6,THR*%
%TO.N,Net-(U1-THR)*%
X132339000Y-99187000D03*
%TO.P,U1,7,DIS*%
%TO.N,Net-(U1-DIS)*%
X132339000Y-96647000D03*
%TO.P,U1,8,VCC*%
%TO.N,VCC*%
X132339000Y-94107000D03*
%TD*%
D15*
%TO.N,GND*%
X212000000Y-78000000D03*
X117000000Y-78000000D03*
X212000000Y-117000000D03*
X118000000Y-117000000D03*
X160000000Y-117000000D03*
X160000000Y-78000000D03*
%TD*%
D16*
%TO.N,GND*%
X124719000Y-94107000D02*
X124460000Y-94107000D01*
X129834000Y-108585000D02*
X132334000Y-111085000D01*
X125881888Y-105434888D02*
X125881888Y-110363000D01*
X132334000Y-111085000D02*
X134961000Y-108458000D01*
X136144000Y-108458000D02*
X138430000Y-106172000D01*
X125730000Y-105283000D02*
X129032000Y-108585000D01*
X121031000Y-100584000D02*
X125730000Y-105283000D01*
X125730000Y-105283000D02*
X125881888Y-105434888D01*
X134961000Y-108458000D02*
X136144000Y-108458000D01*
X124460000Y-94107000D02*
X121031000Y-97536000D01*
X138430000Y-106172000D02*
X148209000Y-106172000D01*
X129032000Y-108585000D02*
X129834000Y-108585000D01*
X121031000Y-97536000D02*
X121031000Y-100584000D01*
%TO.N,VCC*%
X178181000Y-114808000D02*
X168783000Y-105410000D01*
X129921000Y-91689000D02*
X132339000Y-94107000D01*
X202692000Y-89793500D02*
X202692000Y-88265000D01*
X202692000Y-89793500D02*
X202692000Y-105033500D01*
X168783000Y-102616000D02*
X166243000Y-100076000D01*
X168783000Y-105410000D02*
X168783000Y-102616000D01*
X119000000Y-91689000D02*
X129921000Y-91689000D01*
X202692000Y-113284000D02*
X201168000Y-114808000D01*
X194183000Y-79756000D02*
X178943000Y-79756000D01*
X202692000Y-88265000D02*
X194183000Y-79756000D01*
X201168000Y-114808000D02*
X178181000Y-114808000D01*
X202692000Y-105033500D02*
X202692000Y-113284000D01*
X132339000Y-94107000D02*
X124719000Y-101727000D01*
X173863000Y-84836000D02*
X173863000Y-89916000D01*
X178943000Y-79756000D02*
X173863000Y-84836000D01*
%TO.N,Net-(U2-Q2)*%
X158115000Y-106172000D02*
X162052000Y-102235000D01*
X162052000Y-96647000D02*
X166243000Y-92456000D01*
X162052000Y-102235000D02*
X162052000Y-96647000D01*
X155829000Y-106172000D02*
X158115000Y-106172000D01*
%TO.N,Net-(U2-Q1)*%
X157861000Y-103632000D02*
X159893000Y-101600000D01*
X155829000Y-103632000D02*
X157861000Y-103632000D01*
X159893000Y-101600000D02*
X159893000Y-95631000D01*
X159893000Y-95631000D02*
X165608000Y-89916000D01*
X165608000Y-89916000D02*
X166243000Y-89916000D01*
%TD*%
%TA.AperFunction,Conductor*%
%TO.N,GND*%
G36*
X212943039Y-77019685D02*
G01*
X212988794Y-77072489D01*
X213000000Y-77124000D01*
X213000000Y-117876000D01*
X212980315Y-117943039D01*
X212927511Y-117988794D01*
X212876000Y-118000000D01*
X116124000Y-118000000D01*
X116056961Y-117980315D01*
X116011206Y-117927511D01*
X116000000Y-117876000D01*
X116000000Y-109762983D01*
X122081388Y-109762983D01*
X122081388Y-110963001D01*
X122081389Y-110963018D01*
X122091888Y-111065796D01*
X122091889Y-111065799D01*
X122147073Y-111232331D01*
X122147075Y-111232336D01*
X122181957Y-111288888D01*
X122239176Y-111381656D01*
X122363232Y-111505712D01*
X122512554Y-111597814D01*
X122679091Y-111652999D01*
X122781879Y-111663500D01*
X123981896Y-111663499D01*
X124084685Y-111652999D01*
X124251222Y-111597814D01*
X124400544Y-111505712D01*
X124524600Y-111381656D01*
X124616702Y-111232334D01*
X124639990Y-111162054D01*
X124643998Y-111154050D01*
X124661948Y-111134772D01*
X124676943Y-111113116D01*
X124685383Y-111109606D01*
X124691613Y-111102917D01*
X124717137Y-111096404D01*
X124741459Y-111086292D01*
X124757722Y-111086048D01*
X124759313Y-111085643D01*
X124760411Y-111086008D01*
X124764607Y-111085946D01*
X124802413Y-111088921D01*
X125481888Y-110409446D01*
X125481888Y-110415661D01*
X125509147Y-110517394D01*
X125561808Y-110608606D01*
X125636282Y-110683080D01*
X125727494Y-110735741D01*
X125829227Y-110763000D01*
X125835441Y-110763000D01*
X125155964Y-111442474D01*
X125200538Y-111474859D01*
X125382856Y-111567755D01*
X125577470Y-111630990D01*
X125779571Y-111663000D01*
X125984205Y-111663000D01*
X126186305Y-111630990D01*
X126380919Y-111567755D01*
X126563237Y-111474859D01*
X126607809Y-111442474D01*
X125928335Y-110763000D01*
X125934549Y-110763000D01*
X126036282Y-110735741D01*
X126127494Y-110683080D01*
X126201968Y-110608606D01*
X126254629Y-110517394D01*
X126281888Y-110415661D01*
X126281888Y-110409447D01*
X126961362Y-111088921D01*
X126993747Y-111044349D01*
X127056332Y-110921521D01*
X127056333Y-110921519D01*
X127086642Y-110862034D01*
X127149878Y-110667417D01*
X127181888Y-110465317D01*
X127181888Y-110260682D01*
X127149878Y-110058582D01*
X127086643Y-109863968D01*
X126993747Y-109681650D01*
X126961362Y-109637077D01*
X126961362Y-109637076D01*
X126281888Y-110316551D01*
X126281888Y-110310339D01*
X126254629Y-110208606D01*
X126201968Y-110117394D01*
X126127494Y-110042920D01*
X126036282Y-109990259D01*
X125934549Y-109963000D01*
X125928334Y-109963000D01*
X126607810Y-109283524D01*
X126607809Y-109283523D01*
X126563247Y-109251147D01*
X126563238Y-109251141D01*
X126380919Y-109158244D01*
X126186305Y-109095009D01*
X125984205Y-109063000D01*
X125779571Y-109063000D01*
X125577470Y-109095009D01*
X125382856Y-109158244D01*
X125200532Y-109251143D01*
X125155965Y-109283523D01*
X125155965Y-109283524D01*
X125835442Y-109963000D01*
X125829227Y-109963000D01*
X125727494Y-109990259D01*
X125636282Y-110042920D01*
X125561808Y-110117394D01*
X125509147Y-110208606D01*
X125481888Y-110310339D01*
X125481888Y-110316553D01*
X124802412Y-109637077D01*
X124764607Y-109640053D01*
X124696229Y-109625689D01*
X124646472Y-109576638D01*
X124643998Y-109571949D01*
X124639989Y-109563942D01*
X124616702Y-109493666D01*
X124524600Y-109344344D01*
X124400544Y-109220288D01*
X124299202Y-109157780D01*
X124251224Y-109128187D01*
X124251219Y-109128185D01*
X124249750Y-109127698D01*
X124084685Y-109073001D01*
X124084683Y-109073000D01*
X123981898Y-109062500D01*
X122781886Y-109062500D01*
X122781869Y-109062501D01*
X122679091Y-109073000D01*
X122679088Y-109073001D01*
X122512556Y-109128185D01*
X122512551Y-109128187D01*
X122363230Y-109220289D01*
X122239177Y-109344342D01*
X122147075Y-109493663D01*
X122147074Y-109493666D01*
X122091889Y-109660203D01*
X122091889Y-109660204D01*
X122091888Y-109660204D01*
X122081388Y-109762983D01*
X116000000Y-109762983D01*
X116000000Y-108482648D01*
X131033500Y-108482648D01*
X131033500Y-108687351D01*
X131065522Y-108889534D01*
X131128781Y-109084223D01*
X131192691Y-109209653D01*
X131213834Y-109251147D01*
X131221715Y-109266613D01*
X131342028Y-109432213D01*
X131486786Y-109576971D01*
X131652385Y-109697284D01*
X131652387Y-109697285D01*
X131652390Y-109697287D01*
X131706378Y-109724795D01*
X131757174Y-109772769D01*
X131773969Y-109840590D01*
X131751432Y-109906725D01*
X131706378Y-109945765D01*
X131652644Y-109973143D01*
X131608077Y-110005523D01*
X131608077Y-110005524D01*
X132287554Y-110685000D01*
X132281339Y-110685000D01*
X132179606Y-110712259D01*
X132088394Y-110764920D01*
X132013920Y-110839394D01*
X131961259Y-110930606D01*
X131934000Y-111032339D01*
X131934000Y-111038553D01*
X131254524Y-110359077D01*
X131254523Y-110359077D01*
X131222143Y-110403644D01*
X131129244Y-110585968D01*
X131066009Y-110780582D01*
X131034000Y-110982682D01*
X131034000Y-111187317D01*
X131066009Y-111389417D01*
X131129244Y-111584031D01*
X131222141Y-111766350D01*
X131222147Y-111766359D01*
X131254523Y-111810921D01*
X131254524Y-111810922D01*
X131934000Y-111131446D01*
X131934000Y-111137661D01*
X131961259Y-111239394D01*
X132013920Y-111330606D01*
X132088394Y-111405080D01*
X132179606Y-111457741D01*
X132281339Y-111485000D01*
X132287553Y-111485000D01*
X131608076Y-112164474D01*
X131652650Y-112196859D01*
X131834968Y-112289755D01*
X132029582Y-112352990D01*
X132231683Y-112385000D01*
X132436317Y-112385000D01*
X132638417Y-112352990D01*
X132833031Y-112289755D01*
X133015349Y-112196859D01*
X133059921Y-112164474D01*
X132380447Y-111485000D01*
X132386661Y-111485000D01*
X132488394Y-111457741D01*
X132579606Y-111405080D01*
X132654080Y-111330606D01*
X132706741Y-111239394D01*
X132734000Y-111137661D01*
X132734000Y-111131447D01*
X133413474Y-111810921D01*
X133445859Y-111766349D01*
X133538755Y-111584031D01*
X133601990Y-111389417D01*
X133634000Y-111187317D01*
X133634000Y-110982682D01*
X133601990Y-110780582D01*
X133538755Y-110585968D01*
X133445859Y-110403650D01*
X133413474Y-110359077D01*
X133413474Y-110359076D01*
X132734000Y-111038551D01*
X132734000Y-111032339D01*
X132706741Y-110930606D01*
X132654080Y-110839394D01*
X132579606Y-110764920D01*
X132488394Y-110712259D01*
X132386661Y-110685000D01*
X132380446Y-110685000D01*
X132804798Y-110260648D01*
X137383500Y-110260648D01*
X137383500Y-110465351D01*
X137415522Y-110667534D01*
X137478781Y-110862223D01*
X137530135Y-110963009D01*
X137569252Y-111039781D01*
X137571715Y-111044613D01*
X137692028Y-111210213D01*
X137836786Y-111354971D01*
X137957226Y-111442474D01*
X138002390Y-111475287D01*
X138118607Y-111534503D01*
X138184776Y-111568218D01*
X138184778Y-111568218D01*
X138184781Y-111568220D01*
X138275856Y-111597812D01*
X138379465Y-111631477D01*
X138480557Y-111647488D01*
X138581648Y-111663500D01*
X138581649Y-111663500D01*
X138786351Y-111663500D01*
X138786352Y-111663500D01*
X138988534Y-111631477D01*
X139183219Y-111568220D01*
X139365610Y-111475287D01*
X139494482Y-111381657D01*
X139531213Y-111354971D01*
X139531215Y-111354968D01*
X139531219Y-111354966D01*
X139675966Y-111210219D01*
X139675968Y-111210215D01*
X139675971Y-111210213D01*
X139753925Y-111102917D01*
X139796287Y-111044610D01*
X139889220Y-110862219D01*
X139952477Y-110667534D01*
X139984500Y-110465352D01*
X139984500Y-110260648D01*
X139976257Y-110208606D01*
X139952477Y-110058465D01*
X139903173Y-109906725D01*
X139889220Y-109863781D01*
X139889218Y-109863778D01*
X139889218Y-109863776D01*
X139837865Y-109762991D01*
X139796287Y-109681390D01*
X139764092Y-109637077D01*
X139675971Y-109515786D01*
X139531213Y-109371028D01*
X139365613Y-109250715D01*
X139365612Y-109250714D01*
X139365610Y-109250713D01*
X139305898Y-109220288D01*
X139183223Y-109157781D01*
X138988534Y-109094522D01*
X138813995Y-109066878D01*
X138786352Y-109062500D01*
X138581648Y-109062500D01*
X138557329Y-109066351D01*
X138379465Y-109094522D01*
X138184776Y-109157781D01*
X138002386Y-109250715D01*
X137836786Y-109371028D01*
X137692028Y-109515786D01*
X137571715Y-109681386D01*
X137478781Y-109863776D01*
X137415522Y-110058465D01*
X137383500Y-110260648D01*
X132804798Y-110260648D01*
X133059922Y-110005524D01*
X133059921Y-110005523D01*
X133015359Y-109973147D01*
X133015350Y-109973141D01*
X132961621Y-109945765D01*
X132910825Y-109897791D01*
X132894030Y-109829970D01*
X132916567Y-109763835D01*
X132961621Y-109724795D01*
X133015610Y-109697287D01*
X133066652Y-109660203D01*
X133181213Y-109576971D01*
X133181215Y-109576968D01*
X133181219Y-109576966D01*
X133325966Y-109432219D01*
X133325968Y-109432215D01*
X133325971Y-109432213D01*
X133433998Y-109283524D01*
X133446287Y-109266610D01*
X133539220Y-109084219D01*
X133602477Y-108889534D01*
X133634500Y-108687352D01*
X133634500Y-108482648D01*
X133602477Y-108280466D01*
X133539220Y-108085781D01*
X133539218Y-108085778D01*
X133539218Y-108085776D01*
X133505503Y-108019607D01*
X133446287Y-107903390D01*
X133438556Y-107892749D01*
X133325971Y-107737786D01*
X133181213Y-107593028D01*
X133015613Y-107472715D01*
X133015612Y-107472714D01*
X133015610Y-107472713D01*
X132951388Y-107439990D01*
X132833223Y-107379781D01*
X132655840Y-107322146D01*
X132638534Y-107316522D01*
X132463995Y-107288878D01*
X132436352Y-107284500D01*
X132231648Y-107284500D01*
X132207329Y-107288351D01*
X132029465Y-107316522D01*
X131834776Y-107379781D01*
X131652386Y-107472715D01*
X131486786Y-107593028D01*
X131342028Y-107737786D01*
X131221715Y-107903386D01*
X131128781Y-108085776D01*
X131065522Y-108280465D01*
X131033500Y-108482648D01*
X116000000Y-108482648D01*
X116000000Y-90791135D01*
X117649500Y-90791135D01*
X117649500Y-92586870D01*
X117649501Y-92586876D01*
X117655908Y-92646483D01*
X117706202Y-92781328D01*
X117706206Y-92781335D01*
X117792452Y-92896544D01*
X117792455Y-92896547D01*
X117907664Y-92982793D01*
X117907671Y-92982797D01*
X117952618Y-92999561D01*
X118042517Y-93033091D01*
X118102127Y-93039500D01*
X118112685Y-93039499D01*
X118179723Y-93059179D01*
X118200372Y-93075818D01*
X118870591Y-93746037D01*
X118807007Y-93763075D01*
X118692993Y-93828901D01*
X118599901Y-93921993D01*
X118534075Y-94036007D01*
X118517037Y-94099591D01*
X117884728Y-93467282D01*
X117884727Y-93467282D01*
X117845380Y-93521439D01*
X117748904Y-93710782D01*
X117683242Y-93912869D01*
X117683242Y-93912872D01*
X117650000Y-94122753D01*
X117650000Y-94335246D01*
X117683242Y-94545127D01*
X117683242Y-94545130D01*
X117748904Y-94747217D01*
X117845375Y-94936550D01*
X117884728Y-94990716D01*
X118517037Y-94358408D01*
X118534075Y-94421993D01*
X118599901Y-94536007D01*
X118692993Y-94629099D01*
X118807007Y-94694925D01*
X118870590Y-94711962D01*
X118238282Y-95344269D01*
X118238282Y-95344270D01*
X118292449Y-95383624D01*
X118481782Y-95480095D01*
X118683870Y-95545757D01*
X118893754Y-95579000D01*
X119106246Y-95579000D01*
X119316127Y-95545757D01*
X119316130Y-95545757D01*
X119518217Y-95480095D01*
X119707554Y-95383622D01*
X119761716Y-95344270D01*
X119761717Y-95344270D01*
X119129408Y-94711962D01*
X119192993Y-94694925D01*
X119307007Y-94629099D01*
X119400099Y-94536007D01*
X119465925Y-94421993D01*
X119482962Y-94358409D01*
X120115270Y-94990717D01*
X120115270Y-94990716D01*
X120154622Y-94936554D01*
X120251095Y-94747217D01*
X120316757Y-94545130D01*
X120316757Y-94545127D01*
X120350000Y-94335246D01*
X120350000Y-94122753D01*
X120316757Y-93912872D01*
X120316757Y-93912869D01*
X120251095Y-93710782D01*
X120174348Y-93560159D01*
X120154624Y-93521449D01*
X120115270Y-93467282D01*
X120115269Y-93467282D01*
X119482962Y-94099590D01*
X119465925Y-94036007D01*
X119400099Y-93921993D01*
X119307007Y-93828901D01*
X119192993Y-93763075D01*
X119129409Y-93746037D01*
X119799627Y-93075818D01*
X119860950Y-93042333D01*
X119887307Y-93039499D01*
X119897872Y-93039499D01*
X119957483Y-93033091D01*
X120092331Y-92982796D01*
X120207546Y-92896546D01*
X120293796Y-92781331D01*
X120344091Y-92646483D01*
X120350500Y-92586873D01*
X120350500Y-92413500D01*
X120370185Y-92346461D01*
X120422989Y-92300706D01*
X120474500Y-92289500D01*
X129620903Y-92289500D01*
X129687942Y-92309185D01*
X129708584Y-92325819D01*
X131044922Y-93662157D01*
X131078407Y-93723480D01*
X131075173Y-93788155D01*
X131070522Y-93802468D01*
X131038500Y-94004648D01*
X131038500Y-94209351D01*
X131070522Y-94411534D01*
X131075173Y-94425848D01*
X131077165Y-94495690D01*
X131044921Y-94551842D01*
X126231181Y-99365583D01*
X126169858Y-99399068D01*
X126100166Y-99394084D01*
X126044233Y-99352212D01*
X126019816Y-99286748D01*
X126019500Y-99277902D01*
X126019500Y-99084648D01*
X125987477Y-98882465D01*
X125924218Y-98687776D01*
X125890503Y-98621607D01*
X125831287Y-98505390D01*
X125823556Y-98494749D01*
X125710971Y-98339786D01*
X125566213Y-98195028D01*
X125400614Y-98074715D01*
X125357556Y-98052776D01*
X125307917Y-98027483D01*
X125257123Y-97979511D01*
X125240328Y-97911690D01*
X125262865Y-97845555D01*
X125307917Y-97806516D01*
X125400610Y-97759287D01*
X125475632Y-97704781D01*
X125566213Y-97638971D01*
X125566215Y-97638968D01*
X125566219Y-97638966D01*
X125710966Y-97494219D01*
X125710968Y-97494215D01*
X125710971Y-97494213D01*
X125763732Y-97421590D01*
X125831287Y-97328610D01*
X125924220Y-97146219D01*
X125987477Y-96951534D01*
X126019500Y-96749352D01*
X126019500Y-96544648D01*
X126011789Y-96495966D01*
X125987477Y-96342465D01*
X125930801Y-96168036D01*
X125924220Y-96147781D01*
X125924218Y-96147778D01*
X125924218Y-96147776D01*
X125876327Y-96053786D01*
X125831287Y-95965390D01*
X125790813Y-95909682D01*
X125710971Y-95799786D01*
X125566217Y-95655032D01*
X125566212Y-95655028D01*
X125472051Y-95586616D01*
X125429385Y-95531286D01*
X125423406Y-95461673D01*
X125456012Y-95399878D01*
X125505933Y-95368592D01*
X125588117Y-95341359D01*
X125588124Y-95341356D01*
X125737345Y-95249315D01*
X125861315Y-95125345D01*
X125953356Y-94976124D01*
X125953358Y-94976119D01*
X126008505Y-94809697D01*
X126008506Y-94809690D01*
X126018999Y-94706986D01*
X126019000Y-94706973D01*
X126019000Y-94357000D01*
X125034686Y-94357000D01*
X125039080Y-94352606D01*
X125091741Y-94261394D01*
X125119000Y-94159661D01*
X125119000Y-94054339D01*
X125091741Y-93952606D01*
X125039080Y-93861394D01*
X125034686Y-93857000D01*
X126018999Y-93857000D01*
X126018999Y-93507028D01*
X126018998Y-93507013D01*
X126008505Y-93404302D01*
X125953358Y-93237880D01*
X125953356Y-93237875D01*
X125861315Y-93088654D01*
X125737345Y-92964684D01*
X125588124Y-92872643D01*
X125588119Y-92872641D01*
X125421697Y-92817494D01*
X125421690Y-92817493D01*
X125318986Y-92807000D01*
X124969000Y-92807000D01*
X124969000Y-93791314D01*
X124964606Y-93786920D01*
X124873394Y-93734259D01*
X124771661Y-93707000D01*
X124666339Y-93707000D01*
X124564606Y-93734259D01*
X124473394Y-93786920D01*
X124469000Y-93791314D01*
X124469000Y-92807000D01*
X124119028Y-92807000D01*
X124119012Y-92807001D01*
X124016302Y-92817494D01*
X123849880Y-92872641D01*
X123849875Y-92872643D01*
X123700654Y-92964684D01*
X123576684Y-93088654D01*
X123484643Y-93237875D01*
X123484641Y-93237880D01*
X123429494Y-93404302D01*
X123429493Y-93404309D01*
X123419000Y-93507013D01*
X123419000Y-93857000D01*
X124403314Y-93857000D01*
X124398920Y-93861394D01*
X124346259Y-93952606D01*
X124319000Y-94054339D01*
X124319000Y-94159661D01*
X124346259Y-94261394D01*
X124398920Y-94352606D01*
X124403314Y-94357000D01*
X123419001Y-94357000D01*
X123419001Y-94706986D01*
X123429494Y-94809697D01*
X123484641Y-94976119D01*
X123484643Y-94976124D01*
X123576684Y-95125345D01*
X123700654Y-95249315D01*
X123849875Y-95341356D01*
X123849882Y-95341359D01*
X123932067Y-95368592D01*
X123989512Y-95408364D01*
X124016336Y-95472880D01*
X124004021Y-95541656D01*
X123965949Y-95586616D01*
X123871787Y-95655028D01*
X123871782Y-95655032D01*
X123727028Y-95799786D01*
X123606715Y-95965386D01*
X123513781Y-96147776D01*
X123450522Y-96342465D01*
X123418500Y-96544648D01*
X123418500Y-96749351D01*
X123450522Y-96951534D01*
X123513781Y-97146223D01*
X123567423Y-97251500D01*
X123585526Y-97287029D01*
X123606715Y-97328613D01*
X123727028Y-97494213D01*
X123871786Y-97638971D01*
X124022148Y-97748213D01*
X124037390Y-97759287D01*
X124128840Y-97805883D01*
X124130080Y-97806515D01*
X124180876Y-97854490D01*
X124197671Y-97922311D01*
X124175134Y-97988446D01*
X124130080Y-98027485D01*
X124037386Y-98074715D01*
X123871786Y-98195028D01*
X123727028Y-98339786D01*
X123606715Y-98505386D01*
X123513781Y-98687776D01*
X123450522Y-98882465D01*
X123418500Y-99084648D01*
X123418500Y-99289351D01*
X123450522Y-99491534D01*
X123513781Y-99686223D01*
X123606715Y-99868613D01*
X123727028Y-100034213D01*
X123871786Y-100178971D01*
X124026749Y-100291556D01*
X124037390Y-100299287D01*
X124128840Y-100345883D01*
X124130080Y-100346515D01*
X124180876Y-100394490D01*
X124197671Y-100462311D01*
X124175134Y-100528446D01*
X124130080Y-100567485D01*
X124037386Y-100614715D01*
X123871786Y-100735028D01*
X123727028Y-100879786D01*
X123606715Y-101045386D01*
X123513781Y-101227776D01*
X123450522Y-101422465D01*
X123423824Y-101591031D01*
X123418500Y-101624648D01*
X123418500Y-101829352D01*
X123418886Y-101831789D01*
X123450522Y-102031534D01*
X123513781Y-102226223D01*
X123567423Y-102331500D01*
X123601704Y-102398780D01*
X123606715Y-102408613D01*
X123727028Y-102574213D01*
X123871786Y-102718971D01*
X124022427Y-102828416D01*
X124037390Y-102839287D01*
X124153607Y-102898503D01*
X124219776Y-102932218D01*
X124219778Y-102932218D01*
X124219781Y-102932220D01*
X124276503Y-102950650D01*
X124414465Y-102995477D01*
X124515557Y-103011488D01*
X124616648Y-103027500D01*
X124616649Y-103027500D01*
X124821351Y-103027500D01*
X124821352Y-103027500D01*
X125023534Y-102995477D01*
X125218219Y-102932220D01*
X125400610Y-102839287D01*
X125514171Y-102756781D01*
X125566213Y-102718971D01*
X125566215Y-102718968D01*
X125566219Y-102718966D01*
X125710966Y-102574219D01*
X125710968Y-102574215D01*
X125710971Y-102574213D01*
X125789020Y-102466786D01*
X125831287Y-102408610D01*
X125924220Y-102226219D01*
X125987477Y-102031534D01*
X126019500Y-101829352D01*
X126019500Y-101624648D01*
X126014176Y-101591031D01*
X125987478Y-101422472D01*
X125987477Y-101422471D01*
X125987477Y-101422466D01*
X125982825Y-101408151D01*
X125980832Y-101338312D01*
X126013075Y-101282158D01*
X130826819Y-96468415D01*
X130888142Y-96434930D01*
X130957834Y-96439914D01*
X131013767Y-96481786D01*
X131038184Y-96547250D01*
X131038500Y-96556096D01*
X131038500Y-96749351D01*
X131070522Y-96951534D01*
X131133781Y-97146223D01*
X131187423Y-97251500D01*
X131205526Y-97287029D01*
X131226715Y-97328613D01*
X131347028Y-97494213D01*
X131491786Y-97638971D01*
X131642148Y-97748213D01*
X131657390Y-97759287D01*
X131748840Y-97805883D01*
X131750080Y-97806515D01*
X131800876Y-97854490D01*
X131817671Y-97922311D01*
X131795134Y-97988446D01*
X131750080Y-98027485D01*
X131657386Y-98074715D01*
X131491786Y-98195028D01*
X131347028Y-98339786D01*
X131226715Y-98505386D01*
X131133781Y-98687776D01*
X131070522Y-98882465D01*
X131038500Y-99084648D01*
X131038500Y-99289351D01*
X131070522Y-99491534D01*
X131133781Y-99686223D01*
X131226715Y-99868613D01*
X131347028Y-100034213D01*
X131491786Y-100178971D01*
X131646749Y-100291556D01*
X131657390Y-100299287D01*
X131748840Y-100345883D01*
X131750080Y-100346515D01*
X131800876Y-100394490D01*
X131817671Y-100462311D01*
X131795134Y-100528446D01*
X131750080Y-100567485D01*
X131657386Y-100614715D01*
X131491786Y-100735028D01*
X131347028Y-100879786D01*
X131226715Y-101045386D01*
X131133781Y-101227776D01*
X131070522Y-101422465D01*
X131043824Y-101591031D01*
X131038500Y-101624648D01*
X131038500Y-101829352D01*
X131038886Y-101831789D01*
X131070522Y-102031534D01*
X131133781Y-102226223D01*
X131187423Y-102331500D01*
X131221704Y-102398780D01*
X131226715Y-102408613D01*
X131347028Y-102574213D01*
X131491786Y-102718971D01*
X131642427Y-102828416D01*
X131657390Y-102839287D01*
X131773607Y-102898503D01*
X131839776Y-102932218D01*
X131839778Y-102932218D01*
X131839781Y-102932220D01*
X131896503Y-102950650D01*
X132034465Y-102995477D01*
X132135557Y-103011488D01*
X132236648Y-103027500D01*
X132236649Y-103027500D01*
X132441351Y-103027500D01*
X132441352Y-103027500D01*
X132643534Y-102995477D01*
X132838219Y-102932220D01*
X133020610Y-102839287D01*
X133134171Y-102756781D01*
X133186213Y-102718971D01*
X133186215Y-102718968D01*
X133186219Y-102718966D01*
X133330966Y-102574219D01*
X133330968Y-102574215D01*
X133330971Y-102574213D01*
X133409020Y-102466786D01*
X133451287Y-102408610D01*
X133544220Y-102226219D01*
X133607477Y-102031534D01*
X133639500Y-101829352D01*
X133639500Y-101624648D01*
X133634176Y-101591031D01*
X133607477Y-101422465D01*
X133578127Y-101332137D01*
X133544220Y-101227781D01*
X133544218Y-101227778D01*
X133544218Y-101227776D01*
X133501868Y-101144661D01*
X133451287Y-101045390D01*
X133410813Y-100989682D01*
X133330971Y-100879786D01*
X133186213Y-100735028D01*
X133020614Y-100614715D01*
X132977556Y-100592776D01*
X132927917Y-100567483D01*
X132877123Y-100519511D01*
X132860328Y-100451690D01*
X132882865Y-100385555D01*
X132927917Y-100346516D01*
X133020610Y-100299287D01*
X133095632Y-100244781D01*
X133186213Y-100178971D01*
X133186215Y-100178968D01*
X133186219Y-100178966D01*
X133264537Y-100100648D01*
X137383500Y-100100648D01*
X137383500Y-100305351D01*
X137415522Y-100507534D01*
X137478781Y-100702223D01*
X137540055Y-100822477D01*
X137569252Y-100879781D01*
X137571715Y-100884613D01*
X137692028Y-101050213D01*
X137836786Y-101194971D01*
X137991749Y-101307556D01*
X138002390Y-101315287D01*
X138118607Y-101374503D01*
X138184776Y-101408218D01*
X138184778Y-101408218D01*
X138184781Y-101408220D01*
X138289137Y-101442127D01*
X138379465Y-101471477D01*
X138480557Y-101487488D01*
X138581648Y-101503500D01*
X138581649Y-101503500D01*
X138786351Y-101503500D01*
X138786352Y-101503500D01*
X138988534Y-101471477D01*
X139183219Y-101408220D01*
X139365610Y-101315287D01*
X139486060Y-101227776D01*
X139531213Y-101194971D01*
X139531215Y-101194968D01*
X139531219Y-101194966D01*
X139675966Y-101050219D01*
X139675968Y-101050215D01*
X139675971Y-101050213D01*
X139768236Y-100923219D01*
X139796287Y-100884610D01*
X139889220Y-100702219D01*
X139952477Y-100507534D01*
X139984500Y-100305352D01*
X139984500Y-100100648D01*
X139984402Y-100100028D01*
X139952477Y-99898465D01*
X139889218Y-99703776D01*
X139824510Y-99576781D01*
X139796287Y-99521390D01*
X139745617Y-99451648D01*
X139675971Y-99355786D01*
X139531213Y-99211028D01*
X139365613Y-99090715D01*
X139365612Y-99090714D01*
X139365610Y-99090713D01*
X139288099Y-99051219D01*
X139183223Y-98997781D01*
X138988534Y-98934522D01*
X138813995Y-98906878D01*
X138786352Y-98902500D01*
X138581648Y-98902500D01*
X138557329Y-98906351D01*
X138379465Y-98934522D01*
X138184776Y-98997781D01*
X138002386Y-99090715D01*
X137836786Y-99211028D01*
X137692028Y-99355786D01*
X137571715Y-99521386D01*
X137478781Y-99703776D01*
X137415522Y-99898465D01*
X137383500Y-100100648D01*
X133264537Y-100100648D01*
X133330966Y-100034219D01*
X133330970Y-100034213D01*
X133339196Y-100022892D01*
X133339196Y-100022891D01*
X133370254Y-99980143D01*
X133451287Y-99868610D01*
X133544220Y-99686219D01*
X133607477Y-99491534D01*
X133639500Y-99289352D01*
X133639500Y-99084648D01*
X133620346Y-98963715D01*
X133607477Y-98882465D01*
X133544218Y-98687776D01*
X133493324Y-98587893D01*
X133451287Y-98505390D01*
X133451285Y-98505387D01*
X133451284Y-98505385D01*
X133330971Y-98339786D01*
X133186213Y-98195028D01*
X133020614Y-98074715D01*
X132977556Y-98052776D01*
X132927917Y-98027483D01*
X132877123Y-97979511D01*
X132860328Y-97911690D01*
X132882865Y-97845555D01*
X132927917Y-97806516D01*
X133020610Y-97759287D01*
X133095632Y-97704781D01*
X133186213Y-97638971D01*
X133186215Y-97638968D01*
X133186219Y-97638966D01*
X133330966Y-97494219D01*
X133330968Y-97494215D01*
X133330971Y-97494213D01*
X133383732Y-97421590D01*
X133451287Y-97328610D01*
X133544220Y-97146219D01*
X133607477Y-96951534D01*
X133631692Y-96798648D01*
X137383500Y-96798648D01*
X137383500Y-97003351D01*
X137415522Y-97205534D01*
X137478781Y-97400223D01*
X137571715Y-97582613D01*
X137692028Y-97748213D01*
X137836786Y-97892971D01*
X137955901Y-97979511D01*
X138002390Y-98013287D01*
X138118607Y-98072503D01*
X138184776Y-98106218D01*
X138184778Y-98106218D01*
X138184781Y-98106220D01*
X138289137Y-98140127D01*
X138379465Y-98169477D01*
X138480557Y-98185488D01*
X138581648Y-98201500D01*
X138581649Y-98201500D01*
X138786351Y-98201500D01*
X138786352Y-98201500D01*
X138988534Y-98169477D01*
X139183219Y-98106220D01*
X139365610Y-98013287D01*
X139498139Y-97917000D01*
X139531213Y-97892971D01*
X139531215Y-97892968D01*
X139531219Y-97892966D01*
X139675966Y-97748219D01*
X139675968Y-97748215D01*
X139675971Y-97748213D01*
X139728732Y-97675590D01*
X139796287Y-97582610D01*
X139889220Y-97400219D01*
X139952477Y-97205534D01*
X139984500Y-97003352D01*
X139984500Y-96798648D01*
X139970336Y-96709220D01*
X139952477Y-96596465D01*
X139899991Y-96434930D01*
X139889220Y-96401781D01*
X139889218Y-96401778D01*
X139889218Y-96401776D01*
X139855503Y-96335607D01*
X139796287Y-96219390D01*
X139783086Y-96201220D01*
X139675971Y-96053786D01*
X139531213Y-95909028D01*
X139365613Y-95788715D01*
X139365612Y-95788714D01*
X139365610Y-95788713D01*
X139308653Y-95759691D01*
X139183223Y-95695781D01*
X138988534Y-95632522D01*
X138813995Y-95604878D01*
X138786352Y-95600500D01*
X138581648Y-95600500D01*
X138557329Y-95604351D01*
X138379465Y-95632522D01*
X138184776Y-95695781D01*
X138002386Y-95788715D01*
X137836786Y-95909028D01*
X137692028Y-96053786D01*
X137571715Y-96219386D01*
X137478781Y-96401776D01*
X137415522Y-96596465D01*
X137383500Y-96798648D01*
X133631692Y-96798648D01*
X133639500Y-96749352D01*
X133639500Y-96544648D01*
X133631789Y-96495966D01*
X133607477Y-96342465D01*
X133550801Y-96168036D01*
X133544220Y-96147781D01*
X133544218Y-96147778D01*
X133544218Y-96147776D01*
X133496327Y-96053786D01*
X133451287Y-95965390D01*
X133410813Y-95909682D01*
X133330971Y-95799786D01*
X133186213Y-95655028D01*
X133020614Y-95534715D01*
X132977556Y-95512776D01*
X132927917Y-95487483D01*
X132877123Y-95439511D01*
X132860328Y-95371690D01*
X132882865Y-95305555D01*
X132927917Y-95266516D01*
X133020610Y-95219287D01*
X133041770Y-95203913D01*
X133186213Y-95098971D01*
X133186215Y-95098968D01*
X133186219Y-95098966D01*
X133330966Y-94954219D01*
X133330968Y-94954215D01*
X133330971Y-94954213D01*
X133404879Y-94852485D01*
X133451287Y-94788610D01*
X133544220Y-94606219D01*
X133607477Y-94411534D01*
X133639500Y-94209352D01*
X133639500Y-94004648D01*
X133620346Y-93883715D01*
X133607477Y-93802465D01*
X133576458Y-93707000D01*
X133544220Y-93607781D01*
X133544218Y-93607778D01*
X133544218Y-93607776D01*
X133451286Y-93425387D01*
X133330971Y-93259786D01*
X133186213Y-93115028D01*
X133020613Y-92994715D01*
X133020612Y-92994714D01*
X133020610Y-92994713D01*
X132943099Y-92955219D01*
X132838223Y-92901781D01*
X132643534Y-92838522D01*
X132468995Y-92810878D01*
X132441352Y-92806500D01*
X132236648Y-92806500D01*
X132198599Y-92812526D01*
X132034468Y-92838522D01*
X132025717Y-92841365D01*
X132020154Y-92843173D01*
X131950313Y-92845167D01*
X131894157Y-92812922D01*
X130408590Y-91327355D01*
X130408588Y-91327352D01*
X130289717Y-91208481D01*
X130289716Y-91208480D01*
X130187500Y-91149466D01*
X130152785Y-91129423D01*
X130000057Y-91088499D01*
X129841943Y-91088499D01*
X129834347Y-91088499D01*
X129834331Y-91088500D01*
X120474499Y-91088500D01*
X120407460Y-91068815D01*
X120361705Y-91016011D01*
X120350499Y-90964500D01*
X120350499Y-90791129D01*
X120350498Y-90791123D01*
X120350497Y-90791116D01*
X120344091Y-90731517D01*
X120310223Y-90640713D01*
X120293797Y-90596671D01*
X120293793Y-90596664D01*
X120207547Y-90481456D01*
X120207548Y-90481456D01*
X120207546Y-90481454D01*
X120092331Y-90395204D01*
X120092328Y-90395202D01*
X119957482Y-90344908D01*
X119957483Y-90344908D01*
X119897883Y-90338501D01*
X119897881Y-90338500D01*
X119897873Y-90338500D01*
X119897864Y-90338500D01*
X118102129Y-90338500D01*
X118102123Y-90338501D01*
X118042516Y-90344908D01*
X117907671Y-90395202D01*
X117907664Y-90395206D01*
X117792455Y-90481452D01*
X117792452Y-90481455D01*
X117706206Y-90596664D01*
X117706202Y-90596671D01*
X117655908Y-90731517D01*
X117650108Y-90785471D01*
X117649501Y-90791123D01*
X117649500Y-90791135D01*
X116000000Y-90791135D01*
X116000000Y-90331983D01*
X146908500Y-90331983D01*
X146908500Y-91532001D01*
X146908501Y-91532018D01*
X146919000Y-91634796D01*
X146919001Y-91634799D01*
X146960003Y-91758534D01*
X146974186Y-91801334D01*
X147066288Y-91950656D01*
X147190344Y-92074712D01*
X147339666Y-92166814D01*
X147422152Y-92194147D01*
X147479597Y-92233920D01*
X147506420Y-92298436D01*
X147494105Y-92367212D01*
X147484143Y-92378975D01*
X147483077Y-92392524D01*
X148162554Y-93072000D01*
X148156339Y-93072000D01*
X148054606Y-93099259D01*
X147963394Y-93151920D01*
X147888920Y-93226394D01*
X147836259Y-93317606D01*
X147809000Y-93419339D01*
X147809000Y-93425553D01*
X147129524Y-92746077D01*
X147129523Y-92746077D01*
X147097143Y-92790644D01*
X147004244Y-92972968D01*
X146941009Y-93167582D01*
X146909000Y-93369682D01*
X146909000Y-93574317D01*
X146941009Y-93776417D01*
X147004244Y-93971031D01*
X147097141Y-94153350D01*
X147097147Y-94153359D01*
X147129523Y-94197921D01*
X147129524Y-94197922D01*
X147809000Y-93518446D01*
X147809000Y-93524661D01*
X147836259Y-93626394D01*
X147888920Y-93717606D01*
X147963394Y-93792080D01*
X148054606Y-93844741D01*
X148156339Y-93872000D01*
X148162553Y-93872000D01*
X147483076Y-94551474D01*
X147527650Y-94583859D01*
X147621180Y-94631515D01*
X147671976Y-94679489D01*
X147688771Y-94747310D01*
X147666234Y-94813445D01*
X147621180Y-94852485D01*
X147527644Y-94900143D01*
X147483077Y-94932523D01*
X147483077Y-94932524D01*
X148162554Y-95612000D01*
X148156339Y-95612000D01*
X148054606Y-95639259D01*
X147963394Y-95691920D01*
X147888920Y-95766394D01*
X147836259Y-95857606D01*
X147809000Y-95959339D01*
X147809000Y-95965553D01*
X147129524Y-95286077D01*
X147129523Y-95286077D01*
X147097143Y-95330644D01*
X147004244Y-95512968D01*
X146941009Y-95707582D01*
X146909000Y-95909682D01*
X146909000Y-96114317D01*
X146941009Y-96316417D01*
X147004244Y-96511031D01*
X147097141Y-96693350D01*
X147097147Y-96693359D01*
X147129523Y-96737921D01*
X147129524Y-96737922D01*
X147809000Y-96058446D01*
X147809000Y-96064661D01*
X147836259Y-96166394D01*
X147888920Y-96257606D01*
X147963394Y-96332080D01*
X148054606Y-96384741D01*
X148156339Y-96412000D01*
X148162553Y-96412000D01*
X147483076Y-97091474D01*
X147527652Y-97123861D01*
X147620628Y-97171234D01*
X147671425Y-97219208D01*
X147688220Y-97287029D01*
X147665683Y-97353164D01*
X147620630Y-97392203D01*
X147527388Y-97439713D01*
X147361786Y-97560028D01*
X147217028Y-97704786D01*
X147096715Y-97870386D01*
X147003781Y-98052776D01*
X146940522Y-98247465D01*
X146908500Y-98449648D01*
X146908500Y-98654351D01*
X146940522Y-98856534D01*
X147003781Y-99051223D01*
X147023903Y-99090713D01*
X147094252Y-99228781D01*
X147096715Y-99233613D01*
X147217028Y-99399213D01*
X147361786Y-99543971D01*
X147516467Y-99656351D01*
X147527390Y-99664287D01*
X147618840Y-99710883D01*
X147620080Y-99711515D01*
X147670876Y-99759490D01*
X147687671Y-99827311D01*
X147665134Y-99893446D01*
X147620080Y-99932485D01*
X147527386Y-99979715D01*
X147361786Y-100100028D01*
X147217028Y-100244786D01*
X147096715Y-100410386D01*
X147003781Y-100592776D01*
X146940522Y-100787465D01*
X146908500Y-100989648D01*
X146908500Y-101194351D01*
X146940522Y-101396534D01*
X147003781Y-101591223D01*
X147067691Y-101716653D01*
X147096585Y-101773359D01*
X147096715Y-101773613D01*
X147217028Y-101939213D01*
X147361786Y-102083971D01*
X147527385Y-102204284D01*
X147527387Y-102204285D01*
X147527390Y-102204287D01*
X147619529Y-102251234D01*
X147620630Y-102251795D01*
X147671426Y-102299770D01*
X147688221Y-102367591D01*
X147665684Y-102433725D01*
X147620630Y-102472765D01*
X147527644Y-102520143D01*
X147483077Y-102552523D01*
X147483077Y-102552524D01*
X148162554Y-103232000D01*
X148156339Y-103232000D01*
X148054606Y-103259259D01*
X147963394Y-103311920D01*
X147888920Y-103386394D01*
X147836259Y-103477606D01*
X147809000Y-103579339D01*
X147809000Y-103585553D01*
X147129524Y-102906077D01*
X147129523Y-102906077D01*
X147097143Y-102950644D01*
X147004244Y-103132968D01*
X146941009Y-103327582D01*
X146909000Y-103529682D01*
X146909000Y-103734317D01*
X146941009Y-103936417D01*
X147004244Y-104131031D01*
X147097141Y-104313350D01*
X147097147Y-104313359D01*
X147129523Y-104357921D01*
X147129524Y-104357922D01*
X147809000Y-103678446D01*
X147809000Y-103684661D01*
X147836259Y-103786394D01*
X147888920Y-103877606D01*
X147963394Y-103952080D01*
X148054606Y-104004741D01*
X148156339Y-104032000D01*
X148162553Y-104032000D01*
X147483076Y-104711474D01*
X147527650Y-104743859D01*
X147621180Y-104791515D01*
X147671976Y-104839489D01*
X147688771Y-104907310D01*
X147666234Y-104973445D01*
X147621180Y-105012485D01*
X147527644Y-105060143D01*
X147483077Y-105092523D01*
X147483077Y-105092524D01*
X148162554Y-105772000D01*
X148156339Y-105772000D01*
X148054606Y-105799259D01*
X147963394Y-105851920D01*
X147888920Y-105926394D01*
X147836259Y-106017606D01*
X147809000Y-106119339D01*
X147809000Y-106125553D01*
X147129524Y-105446077D01*
X147129523Y-105446077D01*
X147097143Y-105490644D01*
X147004244Y-105672968D01*
X146941009Y-105867582D01*
X146909000Y-106069682D01*
X146909000Y-106274317D01*
X146941009Y-106476417D01*
X147004244Y-106671031D01*
X147097141Y-106853350D01*
X147097147Y-106853359D01*
X147129523Y-106897921D01*
X147129524Y-106897922D01*
X147809000Y-106218446D01*
X147809000Y-106224661D01*
X147836259Y-106326394D01*
X147888920Y-106417606D01*
X147963394Y-106492080D01*
X148054606Y-106544741D01*
X148156339Y-106572000D01*
X148162553Y-106572000D01*
X147483076Y-107251474D01*
X147527650Y-107283859D01*
X147709968Y-107376755D01*
X147904582Y-107439990D01*
X148106683Y-107472000D01*
X148311317Y-107472000D01*
X148513417Y-107439990D01*
X148708031Y-107376755D01*
X148890349Y-107283859D01*
X148934921Y-107251474D01*
X148255447Y-106572000D01*
X148261661Y-106572000D01*
X148363394Y-106544741D01*
X148454606Y-106492080D01*
X148529080Y-106417606D01*
X148581741Y-106326394D01*
X148609000Y-106224661D01*
X148609000Y-106218447D01*
X149288474Y-106897921D01*
X149320859Y-106853349D01*
X149413755Y-106671031D01*
X149476990Y-106476417D01*
X149509000Y-106274317D01*
X149509000Y-106069682D01*
X149476990Y-105867582D01*
X149413755Y-105672968D01*
X149320859Y-105490650D01*
X149288474Y-105446077D01*
X149288474Y-105446076D01*
X148609000Y-106125551D01*
X148609000Y-106119339D01*
X148581741Y-106017606D01*
X148529080Y-105926394D01*
X148454606Y-105851920D01*
X148363394Y-105799259D01*
X148261661Y-105772000D01*
X148255446Y-105772000D01*
X148934922Y-105092524D01*
X148934921Y-105092523D01*
X148890359Y-105060147D01*
X148890350Y-105060141D01*
X148796819Y-105012485D01*
X148746023Y-104964511D01*
X148729228Y-104896690D01*
X148751765Y-104830555D01*
X148796820Y-104791515D01*
X148890346Y-104743861D01*
X148890347Y-104743861D01*
X148934921Y-104711474D01*
X148255447Y-104032000D01*
X148261661Y-104032000D01*
X148363394Y-104004741D01*
X148454606Y-103952080D01*
X148529080Y-103877606D01*
X148581741Y-103786394D01*
X148609000Y-103684661D01*
X148609000Y-103678447D01*
X149288474Y-104357921D01*
X149320859Y-104313349D01*
X149413755Y-104131031D01*
X149476990Y-103936417D01*
X149509000Y-103734317D01*
X149509000Y-103529682D01*
X149476990Y-103327582D01*
X149413755Y-103132968D01*
X149320859Y-102950650D01*
X149288474Y-102906077D01*
X149288474Y-102906076D01*
X148609000Y-103585551D01*
X148609000Y-103579339D01*
X148581741Y-103477606D01*
X148529080Y-103386394D01*
X148454606Y-103311920D01*
X148363394Y-103259259D01*
X148261661Y-103232000D01*
X148255446Y-103232000D01*
X148934922Y-102552524D01*
X148934921Y-102552523D01*
X148890359Y-102520147D01*
X148890350Y-102520141D01*
X148797369Y-102472765D01*
X148746573Y-102424790D01*
X148729778Y-102356969D01*
X148752315Y-102290835D01*
X148797370Y-102251795D01*
X148798471Y-102251234D01*
X148890610Y-102204287D01*
X148957157Y-102155938D01*
X149056213Y-102083971D01*
X149056215Y-102083968D01*
X149056219Y-102083966D01*
X149200966Y-101939219D01*
X149200968Y-101939215D01*
X149200971Y-101939213D01*
X149279018Y-101831789D01*
X149321287Y-101773610D01*
X149414220Y-101591219D01*
X149477477Y-101396534D01*
X149509500Y-101194352D01*
X149509500Y-100989648D01*
X149492099Y-100879786D01*
X149477477Y-100787465D01*
X149446458Y-100692000D01*
X149414220Y-100592781D01*
X149414218Y-100592778D01*
X149414218Y-100592776D01*
X149360145Y-100486653D01*
X149321287Y-100410390D01*
X149308086Y-100392220D01*
X149200971Y-100244786D01*
X149056213Y-100100028D01*
X148890614Y-99979715D01*
X148878707Y-99973648D01*
X148797917Y-99932483D01*
X148747123Y-99884511D01*
X148730328Y-99816690D01*
X148752865Y-99750555D01*
X148797917Y-99711516D01*
X148890610Y-99664287D01*
X149011060Y-99576776D01*
X149056213Y-99543971D01*
X149056215Y-99543968D01*
X149056219Y-99543966D01*
X149200966Y-99399219D01*
X149200968Y-99399215D01*
X149200971Y-99399213D01*
X149289107Y-99277902D01*
X149321287Y-99233610D01*
X149414220Y-99051219D01*
X149477477Y-98856534D01*
X149509500Y-98654352D01*
X149509500Y-98449648D01*
X149492099Y-98339786D01*
X149477477Y-98247465D01*
X149431583Y-98106218D01*
X149414220Y-98052781D01*
X149414218Y-98052778D01*
X149414218Y-98052776D01*
X149347742Y-97922311D01*
X149321287Y-97870390D01*
X149308086Y-97852220D01*
X149200971Y-97704786D01*
X149056213Y-97560028D01*
X148890611Y-97439713D01*
X148797369Y-97392203D01*
X148746574Y-97344229D01*
X148729779Y-97276407D01*
X148752317Y-97210273D01*
X148797371Y-97171234D01*
X148890346Y-97123861D01*
X148890347Y-97123861D01*
X148934921Y-97091474D01*
X148255447Y-96412000D01*
X148261661Y-96412000D01*
X148363394Y-96384741D01*
X148454606Y-96332080D01*
X148529080Y-96257606D01*
X148581741Y-96166394D01*
X148609000Y-96064661D01*
X148609000Y-96058447D01*
X149288474Y-96737921D01*
X149320859Y-96693349D01*
X149413755Y-96511031D01*
X149476990Y-96316417D01*
X149509000Y-96114317D01*
X149509000Y-95909682D01*
X149476990Y-95707582D01*
X149413755Y-95512968D01*
X149320859Y-95330650D01*
X149288474Y-95286077D01*
X149288474Y-95286076D01*
X148609000Y-95965551D01*
X148609000Y-95959339D01*
X148581741Y-95857606D01*
X148529080Y-95766394D01*
X148454606Y-95691920D01*
X148363394Y-95639259D01*
X148261661Y-95612000D01*
X148255446Y-95612000D01*
X148934922Y-94932524D01*
X148934921Y-94932523D01*
X148890359Y-94900147D01*
X148890350Y-94900141D01*
X148796819Y-94852485D01*
X148746023Y-94804511D01*
X148729228Y-94736690D01*
X148751765Y-94670555D01*
X148796820Y-94631515D01*
X148890346Y-94583861D01*
X148890347Y-94583861D01*
X148934921Y-94551474D01*
X148255447Y-93872000D01*
X148261661Y-93872000D01*
X148363394Y-93844741D01*
X148454606Y-93792080D01*
X148529080Y-93717606D01*
X148581741Y-93626394D01*
X148609000Y-93524661D01*
X148609000Y-93518447D01*
X149288474Y-94197921D01*
X149320859Y-94153349D01*
X149413755Y-93971031D01*
X149476990Y-93776417D01*
X149509000Y-93574317D01*
X149509000Y-93369682D01*
X149476990Y-93167582D01*
X149413755Y-92972968D01*
X149320859Y-92790650D01*
X149288474Y-92746077D01*
X149288474Y-92746076D01*
X148609000Y-93425551D01*
X148609000Y-93419339D01*
X148581741Y-93317606D01*
X148529080Y-93226394D01*
X148454606Y-93151920D01*
X148363394Y-93099259D01*
X148261661Y-93072000D01*
X148255446Y-93072000D01*
X148934922Y-92392524D01*
X148933570Y-92375349D01*
X148919299Y-92356842D01*
X148913320Y-92287229D01*
X148945925Y-92225433D01*
X148995845Y-92194148D01*
X149078334Y-92166814D01*
X149227656Y-92074712D01*
X149351712Y-91950656D01*
X149443814Y-91801334D01*
X149498999Y-91634797D01*
X149509500Y-91532009D01*
X149509499Y-90829648D01*
X154528500Y-90829648D01*
X154528500Y-91034351D01*
X154560522Y-91236534D01*
X154623781Y-91431223D01*
X154675135Y-91532009D01*
X154714252Y-91608781D01*
X154716715Y-91613613D01*
X154837028Y-91779213D01*
X154981786Y-91923971D01*
X155136749Y-92036556D01*
X155147390Y-92044287D01*
X155238840Y-92090883D01*
X155240080Y-92091515D01*
X155290876Y-92139490D01*
X155307671Y-92207311D01*
X155285134Y-92273446D01*
X155240080Y-92312485D01*
X155147386Y-92359715D01*
X154981786Y-92480028D01*
X154837028Y-92624786D01*
X154716715Y-92790386D01*
X154623781Y-92972776D01*
X154560522Y-93167465D01*
X154528500Y-93369648D01*
X154528500Y-93574351D01*
X154560522Y-93776534D01*
X154623781Y-93971223D01*
X154687691Y-94096653D01*
X154716585Y-94153359D01*
X154716715Y-94153613D01*
X154837028Y-94319213D01*
X154981786Y-94463971D01*
X155102226Y-94551474D01*
X155147390Y-94584287D01*
X155235338Y-94629099D01*
X155240080Y-94631515D01*
X155290876Y-94679490D01*
X155307671Y-94747311D01*
X155285134Y-94813446D01*
X155240080Y-94852485D01*
X155147386Y-94899715D01*
X154981786Y-95020028D01*
X154837028Y-95164786D01*
X154716715Y-95330386D01*
X154623781Y-95512776D01*
X154560522Y-95707465D01*
X154528500Y-95909648D01*
X154528500Y-96114351D01*
X154560522Y-96316534D01*
X154623781Y-96511223D01*
X154677313Y-96616284D01*
X154716585Y-96693359D01*
X154716715Y-96693613D01*
X154837028Y-96859213D01*
X154981786Y-97003971D01*
X155102226Y-97091474D01*
X155147390Y-97124287D01*
X155238840Y-97170883D01*
X155240080Y-97171515D01*
X155290876Y-97219490D01*
X155307671Y-97287311D01*
X155285134Y-97353446D01*
X155240080Y-97392485D01*
X155147386Y-97439715D01*
X154981786Y-97560028D01*
X154837028Y-97704786D01*
X154716715Y-97870386D01*
X154623781Y-98052776D01*
X154560522Y-98247465D01*
X154528500Y-98449648D01*
X154528500Y-98654351D01*
X154560522Y-98856534D01*
X154623781Y-99051223D01*
X154643903Y-99090713D01*
X154714252Y-99228781D01*
X154716715Y-99233613D01*
X154837028Y-99399213D01*
X154981786Y-99543971D01*
X155147385Y-99664284D01*
X155147387Y-99664285D01*
X155147390Y-99664287D01*
X155240080Y-99711515D01*
X155240630Y-99711795D01*
X155291426Y-99759770D01*
X155308221Y-99827591D01*
X155285684Y-99893725D01*
X155240630Y-99932765D01*
X155147644Y-99980143D01*
X155103077Y-100012523D01*
X155103077Y-100012524D01*
X155782554Y-100692000D01*
X155776339Y-100692000D01*
X155674606Y-100719259D01*
X155583394Y-100771920D01*
X155508920Y-100846394D01*
X155456259Y-100937606D01*
X155429000Y-101039339D01*
X155429000Y-101045553D01*
X154749524Y-100366077D01*
X154749523Y-100366077D01*
X154717143Y-100410644D01*
X154624244Y-100592968D01*
X154561009Y-100787582D01*
X154529000Y-100989682D01*
X154529000Y-101194317D01*
X154561009Y-101396417D01*
X154624244Y-101591031D01*
X154717141Y-101773350D01*
X154717147Y-101773359D01*
X154749523Y-101817921D01*
X154749524Y-101817922D01*
X155429000Y-101138446D01*
X155429000Y-101144661D01*
X155456259Y-101246394D01*
X155508920Y-101337606D01*
X155583394Y-101412080D01*
X155674606Y-101464741D01*
X155776339Y-101492000D01*
X155782553Y-101492000D01*
X155103076Y-102171474D01*
X155147652Y-102203861D01*
X155240628Y-102251234D01*
X155291425Y-102299208D01*
X155308220Y-102367029D01*
X155285683Y-102433164D01*
X155240630Y-102472203D01*
X155147388Y-102519713D01*
X154981786Y-102640028D01*
X154837028Y-102784786D01*
X154716715Y-102950386D01*
X154623781Y-103132776D01*
X154560522Y-103327465D01*
X154528500Y-103529648D01*
X154528500Y-103734351D01*
X154560522Y-103936534D01*
X154623781Y-104131223D01*
X154684001Y-104249409D01*
X154716585Y-104313359D01*
X154716715Y-104313613D01*
X154837028Y-104479213D01*
X154981786Y-104623971D01*
X155102226Y-104711474D01*
X155147390Y-104744287D01*
X155238840Y-104790883D01*
X155240080Y-104791515D01*
X155290876Y-104839490D01*
X155307671Y-104907311D01*
X155285134Y-104973446D01*
X155240080Y-105012485D01*
X155147386Y-105059715D01*
X154981786Y-105180028D01*
X154837028Y-105324786D01*
X154716715Y-105490386D01*
X154623781Y-105672776D01*
X154560522Y-105867465D01*
X154535498Y-106025465D01*
X154528500Y-106069648D01*
X154528500Y-106274352D01*
X154532875Y-106301977D01*
X154560522Y-106476534D01*
X154623781Y-106671223D01*
X154675385Y-106772500D01*
X154716585Y-106853359D01*
X154716715Y-106853613D01*
X154837028Y-107019213D01*
X154981786Y-107163971D01*
X155102226Y-107251474D01*
X155147390Y-107284287D01*
X155223877Y-107323259D01*
X155329776Y-107377218D01*
X155329778Y-107377218D01*
X155329781Y-107377220D01*
X155373623Y-107391465D01*
X155524465Y-107440477D01*
X155587078Y-107450394D01*
X155726648Y-107472500D01*
X155726649Y-107472500D01*
X155931351Y-107472500D01*
X155931352Y-107472500D01*
X156133534Y-107440477D01*
X156328219Y-107377220D01*
X156510610Y-107284287D01*
X156603590Y-107216732D01*
X156676213Y-107163971D01*
X156676215Y-107163968D01*
X156676219Y-107163966D01*
X156820966Y-107019219D01*
X156820968Y-107019215D01*
X156820971Y-107019213D01*
X156941284Y-106853614D01*
X156941285Y-106853613D01*
X156941287Y-106853610D01*
X156948117Y-106840204D01*
X156996091Y-106789409D01*
X157058602Y-106772500D01*
X158028331Y-106772500D01*
X158028347Y-106772501D01*
X158035943Y-106772501D01*
X158194054Y-106772501D01*
X158194057Y-106772501D01*
X158346785Y-106731577D01*
X158396904Y-106702639D01*
X158483716Y-106652520D01*
X158595520Y-106540716D01*
X158595520Y-106540714D01*
X158605728Y-106530507D01*
X158605729Y-106530504D01*
X162532520Y-102603716D01*
X162611577Y-102466785D01*
X162652501Y-102314057D01*
X162652501Y-102155942D01*
X162652501Y-102148347D01*
X162652500Y-102148329D01*
X162652500Y-96947096D01*
X162672185Y-96880057D01*
X162688814Y-96859420D01*
X164730819Y-94817414D01*
X164792142Y-94783930D01*
X164861834Y-94788914D01*
X164917767Y-94830786D01*
X164942184Y-94896250D01*
X164942500Y-94905096D01*
X164942500Y-95098351D01*
X164974522Y-95300534D01*
X165037781Y-95495223D01*
X165084349Y-95586616D01*
X165120948Y-95658446D01*
X165130715Y-95677613D01*
X165251028Y-95843213D01*
X165395786Y-95987971D01*
X165501343Y-96064661D01*
X165561390Y-96108287D01*
X165652840Y-96154883D01*
X165654080Y-96155515D01*
X165704876Y-96203490D01*
X165721671Y-96271311D01*
X165699134Y-96337446D01*
X165654080Y-96376485D01*
X165561386Y-96423715D01*
X165395786Y-96544028D01*
X165251028Y-96688786D01*
X165130715Y-96854386D01*
X165037781Y-97036776D01*
X164974522Y-97231465D01*
X164942500Y-97433648D01*
X164942500Y-97638351D01*
X164974522Y-97840534D01*
X165037781Y-98035223D01*
X165130715Y-98217613D01*
X165251028Y-98383213D01*
X165395786Y-98527971D01*
X165550749Y-98640556D01*
X165561390Y-98648287D01*
X165652840Y-98694883D01*
X165654080Y-98695515D01*
X165704876Y-98743490D01*
X165721671Y-98811311D01*
X165699134Y-98877446D01*
X165654080Y-98916485D01*
X165561386Y-98963715D01*
X165395786Y-99084028D01*
X165251028Y-99228786D01*
X165130715Y-99394386D01*
X165037781Y-99576776D01*
X164974522Y-99771465D01*
X164942500Y-99973648D01*
X164942500Y-100178351D01*
X164974522Y-100380534D01*
X165037781Y-100575223D01*
X165097283Y-100692000D01*
X165120948Y-100738446D01*
X165130715Y-100757613D01*
X165251028Y-100923213D01*
X165395786Y-101067971D01*
X165501343Y-101144661D01*
X165561390Y-101188287D01*
X165652840Y-101234883D01*
X165654080Y-101235515D01*
X165704876Y-101283490D01*
X165721671Y-101351311D01*
X165699134Y-101417446D01*
X165654080Y-101456485D01*
X165561386Y-101503715D01*
X165395786Y-101624028D01*
X165251028Y-101768786D01*
X165130715Y-101934386D01*
X165037781Y-102116776D01*
X164974522Y-102311465D01*
X164942500Y-102513648D01*
X164942500Y-102718351D01*
X164974522Y-102920534D01*
X165037781Y-103115223D01*
X165097283Y-103232000D01*
X165120948Y-103278446D01*
X165130715Y-103297613D01*
X165251028Y-103463213D01*
X165395786Y-103607971D01*
X165501343Y-103684661D01*
X165561390Y-103728287D01*
X165652840Y-103774883D01*
X165654080Y-103775515D01*
X165704876Y-103823490D01*
X165721671Y-103891311D01*
X165699134Y-103957446D01*
X165654080Y-103996485D01*
X165561386Y-104043715D01*
X165395786Y-104164028D01*
X165251028Y-104308786D01*
X165130715Y-104474386D01*
X165037781Y-104656776D01*
X164974522Y-104851465D01*
X164942500Y-105053648D01*
X164942500Y-105258351D01*
X164974522Y-105460534D01*
X165037781Y-105655223D01*
X165068298Y-105715114D01*
X165120948Y-105818446D01*
X165130715Y-105837613D01*
X165251028Y-106003213D01*
X165395786Y-106147971D01*
X165561385Y-106268284D01*
X165561387Y-106268285D01*
X165561390Y-106268287D01*
X165654080Y-106315515D01*
X165654630Y-106315795D01*
X165705426Y-106363770D01*
X165722221Y-106431591D01*
X165699684Y-106497725D01*
X165654630Y-106536765D01*
X165561644Y-106584143D01*
X165517077Y-106616523D01*
X165517077Y-106616524D01*
X166196554Y-107296000D01*
X166190339Y-107296000D01*
X166088606Y-107323259D01*
X165997394Y-107375920D01*
X165922920Y-107450394D01*
X165870259Y-107541606D01*
X165843000Y-107643339D01*
X165843000Y-107649553D01*
X165163524Y-106970077D01*
X165163523Y-106970077D01*
X165131143Y-107014644D01*
X165038244Y-107196968D01*
X164975009Y-107391582D01*
X164943000Y-107593682D01*
X164943000Y-107798317D01*
X164975009Y-108000417D01*
X165038244Y-108195031D01*
X165131141Y-108377350D01*
X165131147Y-108377359D01*
X165163523Y-108421921D01*
X165163524Y-108421922D01*
X165843000Y-107742446D01*
X165843000Y-107748661D01*
X165870259Y-107850394D01*
X165922920Y-107941606D01*
X165997394Y-108016080D01*
X166088606Y-108068741D01*
X166190339Y-108096000D01*
X166196553Y-108096000D01*
X165517076Y-108775474D01*
X165561650Y-108807859D01*
X165743968Y-108900755D01*
X165938582Y-108963990D01*
X166140683Y-108996000D01*
X166345317Y-108996000D01*
X166547417Y-108963990D01*
X166742031Y-108900755D01*
X166924349Y-108807859D01*
X166968921Y-108775474D01*
X166289447Y-108096000D01*
X166295661Y-108096000D01*
X166397394Y-108068741D01*
X166488606Y-108016080D01*
X166563080Y-107941606D01*
X166615741Y-107850394D01*
X166643000Y-107748661D01*
X166643000Y-107742447D01*
X167322474Y-108421921D01*
X167354859Y-108377349D01*
X167447755Y-108195031D01*
X167510990Y-108000417D01*
X167543000Y-107798317D01*
X167543000Y-107593682D01*
X167510990Y-107391582D01*
X167447755Y-107196968D01*
X167354859Y-107014650D01*
X167322474Y-106970077D01*
X167322474Y-106970076D01*
X166643000Y-107649551D01*
X166643000Y-107643339D01*
X166615741Y-107541606D01*
X166563080Y-107450394D01*
X166488606Y-107375920D01*
X166397394Y-107323259D01*
X166295661Y-107296000D01*
X166289446Y-107296000D01*
X166968922Y-106616524D01*
X166968921Y-106616523D01*
X166924359Y-106584147D01*
X166924350Y-106584141D01*
X166831369Y-106536765D01*
X166780573Y-106488790D01*
X166763778Y-106420969D01*
X166786315Y-106354835D01*
X166831370Y-106315795D01*
X166831920Y-106315515D01*
X166924610Y-106268287D01*
X166984657Y-106224661D01*
X167090213Y-106147971D01*
X167090215Y-106147968D01*
X167090219Y-106147966D01*
X167234966Y-106003219D01*
X167234968Y-106003215D01*
X167234971Y-106003213D01*
X167323489Y-105881376D01*
X167355287Y-105837610D01*
X167448220Y-105655219D01*
X167511477Y-105460534D01*
X167543500Y-105258352D01*
X167543500Y-105053648D01*
X167511477Y-104851466D01*
X167507585Y-104839489D01*
X167448218Y-104656776D01*
X167374537Y-104512171D01*
X167355287Y-104474390D01*
X167347556Y-104463749D01*
X167234971Y-104308786D01*
X167090213Y-104164028D01*
X166924614Y-104043715D01*
X166901622Y-104032000D01*
X166831917Y-103996483D01*
X166781123Y-103948511D01*
X166764328Y-103880690D01*
X166786865Y-103814555D01*
X166831917Y-103775516D01*
X166924610Y-103728287D01*
X166984657Y-103684661D01*
X167090213Y-103607971D01*
X167090215Y-103607968D01*
X167090219Y-103607966D01*
X167234966Y-103463219D01*
X167234968Y-103463215D01*
X167234971Y-103463213D01*
X167333511Y-103327582D01*
X167355287Y-103297610D01*
X167448220Y-103115219D01*
X167511477Y-102920534D01*
X167543500Y-102718352D01*
X167543500Y-102525097D01*
X167563185Y-102458058D01*
X167615989Y-102412303D01*
X167685147Y-102402359D01*
X167748703Y-102431384D01*
X167755181Y-102437416D01*
X168146181Y-102828416D01*
X168179666Y-102889739D01*
X168182500Y-102916097D01*
X168182500Y-105323330D01*
X168182499Y-105323348D01*
X168182499Y-105489054D01*
X168182498Y-105489054D01*
X168218233Y-105622419D01*
X168223423Y-105641785D01*
X168241318Y-105672780D01*
X168241319Y-105672782D01*
X168241320Y-105672782D01*
X168265759Y-105715113D01*
X168302479Y-105778714D01*
X168302481Y-105778717D01*
X168421349Y-105897585D01*
X168421355Y-105897590D01*
X177696139Y-115172374D01*
X177696149Y-115172385D01*
X177700479Y-115176715D01*
X177700480Y-115176716D01*
X177812284Y-115288520D01*
X177899095Y-115338639D01*
X177899097Y-115338641D01*
X177937151Y-115360611D01*
X177949215Y-115367577D01*
X178101943Y-115408500D01*
X201081331Y-115408500D01*
X201081347Y-115408501D01*
X201088943Y-115408501D01*
X201247054Y-115408501D01*
X201247057Y-115408501D01*
X201399785Y-115367577D01*
X201449904Y-115338639D01*
X201536716Y-115288520D01*
X201648520Y-115176716D01*
X201648520Y-115176714D01*
X201658728Y-115166507D01*
X201658730Y-115166504D01*
X203050506Y-113774728D01*
X203050511Y-113774724D01*
X203060714Y-113764520D01*
X203060716Y-113764520D01*
X203172520Y-113652716D01*
X203251577Y-113515784D01*
X203292500Y-113363057D01*
X203292500Y-106263101D01*
X203312185Y-106196062D01*
X203360206Y-106152616D01*
X203373610Y-106145787D01*
X203539219Y-106025466D01*
X203683966Y-105880719D01*
X203683968Y-105880715D01*
X203683971Y-105880713D01*
X203804284Y-105715114D01*
X203804285Y-105715113D01*
X203804287Y-105715110D01*
X203851516Y-105622417D01*
X203899489Y-105571623D01*
X203967310Y-105554828D01*
X204033445Y-105577365D01*
X204072485Y-105622419D01*
X204119715Y-105715114D01*
X204240028Y-105880713D01*
X204384786Y-106025471D01*
X204513987Y-106119339D01*
X204550390Y-106145787D01*
X204631499Y-106187114D01*
X204732776Y-106238718D01*
X204732778Y-106238718D01*
X204732781Y-106238720D01*
X204807818Y-106263101D01*
X204927465Y-106301977D01*
X205012940Y-106315515D01*
X205129648Y-106334000D01*
X205129649Y-106334000D01*
X205334351Y-106334000D01*
X205334352Y-106334000D01*
X205536534Y-106301977D01*
X205731219Y-106238720D01*
X205913610Y-106145787D01*
X206009901Y-106075828D01*
X206079213Y-106025471D01*
X206079215Y-106025468D01*
X206079219Y-106025466D01*
X206223966Y-105880719D01*
X206223968Y-105880715D01*
X206223971Y-105880713D01*
X206344284Y-105715114D01*
X206344285Y-105715113D01*
X206344287Y-105715110D01*
X206391516Y-105622417D01*
X206439489Y-105571623D01*
X206507310Y-105554828D01*
X206573445Y-105577365D01*
X206612485Y-105622419D01*
X206659715Y-105715114D01*
X206780028Y-105880713D01*
X206924786Y-106025471D01*
X207053987Y-106119339D01*
X207090390Y-106145787D01*
X207171499Y-106187114D01*
X207272776Y-106238718D01*
X207272778Y-106238718D01*
X207272781Y-106238720D01*
X207347818Y-106263101D01*
X207467465Y-106301977D01*
X207552940Y-106315515D01*
X207669648Y-106334000D01*
X207669649Y-106334000D01*
X207874351Y-106334000D01*
X207874352Y-106334000D01*
X208076534Y-106301977D01*
X208271219Y-106238720D01*
X208453610Y-106145787D01*
X208549901Y-106075828D01*
X208619213Y-106025471D01*
X208619215Y-106025468D01*
X208619219Y-106025466D01*
X208763966Y-105880719D01*
X208763968Y-105880715D01*
X208763971Y-105880713D01*
X208842954Y-105772000D01*
X208884287Y-105715110D01*
X208977220Y-105532719D01*
X209040477Y-105338034D01*
X209072500Y-105135852D01*
X209072500Y-104931148D01*
X209040477Y-104728966D01*
X209036357Y-104716287D01*
X208977218Y-104534276D01*
X208887360Y-104357922D01*
X208884287Y-104351890D01*
X208856478Y-104313614D01*
X208763971Y-104186286D01*
X208619213Y-104041528D01*
X208453613Y-103921215D01*
X208453612Y-103921214D01*
X208453610Y-103921213D01*
X208381512Y-103884477D01*
X208271223Y-103828281D01*
X208076534Y-103765022D01*
X207901995Y-103737378D01*
X207874352Y-103733000D01*
X207669648Y-103733000D01*
X207645329Y-103736851D01*
X207467465Y-103765022D01*
X207272776Y-103828281D01*
X207090386Y-103921215D01*
X206924786Y-104041528D01*
X206780028Y-104186286D01*
X206659715Y-104351886D01*
X206612485Y-104444580D01*
X206564510Y-104495376D01*
X206496689Y-104512171D01*
X206430554Y-104489634D01*
X206391515Y-104444580D01*
X206347360Y-104357922D01*
X206344287Y-104351890D01*
X206316478Y-104313614D01*
X206223971Y-104186286D01*
X206079213Y-104041528D01*
X205913613Y-103921215D01*
X205913612Y-103921214D01*
X205913610Y-103921213D01*
X205841512Y-103884477D01*
X205731223Y-103828281D01*
X205536534Y-103765022D01*
X205361995Y-103737378D01*
X205334352Y-103733000D01*
X205129648Y-103733000D01*
X205105329Y-103736851D01*
X204927465Y-103765022D01*
X204732776Y-103828281D01*
X204550386Y-103921215D01*
X204384786Y-104041528D01*
X204240028Y-104186286D01*
X204119715Y-104351886D01*
X204072485Y-104444580D01*
X204024510Y-104495376D01*
X203956689Y-104512171D01*
X203890554Y-104489634D01*
X203851515Y-104444580D01*
X203807360Y-104357922D01*
X203804287Y-104351890D01*
X203776478Y-104313614D01*
X203683971Y-104186286D01*
X203539213Y-104041528D01*
X203373610Y-103921212D01*
X203360200Y-103914379D01*
X203309406Y-103866403D01*
X203292500Y-103803897D01*
X203292500Y-91023101D01*
X203312185Y-90956062D01*
X203360206Y-90912616D01*
X203373610Y-90905787D01*
X203539219Y-90785466D01*
X203683966Y-90640719D01*
X203683968Y-90640715D01*
X203683971Y-90640713D01*
X203804284Y-90475114D01*
X203804285Y-90475113D01*
X203804287Y-90475110D01*
X203851516Y-90382417D01*
X203899489Y-90331623D01*
X203967310Y-90314828D01*
X204033445Y-90337365D01*
X204072485Y-90382419D01*
X204119715Y-90475114D01*
X204240028Y-90640713D01*
X204384786Y-90785471D01*
X204539749Y-90898056D01*
X204550390Y-90905787D01*
X204646546Y-90954781D01*
X204732776Y-90998718D01*
X204732778Y-90998718D01*
X204732781Y-90998720D01*
X204807818Y-91023101D01*
X204927465Y-91061977D01*
X205012940Y-91075515D01*
X205129648Y-91094000D01*
X205129649Y-91094000D01*
X205334351Y-91094000D01*
X205334352Y-91094000D01*
X205536534Y-91061977D01*
X205731219Y-90998720D01*
X205913610Y-90905787D01*
X206018407Y-90829648D01*
X206079213Y-90785471D01*
X206079215Y-90785468D01*
X206079219Y-90785466D01*
X206223966Y-90640719D01*
X206223968Y-90640715D01*
X206223971Y-90640713D01*
X206344284Y-90475114D01*
X206344285Y-90475113D01*
X206344287Y-90475110D01*
X206391516Y-90382417D01*
X206439489Y-90331623D01*
X206507310Y-90314828D01*
X206573445Y-90337365D01*
X206612485Y-90382419D01*
X206659715Y-90475114D01*
X206780028Y-90640713D01*
X206924786Y-90785471D01*
X207079749Y-90898056D01*
X207090390Y-90905787D01*
X207186546Y-90954781D01*
X207272776Y-90998718D01*
X207272778Y-90998718D01*
X207272781Y-90998720D01*
X207347818Y-91023101D01*
X207467465Y-91061977D01*
X207552940Y-91075515D01*
X207669648Y-91094000D01*
X207669649Y-91094000D01*
X207874351Y-91094000D01*
X207874352Y-91094000D01*
X208076534Y-91061977D01*
X208271219Y-90998720D01*
X208453610Y-90905787D01*
X208558407Y-90829648D01*
X208619213Y-90785471D01*
X208619215Y-90785468D01*
X208619219Y-90785466D01*
X208763966Y-90640719D01*
X208763968Y-90640715D01*
X208763971Y-90640713D01*
X208879676Y-90481456D01*
X208884287Y-90475110D01*
X208977220Y-90292719D01*
X209040477Y-90098034D01*
X209072500Y-89895852D01*
X209072500Y-89691148D01*
X209040477Y-89488966D01*
X208977220Y-89294281D01*
X208977218Y-89294278D01*
X208977218Y-89294276D01*
X208931515Y-89204580D01*
X208884287Y-89111890D01*
X208876556Y-89101249D01*
X208763971Y-88946286D01*
X208619213Y-88801528D01*
X208453613Y-88681215D01*
X208453612Y-88681214D01*
X208453610Y-88681213D01*
X208381512Y-88644477D01*
X208271223Y-88588281D01*
X208076534Y-88525022D01*
X207901995Y-88497378D01*
X207874352Y-88493000D01*
X207669648Y-88493000D01*
X207645329Y-88496851D01*
X207467465Y-88525022D01*
X207272776Y-88588281D01*
X207090386Y-88681215D01*
X206924786Y-88801528D01*
X206780028Y-88946286D01*
X206659715Y-89111886D01*
X206612485Y-89204580D01*
X206564510Y-89255376D01*
X206496689Y-89272171D01*
X206430554Y-89249634D01*
X206391515Y-89204580D01*
X206390883Y-89203340D01*
X206344287Y-89111890D01*
X206336556Y-89101249D01*
X206223971Y-88946286D01*
X206079213Y-88801528D01*
X205913613Y-88681215D01*
X205913612Y-88681214D01*
X205913610Y-88681213D01*
X205841512Y-88644477D01*
X205731223Y-88588281D01*
X205536534Y-88525022D01*
X205361995Y-88497378D01*
X205334352Y-88493000D01*
X205129648Y-88493000D01*
X205105329Y-88496851D01*
X204927465Y-88525022D01*
X204732776Y-88588281D01*
X204550386Y-88681215D01*
X204384786Y-88801528D01*
X204240028Y-88946286D01*
X204119715Y-89111886D01*
X204072485Y-89204580D01*
X204024510Y-89255376D01*
X203956689Y-89272171D01*
X203890554Y-89249634D01*
X203851515Y-89204580D01*
X203850883Y-89203340D01*
X203804287Y-89111890D01*
X203796556Y-89101249D01*
X203683971Y-88946286D01*
X203539213Y-88801528D01*
X203373610Y-88681212D01*
X203360200Y-88674379D01*
X203309406Y-88626403D01*
X203292500Y-88563897D01*
X203292500Y-88185941D01*
X203289305Y-88174016D01*
X203258114Y-88057613D01*
X203251577Y-88033215D01*
X203222639Y-87983095D01*
X203172520Y-87896284D01*
X203060716Y-87784480D01*
X203060715Y-87784479D01*
X203056385Y-87780149D01*
X203056374Y-87780139D01*
X194670590Y-79394355D01*
X194670588Y-79394352D01*
X194551717Y-79275481D01*
X194551716Y-79275480D01*
X194464904Y-79225360D01*
X194464904Y-79225359D01*
X194464900Y-79225358D01*
X194414785Y-79196423D01*
X194262057Y-79155499D01*
X194103943Y-79155499D01*
X194096347Y-79155499D01*
X194096331Y-79155500D01*
X179029669Y-79155500D01*
X179029653Y-79155499D01*
X179022057Y-79155499D01*
X178863943Y-79155499D01*
X178756587Y-79184265D01*
X178711210Y-79196424D01*
X178711209Y-79196425D01*
X178661096Y-79225359D01*
X178661095Y-79225360D01*
X178617689Y-79250420D01*
X178574285Y-79275479D01*
X178574282Y-79275481D01*
X173382479Y-84467284D01*
X173356533Y-84512224D01*
X173345567Y-84531220D01*
X173303423Y-84604215D01*
X173262499Y-84756943D01*
X173262499Y-84756945D01*
X173262499Y-84925046D01*
X173262500Y-84925059D01*
X173262500Y-88686397D01*
X173242815Y-88753436D01*
X173194800Y-88796879D01*
X173181389Y-88803712D01*
X173015786Y-88924028D01*
X172871028Y-89068786D01*
X172750715Y-89234386D01*
X172657781Y-89416776D01*
X172594522Y-89611465D01*
X172562500Y-89813648D01*
X172562500Y-90018351D01*
X172594522Y-90220534D01*
X172657781Y-90415223D01*
X172750715Y-90597613D01*
X172871028Y-90763213D01*
X173015786Y-90907971D01*
X173140691Y-90998718D01*
X173181390Y-91028287D01*
X173260931Y-91068815D01*
X173274080Y-91075515D01*
X173324876Y-91123490D01*
X173341671Y-91191311D01*
X173319134Y-91257446D01*
X173274080Y-91296485D01*
X173181386Y-91343715D01*
X173015786Y-91464028D01*
X172871028Y-91608786D01*
X172750715Y-91774386D01*
X172657781Y-91956776D01*
X172594522Y-92151465D01*
X172562500Y-92353648D01*
X172562500Y-92558351D01*
X172594522Y-92760534D01*
X172657781Y-92955223D01*
X172700722Y-93039498D01*
X172740948Y-93118446D01*
X172750715Y-93137613D01*
X172871028Y-93303213D01*
X173015786Y-93447971D01*
X173116922Y-93521449D01*
X173181390Y-93568287D01*
X173272840Y-93614883D01*
X173274080Y-93615515D01*
X173324876Y-93663490D01*
X173341671Y-93731311D01*
X173319134Y-93797446D01*
X173274080Y-93836485D01*
X173181386Y-93883715D01*
X173015786Y-94004028D01*
X172871028Y-94148786D01*
X172750715Y-94314386D01*
X172657781Y-94496776D01*
X172594522Y-94691465D01*
X172562500Y-94893648D01*
X172562500Y-95098351D01*
X172594522Y-95300534D01*
X172657781Y-95495223D01*
X172704349Y-95586616D01*
X172740948Y-95658446D01*
X172750715Y-95677613D01*
X172871028Y-95843213D01*
X173015786Y-95987971D01*
X173121343Y-96064661D01*
X173181390Y-96108287D01*
X173272840Y-96154883D01*
X173274080Y-96155515D01*
X173324876Y-96203490D01*
X173341671Y-96271311D01*
X173319134Y-96337446D01*
X173274080Y-96376485D01*
X173181386Y-96423715D01*
X173015786Y-96544028D01*
X172871028Y-96688786D01*
X172750715Y-96854386D01*
X172657781Y-97036776D01*
X172594522Y-97231465D01*
X172562500Y-97433648D01*
X172562500Y-97638351D01*
X172594522Y-97840534D01*
X172657781Y-98035223D01*
X172750715Y-98217613D01*
X172871028Y-98383213D01*
X173015786Y-98527971D01*
X173170749Y-98640556D01*
X173181390Y-98648287D01*
X173272840Y-98694883D01*
X173274080Y-98695515D01*
X173324876Y-98743490D01*
X173341671Y-98811311D01*
X173319134Y-98877446D01*
X173274080Y-98916485D01*
X173181386Y-98963715D01*
X173015786Y-99084028D01*
X172871028Y-99228786D01*
X172750715Y-99394386D01*
X172657781Y-99576776D01*
X172594522Y-99771465D01*
X172562500Y-99973648D01*
X172562500Y-100178351D01*
X172594522Y-100380534D01*
X172657781Y-100575223D01*
X172717283Y-100692000D01*
X172740948Y-100738446D01*
X172750715Y-100757613D01*
X172871028Y-100923213D01*
X173015786Y-101067971D01*
X173121343Y-101144661D01*
X173181390Y-101188287D01*
X173272840Y-101234883D01*
X173274080Y-101235515D01*
X173324876Y-101283490D01*
X173341671Y-101351311D01*
X173319134Y-101417446D01*
X173274080Y-101456485D01*
X173181386Y-101503715D01*
X173015786Y-101624028D01*
X172871028Y-101768786D01*
X172750715Y-101934386D01*
X172657781Y-102116776D01*
X172594522Y-102311465D01*
X172562500Y-102513648D01*
X172562500Y-102718351D01*
X172594522Y-102920534D01*
X172657781Y-103115223D01*
X172717283Y-103232000D01*
X172740948Y-103278446D01*
X172750715Y-103297613D01*
X172871028Y-103463213D01*
X173015786Y-103607971D01*
X173121343Y-103684661D01*
X173181390Y-103728287D01*
X173272840Y-103774883D01*
X173274080Y-103775515D01*
X173324876Y-103823490D01*
X173341671Y-103891311D01*
X173319134Y-103957446D01*
X173274080Y-103996485D01*
X173181386Y-104043715D01*
X173015786Y-104164028D01*
X172871028Y-104308786D01*
X172750715Y-104474386D01*
X172657781Y-104656776D01*
X172594522Y-104851465D01*
X172562500Y-105053648D01*
X172562500Y-105258351D01*
X172594522Y-105460534D01*
X172657781Y-105655223D01*
X172688298Y-105715114D01*
X172740948Y-105818446D01*
X172750715Y-105837613D01*
X172871028Y-106003213D01*
X173015786Y-106147971D01*
X173121343Y-106224661D01*
X173181390Y-106268287D01*
X173272840Y-106314883D01*
X173274080Y-106315515D01*
X173324876Y-106363490D01*
X173341671Y-106431311D01*
X173319134Y-106497446D01*
X173274080Y-106536485D01*
X173181386Y-106583715D01*
X173015786Y-106704028D01*
X172871028Y-106848786D01*
X172750715Y-107014386D01*
X172657781Y-107196776D01*
X172594522Y-107391465D01*
X172562500Y-107593648D01*
X172562500Y-107798351D01*
X172594523Y-108000535D01*
X172594523Y-108000538D01*
X172613843Y-108059997D01*
X172615838Y-108129838D01*
X172579758Y-108189671D01*
X172517057Y-108220499D01*
X172447642Y-108212534D01*
X172408231Y-108185996D01*
X169419819Y-105197584D01*
X169386334Y-105136261D01*
X169383500Y-105109903D01*
X169383500Y-102536942D01*
X169380303Y-102525013D01*
X169380302Y-102525009D01*
X169346479Y-102398779D01*
X169346479Y-102398778D01*
X169342578Y-102384219D01*
X169342577Y-102384218D01*
X169342577Y-102384216D01*
X169288664Y-102290835D01*
X169263521Y-102247285D01*
X169147385Y-102131149D01*
X169147374Y-102131139D01*
X167537077Y-100520842D01*
X167503592Y-100459519D01*
X167506828Y-100394841D01*
X167506942Y-100394490D01*
X167511477Y-100380534D01*
X167543500Y-100178352D01*
X167543500Y-99973648D01*
X167526863Y-99868610D01*
X167511477Y-99771465D01*
X167448218Y-99576776D01*
X167384461Y-99451648D01*
X167355287Y-99394390D01*
X167324643Y-99352212D01*
X167234971Y-99228786D01*
X167090213Y-99084028D01*
X166924614Y-98963715D01*
X166867321Y-98934523D01*
X166831917Y-98916483D01*
X166781123Y-98868511D01*
X166764328Y-98800690D01*
X166786865Y-98734555D01*
X166831917Y-98695516D01*
X166924610Y-98648287D01*
X166945770Y-98632913D01*
X167090213Y-98527971D01*
X167090215Y-98527968D01*
X167090219Y-98527966D01*
X167234966Y-98383219D01*
X167234968Y-98383215D01*
X167234971Y-98383213D01*
X167287732Y-98310590D01*
X167355287Y-98217610D01*
X167448220Y-98035219D01*
X167511477Y-97840534D01*
X167543500Y-97638352D01*
X167543500Y-97433648D01*
X167520322Y-97287311D01*
X167511477Y-97231465D01*
X167448218Y-97036776D01*
X167376353Y-96895735D01*
X167355287Y-96854390D01*
X167319040Y-96804500D01*
X167234971Y-96688786D01*
X167090213Y-96544028D01*
X166924614Y-96423715D01*
X166881556Y-96401776D01*
X166831917Y-96376483D01*
X166781123Y-96328511D01*
X166764328Y-96260690D01*
X166786865Y-96194555D01*
X166831917Y-96155516D01*
X166924610Y-96108287D01*
X166999632Y-96053781D01*
X167090213Y-95987971D01*
X167090215Y-95987968D01*
X167090219Y-95987966D01*
X167234966Y-95843219D01*
X167234968Y-95843215D01*
X167234971Y-95843213D01*
X167324446Y-95720059D01*
X167355287Y-95677610D01*
X167448220Y-95495219D01*
X167511477Y-95300534D01*
X167543500Y-95098352D01*
X167543500Y-94893648D01*
X167536980Y-94852485D01*
X167511477Y-94691465D01*
X167465991Y-94551474D01*
X167448220Y-94496781D01*
X167448218Y-94496778D01*
X167448218Y-94496776D01*
X167414503Y-94430607D01*
X167355287Y-94314390D01*
X167347556Y-94303749D01*
X167234971Y-94148786D01*
X167090213Y-94004028D01*
X166924614Y-93883715D01*
X166901622Y-93872000D01*
X166831917Y-93836483D01*
X166781123Y-93788511D01*
X166764328Y-93720690D01*
X166786865Y-93654555D01*
X166831917Y-93615516D01*
X166924610Y-93568287D01*
X166989078Y-93521449D01*
X167090213Y-93447971D01*
X167090215Y-93447968D01*
X167090219Y-93447966D01*
X167234966Y-93303219D01*
X167234968Y-93303215D01*
X167234971Y-93303213D01*
X167333511Y-93167582D01*
X167355287Y-93137610D01*
X167448220Y-92955219D01*
X167511477Y-92760534D01*
X167543500Y-92558352D01*
X167543500Y-92353648D01*
X167524312Y-92232499D01*
X167511477Y-92151465D01*
X167448218Y-91956776D01*
X167414503Y-91890607D01*
X167355287Y-91774390D01*
X167343767Y-91758534D01*
X167234971Y-91608786D01*
X167090219Y-91464034D01*
X167045058Y-91431223D01*
X166996547Y-91395978D01*
X166953882Y-91340649D01*
X166947903Y-91271036D01*
X166980508Y-91209240D01*
X167030426Y-91177955D01*
X167112334Y-91150814D01*
X167261656Y-91058712D01*
X167385712Y-90934656D01*
X167477814Y-90785334D01*
X167532999Y-90618797D01*
X167543500Y-90516009D01*
X167543499Y-89315992D01*
X167536720Y-89249634D01*
X167532999Y-89213203D01*
X167532998Y-89213200D01*
X167499427Y-89111890D01*
X167477814Y-89046666D01*
X167385712Y-88897344D01*
X167261656Y-88773288D01*
X167168888Y-88716069D01*
X167112336Y-88681187D01*
X167112331Y-88681185D01*
X167110862Y-88680698D01*
X166945797Y-88626001D01*
X166945795Y-88626000D01*
X166843010Y-88615500D01*
X165642998Y-88615500D01*
X165642981Y-88615501D01*
X165540203Y-88626000D01*
X165540200Y-88626001D01*
X165373668Y-88681185D01*
X165373663Y-88681187D01*
X165224342Y-88773289D01*
X165100289Y-88897342D01*
X165008187Y-89046663D01*
X165008186Y-89046666D01*
X164953001Y-89213203D01*
X164953001Y-89213204D01*
X164953000Y-89213204D01*
X164942500Y-89315983D01*
X164942500Y-89680901D01*
X164922815Y-89747940D01*
X164906181Y-89768582D01*
X159524286Y-95150478D01*
X159412481Y-95262282D01*
X159412477Y-95262287D01*
X159373161Y-95330386D01*
X159363858Y-95346500D01*
X159333423Y-95399215D01*
X159292499Y-95551943D01*
X159292499Y-95551945D01*
X159292499Y-95720046D01*
X159292500Y-95720059D01*
X159292500Y-101299903D01*
X159272815Y-101366942D01*
X159256181Y-101387584D01*
X157648584Y-102995181D01*
X157587261Y-103028666D01*
X157560903Y-103031500D01*
X157058602Y-103031500D01*
X156991563Y-103011815D01*
X156948117Y-102963795D01*
X156941284Y-102950385D01*
X156820971Y-102784786D01*
X156676213Y-102640028D01*
X156510611Y-102519713D01*
X156417369Y-102472203D01*
X156366574Y-102424229D01*
X156349779Y-102356407D01*
X156372317Y-102290273D01*
X156417371Y-102251234D01*
X156510346Y-102203861D01*
X156510347Y-102203861D01*
X156554921Y-102171474D01*
X155875447Y-101492000D01*
X155881661Y-101492000D01*
X155983394Y-101464741D01*
X156074606Y-101412080D01*
X156149080Y-101337606D01*
X156201741Y-101246394D01*
X156229000Y-101144661D01*
X156229000Y-101138448D01*
X156908474Y-101817922D01*
X156908474Y-101817921D01*
X156940859Y-101773349D01*
X157033755Y-101591031D01*
X157096990Y-101396417D01*
X157129000Y-101194317D01*
X157129000Y-100989682D01*
X157096990Y-100787582D01*
X157033755Y-100592968D01*
X156940859Y-100410650D01*
X156908474Y-100366077D01*
X156908474Y-100366076D01*
X156229000Y-101045551D01*
X156229000Y-101039339D01*
X156201741Y-100937606D01*
X156149080Y-100846394D01*
X156074606Y-100771920D01*
X155983394Y-100719259D01*
X155881661Y-100692000D01*
X155875446Y-100692000D01*
X156554922Y-100012524D01*
X156554921Y-100012523D01*
X156510359Y-99980147D01*
X156510350Y-99980141D01*
X156417369Y-99932765D01*
X156366573Y-99884790D01*
X156349778Y-99816969D01*
X156372315Y-99750835D01*
X156417370Y-99711795D01*
X156417920Y-99711515D01*
X156510610Y-99664287D01*
X156631060Y-99576776D01*
X156676213Y-99543971D01*
X156676215Y-99543968D01*
X156676219Y-99543966D01*
X156820966Y-99399219D01*
X156820968Y-99399215D01*
X156820971Y-99399213D01*
X156909107Y-99277902D01*
X156941287Y-99233610D01*
X157034220Y-99051219D01*
X157097477Y-98856534D01*
X157129500Y-98654352D01*
X157129500Y-98449648D01*
X157112099Y-98339786D01*
X157097477Y-98247465D01*
X157051583Y-98106218D01*
X157034220Y-98052781D01*
X157034218Y-98052778D01*
X157034218Y-98052776D01*
X156967742Y-97922311D01*
X156941287Y-97870390D01*
X156928086Y-97852220D01*
X156820971Y-97704786D01*
X156676213Y-97560028D01*
X156510614Y-97439715D01*
X156498707Y-97433648D01*
X156417917Y-97392483D01*
X156367123Y-97344511D01*
X156350328Y-97276690D01*
X156372865Y-97210555D01*
X156417917Y-97171516D01*
X156510610Y-97124287D01*
X156631060Y-97036776D01*
X156676213Y-97003971D01*
X156676215Y-97003968D01*
X156676219Y-97003966D01*
X156820966Y-96859219D01*
X156820968Y-96859215D01*
X156820971Y-96859213D01*
X156900790Y-96749350D01*
X156941287Y-96693610D01*
X157034220Y-96511219D01*
X157097477Y-96316534D01*
X157129500Y-96114352D01*
X157129500Y-95909648D01*
X157112099Y-95799786D01*
X157097477Y-95707465D01*
X157046945Y-95551945D01*
X157034220Y-95512781D01*
X157034218Y-95512778D01*
X157034218Y-95512776D01*
X156994689Y-95435198D01*
X156941287Y-95330390D01*
X156928086Y-95312220D01*
X156820971Y-95164786D01*
X156676213Y-95020028D01*
X156510614Y-94899715D01*
X156498707Y-94893648D01*
X156417917Y-94852483D01*
X156367123Y-94804511D01*
X156350328Y-94736690D01*
X156372865Y-94670555D01*
X156417917Y-94631516D01*
X156510610Y-94584287D01*
X156555774Y-94551474D01*
X156676213Y-94463971D01*
X156676215Y-94463968D01*
X156676219Y-94463966D01*
X156820966Y-94319219D01*
X156820968Y-94319215D01*
X156820971Y-94319213D01*
X156905040Y-94203500D01*
X156941287Y-94153610D01*
X157034220Y-93971219D01*
X157097477Y-93776534D01*
X157129500Y-93574352D01*
X157129500Y-93369648D01*
X157112099Y-93259786D01*
X157097477Y-93167465D01*
X157053815Y-93033089D01*
X157034220Y-92972781D01*
X157034218Y-92972778D01*
X157034218Y-92972776D01*
X156980145Y-92866653D01*
X156941287Y-92790390D01*
X156909092Y-92746077D01*
X156820971Y-92624786D01*
X156676213Y-92480028D01*
X156510614Y-92359715D01*
X156498707Y-92353648D01*
X156417917Y-92312483D01*
X156367123Y-92264511D01*
X156350328Y-92196690D01*
X156372865Y-92130555D01*
X156417917Y-92091516D01*
X156510610Y-92044287D01*
X156631060Y-91956776D01*
X156676213Y-91923971D01*
X156676215Y-91923968D01*
X156676219Y-91923966D01*
X156820966Y-91779219D01*
X156820968Y-91779215D01*
X156820971Y-91779213D01*
X156925892Y-91634799D01*
X156941287Y-91613610D01*
X157034220Y-91431219D01*
X157097477Y-91236534D01*
X157129500Y-91034352D01*
X157129500Y-90829648D01*
X157097477Y-90627466D01*
X157094660Y-90618797D01*
X157047975Y-90475114D01*
X157034220Y-90432781D01*
X157034218Y-90432778D01*
X157034218Y-90432776D01*
X156982865Y-90331991D01*
X156941287Y-90250390D01*
X156894159Y-90185523D01*
X156820971Y-90084786D01*
X156676213Y-89940028D01*
X156510613Y-89819715D01*
X156510612Y-89819714D01*
X156510610Y-89819713D01*
X156450898Y-89789288D01*
X156328223Y-89726781D01*
X156133534Y-89663522D01*
X155958995Y-89635878D01*
X155931352Y-89631500D01*
X155726648Y-89631500D01*
X155702329Y-89635351D01*
X155524465Y-89663522D01*
X155329776Y-89726781D01*
X155147386Y-89819715D01*
X154981786Y-89940028D01*
X154837028Y-90084786D01*
X154716715Y-90250386D01*
X154623781Y-90432776D01*
X154560522Y-90627465D01*
X154528500Y-90829648D01*
X149509499Y-90829648D01*
X149509499Y-90331992D01*
X149498999Y-90229203D01*
X149443814Y-90062666D01*
X149351712Y-89913344D01*
X149227656Y-89789288D01*
X149078334Y-89697186D01*
X148911797Y-89642001D01*
X148911795Y-89642000D01*
X148809010Y-89631500D01*
X147608998Y-89631500D01*
X147608981Y-89631501D01*
X147506203Y-89642000D01*
X147506200Y-89642001D01*
X147339668Y-89697185D01*
X147339663Y-89697187D01*
X147190342Y-89789289D01*
X147066289Y-89913342D01*
X146974187Y-90062663D01*
X146974185Y-90062668D01*
X146962466Y-90098034D01*
X146919001Y-90229203D01*
X146919001Y-90229204D01*
X146919000Y-90229204D01*
X146908500Y-90331983D01*
X116000000Y-90331983D01*
X116000000Y-86638648D01*
X137383500Y-86638648D01*
X137383500Y-86843351D01*
X137415522Y-87045534D01*
X137478781Y-87240223D01*
X137571715Y-87422613D01*
X137692028Y-87588213D01*
X137836786Y-87732971D01*
X137991749Y-87845556D01*
X138002390Y-87853287D01*
X138118607Y-87912503D01*
X138184776Y-87946218D01*
X138184778Y-87946218D01*
X138184781Y-87946220D01*
X138289137Y-87980127D01*
X138379465Y-88009477D01*
X138480557Y-88025488D01*
X138581648Y-88041500D01*
X138581649Y-88041500D01*
X138786351Y-88041500D01*
X138786352Y-88041500D01*
X138988534Y-88009477D01*
X139183219Y-87946220D01*
X139365610Y-87853287D01*
X139458590Y-87785732D01*
X139531213Y-87732971D01*
X139531215Y-87732968D01*
X139531219Y-87732966D01*
X139675966Y-87588219D01*
X139675968Y-87588215D01*
X139675971Y-87588213D01*
X139755789Y-87478351D01*
X139796287Y-87422610D01*
X139889220Y-87240219D01*
X139952477Y-87045534D01*
X139984500Y-86843352D01*
X139984500Y-86638648D01*
X139967099Y-86528786D01*
X139952477Y-86436465D01*
X139923127Y-86346137D01*
X139889220Y-86241781D01*
X139889218Y-86241778D01*
X139889218Y-86241776D01*
X139853043Y-86170780D01*
X139796287Y-86059390D01*
X139788556Y-86048749D01*
X139675971Y-85893786D01*
X139531213Y-85749028D01*
X139365613Y-85628715D01*
X139365612Y-85628714D01*
X139365610Y-85628713D01*
X139308653Y-85599691D01*
X139183223Y-85535781D01*
X138988534Y-85472522D01*
X138813995Y-85444878D01*
X138786352Y-85440500D01*
X138581648Y-85440500D01*
X138557329Y-85444351D01*
X138379465Y-85472522D01*
X138184776Y-85535781D01*
X138002386Y-85628715D01*
X137836786Y-85749028D01*
X137692028Y-85893786D01*
X137571715Y-86059386D01*
X137478781Y-86241776D01*
X137415522Y-86436465D01*
X137383500Y-86638648D01*
X116000000Y-86638648D01*
X116000000Y-77124000D01*
X116019685Y-77056961D01*
X116072489Y-77011206D01*
X116124000Y-77000000D01*
X212876000Y-77000000D01*
X212943039Y-77019685D01*
G37*
%TD.AperFunction*%
%TD*%
M02*
